<svg width="24" height="21" viewBox="0 0 24 21" fill="none" xmlns="http://www.w3.org/2000/svg">
<g clip-path="url(#clip0_3238_4895)">
<path d="M0 9.09366V7.73969C0.807822 0.0605211 10.9065 -2.53891 16.0307 2.84954C22.2623 3.45762 26.3628 10.4202 22.4939 15.8005L23.8842 20.1855C23.9568 20.816 23.343 21.1934 22.7942 20.8977L18.7545 18.8515C18.2614 18.9525 17.7915 19.1796 17.2934 19.3037C13.9445 20.1375 10.3546 19.2082 7.95119 16.7379C7.03887 16.6144 6.1422 16.3893 5.29808 16.0244L1.15636 18.1118C0.597575 18.395 -0.00876027 17.9584 0.106375 17.3454L1.48799 12.9997C0.850372 12.1147 0.394212 11.0975 0.163942 10.0279C0.104497 9.75163 0.0212749 9.36745 0.000625733 9.09366H0ZM13.7705 2.83769C10.2376 0.285663 4.74181 1.21056 2.41596 4.94256C1.04497 7.14284 1.10379 9.63937 2.41596 11.844C2.5849 12.1278 2.986 12.5382 2.99288 12.8562L2.01424 16.0962L5.19797 14.5276C5.42386 14.4678 6.61025 15.0921 6.69785 15.0222C5.7824 13.3558 5.4833 11.4287 5.87751 9.56016C6.66218 5.84063 10.0599 3.2306 13.7699 2.83769H13.7705ZM21.967 18.897L20.9815 15.654C20.9902 15.3509 21.4007 14.9199 21.5653 14.6449C24.6996 9.40363 20.061 3.91913 14.4501 4.19229C9.33657 4.44113 5.25491 9.49343 7.95432 14.3536C9.91099 17.8773 14.2336 18.907 17.9047 17.626C18.2708 17.4982 18.6356 17.1795 19.0336 17.4096L21.9664 18.8977L21.967 18.897Z" fill="#292960"/>
<path d="M11.8379 10.5056C12.953 10.3254 12.973 12.0217 11.878 11.8908C11.1033 11.7985 11.0908 10.626 11.8379 10.5056Z" fill="#292960"/>
<path d="M14.6485 10.5056C15.7635 10.3254 15.7836 12.0217 14.6885 11.8908C13.9139 11.7985 13.9013 10.626 14.6485 10.5056Z" fill="#292960"/>
<path d="M17.459 10.5056C18.5741 10.3254 18.5941 12.0217 17.4991 11.8908C16.7244 11.7985 16.7119 10.626 17.459 10.5056Z" fill="#292960"/>
</g>
<defs>
<clipPath id="clip0_3238_4895">
<rect width="24" height="21" fill="white"/>
</clipPath>
</defs>
</svg>
