<svg width="70" height="70" viewBox="0 0 70 70" fill="none" xmlns="http://www.w3.org/2000/svg">
<g clip-path="url(#clip0_3326_2859)">
<path d="M26.5288 0C27.4723 0.241105 28.4692 0.263024 29.4265 0.450703C46.8166 3.8481 54.9769 24.3914 44.7145 38.8782L47.7751 41.9715C48.5434 41.2098 49.4513 40.044 50.5811 40.9427L68.4066 58.7886C69.2776 59.7859 69.6336 60.9627 69.976 62.2079C69.9212 62.8162 70.0513 63.5313 69.976 64.1217C69.3104 69.3274 62.6606 71.9042 58.7016 68.363L40.9377 50.591C40.0667 49.5019 41.2129 48.5129 41.9647 47.7827L38.9589 44.7661C38.7138 44.6415 37.5662 45.5785 37.228 45.7744C18.6478 56.5145 -3.61735 40.6975 0.49772 19.683C2.54361 9.23461 11.8186 0.854828 22.4863 0.126032L22.704 0H26.5302H26.5288ZM23.7694 2.77408C6.70524 3.51658 -3.03124 22.6269 6.55187 36.8782C15.1189 49.6184 34.1043 49.6225 42.6823 36.8782C52.3955 22.4461 42.3276 3.36862 25.2306 2.73709L23.7694 2.77545V2.77408ZM42.8754 41.1646L41.1582 42.9811L43.949 45.8004L45.7909 43.9565L42.874 41.1633L42.8754 41.1646ZM49.706 44.0346L44.0271 49.717L47.7738 53.5925L53.5773 47.7841L49.7046 44.0346H49.706ZM55.563 49.7704L49.7594 55.5789L60.2135 66.0341C64.4627 69.6835 69.6884 64.1833 65.8828 60.0873L55.5643 49.7704H55.563Z" fill="#1582AC"/>
<path d="M22.9488 5.5098C38.1684 4.28099 48.8046 20.4638 41.355 33.9109C34.104 47.0005 15.0939 47.0292 7.87572 33.9109C1.22999 21.8296 9.21501 6.61807 22.9488 5.5098ZM23.7691 8.24416C10.8966 8.95925 3.80448 23.6133 11.3102 34.1671C18.0217 43.6031 32.3265 43.1414 38.4724 33.3506C45.5084 22.1406 36.9304 7.51399 23.7691 8.24553V8.24416Z" fill="#1582AC"/>
<path d="M14.054 21.5611C13.4282 22.2625 12.0259 22.1008 11.7123 21.1857C11.3809 20.2186 12.4833 18.1774 13.027 17.3198C14.7141 14.6567 17.483 12.4648 20.5176 11.5538C21.9076 11.1374 26.2198 9.96199 25.9939 12.5114C25.8679 13.9375 23.8357 13.6608 22.81 13.8471C19.7973 14.3937 16.9558 16.191 15.3509 18.824C14.9428 19.4939 14.4238 21.1487 14.0554 21.5611H14.054Z" fill="#1582AC"/>
<path d="M12.0065 24.7761C14.1044 24.2912 14.3797 27.2283 12.6255 27.4557C10.8713 27.6831 10.5399 25.1145 12.0065 24.7761Z" fill="#1582AC"/>
</g>
<defs>
<clipPath id="clip0_3326_2859">
<rect width="70" height="70" fill="white"/>
</clipPath>
</defs>
</svg>
