<svg width="259" height="260" viewBox="0 0 259 260" fill="none" xmlns="http://www.w3.org/2000/svg">
<g opacity="0.05" clip-path="url(#clip0_2891_4008)">
<path d="M168.358 39.4358C168.666 41.2579 167.661 46.6996 168.95 47.6676C169.55 48.1231 180.701 50.8643 183.077 51.7672C232.895 70.5815 258.83 126.829 240.097 177.269C250.007 185.118 257.808 196.596 258.83 209.594C262.739 259.578 200.018 278.856 174.067 237.413C135.441 247.686 94.7624 233.004 70.8144 201.509L36.0562 201.061C32.6095 199.28 31.1903 195.083 33.3232 191.683C33.753 190.991 36.3643 188.608 36.9401 188.608H62.7371L56.89 175.902C47.1259 175.057 36.2184 176.748 26.5921 175.846C21.8804 175.406 18.8798 172.641 19.6664 167.638C19.9746 165.678 22.9671 162.424 24.7918 162.424H53.6299L51.7809 149.67H6.54492C1.09519 149.719 -1.72699 143.74 1.13574 139.307C1.525 138.705 3.67408 136.85 4.14444 136.85H51.7971L53.6218 123.453H23.5753C22.2697 123.453 19.9097 120.346 19.6664 118.858C18.9609 114.522 20.8829 111.195 25.3838 110.658C35.0587 109.503 46.9394 111.529 56.8576 110.699L62.729 97.8878H37.5403C37.3213 97.8878 34.5883 96.1796 34.1747 95.7892C29.7793 91.6164 33.1286 85.1579 38.7405 84.4827C48.829 83.2708 60.9206 85.6785 71.2199 84.1818C84.3577 67.6857 101.023 56.0376 121.151 49.636C122.733 49.1317 128.207 48.2126 128.912 47.6839C130.202 46.7159 129.196 41.266 129.504 39.4521H120.705C116.651 39.4521 110.52 35.263 107.949 32.1558C98.2496 20.4019 105.581 1.6039 120.681 0.465114C139.269 -0.942094 159.6 1.57136 178.374 0.489517C194.723 3.80012 200.27 24.4934 186.856 35.1817C184.796 36.8248 179.679 39.4602 177.157 39.4602H168.358V39.4358ZM122.06 13.3984C115.077 14.6673 114.826 24.6479 121.954 25.9982C138.741 24.591 158.975 28.0073 175.349 26.0551C183.223 25.1116 182.996 14.407 175.276 13.3089L122.052 13.3984H122.06ZM155.61 39.4358H142.253V45.5283H155.61V39.4358ZM168.358 220.575C168.09 217.753 168.553 214.605 168.358 211.75C117.34 226.44 69.5331 182.491 78.6971 130.034C83.198 104.265 103.48 81.8798 128.442 74.5916C186.021 57.7783 235.766 113.44 215.711 169.127L228.402 170.9C244.103 125.178 217.852 74.3151 171.269 61.7885C108.07 44.7962 50.7834 102.305 67.7652 165.605C79.5486 209.529 125.539 235.998 169.575 225.138C169.761 224.992 168.431 221.299 168.358 220.575ZM171.845 196.978C175.616 188.039 181.893 180.515 190.254 175.561C197.796 171.095 199.872 173.234 203.416 163.799C227.908 98.6524 137.371 53.4347 100.107 111.325C68.7951 159.96 119.294 218.826 171.837 196.97L171.845 196.978ZM213.578 182.255C167.166 182.255 173.905 255.886 220.577 246.173C257.614 238.47 252.375 182.255 213.578 182.255Z" fill="#292960"/>
<path d="M5.52319 162.545C12.2056 161.577 16.0901 170.63 10.1133 174.502C0.754678 180.57 -4.27335 163.968 5.52319 162.545Z" fill="#292960"/>
<path d="M4.89879 110.811C13.8357 108.989 15.5063 121.589 8.85633 123.306C-1.24027 125.908 -2.773 112.373 4.89879 110.811Z" fill="#292960"/>
<path d="M155.739 140.989C158.424 141.99 159.608 144.788 161.351 146.634C164.474 149.929 174.74 158.087 175.008 162.203C175.324 167.067 169.948 170.793 165.471 168.662L144.361 147.83L142.537 144.788L142.253 97.5853C143.218 89.1177 153.834 88.8411 155.569 97.0159L155.739 140.997V140.989Z" fill="#292960"/>
<path d="M212.053 216.613C214.332 212.326 219.936 196.904 224.169 195.578C229.335 193.959 234.185 197.863 233.041 203.232C227.956 211.431 224.623 222.534 219.474 230.433C216.895 234.394 213.764 235.459 209.685 232.71C207.739 231.401 197.058 220.72 195.68 218.752C191.527 212.838 196.726 206.339 203.003 208.365C204.795 208.942 211.575 216.979 212.069 216.613H212.053Z" fill="#292960"/>
</g>
<defs>
<clipPath id="clip0_2891_4008">
<rect width="259" height="260" fill="white"/>
</clipPath>
</defs>
</svg>
