<svg width="259" height="258" viewBox="0 0 259 258" fill="none" xmlns="http://www.w3.org/2000/svg">
<g opacity="0.05" clip-path="url(#clip0_2891_4015)">
<path d="M0.133595 119.481C4.86609 47.0569 70.9639 -6.33475 142.919 0.604807C161.864 2.4318 180.369 8.99284 196.588 18.6678C204.183 13.6512 214.307 -5.35564 222.419 10.0376L224.552 34.3538L248.944 36.4886C264.408 44.5385 245.331 54.6576 240.29 62.223C273.893 117.199 261.074 188.917 211.145 229.277C190.999 245.558 164.59 256.404 138.627 257.999H120.432C117.706 257.207 114.514 257.303 111.661 256.919C56.3965 249.52 10.8957 205.647 1.79554 150.817C1.12671 146.785 1.04564 142.606 0.133595 138.624C0.437609 132.35 -0.271758 125.714 0.133595 119.481ZM176.026 56.0102C176.508 55.4752 174.663 44.6192 175.367 41.9999C176.619 37.3516 182.745 34.1468 185.131 30.5736C185.511 30.0083 185.912 30.2354 185.116 29.5793C183.064 27.8937 174.972 24.5223 172.12 23.3867C68.5064 -17.9781 -27.2936 99.2625 34.2947 191.97C99.374 289.931 254.371 235.727 243.249 118.224C241.754 102.452 236.763 86.7966 228.849 73.1496C224.902 76.3948 220.291 83.7634 214.697 83.7583C212.999 83.7583 203.377 82.219 202.82 82.7136C203.768 85.661 205.977 88.341 207.304 91.0814C248.417 175.784 142.453 255.627 72.4029 193.787C-0.357902 129.549 72.7018 12.8184 162.376 49.217C167.119 51.1399 171.415 53.8552 176.026 56.0052V56.0102ZM208.88 29.3169C208.003 29.0898 207.872 29.6803 207.365 30.0689C201.715 34.3891 196.243 41.9746 190.781 46.8046L192.2 66.5937L212.057 68.0118L229.599 50.721C229.811 49.5653 229.087 50.0397 228.342 49.9791C223.807 49.6056 214.95 49.9185 211.89 46.7238C208.485 43.1708 209.594 34.1064 208.875 29.327L208.88 29.3169ZM125.377 58.1753C70.9233 61.5417 39.6707 122.66 70.1785 168.295C98.4519 210.583 160.998 210.457 189.073 167.992C205.799 142.692 204.502 108.029 184.873 84.7324L163.511 106.126C182.664 134.899 160.293 172.559 125.742 169.844C106.746 168.35 90.0915 151.786 88.5917 132.82C85.8657 98.3743 123.67 76.1021 152.531 95.1846L173.999 73.8966C160.866 62.7529 142.625 57.1104 125.382 58.1753H125.377ZM141.151 105.884C113.359 93.0952 89.5037 129.908 113.617 149.187C134.999 166.281 164.388 141.783 152.774 117.467C151.903 117.245 151.766 117.83 151.259 118.219C146.446 121.923 137.264 134.137 132.679 135.974C125.114 139.002 118.958 131.063 123.234 124.543C126.796 119.112 136.104 112.94 140.401 107.398C140.791 106.894 141.379 106.757 141.156 105.889L141.151 105.884Z" fill="#292960"/>
</g>
<defs>
<clipPath id="clip0_2891_4015">
<rect width="259" height="258" fill="white"/>
</clipPath>
</defs>
</svg>
