<svg width="726" height="826" viewBox="0 0 726 826" fill="none" xmlns="http://www.w3.org/2000/svg">
<g opacity="0.15" clip-path="url(#clip0_3004_2987)">
<path d="M614.991 807.284L557.528 1045.88C554.364 1059.14 541.014 1067.31 527.764 1064.04C513.419 1060.69 505.129 1044.95 510.576 1031.17L600.199 798.263C605.097 801.304 609.995 804.344 614.991 807.284Z" fill="#292561"/>
<path d="M557.787 768.499L460 1011.33C454.746 1024.4 439.79 1030.8 426.72 1025.44C412.355 1019.8 406.336 1002.25 414.075 989.053L545.673 758.759C549.679 762.106 553.684 765.353 557.787 768.499Z" fill="#292561"/>
<path d="M508.394 724.872L369.411 963.286C362.066 975.981 345.799 980.201 333.109 972.853C320.42 965.505 316.201 949.231 323.546 936.536C324.036 935.637 324.723 934.636 325.412 933.835C325.412 933.835 325.508 933.535 325.608 933.535L498.465 714.815C501.676 718.268 504.986 721.62 508.296 724.973L508.394 724.872Z" fill="#292561"/>
<path d="M466.524 677.401L287.466 903.137C278.026 915.055 260.745 916.996 248.932 907.551C235.819 897.323 235.047 877.24 247.177 865.995L458.78 667.225C461.296 670.684 463.91 674.042 466.524 677.401Z" fill="#292561"/>
<path d="M431.686 626.984L214.967 831.865C203.628 842.606 185.63 842.167 174.794 830.725C162.855 818.298 165.06 797.592 179.29 787.821L425.733 616.892C427.651 620.256 429.669 623.62 431.685 626.885L431.686 626.984Z" fill="#292561"/>
<path d="M403.688 574.219L153.316 750.553C140.076 759.918 121.756 756.697 112.494 743.451C103.133 730.206 106.353 711.878 119.593 702.613C120.681 701.907 121.867 701.2 122.956 700.594C122.956 700.594 122.956 700.594 123.055 700.593L123.154 700.592L123.451 700.391L399.229 564.512C400.65 567.782 402.07 571.051 403.59 574.32L403.688 574.219Z" fill="#292561"/>
<path d="M382.133 519.608L103.515 660.386C88.57 667.975 70.4242 661.968 62.8374 647.017C54.343 630.581 63.1096 609.918 80.7577 604.492L379.067 509.988C380.089 513.162 381.112 516.435 382.133 519.608Z" fill="#292561"/>
<path d="M367.027 463.151L67.0689 562.344C50.713 567.758 33.039 558.863 27.627 542.5C21.405 524.454 33.6586 504.655 52.4228 501.805L364.954 453.423C365.578 456.6 366.203 459.877 366.827 463.054L367.027 463.151Z" fill="#292561"/>
<path d="M358.263 404.549L45.3768 457.808C27.9057 460.745 11.3009 449.056 8.26418 431.479C4.71482 412.116 20.3612 393.779 40.0462 393.905L357.381 394.612C357.608 397.892 357.935 401.171 358.163 404.55L358.263 404.549Z" fill="#292561"/>
<path d="M356.45 333.654C356.282 337.137 356.213 340.618 356.144 344.1L39.7572 349.452C21.4682 349.811 6.42861 335.223 6.16921 316.926C5.59334 296.542 24.4399 280.366 44.4509 283.671L356.55 333.654L356.45 333.654Z" fill="#292561"/>
<path d="M362.39 273.831C361.827 277.615 361.262 281.299 360.699 285.084L50.263 243.342C31.6506 240.819 18.5774 223.728 21.0987 205.108C23.7004 184.299 45.4514 170.583 65.2932 177.272L362.39 273.831Z" fill="#292561"/>
<path d="M375.1 215.34C373.943 219.427 372.885 223.514 371.828 227.701L76.1195 142.07C57.5813 136.663 46.8738 117.263 52.2788 98.7175C58.0615 77.881 82.4249 67.3247 101.599 77.202L375.199 215.239L375.1 215.34Z" fill="#292561"/>
<path d="M394.779 157.981C392.929 162.473 391.081 167.064 389.431 171.653L116.047 47.04C97.9818 38.8438 90.0412 17.5305 98.2339 -0.542351C107.301 -20.9103 133.683 -28.0034 151.692 -14.9334L394.779 157.981Z" fill="#292561"/>
<path d="M421.728 101.952C418.988 106.949 416.248 111.945 413.608 117.041L168.868 -40.3444C151.772 -51.3338 146.8 -74.1648 157.785 -91.2676C169.943 -110.668 197.949 -113.897 214.293 -97.9278L421.727 101.853L421.728 101.952Z" fill="#292561"/>
<path d="M456.249 47.9443C452.32 53.3492 448.491 58.8527 444.761 64.3553L233.396 -118.881C217.669 -132.568 215.969 -156.422 229.551 -172.155C244.802 -190.19 273.839 -189.251 288.02 -170.478L456.248 47.8449L456.249 47.9443Z" fill="#292561"/>
<path d="M498.946 -3.3492C493.528 2.36708 488.31 8.18106 483.094 14.1939L308.651 -187.267C294.691 -203.456 296.366 -227.936 312.547 -241.902C330.699 -257.973 360.171 -252.761 371.69 -231.479L498.847 -3.24889L498.946 -3.3492Z" fill="#292561"/>
</g>
<defs>
<clipPath id="clip0_3004_2987">
<rect width="1451.28" height="1478.23" fill="white" transform="translate(0 -377.312) rotate(-0.500951)"/>
</clipPath>
</defs>
</svg>
