<svg width="23" height="26" viewBox="0 0 23 26" fill="none" xmlns="http://www.w3.org/2000/svg">
<g clip-path="url(#clip0_3238_4886)">
<path d="M14.7595 0C15.0153 0.128889 15.2544 0.290159 15.3108 0.594921C15.3711 0.92127 15.3628 2.06032 15.323 2.40825C15.2179 3.32064 13.8927 3.32064 13.7875 2.40825C13.7471 2.06032 13.7394 0.92127 13.7997 0.594921C13.8555 0.290159 14.0953 0.128889 14.3511 0H14.7607L14.7595 0Z" fill="#292960"/>
<path d="M16.4991 12.2676H21.0292C21.2825 12.2676 21.912 12.5889 22.1255 12.7534C23.1603 13.5553 23.2885 15.0632 22.4454 16.053C23.1603 16.9724 23.2077 18.1876 22.4454 19.0949C23.511 20.3915 22.9795 22.3934 21.3113 22.8124C21.8537 24.2302 20.9414 25.7394 19.438 25.9495C15.3521 25.8454 11.1477 26.387 7.20677 25.0956C6.70542 25.5299 6.27075 25.8905 5.57001 25.954C4.00825 26.0962 2.24006 25.8492 0.656502 25.9546C0.348125 25.9235 0.103861 25.7261 0 25.4391V11.2619C0.104502 10.9737 0.349408 10.7775 0.656502 10.7464C2.2439 10.8746 4.11404 10.5724 5.66746 10.7521C6.43679 10.841 7.14523 11.4365 7.46386 12.1146C8.43259 11.5305 9.50004 11.1051 10.4745 10.5337C11.5965 9.87463 12.0485 9.36161 12.419 8.09939C12.6755 7.22574 12.7466 5.85748 13.0755 5.10002C13.2775 4.63526 13.6487 4.58574 14.1186 4.61367C15.5066 4.69494 16.8286 5.74256 17.3434 6.99653C18.0891 8.81304 17.2293 10.6086 16.4997 12.2676H16.4991ZM14.8553 12.2619C15.3707 10.681 16.8152 8.64225 15.599 7.05113C15.3137 6.67844 14.8521 6.36796 14.4007 6.2359C14.0436 7.99717 13.7974 9.92923 12.3254 11.1521C11.0163 12.2403 9.08139 12.8105 7.66902 13.7902L7.64978 23.6181C11.3644 24.8378 15.3323 24.3299 19.1866 24.4359C19.7399 24.3775 20.1175 23.8092 19.8188 23.3026C19.4675 22.707 18.5507 23.1216 18.4051 22.3203C18.1698 21.0251 20.0066 21.474 20.7221 21.3946C21.3998 21.3197 21.7325 20.5432 21.1837 20.0753C20.5105 19.5007 18.4866 20.4295 18.391 19.1883C18.2872 17.827 20.3541 18.6118 21.0388 18.2619C21.5645 17.9934 21.6011 17.2822 21.1029 16.9616C20.4349 16.5311 18.543 17.3337 18.3962 16.194C18.2122 14.7641 20.4041 15.5889 21.0722 15.2029C21.7428 14.8149 21.4825 13.8753 20.7215 13.7908L13.5769 13.7692C13.0249 13.6175 12.8229 12.9153 13.2224 12.4988C13.6218 12.0822 14.3539 12.3349 14.854 12.2638L14.8553 12.2619ZM1.50085 24.4346H5.46807C5.7149 24.4346 6.13419 23.973 6.1079 23.7L6.08482 12.874C6.06815 12.6511 5.6713 12.2683 5.46743 12.2683H1.50085V24.4353V24.4346Z" fill="#292960"/>
<path d="M9.83252 1.78512C10.0204 1.75845 10.196 1.80099 10.3544 1.90321C10.4897 1.99083 11.602 3.08734 11.6879 3.21877C12.1226 3.87972 11.3327 4.70068 10.6461 4.30131C10.5095 4.22195 9.41002 3.13369 9.31129 2.98702C8.9965 2.52036 9.28757 1.86258 9.83316 1.78512H9.83252Z" fill="#292960"/>
<path d="M19.0464 1.78543C19.7183 1.68955 20.1985 2.4667 19.751 3.04321C19.5977 3.24003 18.6797 4.1613 18.4931 4.28194C17.8417 4.70289 17.0378 3.98162 17.3808 3.28194C17.4289 3.18352 18.5944 2.01717 18.7252 1.92638C18.8149 1.86416 18.9387 1.8013 19.0457 1.78543H19.0464Z" fill="#292960"/>
<path d="M3.637 21.4052C4.70831 21.2141 4.90128 22.7367 3.97167 22.9024C2.90036 23.0935 2.70739 21.5709 3.637 21.4052Z" fill="#292960"/>
</g>
<defs>
<clipPath id="clip0_3238_4886">
<rect width="23" height="26" fill="white"/>
</clipPath>
</defs>
</svg>
