<svg width="88" height="89" viewBox="0 0 88 89" fill="none" xmlns="http://www.w3.org/2000/svg">
<path d="M51.3677 3.41696L49.6834 13.2722C49.5867 13.2811 49.49 13.29 49.3933 13.3002L50.8652 3.33688C50.9225 3.00511 51.4161 3.07883 51.3677 3.41696Z" fill="white"/>
<path d="M57.6662 4.96142L54.8866 13.2277C54.7568 13.2176 54.627 13.2099 54.4973 13.201L57.076 4.77202C57.2057 4.38177 57.7884 4.56355 57.6662 4.96142Z" fill="white"/>
<path d="M63.5576 7.40457L60.1189 14.0565C59.9574 14.0158 59.7958 13.9777 59.633 13.9408L62.9012 7.08043C63.1225 6.6457 63.7713 6.96094 63.5576 7.40457Z" fill="white"/>
<path d="M68.9529 10.6625L65.2318 15.7967C65.0435 15.7128 64.854 15.6327 64.6644 15.5539L68.2595 10.1808C68.5852 9.72061 69.2734 10.1935 68.9529 10.6625Z" fill="white"/>
<path d="M73.7769 14.6552L70.0571 18.4471C69.8522 18.3098 69.6462 18.1751 69.4375 18.0429L73.0797 14.0006C73.5212 13.5366 74.2158 14.1811 73.7769 14.6552Z" fill="white"/>
<path d="M77.9572 19.3051L74.427 21.9707C74.2196 21.7712 74.0097 21.5741 73.7973 21.3809L77.2944 18.47C77.8618 18.0276 78.5208 18.8488 77.9572 19.3051Z" fill="white"/>
<path d="M81.4239 24.541L78.1722 26.3066C77.9801 26.0384 77.7842 25.774 77.5845 25.5122L80.8336 23.5215C81.5269 23.1275 82.1146 24.1342 81.4239 24.541Z" fill="white"/>
<path d="M84.0967 30.2879L81.1249 31.3607C80.9684 31.0239 80.8069 30.6908 80.6377 30.3616L83.6234 29.0879C84.4427 28.7739 84.9134 29.9574 84.0967 30.2879Z" fill="white"/>
<path d="M85.8968 36.4631L83.1171 37.0047C83.0191 36.6068 82.9123 36.2127 82.7978 35.8212L85.5864 35.0967C86.5176 34.8907 86.8306 36.2432 85.8968 36.4631Z" fill="white"/>
<path d="M86.7441 42.9664L84.0051 43.0655C83.9835 42.6219 83.9529 42.1795 83.9135 41.7397L86.6385 41.4575C87.6702 41.3901 87.7796 42.8876 86.7441 42.9664Z" fill="white"/>
<path d="M86.5736 49.6171L83.6972 49.2688C83.7672 48.8022 83.827 48.3332 83.8753 47.8603L86.711 47.9976C87.8203 48.0968 87.6893 49.7048 86.5736 49.6171Z" fill="white"/>
<path d="M85.4019 56.03L82.2355 55.1338C82.4009 54.6661 82.5561 54.1945 82.6999 53.7165L85.8116 54.3432C86.9705 54.6279 86.5685 56.3058 85.4019 56.03Z" fill="white"/>
<path d="M83.3041 62.0731L79.7599 60.4524C80.0207 60.0074 80.27 59.5562 80.5079 59.0986L84.0038 60.3621C85.1831 60.8489 84.4911 62.551 83.3041 62.0731Z" fill="white"/>
<path d="M81.7661 67.2962C81.4977 67.8022 80.84 67.9687 80.3642 67.6534L76.4497 65.0921C76.7945 64.6929 77.1278 64.2849 77.4496 63.8679L81.3654 65.9692C81.8437 66.2247 82.0218 66.8196 81.7661 67.2962Z" fill="white"/>
<path d="M78.1887 72.5359C77.83 73.0253 77.1138 73.0978 76.6634 72.6936L72.4793 68.9653C72.8927 68.6297 73.296 68.2814 73.6904 67.9242L77.9699 71.0856C78.4317 71.4262 78.5284 72.0745 78.1887 72.5359Z" fill="white"/>
<path d="M73.899 77.1897C73.4512 77.6473 72.6892 77.6155 72.2808 77.121L68.0216 72.0135C68.4834 71.7529 68.9388 71.4809 69.3854 71.1974L73.8901 75.6439C74.3188 76.0685 74.3239 76.76 73.899 77.1897Z" fill="white"/>
<path d="M68.9669 81.1861C68.43 81.5967 67.6387 81.4455 67.2902 80.8671L63.2345 74.2088C63.7243 74.0321 64.2103 73.844 64.6886 73.6431L69.1895 79.5769C69.5724 80.0828 69.4732 80.8023 68.9669 81.1861Z" fill="white"/>
<path d="M63.4584 84.4479C62.8376 84.795 62.0361 84.5153 61.7651 83.8594L58.2756 75.5461C58.773 75.4558 59.2653 75.3528 59.7538 75.2384L63.9329 82.812C64.2535 83.3941 64.0423 84.1276 63.4584 84.4479Z" fill="white"/>
<path d="M57.4474 86.8949C56.749 87.1606 55.9602 86.7436 55.7821 86.0191L53.2887 76.0558C53.7708 76.0456 54.2504 76.024 54.7275 75.9909L58.189 85.2729C58.432 85.9263 58.1 86.6521 57.4474 86.8949Z" fill="white"/>
<path d="M51.0179 88.4393C50.2533 88.6046 49.5002 88.0478 49.4341 87.2686L48.3922 75.7914C48.8374 75.8511 49.2852 75.9007 49.7368 75.9401L52.0369 86.8796C52.1857 87.5915 51.7303 88.2894 51.0179 88.4393Z" fill="white"/>
<path d="M44.2742 88.9974C43.4574 89.0482 42.7679 88.3504 42.8265 87.5368L43.6661 74.7922C44.0655 74.9105 44.4688 75.0198 44.8759 75.1215L45.5692 87.5495C45.6112 88.3071 45.0311 88.9554 44.2742 88.9974Z" fill="white"/>
<path d="M40.3902 73.6291L39.0837 87.2356C39.0087 88.0211 38.3102 88.597 37.524 88.5207C36.673 88.4457 36.0725 87.6144 36.2659 86.7843L39.342 73.1677C39.688 73.3279 40.0378 73.483 40.3902 73.6291Z" fill="white"/>
<path d="M36.4465 71.6411L32.859 85.9746C32.6593 86.7703 31.8527 87.2546 31.0564 87.0551C30.1913 86.8466 29.7028 85.8932 30.0348 85.0682L35.5624 71.0932C35.8537 71.2813 36.1488 71.4631 36.4465 71.6411Z" fill="white"/>
<path d="M33.0168 69.2742L26.9918 83.839C26.6662 84.6259 25.7642 84.9996 24.9767 84.6742C24.1167 84.3272 23.7618 83.2696 24.2338 82.4738L32.2891 68.6805C32.5283 68.8826 32.7713 69.0809 33.0168 69.2742Z" fill="white"/>
<path d="M30.0654 66.6213L21.5648 80.9027C21.1132 81.6603 20.1323 81.9094 19.3728 81.4582C18.6146 81.0069 18.3653 80.0269 18.8169 79.2692C18.8487 79.2133 18.8894 79.1561 18.9289 79.1053C18.9289 79.1053 18.9289 79.1053 18.9301 79.1053L18.9327 79.1015C18.9327 79.1015 18.9416 79.09 18.9454 79.0849L29.4789 66.0086C29.6723 66.2158 29.8669 66.4204 30.0654 66.6225V66.6213Z" fill="white"/>
<path d="M27.5643 63.7421L16.6517 77.2367C16.0779 77.9473 15.036 78.0566 14.3249 77.4833C13.5412 76.8617 13.5031 75.6528 14.2422 74.9816L27.1025 63.1269C27.2539 63.3341 27.4078 63.5387 27.5643 63.7421Z" fill="white"/>
<path d="M25.4907 60.6888L12.3213 72.9084C11.6292 73.5516 10.5466 73.5109 9.90287 72.8194C9.19046 72.0656 9.33421 70.8174 10.1942 70.2415L25.1383 60.0825C25.2528 60.2858 25.3711 60.488 25.4907 60.6888Z" fill="white"/>
<path d="M23.8279 57.4995L8.64338 67.9839C7.84064 68.5382 6.73895 68.3373 6.18429 67.534C5.62962 66.7319 5.83063 65.6323 6.63336 65.0768C6.69697 65.0336 6.76948 64.9917 6.83691 64.9561C6.83691 64.9561 6.83818 64.9561 6.84327 64.9522C6.84327 64.9522 6.84454 64.9522 6.84581 64.951L6.85472 64.9459L6.87125 64.9383L23.5684 56.9058C23.6524 57.1054 23.7389 57.3024 23.8279 57.4995Z" fill="white"/>
<path d="M22.5608 54.197L5.69196 62.5243C4.78873 62.9705 3.69466 62.6006 3.24814 61.6981C2.7469 60.7066 3.28376 59.4659 4.34856 59.1482L22.3802 53.6148C22.4387 53.8093 22.4985 54.0038 22.5608 54.197Z" fill="white"/>
<path d="M21.6793 50.7903L3.5484 56.6046C2.55866 56.9211 1.50022 56.377 1.18345 55.3893C0.820882 54.2974 1.5651 53.1114 2.70241 52.9551L21.5686 50.2081C21.6029 50.4026 21.6398 50.5971 21.6793 50.7903Z" fill="white"/>
<path d="M21.1806 47.2616L2.29531 50.3047C1.23941 50.4751 0.244579 49.7569 0.074109 48.7018C-0.126893 47.5323 0.822141 46.4353 2.0078 46.4582L21.136 46.6654C21.1488 46.865 21.164 47.0633 21.1806 47.2616Z" fill="white"/>
<path d="M21.1106 42.9905C21.1004 43.199 21.0915 43.4087 21.0852 43.6172L2.01036 43.7748C0.908663 43.785 0.00924368 42.9003 0.000338537 41.7994C-0.0225604 40.5741 1.11984 39.6054 2.32585 39.819L21.1106 42.9905Z" fill="white"/>
<path d="M21.4999 39.3932C21.4617 39.6182 21.4274 39.8432 21.3943 40.0694L2.70242 37.3936C1.58164 37.2335 0.803078 36.1962 0.96337 35.0763C1.13002 33.823 2.44926 33.0132 3.64382 33.4238L21.4999 39.3932Z" fill="white"/>
<path d="M22.2975 35.8784C22.225 36.125 22.1576 36.3716 22.0927 36.6208L4.31296 31.3086C3.19727 30.9756 2.56373 29.8023 2.89704 28.6888C3.25833 27.4367 4.73022 26.8151 5.88153 27.4214L22.2975 35.8784Z" fill="white"/>
<path d="M23.5112 32.4361C23.3967 32.7082 23.286 32.9815 23.1804 33.2573L6.76951 25.61C5.68563 25.1067 5.21747 23.8203 5.72252 22.7385C6.27718 21.5157 7.87375 21.1051 8.95127 21.9008L23.5112 32.4361Z" fill="white"/>
<path d="M25.165 29.0777C24.9946 29.3765 24.8292 29.679 24.6689 29.9841L9.99957 20.3792C8.97421 19.7081 8.6867 18.3327 9.35967 17.3081C10.1039 16.145 11.7933 15.9658 12.7691 16.9395L25.165 29.0777Z" fill="white"/>
<path d="M27.2794 25.8414C27.0389 26.1643 26.8036 26.4922 26.5758 26.8253L13.9344 15.6861C12.9917 14.8548 12.9014 13.4171 13.7321 12.4752C14.6608 11.3985 16.41 11.4684 17.2547 12.6074L27.2794 25.8414Z" fill="white"/>
<path d="M29.8796 22.7766C29.5514 23.1173 29.2295 23.4656 28.9166 23.8215L18.509 11.5981C17.6745 10.618 17.7928 9.14604 18.7736 8.31217C19.8753 7.35245 21.6475 7.68549 22.3331 8.97063L29.8796 22.7766Z" fill="white"/>
<path d="M32.9939 19.9509C32.5588 20.2953 32.1326 20.6513 31.7167 21.0199L23.6613 8.19014C22.9591 7.0728 23.2975 5.59953 24.4157 4.89785C25.6777 4.08559 27.4307 4.69066 27.9307 6.10164L32.9939 19.9509Z" fill="white"/>
<path d="M36.6539 17.4441C36.0929 17.7734 35.5421 18.1191 35.0039 18.4801L29.325 5.53979C28.7818 4.30296 29.3453 2.86147 30.5832 2.31868C31.9864 1.68311 33.6771 2.56656 33.9646 4.07542L36.6539 17.4441Z" fill="white"/>
<path d="M40.8877 15.3747C40.1842 15.6544 39.4934 15.9594 38.8166 16.2887L35.425 3.73094C35.0637 2.39623 35.8537 1.02338 37.1895 0.663644C38.524 0.303908 39.8979 1.09329 40.2592 2.42673C40.305 2.59707 40.3317 2.77884 40.3419 2.94791V2.96825L40.8877 15.3747Z" fill="white"/>
<path d="M46.9584 2.84875L45.7117 13.8887C44.8581 14.0769 44.0172 14.3006 43.1916 14.5573L41.8698 2.84875C41.7108 1.44413 42.7221 0.178056 44.1266 0.019162C45.7372 -0.182951 47.1569 1.24455 46.9584 2.84875Z" fill="white"/>
<path d="M53.6653 40.7444C53.6653 41.7448 53.608 42.4897 53.4961 42.9778C53.3829 43.4647 53.1895 43.7964 52.9134 43.9719C52.6386 44.1473 52.2379 44.2337 51.7125 44.2337C51.5497 44.2337 51.3868 44.2312 51.224 44.2299V37.072C51.4047 37.0682 51.5802 37.0669 51.7494 37.0669C52.2506 37.0669 52.6323 37.1674 52.8956 37.3669C53.1577 37.5678 53.3511 37.9301 53.477 38.455C53.6017 38.9813 53.6653 39.744 53.6653 40.7444Z" fill="white"/>
<path d="M80.1975 46.1379L46.9432 65.3222C45.3148 66.2615 43.2793 65.087 43.2793 63.2082V55.9423H51.224V48.9128C51.7443 48.9205 52.2328 48.9255 52.6883 48.9255C55.9425 48.9255 58.3659 48.1056 59.9561 46.4671C61.5451 44.8286 62.3402 42.721 62.3402 40.1444C62.3402 38.4932 62.0526 37.086 61.4764 35.9229C60.9001 34.7585 59.8238 33.8344 58.2463 33.1454C56.6689 32.4577 54.4413 32.1133 51.5624 32.1133C49.7089 32.1133 47.5805 32.1641 45.1774 32.2633C44.7767 32.2633 44.1444 32.2861 43.2793 32.3294V24.841C43.2793 22.9622 45.3148 21.7877 46.9432 22.7271L80.1975 41.91C81.8259 42.8507 81.8259 45.1985 80.1975 46.1379Z" fill="white"/>
<path d="M28.9726 56.0173C27.708 55.7427 26.4499 55.3296 25.1981 54.7792L25.9486 49.2255C27.2004 49.6514 28.3645 49.9755 29.4407 50.2005C30.517 50.4255 31.4685 50.5386 32.2955 50.5386C33.0219 50.5386 33.5536 50.4331 33.892 50.2196C34.2304 50.0073 34.3996 49.6514 34.3996 49.1505C34.3996 48.801 34.2991 48.4997 34.0994 48.2505C33.8984 48.0014 33.574 47.7319 33.1236 47.4434C32.6733 47.1561 31.9596 46.7493 30.9826 46.2243C29.7804 45.5735 28.7983 44.9366 28.035 44.3112C27.2704 43.6858 26.6827 42.9727 26.2705 42.1719C25.857 41.3711 25.6509 40.4329 25.6509 39.3576C25.6509 37.9822 26.0135 36.725 26.7399 35.586C27.4663 34.4484 28.5667 33.5408 30.045 32.8658C31.522 32.1908 33.3374 31.8527 35.4899 31.8527C36.692 31.8527 37.8612 31.9658 39.001 32.1908C40.1396 32.4158 41.1599 32.7158 42.0619 33.0908L41.1981 38.8326C40.3711 38.5326 39.5073 38.3012 38.6067 38.1385C37.706 37.9758 36.8663 37.8945 36.0903 37.8945C35.3894 37.8945 34.8385 38.0063 34.4378 38.2326C34.037 38.4576 33.8373 38.8211 33.8373 39.3207C33.8373 39.6207 33.9429 39.8965 34.1566 40.1469C34.3691 40.3974 34.7698 40.6846 35.3588 41.0101C35.9466 41.3355 36.8422 41.774 38.0444 42.3232C39.6218 43.0236 40.8291 43.8676 41.6688 44.8566C42.5071 45.8455 42.9269 47.1396 42.9269 48.7399C42.9269 51.2416 42.0568 53.1496 40.3164 54.4627C38.5761 55.7758 36.2163 56.433 33.2369 56.433C31.6594 56.433 30.2384 56.2957 28.9738 56.0198L28.9726 56.0173Z" fill="white"/>
</svg>
