<svg width="637" height="981" viewBox="0 0 637 981" fill="none" xmlns="http://www.w3.org/2000/svg">
<g opacity="0.05" clip-path="url(#clip0_1636_5647)">
<path d="M632.719 -79.973L613.052 41.6825C611.873 41.7666 610.694 41.9245 609.515 42.0824L626.588 -80.8789C627.29 -84.9443 633.347 -84.1116 632.793 -79.9737L632.719 -79.973Z" fill="#292561"/>
<path d="M637.604 968.019C628.18 970.168 618.899 963.386 618.003 953.725L603.93 812.363C609.395 813.054 614.933 813.596 620.47 814.064L649.976 948.648C651.897 957.414 646.366 966.024 637.603 967.946L637.604 968.019Z" fill="#292561"/>
<path d="M554.674 975.608C544.646 976.286 536.088 967.8 536.664 957.757L545.618 800.548C550.574 801.98 555.528 803.265 560.555 804.476L570.452 957.61C571.05 966.978 563.964 975.01 554.674 975.608Z" fill="#292561"/>
<path d="M505.214 786.583L490.598 954.396C489.723 964.072 481.228 971.232 471.557 970.431C461.073 969.563 453.607 959.443 455.878 949.164L492.254 781.013C496.55 782.968 500.846 784.85 505.214 786.583Z" fill="#292561"/>
<path d="M456.387 762.506L413.744 939.569C411.395 949.406 401.489 955.471 391.656 953.047C381.01 950.557 374.858 938.876 378.901 928.655L445.41 755.812C449.045 758.069 452.679 760.325 456.387 762.506Z" fill="#292561"/>
<path d="M413.934 733.724L341.365 913.927C337.466 923.63 326.368 928.376 316.669 924.402C306.008 920.214 301.542 907.19 307.284 897.397L404.944 726.496C407.916 728.979 410.888 731.389 413.934 733.724Z" fill="#292561"/>
<path d="M377.282 701.349L274.142 878.277C268.691 887.698 256.619 890.829 247.202 885.376C237.785 879.923 234.655 867.846 240.105 858.425C240.468 857.758 240.978 857.015 241.49 856.421C241.49 856.421 241.561 856.198 241.635 856.198L369.913 693.886C372.296 696.448 374.752 698.936 377.208 701.424L377.282 701.349Z" fill="#292561"/>
<path d="M346.21 666.12L213.33 833.639C206.325 842.483 193.501 843.924 184.734 836.915C175.003 829.325 174.43 814.421 183.431 806.076L340.463 658.569C342.33 661.135 344.27 663.628 346.21 666.12Z" fill="#292561"/>
<path d="M320.356 628.706L159.528 780.748C151.113 788.719 137.757 788.393 129.715 779.902C120.855 770.68 122.492 755.314 133.052 748.063L315.938 621.216C317.361 623.713 318.858 626.209 320.355 628.632L320.356 628.706Z" fill="#292561"/>
<path d="M299.577 589.549L113.775 720.407C103.95 727.357 90.3547 724.966 83.4814 715.136C76.5344 705.307 78.9238 691.706 88.7495 684.83C89.5565 684.306 90.4372 683.782 91.2448 683.332C91.2448 683.332 91.2448 683.332 91.3186 683.331L91.3923 683.331L91.6124 683.181L296.268 582.345C297.322 584.772 298.376 587.198 299.504 589.624L299.577 589.549Z" fill="#292561"/>
<path d="M283.581 549.022L76.8179 653.493C65.7272 659.125 52.2611 654.667 46.631 643.572C40.3273 631.375 46.8329 616.041 59.9297 612.015L281.305 541.883C282.064 544.238 282.823 546.667 283.581 549.022Z" fill="#292561"/>
<path d="M272.371 507.125L49.7718 580.736C37.634 584.754 24.5181 578.153 20.5019 566.01C15.8845 552.618 24.9779 537.925 38.9029 535.81L270.833 499.906C271.296 502.263 271.76 504.695 272.223 507.053L272.371 507.125Z" fill="#292561"/>
<path d="M265.867 463.637L33.6737 503.16C20.7084 505.34 8.3859 496.665 6.13237 483.621C3.49839 469.252 15.1096 455.644 29.7179 455.738L265.212 456.262C265.381 458.696 265.624 461.13 265.793 463.638L265.867 463.637Z" fill="#292561"/>
<path d="M264.521 411.026C264.396 413.61 264.345 416.193 264.293 418.777L29.5024 422.749C15.9301 423.015 4.7692 412.19 4.5767 398.611C4.14935 383.485 18.1354 371.48 32.9856 373.933L264.595 411.025L264.521 411.026Z" fill="#292561"/>
<path d="M268.931 366.63C268.513 369.438 268.095 372.173 267.676 374.981L37.3014 344.004C23.4891 342.132 13.7875 329.449 15.6586 315.631C17.5893 300.189 33.7308 290.01 48.4554 294.974L268.931 366.63Z" fill="#292561"/>
<path d="M278.364 323.224C277.505 326.257 276.72 329.29 275.936 332.397L56.4899 268.85C42.7327 264.838 34.7866 250.441 38.7977 236.678C43.089 221.215 61.1691 213.382 75.398 220.712L278.437 323.149L278.364 323.224Z" fill="#292561"/>
<path d="M292.966 280.658C291.593 283.991 290.221 287.398 288.997 290.804L86.1188 198.328C72.7123 192.246 66.8196 176.429 72.8994 163.018C79.6283 147.902 99.2065 142.639 112.571 152.338L292.966 280.658Z" fill="#292561"/>
<path d="M312.966 239.078C310.932 242.786 308.899 246.494 306.94 250.276L125.318 133.48C112.631 125.325 108.942 108.382 117.093 95.6898C126.116 81.2927 146.899 78.8968 159.028 90.7472L312.965 239.005L312.966 239.078Z" fill="#292561"/>
<path d="M338.584 199C335.668 203.011 332.826 207.095 330.058 211.178L173.204 75.198C161.533 65.0411 160.271 47.3388 170.35 35.6633C181.668 22.2794 203.217 22.9766 213.741 36.9076L338.583 198.926L338.584 199Z" fill="#292561"/>
<path d="M370.267 160.934C366.246 165.176 362.374 169.491 358.503 173.953L229.049 24.4483C218.689 12.4348 219.932 -5.73219 231.94 -16.0961C245.41 -28.0227 267.282 -24.1547 275.83 -8.3613L370.194 161.009L370.267 160.934Z" fill="#292561"/>
<path d="M408.323 125.765C402.975 130.093 397.776 134.493 392.726 139.113L292.197 -18.1728C283.445 -31.8979 287.418 -50.0887 301.137 -58.8439C316.615 -69.0167 338.22 -61.7513 344.569 -44.3888L408.397 125.765L408.323 125.765Z" fill="#292561"/>
<path d="M453.126 94.4492C446.227 98.5688 439.477 102.909 432.951 107.394L361.623 -51.4756C354.776 -66.6935 361.556 -84.466 376.767 -91.3153C393.961 -99.289 414.859 -88.6223 418.562 -70.0558L453.126 94.4492Z" fill="#292561"/>
<path d="M504.987 68.5329C496.386 72.077 487.862 75.9156 479.561 80.0474L436.455 -74.3454C431.885 -90.764 441.474 -107.749 457.812 -112.32C474.224 -116.892 491.203 -107.298 495.772 -90.9536C496.38 -88.8923 496.695 -86.6071 496.861 -84.542L496.863 -84.3206L504.913 68.5336L504.987 68.5329Z" fill="#292561"/>
<path d="M578.365 -86.5094L564.211 49.7113C553.755 52.0907 543.378 54.986 533.226 58.2484L515.661 -85.9611C513.517 -103.287 525.848 -118.967 543.167 -121.112C562.989 -123.794 580.626 -106.309 578.365 -86.5094Z" fill="#292561"/>
</g>
<defs>
<clipPath id="clip0_1636_5647">
<rect width="1077" height="1097" fill="white" transform="translate(0 -116.584) rotate(-0.500951)"/>
</clipPath>
</defs>
</svg>
