<svg width="22" height="22" viewBox="0 0 22 22" fill="none" xmlns="http://www.w3.org/2000/svg">
<path d="M20.7167 22C18.1704 22 15.6546 21.4449 13.1694 20.3347C10.6843 19.2245 8.42315 17.6509 6.38611 15.6139C4.34907 13.5769 2.77546 11.3157 1.66528 8.83055C0.555093 6.34537 0 3.82963 0 1.28333C0 0.916667 0.122222 0.611111 0.366667 0.366667C0.611111 0.122222 0.916667 0 1.28333 0H6.23333C6.51852 0 6.77315 0.0967592 6.99722 0.290278C7.2213 0.483796 7.3537 0.712963 7.39444 0.977778L8.18889 5.25556C8.22963 5.58148 8.21944 5.85648 8.15833 6.08056C8.09722 6.30463 7.98519 6.49815 7.82222 6.66111L4.85833 9.65556C5.26574 10.4093 5.74954 11.1375 6.30972 11.8403C6.86991 12.5431 7.48611 13.2204 8.15833 13.8722C8.78981 14.5037 9.45185 15.0894 10.1444 15.6292C10.837 16.169 11.5704 16.663 12.3444 17.1111L15.2167 14.2389C15.4 14.0556 15.6394 13.9181 15.9347 13.8264C16.2301 13.7347 16.5204 13.7093 16.8056 13.75L21.0222 14.6056C21.3074 14.687 21.5417 14.8347 21.725 15.0486C21.9083 15.2625 22 15.5019 22 15.7667V20.7167C22 21.0833 21.8778 21.3889 21.6333 21.6333C21.3889 21.8778 21.0833 22 20.7167 22ZM3.69722 7.33333L5.71389 5.31667L5.19444 2.44444H2.475C2.57685 3.27963 2.71944 4.10463 2.90278 4.91944C3.08611 5.73426 3.35093 6.53889 3.69722 7.33333ZM14.6361 18.2722C15.4306 18.6185 16.2403 18.8935 17.0653 19.0972C17.8903 19.3009 18.7204 19.4333 19.5556 19.4944V16.8056L16.6833 16.225L14.6361 18.2722Z" fill="white"/>
</svg>
