<svg width="279" height="298" viewBox="0 0 279 298" fill="none" xmlns="http://www.w3.org/2000/svg">
<path d="M125.418 279.321L13.5914 297.307C7.33902 298.313 1.44824 294.069 0.438827 287.833C-0.75138 280.922 4.8682 274.438 11.8889 274.573L125.154 275.798C125.23 276.977 125.32 278.149 125.418 279.321Z" fill="#1B5B8C"/>
<path d="M125.004 254.079C124.944 255.311 124.891 256.55 124.853 257.783L11.9041 258.714C5.38053 258.774 0.0547353 253.545 0.0020046 247.039C-0.133589 239.797 6.631 234.073 13.7722 235.335L125.004 254.079Z" fill="#1B5B8C"/>
<path d="M127.309 232.818C127.083 234.148 126.88 235.478 126.684 236.815L16.002 221.001C9.36549 220.054 4.75532 213.924 5.70448 207.305C6.69129 199.898 14.503 195.112 21.5764 197.539L127.309 232.818Z" fill="#1B5B8C"/>
<path d="M132.032 212.045C131.603 213.503 131.203 214.96 130.819 216.433L25.5386 185.037C18.9322 183.069 15.1808 176.135 17.1544 169.554C19.2938 162.154 28.0094 158.48 34.8268 162.064L132.032 212.045Z" fill="#1B5B8C"/>
<path d="M139.218 191.701C138.541 193.309 137.885 194.924 137.26 196.554L40.0848 151.358C33.6667 148.383 30.8946 140.78 33.8852 134.387C37.1695 127.16 46.6234 124.733 53.0038 129.436L139.218 191.701Z" fill="#1B5B8C"/>
<path d="M149.012 171.853C148.002 173.618 147.023 175.406 146.074 177.209L59.2112 120.444C53.1397 116.477 51.4372 108.348 55.4221 102.293C59.8289 95.4189 69.8327 94.3596 75.6105 100.114L149.012 171.853Z" fill="#1B5B8C"/>
<path d="M161.531 152.725C160.108 154.634 158.714 156.572 157.366 158.54L82.5106 92.7068C76.9286 87.7935 76.3938 79.2967 81.3128 73.7298C86.8119 67.3666 97.1697 67.7798 102.172 74.5111L161.531 152.725Z" fill="#1B5B8C"/>
<path d="M176.928 134.612C174.985 136.626 173.079 138.684 171.226 140.788L109.599 68.5461C104.657 62.7538 105.358 54.0542 111.166 49.1259C117.689 43.4538 128.183 45.4221 132.243 53.0174L176.928 134.612Z" fill="#1B5B8C"/>
<path d="M195.369 117.912C192.793 119.948 190.269 122.051 187.806 124.23L140.107 48.4047C135.949 41.801 137.953 33.0939 144.575 28.9469C152.047 24.1463 162.428 27.7223 165.388 36.0614L195.369 117.912Z" fill="#1B5B8C"/>
<path d="M217.042 103.097C213.72 105.043 210.458 107.086 207.271 109.22L173.644 32.7408C170.428 25.431 173.765 16.9116 181.094 13.7037C189.403 9.94735 199.415 15.1687 201.117 24.0862L217.042 103.097Z" fill="#1B5B8C"/>
<path d="M242.111 90.8662C237.945 92.519 233.855 94.3221 229.848 96.2679L209.765 22.0503C207.625 14.162 212.303 6.0483 220.213 3.92221C228.115 1.79613 236.251 6.46149 238.39 14.3423C238.661 15.349 238.819 16.4233 238.88 17.4225V17.5427L242.111 90.8662Z" fill="#1B5B8C"/>
<path d="M278.059 16.8364L270.676 82.0839C265.622 83.1958 260.642 84.518 255.754 86.0356L247.927 16.8364C246.985 8.53494 252.974 1.05233 261.29 0.11325C270.827 -1.08126 279.234 7.35546 278.059 16.8364Z" fill="#1B5B8C"/>
</svg>
