<svg width="344" height="178" viewBox="0 0 344 178" fill="none" xmlns="http://www.w3.org/2000/svg">
<path d="M102.271 6.80757L98.9173 26.4443C98.7248 26.4594 98.5323 26.4797 98.3398 26.5L101.27 6.64801C101.384 5.98695 102.367 6.13385 102.271 6.80757Z" fill="#792D49"/>
<path d="M114.809 9.88629L109.275 26.357C109.017 26.3367 108.758 26.319 108.5 26.3038L113.634 9.50891C113.892 8.73134 115.052 9.09353 114.809 9.88629Z" fill="#792D49"/>
<path d="M126.536 14.7532L119.692 28.0073C119.37 27.9262 119.049 27.8503 118.725 27.7768L125.231 14.1074C125.67 13.2412 126.964 13.8693 126.536 14.7532Z" fill="#792D49"/>
<path d="M137.28 21.2457L129.872 31.4756C129.497 31.3084 129.12 31.1463 128.742 30.9918L135.9 20.2858C136.548 19.3689 137.918 20.3085 137.28 21.2457Z" fill="#792D49"/>
<path d="M146.885 29.2018L139.48 36.7571C139.072 36.4835 138.661 36.215 138.246 35.9516L145.497 27.8974C146.376 26.9729 147.757 28.257 146.885 29.2018Z" fill="#792D49"/>
<path d="M155.208 38.4665L148.179 43.7778C147.767 43.3801 147.349 42.9876 146.926 42.6026L153.888 36.8025C155.018 35.9211 156.327 37.5573 155.208 38.4665Z" fill="#792D49"/>
<path d="M161.36 135.097C161.122 135.132 160.873 135.127 160.633 135.071L161.36 135.097Z" fill="#792D49"/>
<path d="M155.667 144.53C154.955 145.505 153.529 145.649 152.632 144.841L144.305 137.413C145.125 136.744 145.928 136.053 146.713 135.341L155.234 141.64C156.151 142.319 156.346 143.61 155.667 144.53Z" fill="#792D49"/>
<path d="M147.127 153.801C146.236 154.713 144.719 154.647 143.906 153.665L135.426 143.49C136.345 142.971 137.249 142.429 138.138 141.864L147.107 150.721C147.963 151.567 147.973 152.945 147.127 153.801Z" fill="#792D49"/>
<path d="M137.309 161.765C136.24 162.583 134.665 162.282 133.971 161.129L125.896 147.862C126.874 147.51 127.839 147.136 128.791 146.735L137.75 158.558C138.515 159.564 138.317 161 137.309 161.765Z" fill="#792D49"/>
<path d="M126.34 168.264C125.104 168.956 123.508 168.398 122.969 167.091L116.021 150.527C117.012 150.347 117.992 150.142 118.965 149.914L127.285 165.004C127.923 166.164 127.503 167.626 126.34 168.264Z" fill="#792D49"/>
<path d="M114.373 173.139C112.983 173.669 111.41 172.838 111.058 171.394L106.094 151.542C107.054 151.522 108.009 151.479 108.958 151.413L115.85 169.907C116.334 171.209 115.673 172.656 114.373 173.139Z" fill="#792D49"/>
<path d="M101.573 176.216C100.051 176.545 98.5518 175.433 98.42 173.883L96.3457 151.015C97.2322 151.134 98.1237 151.232 99.0229 151.311L103.602 173.108C103.898 174.526 102.992 175.917 101.573 176.216Z" fill="#792D49"/>
<path d="M88.1445 177.329C86.521 177.43 85.1482 176.039 85.2647 174.419L86.9364 149.027C87.7317 149.26 88.5345 149.478 89.345 149.681L90.7254 174.444C90.809 175.953 89.654 177.245 88.1445 177.329Z" fill="#792D49"/>
<path d="M80.412 146.707L77.8134 173.817C77.664 175.383 76.2735 176.53 74.7082 176.378C73.0138 176.229 71.8183 174.572 72.2033 172.918L78.325 145.787C79.0139 146.106 79.7105 146.413 80.412 146.707Z" fill="#792D49"/>
<path d="M72.5637 142.746L65.4212 171.306C65.0236 172.891 63.4178 173.856 61.8323 173.458C60.11 173.043 59.1374 171.143 59.7985 169.5L70.8034 141.654C71.3834 142.029 71.971 142.391 72.5637 142.746Z" fill="#792D49"/>
<path d="M65.735 138.03L53.7372 167.051C53.0913 168.619 51.2956 169.364 49.7278 168.715C48.0156 168.024 47.309 165.914 48.2486 164.331L64.2862 136.848C64.7624 137.253 65.2461 137.645 65.735 138.03Z" fill="#792D49"/>
<path d="M59.8575 132.744L42.9334 161.2C42.0343 162.709 40.0815 163.206 38.5694 162.306C37.0599 161.407 36.5635 159.455 37.4601 157.945C37.5259 157.834 37.607 157.717 37.6855 157.616C37.6981 157.601 37.7083 157.588 37.7184 157.575L58.6899 131.521C59.0748 131.933 59.4624 132.341 59.8575 132.744Z" fill="#792D49"/>
<path d="M54.8763 127.007L33.1526 153.895C32.0078 155.308 29.9334 155.529 28.5176 154.387C26.9599 153.148 26.8839 150.739 28.3555 149.402L53.9594 125.781C54.2608 126.194 54.5673 126.602 54.8763 127.007Z" fill="#792D49"/>
<path d="M50.7499 120.924L24.5305 145.272C23.1527 146.553 20.9973 146.472 19.7157 145.094C18.2974 143.592 18.581 141.105 20.2957 139.958L50.0483 119.716C50.2763 120.121 50.5118 120.524 50.7499 120.924Z" fill="#792D49"/>
<path d="M47.4406 114.57L17.2093 135.46C15.6111 136.564 13.4177 136.164 12.3134 134.563C11.2091 132.965 11.6093 130.774 13.2075 129.667C13.3342 129.581 13.4785 129.498 13.6128 129.427C13.6128 129.427 13.6153 129.427 13.6254 129.419C13.6254 129.419 13.628 129.419 13.6305 129.417L13.6482 129.407L13.6811 129.391L46.9239 113.387C47.0911 113.782 47.2633 114.177 47.4406 114.57Z" fill="#792D49"/>
<path d="M44.9163 107.988L11.3316 124.58C9.53329 125.469 7.35509 124.732 6.46609 122.934C5.46564 120.959 6.537 118.487 8.65694 117.853L44.5566 106.828C44.6731 107.216 44.7922 107.603 44.9163 107.988Z" fill="#792D49"/>
<path d="M43.1633 101.201L7.06609 112.786C5.09558 113.417 2.98831 112.333 2.35511 110.365C1.6358 108.189 3.11494 105.826 5.38179 105.514L42.943 100.041C43.0114 100.431 43.0848 100.816 43.1633 101.201Z" fill="#792D49"/>
<path d="M42.169 94.1698L4.56979 100.233C2.46504 100.573 0.486939 99.1416 0.147546 97.0394C-0.252634 94.7067 1.63429 92.5235 3.99738 92.5691L42.0803 92.9819C42.1057 93.3795 42.1361 93.7747 42.169 94.1698Z" fill="#792D49"/>
<path d="M42.0297 85.6596C42.0094 86.075 41.9917 86.4904 41.979 86.9083L4.00247 87.2224C1.80908 87.2426 0.0184035 85.4798 0.000674002 83.2864C-0.0449161 80.8448 2.22952 78.9148 4.6306 79.3403L42.0297 85.6596Z" fill="#792D49"/>
<path d="M42.8034 78.4922C42.7274 78.9405 42.659 79.3888 42.5932 79.8397L5.37895 74.5081C3.14757 74.189 1.5975 72.1223 1.91664 69.8909C2.24843 67.3936 4.87493 65.7802 7.25321 66.5983L42.8034 78.4922Z" fill="#792D49"/>
<path d="M44.3936 71.4877C44.2493 71.9791 44.115 72.4704 43.9859 72.9669L8.58513 62.3824C6.36641 61.7188 5.10509 59.381 5.76868 57.1623C6.48546 54.6675 9.41842 53.429 11.7106 54.6371L44.3936 71.4877Z" fill="#792D49"/>
<path d="M46.809 64.6276C46.5811 65.1696 46.3607 65.7167 46.1505 66.2663L13.4751 51.029C11.3197 50.0261 10.3876 47.4629 11.3931 45.3075C12.4949 42.8709 15.6761 42.0529 17.8213 43.6384L46.809 64.6276Z" fill="#792D49"/>
<path d="M50.1012 57.9372C49.7618 58.5324 49.4326 59.1352 49.1134 59.743L19.9079 40.6053C17.8639 39.268 17.2941 36.5275 18.6314 34.4861C20.113 32.1686 23.4791 31.8115 25.4218 33.7516L50.1012 57.9372Z" fill="#792D49"/>
<path d="M54.3112 51.4895C53.8325 52.1329 53.3639 52.7863 52.9105 53.4499L27.7423 31.2526C25.8629 29.5987 25.6856 26.7341 27.3396 24.8573C29.1885 22.712 32.6711 22.8513 34.3528 25.1207L54.3112 51.4895Z" fill="#792D49"/>
<path d="M59.4863 45.3853C58.8303 46.0641 58.1895 46.7581 57.569 47.4673L36.8483 23.1095C35.1842 21.1567 35.4223 18.2237 37.3751 16.5622C39.5685 14.65 43.0966 15.3136 44.4618 17.8742L59.4863 45.3853Z" fill="#792D49"/>
<path d="M65.6883 39.7528C64.8221 40.4392 63.9736 41.1484 63.1454 41.8829L47.1078 16.3195C45.7097 14.0932 46.3835 11.1577 48.6098 9.75958C51.1223 8.14113 54.6125 9.34673 55.6079 12.1581L65.6883 39.7528Z" fill="#792D49"/>
<path d="M72.9733 34.7581C71.8564 35.4141 70.7622 36.103 69.6909 36.8249L58.3845 11.0386C57.303 8.57418 58.425 5.69947 60.8894 4.62051C63.6831 3.35411 67.0492 5.1144 67.6216 8.12082L72.9733 34.7581Z" fill="#792D49"/>
<path d="M81.405 30.6347C80.0044 31.1919 78.6291 31.7998 77.2817 32.4558L70.5267 7.43442C69.81 4.775 71.3828 2.03959 74.0397 1.32281C76.6991 0.606034 79.4345 2.17636 80.1513 4.83578C80.245 5.17518 80.2982 5.53737 80.316 5.87423V5.91475L81.405 30.6347Z" fill="#792D49"/>
<path d="M93.492 5.67619L91.0099 27.6709C89.3104 28.0483 87.6362 28.494 85.9925 29.0057L83.3609 5.67619C83.0443 2.87746 85.0579 0.354808 87.854 0.0382095C91.0606 -0.364503 93.8871 2.47728 93.492 5.67619Z" fill="#792D49"/>
<path d="M85.5903 76.02C84.5418 76.2151 83.4932 76.3113 82.4446 76.3113C80.8135 76.3113 79.5117 75.9618 78.5416 75.2627C77.5715 74.5637 76.8624 73.4948 76.4166 72.0588C75.9708 70.6227 75.7479 68.718 75.7479 66.3499C75.7479 63.9817 76.0114 62.1074 76.5331 60.7296C77.0574 59.3518 77.8248 58.3615 78.8329 57.7586C79.8435 57.1558 81.1225 56.8544 82.6776 56.8544C84.5798 56.8544 86.6592 57.128 88.9108 57.67L89.9011 48.8736C88.27 48.3291 86.7453 47.9314 85.3269 47.6807C83.9086 47.4274 82.3079 47.3008 80.5222 47.3008C76.9485 47.3008 73.785 48.1366 71.0268 49.8057C68.2686 51.4748 66.1132 53.8354 64.5606 56.8823C63.008 59.9318 62.2305 63.4169 62.2305 67.3402C62.2305 71.2635 62.9472 74.4092 64.3859 77.1269C65.822 79.8471 67.8608 81.9138 70.5025 83.3322C73.1417 84.7505 76.2114 85.4597 79.7067 85.4597C83.8225 85.4597 87.2594 84.7607 90.0176 83.3626L88.9691 75.207C87.766 75.5565 86.6389 75.8301 85.5903 76.0226V76.02Z" fill="#792D49"/>
<path d="M102.368 48.0557L91.5332 84.6975H105.106L106.046 79.0468H113.442L114.485 84.6975H127.709L117.165 48.0557H102.368ZM107.528 70.1339L109.554 57.9614L111.798 70.1339H107.528Z" fill="#792D49"/>
<path d="M153.051 49.3083C150.604 48.2395 147.147 47.7051 142.681 47.7051C139.807 47.7051 136.506 47.7836 132.778 47.9381C132.117 47.9381 131.048 47.9761 129.574 48.0546V84.6964H142.157V73.7852C142.965 73.7978 143.722 73.8029 144.429 73.8029C149.477 73.8029 153.235 72.5314 155.7 69.986C158.167 67.4431 159.4 64.1707 159.4 60.1714C159.4 57.6083 158.952 55.4225 158.06 53.6166C157.166 51.8107 155.497 50.3746 153.051 49.3058V49.3083ZM145.68 64.5709C145.505 65.3282 145.204 65.8423 144.779 66.1134C144.35 66.3844 143.73 66.5211 142.914 66.5211C142.661 66.5211 142.41 66.5161 142.157 66.5135V55.4022C142.436 55.3971 142.709 55.3946 142.973 55.3946C143.75 55.3946 144.343 55.5516 144.748 55.8606C145.156 56.1722 145.457 56.7345 145.652 57.55C145.845 58.3656 145.944 59.5509 145.944 61.1035C145.944 62.6561 145.857 63.8136 145.68 64.5709Z" fill="#792D49"/>
<path d="M162.371 55.1627H165.459V77.7095H162.429L162.371 84.6975H181.187V77.7095H178.216V55.1627H181.187V48.0557H162.429L162.371 55.1627Z" fill="#792D49"/>
<path d="M211.651 57.0268L212.001 48.0557H183.34L183.748 57.0268H191.262V84.6975H204.02V57.0268H211.651Z" fill="#792D49"/>
<path d="M220.159 48.0557L209.324 84.6975H222.897L223.837 79.0468H231.233L232.274 84.6975H245.497L234.953 48.0557H220.157H220.159ZM225.319 70.1339L227.345 57.9614L229.589 70.1339H225.319Z" fill="#792D49"/>
<path d="M271.011 75.7263H260.117V48.0557H247.359V84.6975H271.244L271.011 75.7263Z" fill="#792D49"/>
<path d="M88.7098 92.4517C86.0099 91.2866 82.545 90.7041 78.3102 90.7041C74.0754 90.7041 69.7671 90.8003 65.3778 90.9954L63.5137 91.1119V127.754C69.1061 127.987 73.8829 128.103 77.8442 128.103C82.2335 128.103 85.8351 127.386 88.6516 125.948C91.468 124.512 93.5449 122.374 94.8847 119.54C96.2246 116.706 96.8958 113.17 96.8958 108.938C96.8958 104.432 96.2069 100.85 94.8265 98.191C93.4487 95.5316 91.4098 93.6168 88.7098 92.4517ZM82.8262 116.045C82.4969 117.521 81.9422 118.55 81.1672 119.132C80.3896 119.715 79.2448 120.006 77.7302 120.006C77.2515 120.006 76.7475 119.998 76.2156 119.981V99.0167C76.7779 98.9914 77.3427 98.9762 77.905 98.9762C79.4196 98.9762 80.5542 99.2573 81.3141 99.8196C82.0714 100.382 82.5957 101.403 82.8869 102.879C83.1782 104.356 83.3226 106.569 83.3226 109.52C83.3226 112.471 83.158 114.568 82.8262 116.045Z" fill="#792D49"/>
<path d="M117.338 90.3555C113.689 90.3555 110.474 91.1026 107.699 92.5995C104.923 94.0939 102.775 96.2695 101.26 99.124C99.7456 101.978 98.9883 105.385 98.9883 109.349C98.9883 115.445 100.462 120.164 103.416 123.505C106.366 126.845 110.834 128.514 116.814 128.514C120.464 128.514 123.609 127.709 126.251 126.098C128.89 124.487 130.912 122.205 132.31 119.252C133.708 116.301 134.407 112.864 134.407 108.941C134.407 103.037 132.94 98.4655 130.007 95.221C127.074 91.979 122.852 90.3555 117.336 90.3555H117.338ZM120.309 115.987C119.998 117.54 119.58 118.571 119.056 119.075C118.531 119.579 117.842 119.832 116.986 119.832C116.054 119.832 115.297 119.589 114.714 119.103C114.132 118.616 113.676 117.608 113.344 116.073C113.015 114.538 112.848 112.277 112.848 109.288C112.848 105.598 113.207 103.123 113.924 101.859C114.643 100.598 115.624 99.9674 116.867 99.9674C118.265 99.9674 119.266 100.628 119.869 101.948C120.471 103.268 120.77 105.656 120.77 109.113C120.77 112.142 120.613 114.435 120.304 115.987H120.309Z" fill="#792D49"/>
<path d="M148.098 127.754H160.448V114.941H170.875V106.086H160.448V100.025H172.273L172.797 91.1123H148.098V127.754Z" fill="#792D49"/>
<path d="M194.177 115.113C194.177 116.628 193.955 117.725 193.509 118.406C193.063 119.085 192.296 119.427 191.209 119.427C190.044 119.427 189.246 119.077 188.821 118.378C188.393 117.679 188.18 116.435 188.18 114.65V91.1152H175.48V113.019C175.48 117.991 176.762 121.815 179.325 124.495C181.888 127.174 185.85 128.514 191.209 128.514C196.568 128.514 200.218 127.195 202.86 124.553C205.502 121.914 206.821 118.049 206.821 112.961V91.1152H194.18V115.116L194.177 115.113Z" fill="#792D49"/>
<path d="M209.435 100.083H216.95V127.754H229.708V100.083H237.339L237.688 91.1123H209.027L209.435 100.083Z" fill="#792D49"/>
<path d="M258.603 115.113C258.603 116.628 258.38 117.725 257.935 118.406C257.489 119.085 256.721 119.427 255.635 119.427C254.47 119.427 253.672 119.077 253.246 118.378C252.818 117.679 252.606 116.435 252.606 114.65V91.1152H239.906V113.019C239.906 117.991 241.188 121.815 243.751 124.495C246.314 127.174 250.275 128.514 255.635 128.514C260.994 128.514 264.644 127.195 267.286 124.553C269.927 121.914 271.247 118.049 271.247 112.961V91.1152H258.606V115.116L258.603 115.113Z" fill="#792D49"/>
<path d="M301.215 114.095C300.932 113.637 300.651 113.196 300.372 112.766C301.598 112.14 302.674 111.32 303.604 110.309C305.293 108.465 306.139 105.717 306.139 102.067C306.139 99.309 305.516 97.1055 304.275 95.4541C303.031 93.8028 301.177 92.62 298.713 91.9007C296.246 91.1839 293.093 90.8242 289.245 90.8242C285.013 90.8242 281.457 90.8825 278.585 90.999C277.653 91.037 276.701 91.0775 275.73 91.1155V127.757H288.313V114.756C288.714 114.751 289.106 114.741 289.494 114.729L294.022 127.757H308.061L303.459 118.029C303.031 117.135 302.284 115.825 301.215 114.098V114.095ZM288.313 98.529C288.762 98.5188 289.19 98.5112 289.595 98.5112C290.527 98.5112 291.226 98.6657 291.692 98.9773C292.158 99.2888 292.47 99.7649 292.624 100.403C292.779 101.044 292.857 101.966 292.857 103.172C292.857 104.491 292.703 105.464 292.391 106.084C292.08 106.705 291.634 107.102 291.051 107.277C290.469 107.452 289.653 107.541 288.605 107.541C288.508 107.541 288.41 107.541 288.313 107.541V98.5315V98.529Z" fill="#792D49"/>
<path d="M339.604 95.221C336.671 91.979 332.448 90.3555 326.932 90.3555C323.282 90.3555 320.068 91.1026 317.292 92.5995C314.516 94.0939 312.369 96.2695 310.854 99.124C309.339 101.978 308.582 105.385 308.582 109.349C308.582 115.445 310.056 120.164 313.009 123.505C315.96 126.845 320.428 128.514 326.408 128.514C330.058 128.514 333.203 127.709 335.845 126.098C338.484 124.487 340.505 122.205 341.903 119.252C343.301 116.301 344 112.864 344 108.941C344 103.037 342.534 98.4655 339.601 95.221H339.604ZM329.906 115.987C329.594 117.54 329.176 118.571 328.652 119.075C328.128 119.579 327.439 119.832 326.583 119.832C325.65 119.832 324.893 119.589 324.311 119.103C323.728 118.616 323.272 117.608 322.94 116.073C322.611 114.538 322.444 112.277 322.444 109.288C322.444 105.598 322.804 103.123 323.52 101.859C324.24 100.598 325.22 99.9674 326.463 99.9674C327.862 99.9674 328.862 100.628 329.465 101.948C330.068 103.268 330.367 105.656 330.367 109.113C330.367 112.142 330.209 114.435 329.9 115.987H329.906Z" fill="#792D49"/>
</svg>
