<svg width="402" height="170" viewBox="0 0 402 170" fill="none" xmlns="http://www.w3.org/2000/svg">
<path d="M98.0418 6.52549L94.827 25.3502C94.6425 25.3648 94.458 25.3842 94.2734 25.4036L97.0827 6.37253C97.192 5.7388 98.134 5.87963 98.0418 6.52549Z" fill="#0000AB"/>
<path d="M110.06 9.47588L104.755 25.2655C104.507 25.2461 104.259 25.2291 104.012 25.2146L108.933 9.1141C109.181 8.36869 110.293 8.7159 110.06 9.47588Z" fill="#0000AB"/>
<path d="M121.305 14.144L114.744 26.85C114.436 26.7723 114.127 26.6995 113.816 26.629L120.054 13.5248C120.474 12.6944 121.712 13.2966 121.305 14.144Z" fill="#0000AB"/>
<path d="M131.605 20.3663L124.503 30.1732C124.143 30.013 123.782 29.8576 123.42 29.7094L130.282 19.446C130.903 18.5671 132.217 19.4679 131.605 20.3663Z" fill="#0000AB"/>
<path d="M140.811 27.993L133.712 35.2359C133.321 34.9737 132.927 34.7163 132.529 34.4638L139.481 26.7426C140.323 25.8563 141.647 27.0874 140.811 27.993Z" fill="#0000AB"/>
<path d="M148.789 36.8746L142.051 41.9662C141.656 41.585 141.255 41.2087 140.85 40.8396L147.524 35.2794C148.607 34.4344 149.863 36.0029 148.789 36.8746Z" fill="#0000AB"/>
<path d="M149.228 138.551C148.546 139.486 147.179 139.624 146.319 138.85L138.336 131.728C139.123 131.087 139.892 130.424 140.645 129.742L148.813 135.781C149.692 136.431 149.879 137.67 149.228 138.551Z" fill="#0000AB"/>
<path d="M141.046 147.441C140.191 148.316 138.737 148.255 137.957 147.31L129.828 137.557C130.71 137.059 131.576 136.54 132.429 135.998L141.026 144.489C141.847 145.3 141.857 146.621 141.046 147.441Z" fill="#0000AB"/>
<path d="M131.63 155.075C130.606 155.859 129.095 155.57 128.43 154.466L120.689 141.747C121.627 141.41 122.552 141.051 123.465 140.667L132.053 152.001C132.786 152.965 132.597 154.342 131.63 155.075Z" fill="#0000AB"/>
<path d="M121.118 161.305C119.934 161.968 118.404 161.434 117.887 160.181L111.227 144.301C112.176 144.129 113.116 143.932 114.048 143.714L122.024 158.18C122.636 159.292 122.233 160.693 121.118 161.305Z" fill="#0000AB"/>
<path d="M109.644 165.979C108.311 166.487 106.804 165.69 106.466 164.306L101.707 145.275C102.627 145.256 103.543 145.214 104.453 145.151L111.06 162.881C111.524 164.129 110.89 165.515 109.644 165.979Z" fill="#0000AB"/>
<path d="M97.3728 168.929C95.9136 169.244 94.4762 168.181 94.3499 166.692L92.3613 144.77C93.2111 144.884 94.0658 144.978 94.9278 145.054L99.3177 165.949C99.6018 167.309 98.7325 168.642 97.3728 168.929Z" fill="#0000AB"/>
<path d="M84.4981 169.995C82.9417 170.092 81.6232 168.759 81.7374 167.206L83.3399 142.864C84.1023 143.088 84.872 143.296 85.649 143.491L86.9723 167.23C87.0524 168.677 85.9452 169.915 84.4981 169.995Z" fill="#0000AB"/>
<path d="M77.0852 140.639L74.5941 166.629C74.4508 168.13 73.1178 169.23 71.6173 169.084C69.9929 168.941 68.8468 167.353 69.2159 165.767L75.0845 139.758C75.745 140.064 76.4127 140.358 77.0852 140.639Z" fill="#0000AB"/>
<path d="M69.5624 136.843L62.7153 164.222C62.3341 165.742 60.7947 166.667 59.2747 166.286C57.6236 165.888 56.6913 164.067 57.325 162.491L67.8749 135.797C68.4309 136.156 68.9942 136.503 69.5624 136.843Z" fill="#0000AB"/>
<path d="M63.0171 132.322L51.5154 160.143C50.8962 161.646 49.1747 162.36 47.6718 161.738C46.0304 161.075 45.353 159.053 46.2538 157.535L61.6282 131.188C62.0847 131.577 62.5485 131.953 63.0171 132.322Z" fill="#0000AB"/>
<path d="M57.3836 127.254L41.1593 154.533C40.2974 155.98 38.4254 156.456 36.9758 155.594C35.5287 154.732 35.0528 152.86 35.9123 151.413C35.9754 151.306 36.0531 151.194 36.1284 151.097C36.1405 151.083 36.1503 151.071 36.16 151.058L56.2643 126.081C56.6334 126.477 57.0049 126.868 57.3836 127.254Z" fill="#0000AB"/>
<path d="M52.6071 121.754L31.7816 147.531C30.6841 148.885 28.6956 149.097 27.3383 148.002C25.845 146.814 25.7722 144.505 27.1829 143.223L51.7281 120.579C52.0171 120.975 52.3109 121.366 52.6071 121.754Z" fill="#0000AB"/>
<path d="M48.6519 115.923L23.5166 139.264C22.1957 140.492 20.1295 140.415 18.9009 139.094C17.5412 137.654 17.8131 135.27 19.4569 134.17L47.9793 114.765C48.1978 115.153 48.4236 115.539 48.6519 115.923Z" fill="#0000AB"/>
<path d="M45.478 109.831L16.4967 129.858C14.9646 130.916 12.8619 130.533 11.8033 128.998C10.7446 127.466 11.1283 125.363 12.6604 124.305C12.7818 124.222 12.9202 124.142 13.0489 124.074C13.0489 124.074 13.0489 124.074 13.061 124.067C13.061 124.067 13.061 124.067 13.0659 124.064L13.0829 124.055L13.1144 124.04L44.9827 108.697C45.1429 109.076 45.308 109.455 45.478 109.831Z" fill="#0000AB"/>
<path d="M43.0608 103.522L10.8647 119.428C9.14083 120.281 7.0527 119.574 6.20045 117.85C5.24137 115.956 6.26843 113.587 8.30072 112.979L42.716 102.41C42.8277 102.782 42.9418 103.153 43.0608 103.522Z" fill="#0000AB"/>
<path d="M41.3776 97.0154L6.7729 108.121C4.88387 108.726 2.86373 107.687 2.25671 105.8C1.56714 103.714 2.98513 101.449 5.15824 101.15L41.1663 95.9033C41.2319 96.2772 41.3023 96.6463 41.3776 97.0154Z" fill="#0000AB"/>
<path d="M40.4253 90.2754L4.38081 96.0882C2.36309 96.4136 0.466775 95.0417 0.141415 93.0264C-0.242218 90.7902 1.56669 88.6972 3.83206 88.7409L40.3403 89.1367C40.3646 89.5179 40.3938 89.8967 40.4253 90.2754Z" fill="#0000AB"/>
<path d="M40.2918 82.1166C40.2724 82.5148 40.2554 82.913 40.2433 83.3136L3.83698 83.6147C1.73428 83.6341 0.0176425 81.9442 0.000646133 79.8415C-0.0430589 77.5009 2.13734 75.6507 4.43914 76.0586L40.2918 82.1166Z" fill="#0000AB"/>
<path d="M41.0349 75.2455C40.962 75.6752 40.8965 76.105 40.8334 76.5372L5.1579 71.4261C3.01878 71.1202 1.53281 69.1389 1.83874 66.9998C2.15682 64.6057 4.67471 63.059 6.95466 63.8433L41.0349 75.2455Z" fill="#0000AB"/>
<path d="M42.5578 68.5314C42.4194 69.0025 42.2907 69.4735 42.1669 69.9494L8.22992 59.8026C6.10294 59.1664 4.89377 56.9253 5.52992 54.7983C6.21706 52.4067 9.02875 51.2194 11.2261 52.3775L42.5578 68.5314Z" fill="#0000AB"/>
<path d="M44.8748 61.9545C44.6562 62.4741 44.445 62.9986 44.2435 63.5255L12.9191 48.9183C10.8528 47.9568 9.95931 45.4996 10.9232 43.4333C11.9795 41.0975 15.0291 40.3132 17.0857 41.8332L44.8748 61.9545Z" fill="#0000AB"/>
<path d="M48.0308 55.5424C47.7055 56.113 47.3898 56.6909 47.0839 57.2736L19.0859 38.9272C17.1265 37.6452 16.5802 35.0181 17.8622 33.061C19.2826 30.8394 22.5095 30.497 24.3718 32.3569L48.0308 55.5424Z" fill="#0000AB"/>
<path d="M52.0661 49.3603C51.6072 49.9771 51.158 50.6035 50.7234 51.2397L26.5958 29.9602C24.7942 28.3746 24.6242 25.6285 26.2097 23.8293C27.9822 21.7727 31.3208 21.9063 32.933 24.0818L52.0661 49.3603Z" fill="#0000AB"/>
<path d="M57.0308 43.5083C56.4019 44.159 55.7876 44.8243 55.1928 45.5042L35.3288 22.1535C33.7336 20.2815 33.9618 17.4698 35.8339 15.877C37.9366 14.0438 41.3188 14.68 42.6276 17.1347L57.0308 43.5083Z" fill="#0000AB"/>
<path d="M62.9739 38.1085C62.1435 38.7665 61.3301 39.4464 60.5361 40.1505L45.1617 15.6441C43.8214 13.5099 44.4672 10.6958 46.6015 9.35548C49.0101 7.80395 52.356 8.9597 53.3078 11.6548L62.9739 38.1085Z" fill="#0000AB"/>
<path d="M69.9546 33.32C68.8839 33.9489 67.835 34.6093 66.8079 35.3013L55.969 10.5812C54.9323 8.21872 56.0079 5.46288 58.3704 4.42852C61.0485 3.2145 64.2754 4.902 64.8242 7.7841L69.9546 33.32Z" fill="#0000AB"/>
<path d="M78.0379 29.3677C76.6952 29.9019 75.3768 30.4846 74.0851 31.1135L67.6094 7.12669C66.9223 4.57723 68.4301 1.95493 70.9771 1.26779C73.5266 0.58065 76.1489 2.08605 76.836 4.63551C76.9259 4.96087 76.9769 5.30808 76.9939 5.63101V5.66986L78.0379 29.3677Z" fill="#0000AB"/>
<path d="M89.6265 5.44149L87.247 26.5267C85.6177 26.8885 84.0128 27.3159 82.437 27.8063L79.9142 5.44149C79.6107 2.75848 81.541 0.340137 84.2216 0.0366296C87.2955 -0.349432 90.0052 2.37485 89.6265 5.44149Z" fill="#0000AB"/>
<path d="M81.81 75.3032C80.8048 75.4902 79.7996 75.5825 78.7943 75.5825C77.2307 75.5825 75.9827 75.2474 75.0527 74.5772C74.1228 73.9071 73.4429 72.8825 73.0156 71.5058C72.5882 70.129 72.3746 68.3031 72.3746 66.0329C72.3746 63.7627 72.6271 61.9659 73.1273 60.645C73.6299 59.3242 74.3656 58.3748 75.3319 57.7969C76.3007 57.2191 77.5269 56.9301 79.0177 56.9301C80.8412 56.9301 82.8346 57.1924 84.9932 57.712L85.9426 49.2793C84.3789 48.7573 82.9172 48.3761 81.5575 48.1357C80.1978 47.8929 78.6632 47.7715 76.9515 47.7715C73.5255 47.7715 70.4928 48.5727 67.8487 50.1728C65.2045 51.7729 63.1382 54.0359 61.6498 56.9568C60.1614 59.8802 59.416 63.2212 59.416 66.9823C59.416 70.7433 60.1032 73.759 61.4823 76.3643C62.859 78.972 64.8136 80.9533 67.3461 82.313C69.8761 83.6728 72.8189 84.3526 76.1696 84.3526C80.1152 84.3526 83.4101 83.6825 86.0542 82.3422L85.049 74.5238C83.8957 74.8589 82.8152 75.1211 81.81 75.3057V75.3032Z" fill="#0000AB"/>
<path d="M88.623 55.3092H91.5829V76.9238H88.6789L88.623 83.6228H106.661V76.9238H103.813V55.3092H106.661V48.4961H88.6789L88.623 55.3092Z" fill="#0000AB"/>
<path d="M140.922 55.2818C139.599 52.7324 137.644 50.8968 135.058 49.7799C132.47 48.6629 129.148 48.1045 125.091 48.1045C121.034 48.1045 116.901 48.1968 112.693 48.3837L110.906 48.4954V83.6221C116.267 83.8455 120.847 83.9572 124.644 83.9572C128.85 83.9572 132.302 83.2701 135.002 81.8909C137.702 80.5142 139.693 78.4649 140.978 75.7479C142.262 73.0309 142.903 69.6414 142.903 65.5841C142.903 61.2646 142.243 57.8313 140.922 55.2818ZM129.418 72.3972C129.102 73.8128 128.57 74.7986 127.827 75.357C127.082 75.9155 125.984 76.1947 124.533 76.1947C124.074 76.1947 123.588 76.1874 123.081 76.1704V56.0734C123.62 56.0491 124.161 56.0345 124.7 56.0345C126.152 56.0345 127.24 56.304 127.966 56.8431C128.692 57.3821 129.194 58.3606 129.474 59.7762C129.753 61.1917 129.891 63.3139 129.891 66.1425C129.891 68.9712 129.733 70.9817 129.415 72.3972H129.418Z" fill="#0000AB"/>
<path d="M152.401 48.4961L142.014 83.6228H155.026L155.926 78.2058H163.016L164.014 83.6228H176.691L166.583 48.4961H152.398H152.401ZM157.347 69.6615L159.287 57.9922L161.438 69.6615H157.344H157.347Z" fill="#0000AB"/>
<path d="M202.629 49.7799C200.041 48.6629 196.719 48.1045 192.659 48.1045C188.6 48.1045 184.469 48.1968 180.262 48.3837L178.475 48.4954V83.6221C183.836 83.8455 188.415 83.9572 192.213 83.9572C196.42 83.9572 199.873 83.2701 202.573 81.8909C205.273 80.5142 207.264 78.4649 208.549 75.7479C209.833 73.0309 210.476 69.6414 210.476 65.5841C210.476 61.2646 209.816 57.8313 208.493 55.2818C207.172 52.7324 205.217 50.8968 202.629 49.7799ZM196.989 72.3972C196.673 73.8128 196.141 74.7986 195.398 75.357C194.653 75.9155 193.555 76.1947 192.103 76.1947C191.644 76.1947 191.161 76.1874 190.651 76.1704V56.0734C191.19 56.0491 191.732 56.0345 192.271 56.0345C193.723 56.0345 194.811 56.304 195.539 56.8431C196.265 57.3821 196.768 58.3606 197.047 59.7762C197.326 61.1917 197.464 63.3139 197.464 66.1425C197.464 68.9712 197.307 70.9817 196.989 72.3972Z" fill="#0000AB"/>
<path d="M237.394 75.0785H225.89V70.1082H235.662V61.7314H225.89V57.0404H237.059L237.505 48.4961H214.053V83.6228H237.564L237.394 75.0785Z" fill="#0000AB"/>
<path d="M70.0974 110.854V106.885H77.9012V100.195H70.0974V96.4488H79.0157L79.3726 89.626H60.6426V117.677H79.4188L79.2852 110.854H70.0974Z" fill="#0000AB"/>
<path d="M102.698 89.626L99.3978 102.247C99.1016 103.335 98.8102 104.474 98.5188 105.663C98.2469 104.34 97.9604 103.126 97.6593 102.024L94.4494 89.626H82.632L81.3379 117.677H90.1687L89.9114 99.8724L94.3159 115.091H101.675L105.99 99.751L105.956 117.677H114.563L113.806 89.626H102.702H102.698Z" fill="#0000AB"/>
<path d="M135.431 90.5855C133.559 89.7673 130.912 89.3594 127.494 89.3594C125.294 89.3594 122.766 89.4201 119.913 89.5366C119.408 89.5366 118.59 89.5658 117.461 89.6265V117.678H127.093V109.325C127.712 109.335 128.293 109.34 128.832 109.34C132.697 109.34 135.572 108.366 137.461 106.419C139.347 104.472 140.292 101.966 140.292 98.9041C140.292 96.9422 139.95 95.2693 139.267 93.8877C138.583 92.5061 137.305 91.4062 135.431 90.588V90.5855ZM129.791 102.269C129.657 102.85 129.426 103.243 129.099 103.452C128.771 103.661 128.295 103.765 127.671 103.765C127.477 103.765 127.285 103.76 127.091 103.76V95.2523C127.304 95.2498 127.513 95.2474 127.715 95.2474C128.309 95.2474 128.764 95.3664 129.074 95.6043C129.388 95.8423 129.616 96.2721 129.766 96.8985C129.914 97.5225 129.99 98.4306 129.99 99.6179C129.99 100.805 129.922 101.691 129.788 102.272L129.791 102.269Z" fill="#0000AB"/>
<path d="M162.524 107.221C162.307 106.872 162.091 106.532 161.878 106.204C162.815 105.726 163.641 105.097 164.352 104.322C165.646 102.912 166.292 100.806 166.292 98.0118C166.292 95.9018 165.816 94.2143 164.864 92.9493C163.912 91.6867 162.492 90.7786 160.605 90.2298C158.716 89.6811 156.303 89.4043 153.358 89.4043C150.116 89.4043 147.397 89.448 145.197 89.5378C144.483 89.567 143.755 89.5985 143.012 89.6277V117.679H152.644V107.726C152.95 107.722 153.251 107.714 153.547 107.705L157.014 117.679H167.761L164.238 110.232C163.91 109.547 163.339 108.545 162.521 107.221H162.524ZM152.646 95.3045C152.989 95.2972 153.316 95.2923 153.627 95.2923C154.341 95.2923 154.875 95.4113 155.232 95.6493C155.589 95.8872 155.827 96.2514 155.946 96.7419C156.065 97.2324 156.123 97.9389 156.123 98.8592C156.123 99.8692 156.004 100.615 155.766 101.088C155.528 101.564 155.186 101.868 154.739 102.003C154.292 102.137 153.668 102.205 152.867 102.205C152.794 102.205 152.719 102.205 152.644 102.205V95.3069L152.646 95.3045Z" fill="#0000AB"/>
<path d="M178.954 110.854V106.885H186.761V100.195H178.954V96.4488H187.875L188.232 89.626H169.502V117.677H188.276L188.142 110.854H178.954Z" fill="#0000AB"/>
<path d="M200.586 110.854V106.885H208.392V100.195H200.586V96.4488H209.506L209.863 89.626H191.131V117.677H209.907L209.773 110.854H200.586Z" fill="#0000AB"/>
<path d="M229.661 105.751C229.504 105.287 229.356 104.855 229.215 104.454C228.649 102.835 228.04 101.281 227.386 99.7947L222.972 89.626H212.76V117.677H220.743V101.179C220.758 101.222 220.772 101.269 220.787 101.312C221.472 103.335 222.273 105.386 223.196 107.467L227.743 117.68H237.689V89.6284H229.661V105.753V105.751Z" fill="#0000AB"/>
<path d="M260.812 90.6533C258.746 89.7622 256.092 89.3154 252.851 89.3154C249.609 89.3154 246.31 89.3907 242.949 89.5388L241.521 89.6287V117.68C245.802 117.857 249.459 117.947 252.491 117.947C255.849 117.947 258.608 117.398 260.764 116.296C262.92 115.196 264.51 113.562 265.535 111.391C266.56 109.221 267.074 106.516 267.074 103.274C267.074 99.8265 266.545 97.0828 265.491 95.0456C264.435 93.0085 262.874 91.5444 260.808 90.6533H260.812ZM256.306 108.713C256.053 109.842 255.628 110.631 255.036 111.076C254.441 111.522 253.565 111.746 252.404 111.746C252.037 111.746 251.651 111.739 251.243 111.726V95.6769C251.676 95.6575 252.105 95.6454 252.538 95.6454C253.698 95.6454 254.567 95.8615 255.145 96.2912C255.726 96.7234 256.126 97.5028 256.35 98.6319C256.573 99.7609 256.685 101.456 256.685 103.716C256.685 105.977 256.558 107.582 256.306 108.711V108.713Z" fill="#0000AB"/>
<path d="M279.384 110.854V106.885H287.19V100.195H279.384V96.4488H288.305L288.662 89.626H269.932V117.677H288.705L288.572 110.854H279.384Z" fill="#0000AB"/>
<path d="M310.846 90.6533C308.779 89.7622 306.125 89.3154 302.884 89.3154C299.643 89.3154 296.343 89.3907 292.982 89.5388L291.555 89.6287V117.68C295.835 117.857 299.492 117.947 302.525 117.947C305.885 117.947 308.641 117.398 310.797 116.296C312.953 115.196 314.544 113.562 315.568 111.391C316.593 109.221 317.108 106.516 317.108 103.274C317.108 99.8265 316.578 97.0828 315.524 95.0456C314.468 93.0085 312.907 91.5444 310.841 90.6533H310.846ZM306.342 108.713C306.089 109.842 305.664 110.631 305.072 111.076C304.477 111.522 303.6 111.746 302.44 111.746C302.073 111.746 301.687 111.739 301.279 111.726V95.6769C301.711 95.6575 302.141 95.6454 302.573 95.6454C303.734 95.6454 304.603 95.8615 305.181 96.2912C305.761 96.7234 306.162 97.5028 306.385 98.6319C306.609 99.7609 306.72 101.456 306.72 103.716C306.72 105.977 306.594 107.582 306.342 108.711V108.713Z" fill="#0000AB"/>
<path d="M332.764 89.0469C329.969 89.0469 327.509 89.6199 325.382 90.7635C323.255 91.9071 321.614 93.5728 320.453 95.758C319.293 97.9433 318.715 100.551 318.715 103.584C318.715 108.25 319.844 111.863 322.104 114.42C324.362 116.977 327.784 118.256 332.361 118.256C335.155 118.256 337.564 117.64 339.584 116.406C341.607 115.173 343.151 113.427 344.222 111.166C345.292 108.908 345.827 106.276 345.827 103.273C345.827 98.7543 344.705 95.253 342.459 92.7715C340.213 90.29 336.981 89.0469 332.759 89.0469H332.764ZM335.039 108.67C334.801 109.86 334.48 110.647 334.08 111.033C333.679 111.419 333.15 111.613 332.497 111.613C331.783 111.613 331.202 111.429 330.758 111.055C330.311 110.683 329.962 109.911 329.709 108.736C329.457 107.561 329.33 105.83 329.33 103.54C329.33 100.716 329.605 98.8198 330.156 97.8534C330.705 96.8871 331.455 96.4039 332.409 96.4039C333.48 96.4039 334.245 96.9089 334.706 97.9214C335.167 98.9315 335.398 100.76 335.398 103.406C335.398 105.725 335.279 107.481 335.041 108.668L335.039 108.67Z" fill="#0000AB"/>
<path d="M368.199 107.221C367.983 106.872 367.767 106.532 367.554 106.204C368.493 105.726 369.316 105.097 370.028 104.322C371.322 102.912 371.968 100.806 371.968 98.0118C371.968 95.9018 371.492 94.2143 370.54 92.9493C369.588 91.6867 368.168 90.7786 366.281 90.2298C364.392 89.6811 361.979 89.4043 359.033 89.4043C355.792 89.4043 353.073 89.448 350.873 89.5378C350.159 89.567 349.43 89.5985 348.688 89.6277V117.679H358.32V107.726C358.626 107.722 358.927 107.714 359.223 107.705L362.69 117.679H373.437L369.914 110.232C369.586 109.547 369.015 108.545 368.197 107.221H368.199ZM358.322 95.3045C358.664 95.2972 358.992 95.2923 359.303 95.2923C360.017 95.2923 360.551 95.4113 360.908 95.6493C361.265 95.8872 361.503 96.2514 361.622 96.7419C361.741 97.2324 361.799 97.9389 361.799 98.8592C361.799 99.8692 361.68 100.615 361.442 101.088C361.204 101.564 360.862 101.868 360.415 102.003C359.968 102.137 359.344 102.205 358.543 102.205C358.47 102.205 358.395 102.205 358.32 102.205V95.3069L358.322 95.3045Z" fill="#0000AB"/>
<path d="M391.054 117.677H401.176L393.106 89.626H381.779L373.484 117.677H383.876L384.595 113.351H390.257L391.056 117.677H391.054ZM385.729 106.528L387.278 97.2088L388.997 106.528H385.729Z" fill="#0000AB"/>
</svg>
