<svg width="80" height="80" viewBox="0 0 80 80" fill="none" xmlns="http://www.w3.org/2000/svg">
<g clip-path="url(#clip0_3326_2985)">
<path d="M45.8207 18.8488C47.5733 19.3115 49.2766 20.0045 50.8362 20.9277C51.913 20.6221 54.0968 19.0876 55.1394 19.4062C55.9481 19.6515 59.2774 23.8375 60.3028 24.5348C61.2424 25.8325 58.932 28.0406 59.1315 29.2394C59.2002 29.6526 60.0668 31.2086 60.305 31.7832C60.631 32.5731 60.8777 33.3737 61.1158 34.1915C62.5788 35.1212 65.1767 34.9082 65.3762 37.0044C65.5027 38.3236 65.5478 42.0404 65.3568 43.2844C65.1059 44.9329 62.2592 45.0427 61.0729 45.8325L59.1058 50.8793C59.2452 52.1104 60.8498 53.9849 60.4787 55.1449C60.1419 56.1973 56.2055 59.2017 55.4054 60.3639C54.1118 61.3065 51.9109 58.9886 50.716 59.1888C49.1479 59.9851 47.5369 60.7405 45.8186 61.1365C44.8704 62.6043 45.0807 65.2514 42.9762 65.4537C41.6612 65.5807 37.9565 65.6259 36.7166 65.4344C35.0906 65.1847 34.9833 62.3654 34.2153 61.1795L29.1635 59.1501C27.9429 59.305 26.0444 60.9127 24.8967 60.5425C23.8155 60.1939 20.8166 56.1779 19.5981 55.3881C18.9095 54.1872 20.8895 52.0673 20.8659 50.748C20.1001 49.1619 19.3128 47.5607 18.9245 45.8347C17.4615 44.8834 14.823 45.0943 14.6213 42.9831C14.4948 41.6638 14.4497 37.947 14.6406 36.7031C14.8895 35.0717 17.6996 34.9641 18.8838 34.1936C19.4244 32.4439 20.0357 30.6878 20.9989 29.121C20.6922 28.0428 19.1648 25.8497 19.4801 24.8059L24.7487 19.46C25.8234 18.9671 28.0866 20.7147 29.2428 20.9019C30.7573 19.9528 32.467 19.3265 34.1789 18.8509C35.0584 17.5316 35.0155 14.7597 36.8646 14.538C38.2311 14.3744 41.5819 14.4002 42.9784 14.5337C45.0849 14.736 44.8747 17.3831 45.8207 18.8509V18.8488ZM42.3863 17.3014H37.6133C37.4138 17.4305 36.6394 20.4822 36.101 20.9385C35.7491 21.2355 33.1192 21.9134 32.3448 22.247C31.4095 22.6473 29.762 23.8697 28.8781 23.6911C28.2518 23.5641 25.9478 22.148 25.5531 22.346L22.3633 25.6001C22.5563 26.6589 23.9121 28.4345 23.7812 29.4288C23.7211 29.8872 22.5477 31.7466 22.2624 32.4289C21.8913 33.3134 21.428 35.4699 21.0611 36.0144C20.6385 36.6428 17.4186 37.4111 17.3543 37.6844L17.3843 42.3891L21.0096 43.9063C21.4623 45.1567 21.7841 46.448 22.3139 47.6748C22.7151 48.6066 23.9314 50.2724 23.7533 51.1526C23.6268 51.7811 22.2152 54.0925 22.4126 54.4885L25.6561 57.6887C26.7115 57.4951 28.4813 56.1349 29.4724 56.2662C29.9186 56.3264 31.7033 57.4606 32.349 57.7425C33.2329 58.1256 35.5282 58.6572 36.0516 59.0231C36.6973 59.4729 37.4138 62.6473 37.7013 62.7162L42.3906 62.6861L43.903 59.0489C45.1493 58.5948 46.4364 58.272 47.6592 57.7404C48.588 57.3379 50.2484 56.1177 51.1258 56.2963C51.7521 56.4233 54.0561 57.8394 54.4508 57.6414L57.6407 54.3873C57.4476 53.3285 56.0918 51.5529 56.2227 50.5587C56.2828 50.1067 57.4562 48.2322 57.7415 47.5585C58.2349 46.3921 58.5674 45.1783 58.9449 43.973L62.6518 42.303L62.6217 37.5984L59.0372 36.1198C58.533 34.8673 58.2306 33.5566 57.6943 32.3127C57.2931 31.3808 56.0768 29.715 56.2549 28.8348C56.3814 28.2063 57.793 25.8949 57.5956 25.4989L54.3521 22.2965C53.3439 22.5225 51.4797 23.8439 50.5358 23.7191C50.0832 23.6588 48.3134 22.5246 47.6592 22.2427C46.7324 21.8446 44.5444 21.3711 43.9566 20.9643C43.3688 20.5576 42.8046 18.0568 42.3906 17.2992L42.3863 17.3014Z" fill="#1582AC"/>
<path d="M49.3262 75.287C49.1159 79.2857 44.5639 81.3582 41.329 79.0167C38.6797 77.0991 38.6239 72.9282 41.2324 70.9525C43.7702 69.0306 47.329 69.8678 48.8349 72.6226C49.1631 72.8314 52.1063 71.7187 52.6834 71.4863C63.1604 67.2831 70.853 57.8158 73.1655 46.7666C73.3586 45.8455 73.4723 43.5362 73.8133 42.9056C74.4376 41.7564 76.1473 42.2793 76.2889 43.4738C76.3318 43.8353 76.1623 44.7694 76.1065 45.2084C74.3046 59.3223 63.0939 71.9468 49.3262 75.287ZM46.0462 73.236C43.8109 70.987 40.4001 74.3551 42.5689 76.6428C44.7376 78.9306 48.3008 75.5043 46.0462 73.236Z" fill="#1582AC"/>
<path d="M7.26974 48.0772C9.80533 60.1228 19.9563 70.0292 31.8105 72.9389C32.8381 73.1907 35.526 73.4555 36.2103 73.8407C37.2271 74.4153 36.9268 76.1091 35.5882 76.2447C34.3719 76.3695 31.3343 75.5517 30.0472 75.1923C17.6309 71.7187 7.57221 61.2786 4.60114 48.6884C2.8185 48.2903 1.25252 47.4811 0.47168 45.7443C-1.11789 42.2104 1.54641 38.2871 5.40558 38.5389C10.4832 38.8724 11.8754 45.867 7.27188 48.0772H7.26974ZM4.80064 41.158C2.1299 41.4206 1.8832 45.3052 4.34157 45.8863C8.22863 46.8053 8.40883 40.8029 4.80064 41.158Z" fill="#1582AC"/>
<path d="M34.4991 0.079759C37.202 -0.378651 40.1795 1.13862 40.6021 4.03112C41.4645 9.96247 34.0529 12.375 31.1677 7.36481C30.8073 7.13884 27.9091 8.26441 27.3192 8.5033C17.4149 12.502 9.94329 21.1838 7.22321 31.5163C6.9851 32.4245 6.77916 34.5918 6.42306 35.2245C5.89749 36.1628 4.2264 35.9003 4.03763 34.9167C3.84885 33.9332 4.6061 31.1225 4.91715 30.0077C8.32369 17.7705 18.3266 7.95666 30.5305 4.63803C30.8545 2.64728 32.4097 0.437017 34.5013 0.0819111L34.4991 0.079759ZM37.3758 6.7536C39.6304 4.48307 36.1294 0.994426 33.8985 3.34673C31.6675 5.69904 35.1405 9.0026 37.3758 6.7536Z" fill="#1582AC"/>
<path d="M44.1285 3.78365C45.2139 3.53615 48.6097 4.425 49.8303 4.76073C61.6867 8.03201 71.3314 17.6005 74.9203 29.3685C75.9736 29.5687 76.6836 29.6246 77.6275 30.1971C82.54 33.18 79.1999 41.0827 73.365 39.305C69.3235 38.074 68.6907 32.2804 72.3654 30.1734L72.374 29.9991C68.8344 18.7089 59.5587 9.82261 48.0627 7.01619C47.0502 6.76869 44.4781 6.53411 43.7917 6.14672C42.8564 5.61944 43.073 4.02469 44.1285 3.78365ZM76.7158 32.8012C74.5985 30.5393 71.044 33.8299 73.1527 36.1349C75.2614 38.4398 78.9511 35.1901 76.7158 32.8012Z" fill="#1582AC"/>
<path d="M39.1647 27.3154C49.2964 26.6095 56.1266 37.8351 50.8259 46.5858C46.0207 54.5187 34.5183 54.736 29.4321 46.9711C24.1013 38.8337 29.5522 27.9847 39.1647 27.3154ZM38.519 30.0508C32.3281 30.7502 28.5032 37.6156 30.5626 43.4221C33.2033 50.8665 43.5623 52.4225 48.0951 45.9402C53.2671 38.5432 47.4473 29.0414 38.519 30.0508Z" fill="#1582AC"/>
<path d="M45.8937 34.712C47.2838 34.2944 48.1612 35.3791 47.5262 36.6726L38.909 45.2704C38.3513 45.505 37.815 45.3544 37.3474 44.9885C36.5687 43.8177 32.7009 40.8951 32.3641 39.8427C32.0273 38.7903 32.7524 37.6152 33.9022 37.966C34.6916 38.2049 38.0059 42.2467 38.3127 42.2467L45.8916 34.712H45.8937Z" fill="#1582AC"/>
</g>
<defs>
<clipPath id="clip0_3326_2985">
<rect width="80" height="80" fill="white"/>
</clipPath>
</defs>
</svg>
