<svg width="74" height="74" viewBox="0 0 74 74" fill="none" xmlns="http://www.w3.org/2000/svg">
<g clip-path="url(#clip0_3326_3049)">
<path d="M67.0366 0.000109376C70.6675 0.692326 73.2796 3.30839 73.972 6.93616C73.9095 7.67468 74.0577 8.52895 73.972 9.24895C73.2657 15.1386 66.4993 17.7894 61.4974 14.8608C61.1848 14.6779 60.8097 14.0482 60.3952 14.2264L47.5663 27.0938C50.5211 31.0341 50.4817 36.2801 47.5478 40.225L57.6534 50.3675C57.9938 50.5203 58.7881 50.0318 59.2327 49.923C63.57 48.865 67.3353 53.3285 65.4318 57.424C62.8961 62.8807 54.4416 60.7392 55.2057 54.2777C55.2682 53.7453 55.8379 52.6224 55.7013 52.3168L45.6512 42.2577H45.3733C43.9538 43.4083 42.2402 44.0311 40.4479 44.2834L40.302 57.8499C43.5208 58.6394 46.2487 60.9174 46.9156 64.2697C48.2818 71.1479 41.0615 76.3499 34.9597 72.9027C28.4503 69.2264 30.2403 59.4312 37.4213 58.0189L37.544 57.8523L37.5625 44.5751L37.4236 44.2811C35.5873 44.0311 33.9616 43.2277 32.4541 42.2068L15.2347 59.3849C18.6063 66.0431 12.2313 73.4306 5.15916 70.7682C-3.47139 67.5178 -0.683308 54.2129 9.16993 55.1968C10.8048 55.3612 12.2012 56.3798 13.5813 57.1531L30.4696 40.2181C27.4685 36.1806 27.5403 31.0896 30.4233 27.0151L20.2296 16.8217C15.6515 19.1854 10.5593 14.9117 12.5439 10.0083C13.1529 8.50349 14.6789 7.14452 16.2883 6.81809C21.0077 5.85732 24.3539 10.6913 22.1725 14.8793L32.4356 25.112C36.2935 22.0769 41.7238 22.1094 45.5864 25.112L58.7325 11.9923C57.6719 9.52676 57.4195 7.11211 58.5866 4.61411C59.6356 2.36615 62.2385 0.291813 64.7301 -0.00683594H67.0412L67.0366 0.000109376ZM64.9756 2.78055C58.7001 3.6927 59.3462 13.6592 66.0918 13.4416C73.3908 13.2078 72.6359 1.66467 64.9756 2.78055ZM17.3003 9.42258C13.7758 9.69345 14.1232 15.2335 17.9695 14.7265C21.061 14.319 20.6812 9.16329 17.3003 9.42258ZM33.2762 27.9411C25.6368 35.581 37.6505 47.0523 44.9334 39.093C51.9684 31.4045 40.6285 20.586 33.2762 27.9411ZM60.2146 52.4905C56.7804 52.8655 57.313 58.2458 60.8838 57.7897C64.2508 57.3615 63.7112 52.1062 60.2146 52.4905ZM4.2352 67.0015C9.47097 72.3217 17.2725 63.6308 11.3953 59.0445C6.06923 54.8889 -0.359112 62.3343 4.2352 67.0015ZM38.5421 60.591C31.5255 61.1536 32.3685 72.0925 39.7856 71.2266C46.2857 70.4673 45.5794 60.0261 38.5421 60.591Z" fill="#1582AC"/>
</g>
<defs>
<clipPath id="clip0_3326_3049">
<rect width="74" height="74" fill="white"/>
</clipPath>
</defs>
</svg>
