<svg width="90" height="76" viewBox="0 0 90 76" fill="none" xmlns="http://www.w3.org/2000/svg">
<g clip-path="url(#clip0_3326_3031)">
<path d="M89.9997 75.1046C89.6082 75.6264 89.2395 76.0513 88.5133 75.9971H1.51445C0.354278 76.0912 -0.400261 74.7682 0.223794 73.7987C0.320238 73.6476 1.08612 73.1629 1.17122 73.1629H7.76067V52.9382C7.76067 52.6017 8.64286 51.8575 9.07402 51.963C13.0992 52.2482 17.598 51.5981 21.5636 51.9573C22.0657 52.003 23.05 52.3537 23.05 52.9382V73.1629H27.6198V44.8118C27.6198 44.7406 28.4708 43.8652 28.7516 44.0078C32.8079 44.3756 37.6302 43.5487 41.5929 44.0135C42.2567 44.0905 42.9063 44.6892 42.9063 45.3422V73.1629H47.3002V47.2868C47.3002 46.8449 48.1058 45.9638 48.6277 45.9723C52.6415 46.2347 57.1517 45.5903 61.1031 45.9552C61.7783 46.018 62.7654 46.517 62.7654 47.2897V73.1657H67.1593V33.5062C67.1593 32.8789 68.05 32.4027 68.6429 32.3457C72.5914 31.975 77.1215 32.6508 81.1353 32.3543C81.5665 32.2488 82.4486 32.9958 82.4486 33.3294V73.16H88.8622C89.231 73.16 89.7926 73.736 90.0054 74.0439V75.1046H89.9997ZM79.6319 35.1857H69.9676V73.1629H79.6319V35.1857ZM40.0952 46.6652H30.4309V73.16H40.0952V46.6652ZM59.7756 48.7866H50.1113V73.1629H59.7756V48.7866ZM20.2389 54.7916H10.5746V73.1629H20.2389V54.7916Z" fill="#1582AC"/>
<path d="M73.2669 0.0826027C86.182 -1.30601 92.3602 15.0665 82.0775 22.5399C73.0854 29.0723 60.8227 21.3765 62.6098 10.3874C63.4636 5.1352 67.9455 0.652874 73.2698 0.0826027H73.2669ZM73.2641 2.90544C61.4865 4.391 63.1289 23.3611 75.8341 22.0922C88.352 20.8405 86.6614 1.21459 73.2641 2.90544Z" fill="#1582AC"/>
<path d="M67.2817 26.0356C68.9411 25.6507 69.6106 27.0906 68.7426 28.388L53.9865 40.05H52.7413L35.0777 32.722L16.0951 46.1348C14.6484 46.3315 14.0556 44.4725 15.1533 43.5885L34.4678 29.788L34.9103 29.7024L53.1809 37.1359L67.2817 26.0384V26.0356Z" fill="#1582AC"/>
<path d="M75.7689 4.44824L75.7775 6.03074L77.6837 6.40997L77.5248 8.68821C77.3943 8.84503 74.4896 7.27679 73.7918 8.91061C72.887 11.032 75.9221 11.2601 77.1617 12.144C79.2665 13.6439 79.397 16.7148 77.2326 18.1975C75.9959 19.0443 75.7321 18.3457 75.9448 20.5242H74.0102L73.8457 18.8333L70.9297 18.2431L71.0233 15.9306C72.314 16.2643 75.2357 17.496 76.0271 15.751C76.8554 13.9233 73.8457 13.4528 72.8331 12.7856C70.89 11.5082 70.4673 9.20715 71.8261 7.28819C72.677 6.08492 74.1436 6.58391 73.6585 4.44824H75.7689Z" fill="#1582AC"/>
</g>
<defs>
<clipPath id="clip0_3326_3031">
<rect width="90" height="76" fill="white"/>
</clipPath>
</defs>
</svg>
