<svg width="197" height="92" viewBox="0 0 197 92" fill="none" xmlns="http://www.w3.org/2000/svg">
<g clip-path="url(#clip0_3023_3892)">
<path d="M15.8202 1.35002C14.1702 0.63002 11.8402 0.27002 8.83023 0.27002C6.89023 0.27002 4.67023 0.32002 2.15023 0.43002C1.70023 0.43002 0.980234 0.46002 -0.00976562 0.51002V25.21H8.47023V17.86C9.01023 17.86 9.53023 17.87 10.0002 17.87C13.4002 17.87 15.9402 17.01 17.6002 15.3C19.2602 13.59 20.0902 11.38 20.0902 8.68002C20.0902 6.95002 19.7902 5.48002 19.1902 4.26002C18.5902 3.04002 17.4602 2.07002 15.8102 1.35002H15.8202ZM10.8602 11.64C10.7402 12.15 10.5402 12.5 10.2502 12.68C9.96023 12.86 9.54023 12.95 8.99023 12.95C8.82023 12.95 8.65023 12.95 8.48023 12.95V5.46002C8.67023 5.46002 8.85023 5.46002 9.03023 5.46002C9.55023 5.46002 9.95023 5.56002 10.2302 5.77002C10.5002 5.98002 10.7102 6.36002 10.8402 6.91002C10.9702 7.46002 11.0402 8.26002 11.0402 9.31002C11.0402 10.36 10.9802 11.14 10.8602 11.65V11.64Z" fill="#282960"/>
<path d="M39.68 16.0003C39.49 15.6903 39.3 15.3903 39.11 15.1003C39.94 14.6803 40.67 14.1303 41.29 13.4503C42.43 12.2103 43 10.3503 43 7.89029C43 6.03029 42.58 4.55029 41.74 3.43029C40.9 2.32029 39.65 1.52029 37.99 1.03029C36.33 0.550293 34.2 0.300293 31.61 0.300293C28.76 0.300293 26.36 0.340293 24.42 0.420293C23.79 0.450293 23.15 0.470293 22.5 0.500293V25.2003H30.98V16.4403C31.25 16.4403 31.51 16.4303 31.77 16.4203L34.82 25.2003H44.28L41.18 18.6403C40.89 18.0403 40.39 17.1503 39.67 15.9903L39.68 16.0003ZM30.98 5.51029C31.28 5.51029 31.57 5.50029 31.84 5.50029C32.47 5.50029 32.94 5.60029 33.25 5.81029C33.56 6.02029 33.77 6.34029 33.88 6.77029C33.98 7.20029 34.04 7.82029 34.04 8.64029C34.04 9.53029 33.94 10.1803 33.73 10.6003C33.52 11.0203 33.22 11.2903 32.83 11.4103C32.44 11.5303 31.89 11.5903 31.18 11.5903C31.12 11.5903 31.05 11.5903 30.98 11.5903V5.52029V5.51029Z" fill="#282960"/>
<path d="M57.0106 0C54.5506 0 52.3806 0.5 50.5106 1.51C48.6406 2.52 47.1906 3.98 46.1706 5.91C45.1506 7.83 44.6406 10.13 44.6406 12.8C44.6406 16.91 45.6306 20.09 47.6206 22.34C49.6106 24.59 52.6206 25.72 56.6506 25.72C59.1106 25.72 61.2306 25.18 63.0106 24.09C64.7906 23 66.1506 21.47 67.0906 19.48C68.0306 17.49 68.5006 15.17 68.5006 12.53C68.5006 8.55 67.5106 5.47 65.5406 3.28C63.5606 1.09 60.7206 0 57.0006 0L57.0106 0ZM59.0206 17.28C58.8106 18.33 58.5306 19.02 58.1806 19.36C57.8306 19.7 57.3606 19.87 56.7906 19.87C56.1606 19.87 55.6506 19.71 55.2606 19.38C54.8706 19.05 54.5606 18.37 54.3406 17.34C54.1206 16.31 54.0106 14.78 54.0106 12.77C54.0106 10.28 54.2506 8.61 54.7406 7.76C55.2206 6.91 55.8906 6.48 56.7206 6.48C57.6606 6.48 58.3406 6.93 58.7406 7.82C59.1506 8.71 59.3506 10.32 59.3506 12.65C59.3506 14.69 59.2506 16.24 59.0406 17.28H59.0206Z" fill="#282960"/>
<path d="M81.9497 16.4502L84.3097 16.3502V19.7502C83.9397 19.7702 83.5797 19.7802 83.2497 19.7802C82.0997 19.7802 81.2297 19.6002 80.6397 19.2502C80.0497 18.9002 79.6297 18.2402 79.3597 17.2902C79.0997 16.3302 78.9697 14.9002 78.9697 12.9902C78.9697 11.2902 79.1997 9.96023 79.6597 9.00023C80.1197 8.04023 80.7997 7.38023 81.6997 7.00023C82.5997 6.62023 83.7897 6.43023 85.2497 6.43023C85.9597 6.43023 86.6897 6.47023 87.4497 6.55023C88.2097 6.63023 88.9597 6.72023 89.6897 6.82023C89.8497 6.85023 89.9897 6.87023 90.1197 6.90023L90.7897 1.05023C89.6097 0.710234 88.4997 0.450234 87.4497 0.260234C86.3997 0.0802343 85.2097 -0.00976562 83.8797 -0.00976562C81.2397 -0.00976562 78.8597 0.510234 76.7497 1.56023C74.6397 2.61023 72.9797 4.15023 71.7597 6.17023C70.5397 8.20023 69.9297 10.6402 69.9297 13.4902C69.9297 17.7802 71.0697 20.8902 73.3497 22.8202C75.6297 24.7402 79.0697 25.7102 83.6797 25.7102C85.4297 25.7102 87.7797 25.5502 90.7097 25.2402L91.7297 25.1202V11.0602H81.9497V16.4402V16.4502Z" fill="#282960"/>
<path d="M112.08 16.0003C111.89 15.6903 111.7 15.3903 111.51 15.1003C112.34 14.6803 113.07 14.1303 113.69 13.4503C114.83 12.2103 115.4 10.3503 115.4 7.89029C115.4 6.03029 114.98 4.55029 114.14 3.43029C113.3 2.32029 112.05 1.52029 110.39 1.03029C108.73 0.550293 106.6 0.300293 104.01 0.300293C101.16 0.300293 98.7604 0.340293 96.8204 0.420293C96.1904 0.450293 95.5504 0.470293 94.9004 0.500293V25.2003H103.38V16.4403C103.65 16.4403 103.91 16.4303 104.17 16.4203L107.22 25.2003H116.68L113.58 18.6403C113.29 18.0403 112.79 17.1503 112.07 15.9903L112.08 16.0003ZM103.39 5.51029C103.69 5.51029 103.98 5.50029 104.25 5.50029C104.88 5.50029 105.35 5.60029 105.66 5.81029C105.97 6.02029 106.18 6.34029 106.29 6.77029C106.39 7.20029 106.45 7.82029 106.45 8.64029C106.45 9.53029 106.35 10.1803 106.14 10.6003C105.93 11.0203 105.63 11.2903 105.24 11.4103C104.85 11.5303 104.3 11.5903 103.59 11.5903C103.53 11.5903 103.46 11.5903 103.39 11.5903V5.52029V5.51029Z" fill="#282960"/>
<path d="M124.04 0.510254L116.74 25.2103H125.89L126.52 21.4003H131.51L132.21 25.2103H141.12L134.01 0.510254H124.04ZM127.52 15.3903L128.88 7.19025L130.39 15.3903H127.51H127.52Z" fill="#282960"/>
<path d="M160.679 0.51L157.769 11.62C157.509 12.58 157.249 13.58 156.999 14.63C156.759 13.47 156.509 12.4 156.239 11.43L153.409 0.51H142.999L141.859 25.21H149.629L149.399 9.53L153.279 22.93H159.759L163.559 9.42L163.529 25.2H171.109L170.439 0.5H160.659L160.679 0.51Z" fill="#282960"/>
<path d="M187.341 25.2103H196.251L189.141 0.510254H179.171L171.871 25.2103H181.021L181.651 21.4003H186.641L187.341 25.2103ZM182.651 15.3903L184.011 7.19025L185.521 15.3903H182.641H182.651Z" fill="#282960"/>
<path d="M16.9802 33.5804C15.1602 32.7904 12.8202 32.4004 9.97023 32.4004C7.12023 32.4004 4.21023 32.4704 1.25023 32.6004L-0.00976562 32.6804V57.3804C3.76023 57.5404 6.98023 57.6204 9.65023 57.6204C12.6102 57.6204 15.0402 57.1404 16.9302 56.1704C18.8302 55.2004 20.2302 53.7604 21.1302 51.8504C22.0302 49.9404 22.4802 47.5604 22.4802 44.7004C22.4802 41.6604 22.0102 39.2504 21.0902 37.4604C20.1602 35.6704 18.7902 34.3804 16.9702 33.5904L16.9802 33.5804ZM13.0202 49.4804C12.8002 50.4804 12.4202 51.1704 11.9002 51.5604C11.3802 51.9504 10.6002 52.1504 9.58023 52.1504C9.26023 52.1504 8.92023 52.1504 8.56024 52.1304V38.0004C8.94024 37.9804 9.32023 37.9704 9.70023 37.9704C10.7202 37.9704 11.4902 38.1604 12.0002 38.5404C12.5102 38.9204 12.8602 39.6104 13.0602 40.6004C13.2602 41.6004 13.3502 43.0904 13.3502 45.0804C13.3502 47.0704 13.2402 48.4804 13.0202 49.4804Z" fill="#1582AC"/>
<path d="M33.3398 51.3604V47.8704H40.2098V41.9804H33.3398V38.6804H41.1898L41.4998 32.6704H25.0098V57.3704H41.5398L41.4298 51.3604H33.3398Z" fill="#1582AC"/>
<path d="M68.7497 32.6706L65.8397 43.7806C65.5797 44.7406 65.3197 45.7406 65.0697 46.7906C64.8297 45.6306 64.5797 44.5606 64.3097 43.5906L61.4797 32.6706H51.0697L49.9297 57.3706H57.6997L57.4697 41.6906L61.3497 55.0906H67.8297L71.6297 41.5806L71.5997 57.3606H79.1797L78.5097 32.6606H68.7297L68.7497 32.6706Z" fill="#1582AC"/>
<path d="M90.07 51.3604V47.8704H96.95V41.9804H90.07V38.6804H97.93L98.24 32.6704H81.75V57.3704H98.28L98.16 51.3604H90.07Z" fill="#1582AC"/>
<path d="M118.35 38.7204L118.58 32.6704H99.2598L99.5398 38.7204H104.6V57.3704H113.2V38.7204H118.35Z" fill="#1582AC"/>
<path d="M124.079 32.6704L116.779 57.3704H125.929L126.559 53.5604H131.549L132.249 57.3704H141.159L134.049 32.6704H124.079ZM127.559 47.5604L128.919 39.3604L130.429 47.5604H127.549H127.559Z" fill="#1582AC"/>
<path d="M158.931 45.7704C158.051 44.7404 156.791 43.8504 155.141 43.1204C153.881 42.5404 152.951 42.0904 152.331 41.7504C151.711 41.4104 151.301 41.1104 151.071 40.8504C150.851 40.5904 150.741 40.3004 150.741 39.9904C150.741 39.4704 150.951 39.0904 151.371 38.8504C151.791 38.6104 152.361 38.5004 153.101 38.5004C153.911 38.5004 154.791 38.5904 155.731 38.7604C156.671 38.9304 157.581 39.1704 158.441 39.4904L159.341 33.4804C158.401 33.0904 157.331 32.7704 156.141 32.5404C154.951 32.3004 153.731 32.1904 152.471 32.1904C150.221 32.1904 148.321 32.5404 146.781 33.2504C145.241 33.9604 144.081 34.9104 143.321 36.1004C142.561 37.2904 142.181 38.6104 142.181 40.0504C142.181 41.1804 142.401 42.1604 142.831 42.9904C143.261 43.8304 143.881 44.5704 144.681 45.2304C145.481 45.8804 146.511 46.5504 147.761 47.2304C148.781 47.7804 149.531 48.2104 150.001 48.5104C150.471 48.8104 150.811 49.0904 151.021 49.3504C151.231 49.6104 151.331 49.9304 151.331 50.2904C151.331 50.8104 151.151 51.1904 150.801 51.4104C150.451 51.6304 149.891 51.7404 149.131 51.7404C148.271 51.7404 147.271 51.6204 146.151 51.3904C145.021 51.1504 143.811 50.8104 142.501 50.3704L141.711 56.1804C143.021 56.7604 144.331 57.1904 145.661 57.4804C146.981 57.7704 148.471 57.9104 150.121 57.9104C153.231 57.9104 155.701 57.2204 157.521 55.8504C159.341 54.4804 160.251 52.4804 160.251 49.8604C160.251 48.1904 159.811 46.8304 158.931 45.8004V45.7704Z" fill="#1582AC"/>
<path d="M14.3102 66.9202C13.0902 65.7902 11.2902 65.2202 8.94023 65.2202C7.66023 65.2202 6.45023 65.3602 5.32023 65.6402C4.19023 65.9202 3.17023 66.3102 2.27023 66.8002L2.51023 70.8402C3.41023 70.4802 4.27023 70.2102 5.10023 70.0102C5.93023 69.8202 6.73023 69.7202 7.49023 69.7202C8.57023 69.7202 9.31023 69.9302 9.73023 70.3602C10.1502 70.7902 10.3002 71.3902 10.1802 72.1802C10.0902 72.8502 9.71023 73.6402 9.05023 74.5402C8.39023 75.4402 7.56024 76.3902 6.57023 77.3902C5.58023 78.3902 4.21023 79.7202 2.46023 81.3802C1.83023 81.9902 1.19023 82.6002 0.540234 83.2302L0.240234 86.8002H14.0202L14.5902 82.2902H11.2502C9.95023 82.2902 8.67023 82.3202 7.44023 82.3902C9.14023 80.8502 10.5102 79.5602 11.5402 78.5202C12.6302 77.4202 13.5702 76.3002 14.3502 75.1502C15.1402 74.0002 15.6002 72.8902 15.7302 71.8102C16.0002 69.6802 15.5202 68.0402 14.3002 66.9102L14.3102 66.9202Z" fill="#51BFD3"/>
<path d="M26.9302 65.22C24.4102 65.22 22.3602 66.05 20.7602 67.71C19.1602 69.37 18.1402 72.06 17.6902 75.76C17.2402 79.47 17.6402 82.3 18.9002 84.25C20.1602 86.2 22.2002 87.18 25.0302 87.18C27.6802 87.18 29.7502 86.29 31.2302 84.52C32.7102 82.75 33.6702 80.04 34.0902 76.4C34.5202 72.67 34.1002 69.88 32.8402 68.01C31.5802 66.15 29.6102 65.21 26.9102 65.21L26.9302 65.22ZM28.2402 76.61C28.0202 78.43 27.7602 79.81 27.4802 80.74C27.2002 81.67 26.8802 82.3 26.5402 82.63C26.1902 82.96 25.7702 83.12 25.2802 83.12C24.6702 83.12 24.2102 82.93 23.9002 82.55C23.5902 82.17 23.3902 81.46 23.3302 80.41C23.2702 79.36 23.3502 77.85 23.6002 75.88C23.8002 74.13 24.0402 72.78 24.3202 71.84C24.6002 70.9 24.9302 70.25 25.3002 69.9C25.6702 69.55 26.1402 69.38 26.7002 69.38C27.3102 69.38 27.7602 69.59 28.0502 70C28.3402 70.42 28.5002 71.15 28.5402 72.19C28.5702 73.23 28.4802 74.71 28.2502 76.62L28.2402 76.61Z" fill="#51BFD3"/>
<path d="M49.0095 66.9202C47.7895 65.7902 45.9895 65.2202 43.6395 65.2202C42.3595 65.2202 41.1495 65.3602 40.0195 65.6402C38.8895 65.9202 37.8695 66.3102 36.9695 66.8002L37.2095 70.8402C38.1095 70.4802 38.9695 70.2102 39.7995 70.0102C40.6295 69.8202 41.4295 69.7202 42.1895 69.7202C43.2695 69.7202 44.0095 69.9302 44.4295 70.3602C44.8495 70.7902 44.9995 71.3902 44.8795 72.1802C44.7895 72.8502 44.4095 73.6402 43.7495 74.5402C43.0895 75.4402 42.2595 76.3902 41.2695 77.3902C40.2795 78.3902 38.9095 79.7202 37.1595 81.3802C36.5295 81.9902 35.8895 82.6002 35.2395 83.2302L34.9395 86.8002H48.7195L49.2895 82.2902H45.9495C44.6495 82.2902 43.3695 82.3202 42.1395 82.3902C43.8395 80.8502 45.2095 79.5602 46.2395 78.5202C47.3295 77.4202 48.2695 76.3002 49.0495 75.1502C49.8395 74.0002 50.2995 72.8902 50.4295 71.8102C50.6995 69.6802 50.2195 68.0402 48.9995 66.9102L49.0095 66.9202Z" fill="#51BFD3"/>
<path d="M52.8 75.0601L53.37 77.7901C54.07 77.6301 54.68 77.5201 55.22 77.4401C55.76 77.3601 56.32 77.3201 56.9 77.3201C57.89 77.3201 58.61 77.5301 59.07 77.9601C59.53 78.3901 59.72 79.0401 59.63 79.9101C59.54 80.7001 59.31 81.3201 58.94 81.7801C58.57 82.2401 58 82.5901 57.22 82.8201C56.45 83.0601 55.37 83.2101 54 83.2701C53.37 83.2901 52.65 83.2701 51.84 83.2001L51.5 87.0101C52.17 87.0801 53.02 87.1101 54.03 87.1101C57.29 87.1101 59.94 86.5201 62 85.3201C64.06 84.1301 65.25 82.1801 65.59 79.4601C65.81 77.5301 65.44 76.0901 64.48 75.1301C63.51 74.1801 61.99 73.7001 59.9 73.7001C59.28 73.7001 58.64 73.7401 58 73.8201C58.24 73.0901 58.49 72.2801 58.76 71.3801L59.18 70.0301H66.44L67.32 65.6201H55.59L52.79 75.0501L52.8 75.0601Z" fill="#51BFD3"/>
<path d="M71.4297 90.2602L76.3497 91.4002L86.8297 63.0302L81.9097 62.1602L71.4297 90.2602Z" fill="#51BFD3"/>
<path d="M105.281 66.9202C104.061 65.7902 102.261 65.2202 99.9109 65.2202C98.6309 65.2202 97.4209 65.3602 96.2909 65.6402C95.1609 65.9202 94.1409 66.3102 93.2409 66.8002L93.4809 70.8402C94.3809 70.4802 95.2409 70.2102 96.0709 70.0102C96.9009 69.8202 97.7009 69.7202 98.4609 69.7202C99.5409 69.7202 100.281 69.9302 100.701 70.3602C101.121 70.7902 101.271 71.3902 101.151 72.1802C101.061 72.8502 100.681 73.6402 100.021 74.5402C99.3609 75.4402 98.5309 76.3902 97.5409 77.3902C96.5509 78.3902 95.1809 79.7202 93.4309 81.3802C92.8009 81.9902 92.1609 82.6002 91.5109 83.2302L91.2109 86.8002H104.991L105.561 82.2902H102.221C100.921 82.2902 99.6409 82.3202 98.4109 82.3902C100.111 80.8502 101.481 79.5602 102.511 78.5202C103.601 77.4202 104.541 76.3002 105.321 75.1502C106.111 74.0002 106.571 72.8902 106.701 71.8102C106.971 69.6802 106.491 68.0402 105.271 66.9102L105.281 66.9202Z" fill="#51BFD3"/>
<path d="M117.901 65.22C115.381 65.22 113.331 66.05 111.731 67.71C110.131 69.37 109.111 72.06 108.661 75.76C108.211 79.47 108.611 82.3 109.871 84.25C111.131 86.2 113.171 87.18 116.001 87.18C118.651 87.18 120.721 86.29 122.201 84.52C123.681 82.75 124.641 80.04 125.061 76.4C125.491 72.67 125.071 69.88 123.811 68.01C122.551 66.15 120.581 65.21 117.881 65.21L117.901 65.22ZM119.211 76.61C118.991 78.43 118.731 79.81 118.451 80.74C118.171 81.67 117.851 82.3 117.511 82.63C117.161 82.96 116.741 83.12 116.251 83.12C115.641 83.12 115.181 82.93 114.871 82.55C114.561 82.17 114.361 81.46 114.301 80.41C114.241 79.36 114.321 77.85 114.571 75.88C114.771 74.13 115.011 72.78 115.291 71.84C115.571 70.9 115.901 70.25 116.271 69.9C116.641 69.55 117.111 69.38 117.671 69.38C118.281 69.38 118.731 69.59 119.021 70C119.311 70.42 119.471 71.15 119.511 72.19C119.551 73.23 119.451 74.71 119.221 76.62L119.211 76.61Z" fill="#51BFD3"/>
<path d="M139.98 66.9202C138.76 65.7902 136.96 65.2202 134.61 65.2202C133.33 65.2202 132.12 65.3602 130.99 65.6402C129.86 65.9202 128.84 66.3102 127.94 66.8002L128.18 70.8402C129.08 70.4802 129.94 70.2102 130.77 70.0102C131.6 69.8202 132.4 69.7202 133.16 69.7202C134.24 69.7202 134.98 69.9302 135.4 70.3602C135.82 70.7902 135.97 71.3902 135.85 72.1802C135.76 72.8502 135.38 73.6402 134.72 74.5402C134.06 75.4402 133.23 76.3902 132.24 77.3902C131.25 78.3902 129.88 79.7202 128.13 81.3802C127.5 81.9902 126.86 82.6002 126.21 83.2302L125.91 86.8002H139.69L140.26 82.2902H136.92C135.62 82.2902 134.34 82.3202 133.11 82.3902C134.81 80.8502 136.18 79.5602 137.21 78.5202C138.3 77.4202 139.24 76.3002 140.02 75.1502C140.81 74.0002 141.27 72.8902 141.4 71.8102C141.67 69.6802 141.19 68.0402 139.97 66.9102L139.98 66.9202Z" fill="#51BFD3"/>
<path d="M159.1 71.15C159.21 69.96 159 68.92 158.46 68.02C157.92 67.12 157.11 66.43 156.02 65.95C154.93 65.47 153.67 65.23 152.23 65.23C150.14 65.23 148.44 65.71 147.13 66.66C145.82 67.61 145.07 68.9 144.89 70.52C144.73 72 145.07 73.31 145.9 74.45C146.25 74.93 146.69 75.4 147.21 75.87C146.33 76.31 145.56 76.81 144.92 77.37C143.77 78.38 143.12 79.62 142.97 81.08C142.84 82.29 143.04 83.37 143.59 84.3C144.14 85.23 144.99 85.95 146.13 86.46C147.28 86.97 148.62 87.22 150.17 87.22C151.81 87.22 153.22 87 154.4 86.56C155.58 86.12 156.51 85.47 157.2 84.61C157.88 83.75 158.29 82.7 158.43 81.46C158.54 80.47 158.4 79.58 158.01 78.78C157.62 77.98 157.05 77.27 156.31 76.64C156.07 76.44 155.82 76.24 155.54 76.04C156.32 75.6 157.01 75.07 157.6 74.47C158.46 73.58 158.96 72.49 159.1 71.18V71.15ZM149.91 70.48C149.95 69.92 150.17 69.49 150.57 69.2C150.96 68.91 151.45 68.76 152.04 68.76C152.76 68.76 153.3 68.97 153.66 69.4C154.02 69.83 154.15 70.39 154.06 71.08C153.97 71.89 153.72 72.56 153.32 73.1C153.07 73.43 152.76 73.72 152.39 73.97C151.58 73.42 150.99 72.92 150.62 72.47C150.1 71.83 149.87 71.16 149.91 70.47V70.48ZM152.97 81.7C152.88 82.28 152.63 82.73 152.21 83.03C151.79 83.33 151.23 83.48 150.51 83.48C149.63 83.48 148.99 83.25 148.57 82.79C148.15 82.33 147.98 81.73 148.05 80.99C148.14 80.16 148.51 79.41 149.16 78.75C149.44 78.47 149.77 78.2 150.15 77.94C150.88 78.4 151.46 78.81 151.87 79.19C152.35 79.63 152.67 80.04 152.83 80.44C152.99 80.83 153.03 81.25 152.96 81.7H152.97Z" fill="#51BFD3"/>
</g>
<defs>
<clipPath id="clip0_3023_3892">
<rect width="196.25" height="91.4" fill="white"/>
</clipPath>
</defs>
</svg>
