<svg width="761" height="314" viewBox="0 0 761 314" fill="none" xmlns="http://www.w3.org/2000/svg">
<g clip-path="url(#clip0_1591_4173)">
<path d="M370.948 78.084C367.383 76.5297 362.346 75.749 355.837 75.749C351.65 75.749 346.841 75.8596 341.404 76.0875C340.443 76.0875 338.882 76.1428 336.733 76.2602V129.647H355.07V113.751C356.245 113.772 357.35 113.779 358.38 113.779C365.738 113.779 371.21 111.927 374.803 108.218C378.396 104.515 380.193 99.7482 380.193 93.9177C380.193 90.1803 379.543 87.0025 378.237 84.3705C376.938 81.7385 374.499 79.6453 370.934 78.0909L370.948 78.084ZM360.211 100.322C359.955 101.427 359.52 102.173 358.898 102.574C358.276 102.967 357.371 103.168 356.183 103.168C355.816 103.168 355.45 103.161 355.077 103.154V86.968C355.485 86.968 355.886 86.9542 356.266 86.9542C357.399 86.9542 358.262 87.1821 358.857 87.6312C359.451 88.0871 359.886 88.9023 360.169 90.0905C360.453 91.2787 360.591 93.0058 360.591 95.2648C360.591 97.5238 360.466 99.2094 360.211 100.315V100.322Z" fill="white"/>
<path d="M422.519 109.744C422.104 109.074 421.697 108.425 421.282 107.796C423.072 106.884 424.647 105.703 425.994 104.225C428.454 101.537 429.684 97.5376 429.684 92.2182C429.684 88.2045 428.779 84.9922 426.969 82.5881C425.158 80.1841 422.457 78.457 418.864 77.4139C415.271 76.3707 410.669 75.8457 405.073 75.8457C398.903 75.8457 393.728 75.9286 389.541 76.1013C388.18 76.1566 386.798 76.2187 385.381 76.274V129.661H403.719V110.718C404.306 110.712 404.873 110.691 405.439 110.677L412.037 129.661H432.496L425.787 115.485C425.165 114.186 424.074 112.273 422.519 109.758V109.744ZM403.719 87.0647C404.368 87.0509 404.997 87.037 405.584 87.037C406.945 87.037 407.961 87.265 408.638 87.7141C409.315 88.17 409.771 88.8608 409.999 89.7934C410.227 90.726 410.338 92.0732 410.338 93.8278C410.338 95.7552 410.11 97.1645 409.661 98.0695C409.205 98.9745 408.555 99.5548 407.705 99.8104C406.856 100.066 405.667 100.19 404.14 100.19C404.002 100.19 403.857 100.19 403.719 100.19V87.0647Z" fill="white"/>
<path d="M459.995 75.1617C454.675 75.1617 449.991 76.2532 445.949 78.4293C441.9 80.6054 438.777 83.7763 436.566 87.935C434.362 92.0938 433.256 97.0608 433.256 102.829C433.256 111.713 435.405 118.587 439.71 123.45C444.007 128.321 450.516 130.752 459.235 130.752C464.556 130.752 469.136 129.578 472.985 127.229C476.833 124.88 479.777 121.557 481.815 117.254C483.853 112.957 484.869 107.948 484.869 102.228C484.869 93.6274 482.734 86.9679 478.457 82.2426C474.187 77.5174 468.031 75.1548 459.995 75.1548V75.1617ZM464.328 112.501C463.872 114.767 463.264 116.266 462.504 116.998C461.737 117.737 460.735 118.103 459.491 118.103C458.13 118.103 457.031 117.751 456.181 117.039C455.332 116.335 454.668 114.863 454.185 112.625C453.701 110.394 453.466 107.092 453.466 102.739C453.466 97.3648 453.991 93.7587 455.035 91.9211C456.078 90.0835 457.508 89.1647 459.318 89.1647C461.357 89.1647 462.814 90.1249 463.692 92.0523C464.569 93.9797 465.005 97.4546 465.005 102.491C465.005 106.905 464.777 110.242 464.328 112.508V112.501Z" fill="white"/>
<path d="M513.902 110.718L518.994 110.511V117.855C518.199 117.903 517.426 117.931 516.7 117.931C514.213 117.931 512.326 117.551 511.055 116.784C509.784 116.017 508.865 114.608 508.298 112.542C507.732 110.477 507.449 107.382 507.449 103.251C507.449 99.5754 507.946 96.7016 508.934 94.636C509.922 92.5704 511.394 91.1266 513.349 90.3045C515.304 89.4825 517.861 89.0749 521.032 89.0749C522.559 89.0749 524.141 89.1578 525.786 89.3305C527.423 89.5032 529.04 89.6966 530.622 89.9246C530.961 89.9799 531.272 90.042 531.555 90.0973L532.999 77.4483C530.45 76.716 528.045 76.1496 525.786 75.7489C523.52 75.3551 520.949 75.1548 518.061 75.1548C512.347 75.1548 507.207 76.2877 502.653 78.5467C498.1 80.8126 494.507 84.1355 491.875 88.5222C489.242 92.9089 487.93 98.1868 487.93 104.349C487.93 113.627 490.389 120.348 495.316 124.507C500.242 128.666 507.683 130.745 517.64 130.745C521.433 130.745 526.498 130.407 532.833 129.73L535.037 129.474V99.0918H513.902V110.718Z" fill="white"/>
<path d="M579.05 109.744C578.635 109.074 578.228 108.425 577.813 107.796C579.602 106.884 581.178 105.703 582.525 104.225C584.985 101.537 586.215 97.5376 586.215 92.2182C586.215 88.2045 585.31 84.9922 583.499 82.5881C581.689 80.1841 578.988 78.457 575.395 77.4139C571.802 76.3707 567.2 75.8457 561.604 75.8457C555.434 75.8457 550.259 75.9286 546.072 76.1013C544.71 76.1566 543.329 76.2187 541.912 76.274V129.661H560.249V110.718C560.837 110.712 561.403 110.691 561.97 110.677L568.568 129.661H589.027L582.318 115.485C581.696 114.186 580.604 112.273 579.05 109.758V109.744ZM560.249 87.0647C560.899 87.0509 561.528 87.037 562.115 87.037C563.476 87.037 564.492 87.265 565.169 87.7141C565.846 88.17 566.302 88.8608 566.53 89.7934C566.758 90.726 566.869 92.0732 566.869 93.8278C566.869 95.7552 566.641 97.1645 566.191 98.0695C565.735 98.9745 565.086 99.5548 564.236 99.8104C563.386 100.066 562.198 100.19 560.671 100.19C560.533 100.19 560.388 100.19 560.249 100.19V87.0647Z" fill="white"/>
<path d="M604.898 76.2603L589.11 129.647H608.891L610.259 121.412H621.038L622.558 129.647H641.828L626.462 76.2603H604.898ZM612.415 108.432L615.365 90.6985L618.633 108.432H612.408H612.415Z" fill="white"/>
<path d="M684.092 76.2603L677.811 100.28C677.252 102.346 676.692 104.515 676.139 106.781C675.621 104.266 675.075 101.952 674.502 99.8519L668.387 76.2603H645.89L643.431 129.647H660.241L659.75 95.7622L668.138 124.728H682.144L690.359 95.5342L690.297 129.654H706.679L705.235 76.2672H684.099L684.092 76.2603Z" fill="white"/>
<path d="M741.73 129.647H761L745.634 76.2603H724.07L708.282 129.647H728.063L729.431 121.412H740.21L741.73 129.647ZM731.594 108.432L734.544 90.6985L737.812 108.432H731.587H731.594Z" fill="white"/>
<path d="M373.456 147.733C369.524 146.033 364.474 145.184 358.304 145.184C352.134 145.184 345.853 145.329 339.462 145.605L336.747 145.778V199.165C344.893 199.503 351.857 199.676 357.627 199.676C364.018 199.676 369.269 198.633 373.373 196.533C377.477 194.439 380.503 191.331 382.459 187.199C384.414 183.068 385.388 177.922 385.388 171.753C385.388 165.19 384.386 159.967 382.376 156.092C380.365 152.216 377.394 149.432 373.463 147.733H373.456ZM364.881 182.108C364.398 184.257 363.596 185.756 362.463 186.605C361.33 187.455 359.665 187.876 357.454 187.876C356.756 187.876 356.024 187.863 355.25 187.842V157.301C356.072 157.266 356.894 157.245 357.709 157.245C359.914 157.245 361.572 157.653 362.677 158.475C363.783 159.297 364.543 160.782 364.971 162.931C365.393 165.079 365.607 168.305 365.607 172.609C365.607 176.913 365.365 179.967 364.888 182.115L364.881 182.108Z" fill="white"/>
<path d="M408.811 186.184V178.626H423.666V165.901H408.811V158.772H425.787L426.464 145.785H390.812V199.172H426.554L426.298 186.184H408.811Z" fill="white"/>
<path d="M485.373 145.785L479.093 169.805C478.533 171.87 477.973 174.039 477.421 176.305C476.902 173.791 476.357 171.476 475.783 169.376L469.668 145.785H447.172L444.712 199.172H461.522L461.032 165.287L469.42 194.253H483.425L491.64 165.059L491.578 199.178H507.96L506.516 145.792H485.38L485.373 145.785Z" fill="white"/>
<path d="M531.465 186.184V178.626H546.32V165.901H531.465V158.772H548.441L549.125 145.785H513.473V199.172H549.208L548.953 186.184H531.465Z" fill="white"/>
<path d="M592.585 158.855L593.096 145.785H551.33L551.924 158.855H562.875V199.172H581.461V158.855H592.585Z" fill="white"/>
<path d="M604.98 145.785L589.192 199.172H608.974L610.342 190.937H621.12L622.64 199.172H641.911L626.544 145.785H604.98ZM612.498 177.949L615.448 160.216L618.716 177.949H612.491H612.498Z" fill="white"/>
<path d="M680.313 174.088C678.413 171.856 675.684 169.943 672.118 168.361C669.403 167.117 667.379 166.122 666.052 165.39C664.718 164.658 663.813 164.002 663.337 163.435C662.853 162.869 662.618 162.247 662.618 161.57C662.618 160.437 663.067 159.615 663.979 159.111C664.884 158.599 666.128 158.344 667.717 158.344C669.472 158.344 671.365 158.53 673.403 158.896C675.442 159.263 677.39 159.788 679.263 160.465L681.218 147.477C679.18 146.627 676.872 145.95 674.302 145.439C671.725 144.928 669.078 144.672 666.363 144.672C661.499 144.672 657.395 145.439 654.057 146.966C650.72 148.493 648.226 150.544 646.588 153.121C644.944 155.698 644.129 158.537 644.129 161.653C644.129 164.085 644.598 166.205 645.531 168.015C646.464 169.825 647.791 171.442 649.518 172.851C651.245 174.267 653.463 175.711 656.179 177.183C658.383 178.371 659.999 179.29 661.015 179.939C662.031 180.588 662.77 181.196 663.219 181.763C663.668 182.329 663.896 183.006 663.896 183.801C663.896 184.934 663.516 185.742 662.749 186.218C661.982 186.702 660.78 186.937 659.143 186.937C657.277 186.937 655.121 186.681 652.689 186.17C650.257 185.659 647.625 184.927 644.792 183.966L643.092 196.526C645.918 197.769 648.765 198.702 651.625 199.323C654.479 199.945 657.692 200.256 661.257 200.256C667.993 200.256 673.327 198.771 677.259 195.8C681.19 192.83 683.159 188.519 683.159 182.854C683.159 179.234 682.213 176.305 680.313 174.067V174.088Z" fill="white"/>
<path d="M367.673 219.813C365.026 217.361 361.15 216.138 356.051 216.138C353.28 216.138 350.676 216.442 348.223 217.05C345.77 217.658 343.573 218.494 341.631 219.565L342.143 228.304C344.084 227.53 345.957 226.936 347.753 226.521C349.549 226.107 351.277 225.9 352.928 225.9C355.257 225.9 356.873 226.362 357.772 227.281C358.67 228.207 358.994 229.513 358.753 231.212C358.559 232.67 357.744 234.369 356.314 236.31C354.883 238.251 353.094 240.303 350.959 242.465C348.824 244.628 345.86 247.502 342.074 251.094C340.712 252.406 339.331 253.74 337.921 255.101L337.265 262.817H367.058L368.294 253.056H361.081C358.262 253.056 355.512 253.132 352.838 253.277C356.514 249.947 359.478 247.149 361.703 244.904C364.059 242.528 366.083 240.096 367.783 237.623C369.483 235.15 370.478 232.746 370.768 230.411C371.348 225.796 370.319 222.266 367.673 219.813Z" fill="white"/>
<path d="M394.95 216.138C389.513 216.138 385.07 217.934 381.622 221.527C378.175 225.119 375.964 230.922 374.996 238.935C374.022 246.949 374.9 253.063 377.622 257.291C380.344 261.511 384.759 263.625 390.881 263.625C396.609 263.625 401.079 261.705 404.285 257.871C407.491 254.037 409.557 248.185 410.476 240.317C411.395 232.255 410.496 226.21 407.781 222.183C405.059 218.155 400.789 216.138 394.964 216.138H394.95ZM397.79 240.752C397.307 244.683 396.761 247.66 396.153 249.671C395.545 251.688 394.868 253.049 394.114 253.747C393.361 254.451 392.449 254.804 391.385 254.804C390.073 254.804 389.078 254.389 388.4 253.567C387.716 252.745 387.309 251.197 387.164 248.945C387.019 246.693 387.212 243.426 387.744 239.15C388.179 235.364 388.704 232.449 389.313 230.411C389.921 228.373 390.625 226.977 391.427 226.224C392.228 225.471 393.237 225.098 394.453 225.098C395.766 225.098 396.733 225.547 397.369 226.445C397.998 227.343 398.35 228.918 398.426 231.177C398.502 233.436 398.295 236.628 397.804 240.752H397.79Z" fill="white"/>
<path d="M442.701 219.813C440.055 217.361 436.179 216.138 431.079 216.138C428.309 216.138 425.704 216.442 423.251 217.05C420.798 217.658 418.601 218.494 416.66 219.565L417.171 228.304C419.113 227.53 420.985 226.936 422.781 226.521C424.578 226.107 426.305 225.9 427.956 225.9C430.285 225.9 431.902 226.362 432.8 227.281C433.698 228.207 434.023 229.513 433.781 231.212C433.588 232.67 432.772 234.369 431.342 236.31C429.912 238.251 428.122 240.303 425.987 242.465C423.852 244.628 420.888 247.502 417.102 251.094C415.741 252.406 414.359 253.74 412.949 255.101L412.293 262.817H442.086L443.323 253.056H436.109C433.29 253.056 430.541 253.132 427.867 253.277C431.542 249.947 434.506 247.149 436.731 244.904C439.087 242.528 441.112 240.096 442.811 237.623C444.511 235.15 445.506 232.746 445.796 230.411C446.377 225.796 445.347 222.266 442.701 219.813Z" fill="white"/>
<path d="M450.896 237.401L452.132 243.301C453.639 242.963 454.972 242.707 456.14 242.534C457.307 242.362 458.517 242.279 459.781 242.279C461.916 242.279 463.484 242.742 464.479 243.66C465.474 244.586 465.875 245.988 465.682 247.881C465.488 249.581 464.991 250.928 464.189 251.923C463.388 252.917 462.151 253.67 460.472 254.182C458.8 254.693 456.478 255.017 453.514 255.163C452.153 255.211 450.599 255.163 448.85 255.017L448.125 263.245C449.583 263.39 451.4 263.466 453.59 263.466C460.631 263.466 466.373 262.181 470.815 259.605C475.258 257.035 477.842 252.807 478.574 246.935C479.058 242.762 478.257 239.64 476.17 237.574C474.083 235.509 470.781 234.479 466.262 234.479C464.922 234.479 463.547 234.569 462.144 234.735C462.655 233.167 463.201 231.412 463.782 229.457L464.7 226.542H480.392L482.285 217.001H456.934L450.889 237.395L450.896 237.401Z" fill="white"/>
<path d="M491.17 270.25L501.803 272.724L524.459 211.406L513.826 209.513L491.17 270.25Z" fill="white"/>
<path d="M564.34 219.813C561.693 217.361 557.817 216.138 552.718 216.138C549.947 216.138 547.343 216.442 544.89 217.05C542.437 217.658 540.24 218.494 538.298 219.565L538.81 228.304C540.751 227.53 542.624 226.936 544.42 226.521C546.216 226.107 547.944 225.9 549.595 225.9C551.924 225.9 553.54 226.362 554.439 227.281C555.337 228.207 555.661 229.513 555.42 231.212C555.226 232.67 554.411 234.369 552.981 236.31C551.55 238.251 549.761 240.303 547.626 242.465C545.491 244.628 542.527 247.502 538.741 251.094C537.379 252.406 535.997 253.74 534.588 255.101L533.932 262.817H563.725L564.961 253.056H557.748C554.929 253.056 552.179 253.132 549.505 253.277C553.181 249.947 556.145 247.149 558.37 244.904C560.726 242.528 562.75 240.096 564.45 237.623C566.15 235.15 567.145 232.746 567.435 230.411C568.015 225.796 566.986 222.266 564.34 219.813Z" fill="white"/>
<path d="M591.617 216.138C586.18 216.138 581.737 217.934 578.289 221.527C574.842 225.119 572.631 230.922 571.663 238.935C570.689 246.949 571.567 253.063 574.289 257.291C577.011 261.511 581.426 263.625 587.548 263.625C593.276 263.625 597.746 261.705 600.952 257.871C604.158 254.037 606.224 248.185 607.143 240.317C608.062 232.255 607.163 226.21 604.448 222.183C601.726 218.155 597.456 216.138 591.631 216.138H591.617ZM594.457 240.752C593.974 244.683 593.428 247.66 592.82 249.671C592.212 251.688 591.535 253.049 590.781 253.747C590.028 254.451 589.116 254.804 588.052 254.804C586.739 254.804 585.745 254.389 585.067 253.567C584.383 252.745 583.976 251.197 583.831 248.945C583.686 246.693 583.879 243.426 584.411 239.15C584.846 235.364 585.371 232.449 585.979 230.411C586.587 228.373 587.292 226.977 588.094 226.224C588.895 225.471 589.904 225.098 591.12 225.098C592.433 225.098 593.4 225.547 594.036 226.445C594.664 227.343 595.017 228.918 595.093 231.177C595.169 233.436 594.962 236.628 594.471 240.752H594.457Z" fill="white"/>
<path d="M639.361 219.813C636.715 217.361 632.839 216.138 627.74 216.138C624.969 216.138 622.364 216.442 619.911 217.05C617.459 217.658 615.261 218.494 613.32 219.565L613.831 228.304C615.773 227.53 617.645 226.936 619.442 226.521C621.238 226.107 622.965 225.9 624.617 225.9C626.945 225.9 628.562 226.362 629.46 227.281C630.358 228.207 630.683 229.513 630.441 231.212C630.248 232.67 629.432 234.369 628.002 236.31C626.572 238.251 624.782 240.303 622.647 242.465C620.512 244.628 617.548 247.502 613.762 251.094C612.401 252.406 611.019 253.74 609.61 255.101L608.953 262.817H638.746L639.983 253.056H632.77C629.951 253.056 627.201 253.132 624.527 253.277C628.203 249.947 631.167 247.149 633.391 244.904C635.747 242.528 637.772 240.096 639.472 237.623C641.171 235.15 642.166 232.746 642.456 230.411C643.037 225.796 642.007 222.266 639.361 219.813Z" fill="white"/>
<path d="M680.7 228.953C680.941 226.383 680.478 224.124 679.318 222.183C678.15 220.242 676.388 218.75 674.039 217.706C671.683 216.663 668.954 216.138 665.844 216.138C661.326 216.138 657.65 217.168 654.81 219.233C651.971 221.299 650.354 224.076 649.967 227.571C649.628 230.777 650.354 233.602 652.15 236.055C652.91 237.091 653.857 238.106 654.983 239.115C653.076 240.061 651.418 241.139 650.043 242.355C647.569 244.538 646.16 247.211 645.821 250.368C645.531 252.994 645.98 255.308 647.169 257.325C648.357 259.342 650.195 260.897 652.668 261.988C655.142 263.08 658.058 263.625 661.409 263.625C664.953 263.625 668 263.149 670.55 262.202C673.099 261.256 675.117 259.847 676.595 257.981C678.074 256.109 678.965 253.843 679.255 251.17C679.497 249.035 679.193 247.101 678.343 245.381C677.494 243.661 676.264 242.113 674.668 240.759C674.156 240.331 673.604 239.896 673.009 239.46C674.702 238.5 676.195 237.374 677.466 236.062C679.338 234.141 680.416 231.778 680.706 228.96L680.7 228.953ZM660.814 227.502C660.911 226.286 661.388 225.368 662.238 224.732C663.088 224.103 664.145 223.786 665.409 223.786C666.964 223.786 668.131 224.248 668.905 225.167C669.679 226.093 669.969 227.302 669.783 228.808C669.589 230.556 669.057 232.013 668.18 233.181C667.648 233.892 666.978 234.521 666.169 235.067C664.414 233.885 663.136 232.808 662.348 231.834C661.229 230.452 660.718 229.008 660.821 227.502H660.814ZM667.441 251.75C667.247 253.014 666.701 253.975 665.803 254.624C664.905 255.28 663.675 255.605 662.127 255.605C660.234 255.605 658.838 255.108 657.94 254.113C657.042 253.118 656.669 251.819 656.814 250.217C657.007 248.42 657.809 246.804 659.218 245.374C659.813 244.766 660.531 244.179 661.353 243.612C662.929 244.593 664.172 245.498 665.078 246.32C666.121 247.267 666.812 248.165 667.15 249.014C667.489 249.864 667.586 250.776 667.441 251.743V251.75Z" fill="white"/>
<path d="M181.114 12.0551L175.172 46.8243C174.833 46.8588 174.488 46.8865 174.149 46.921L179.338 11.7719C179.539 10.6044 181.28 10.86 181.107 12.0551H181.114Z" fill="white"/>
<path d="M203.321 17.5055L193.523 46.672C193.067 46.6375 192.611 46.6098 192.148 46.5753L201.241 16.8354C201.697 15.4606 203.756 16.1031 203.321 17.5055Z" fill="white"/>
<path d="M224.09 26.1272L211.964 49.5945C211.397 49.4494 210.824 49.3181 210.25 49.1869L221.775 24.9804C222.556 23.4468 224.843 24.559 224.09 26.1272Z" fill="white"/>
<path d="M243.118 37.6155L229.997 55.7289C229.334 55.4318 228.664 55.1486 227.994 54.8722L240.672 35.9161C241.819 34.2926 244.244 35.9575 243.118 37.6155Z" fill="white"/>
<path d="M260.122 51.7015L247.008 65.0828C246.283 64.5992 245.557 64.1225 244.825 63.6597L257.669 49.4011C259.224 47.7638 261.677 50.0366 260.129 51.7084L260.122 51.7015Z" fill="white"/>
<path d="M274.86 68.1082L262.416 77.5103C261.684 76.8057 260.944 76.108 260.198 75.4309L272.531 65.1584C274.535 63.5971 276.857 66.4917 274.867 68.1082H274.86Z" fill="white"/>
<path d="M287.082 86.5808L275.62 92.812C274.943 91.8656 274.252 90.933 273.547 90.0073L285.003 82.9816C287.448 81.5931 289.521 85.1439 287.082 86.5808Z" fill="white"/>
<path d="M296.506 106.857L286.032 110.642C285.479 109.454 284.913 108.28 284.312 107.119L294.841 102.629C297.729 101.524 299.388 105.696 296.506 106.864V106.857Z" fill="white"/>
<path d="M302.856 128.645L293.059 130.559C292.713 129.156 292.333 127.768 291.933 126.386L301.765 123.83C305.047 123.105 306.152 127.878 302.856 128.652V128.645Z" fill="white"/>
<path d="M305.841 151.588L296.182 151.94C296.106 150.372 295.996 148.817 295.857 147.263L305.468 146.268C309.103 146.033 309.49 151.311 305.841 151.595V151.588Z" fill="white"/>
<path d="M305.24 175.055L295.097 173.825C295.346 172.181 295.553 170.523 295.726 168.858L305.724 169.341C309.634 169.694 309.171 175.365 305.24 175.055Z" fill="white"/>
<path d="M301.108 197.679L289.943 194.515C290.523 192.864 291.076 191.199 291.58 189.514L302.552 191.724C306.636 192.726 305.219 198.646 301.108 197.672V197.679Z" fill="white"/>
<path d="M293.715 218.998L281.216 213.278C282.135 211.71 283.013 210.114 283.856 208.504L296.182 212.96C300.341 214.68 297.902 220.684 293.715 218.998Z" fill="white"/>
<path d="M288.291 237.422C287.345 239.205 285.023 239.792 283.351 238.68L269.546 229.644C270.762 228.235 271.937 226.798 273.07 225.326L286.875 232.739C288.561 233.637 289.19 235.737 288.284 237.422H288.291Z" fill="white"/>
<path d="M275.682 255.909C274.418 257.636 271.889 257.891 270.307 256.461L255.555 243.308C257.013 242.127 258.436 240.897 259.825 239.633L274.915 250.79C276.546 251.992 276.884 254.278 275.689 255.909H275.682Z" fill="white"/>
<path d="M260.557 272.33C258.975 273.946 256.294 273.829 254.85 272.088L239.836 254.071C241.467 253.152 243.07 252.192 244.645 251.19L260.53 266.879C262.043 268.378 262.057 270.817 260.564 272.33H260.557Z" fill="white"/>
<path d="M243.167 286.429C241.274 287.88 238.482 287.341 237.253 285.303L222.95 261.815C224.678 261.194 226.391 260.53 228.077 259.819L243.948 280.751C245.295 282.533 244.949 285.075 243.16 286.429H243.167Z" fill="white"/>
<path d="M223.744 297.938C221.554 299.161 218.728 298.173 217.775 295.859L205.469 266.526C207.224 266.209 208.958 265.843 210.679 265.442L225.416 292.163C226.55 294.215 225.803 296.805 223.744 297.938Z" fill="white"/>
<path d="M202.547 306.574C200.087 307.513 197.303 306.042 196.674 303.486L187.885 268.337C189.585 268.302 191.278 268.226 192.957 268.109L205.159 300.854C206.015 303.161 204.848 305.717 202.547 306.574Z" fill="white"/>
<path d="M179.877 312.017C177.183 312.598 174.529 310.636 174.294 307.886L170.619 267.397C172.187 267.604 173.769 267.784 175.358 267.922L183.47 306.518C183.995 309.033 182.392 311.492 179.877 312.024V312.017Z" fill="white"/>
<path d="M156.102 313.986C153.221 314.166 150.789 311.707 150.996 308.833L153.953 263.867C155.363 264.282 156.786 264.669 158.216 265.028L160.662 308.874C160.807 311.548 158.762 313.834 156.095 313.98L156.102 313.986Z" fill="white"/>
<path d="M142.408 259.77L137.799 307.776C137.537 310.546 135.07 312.577 132.299 312.308C129.301 312.045 127.18 309.109 127.864 306.18L138.711 258.14C139.934 258.707 141.164 259.252 142.408 259.77Z" fill="white"/>
<path d="M128.507 252.752L115.856 303.32C115.151 306.125 112.311 307.838 109.499 307.133C106.452 306.401 104.725 303.037 105.899 300.121L125.39 250.817C126.42 251.481 127.456 252.123 128.507 252.752Z" fill="white"/>
<path d="M116.408 244.407L95.1622 295.79C94.0153 298.567 90.837 299.887 88.0594 298.74C85.0262 297.517 83.7757 293.787 85.4408 290.975L113.845 242.313C114.688 243.025 115.545 243.723 116.408 244.407Z" fill="white"/>
<path d="M106.003 235.046L76.0301 285.435C74.441 288.108 70.9794 288.985 68.2986 287.397C65.6247 285.808 64.7472 282.347 66.3363 279.673C66.4469 279.473 66.592 279.273 66.7301 279.093V279.079C66.7301 279.079 66.7716 279.038 66.7854 279.024L103.923 232.891C104.607 233.623 105.291 234.341 105.989 235.06L106.003 235.046Z" fill="white"/>
<path d="M97.1865 224.884L58.7085 272.496C56.684 275.003 53.0152 275.39 50.5071 273.366C47.7434 271.176 47.6121 266.907 50.2169 264.537L95.5628 222.715C96.0948 223.447 96.6407 224.166 97.1934 224.884H97.1865Z" fill="white"/>
<path d="M89.8765 214.114L43.4458 257.228C41.0069 259.494 37.186 259.356 34.9197 256.918C32.4047 254.258 32.916 249.857 35.9492 247.819L88.6397 211.979C89.0405 212.698 89.462 213.41 89.8834 214.121L89.8765 214.114Z" fill="white"/>
<path d="M84.0105 202.86L30.4701 239.847C27.6373 241.802 23.7543 241.091 21.7989 238.258C19.8436 235.426 20.5552 231.55 23.3812 229.588C23.6023 229.436 23.8579 229.291 24.0997 229.16C24.0997 229.16 24.0997 229.16 24.1205 229.146C24.1205 229.146 24.1204 229.146 24.1274 229.146L24.1619 229.125L24.2172 229.098L83.0915 200.76C83.3886 201.465 83.6926 202.163 84.0036 202.853L84.0105 202.86Z" fill="white"/>
<path d="M79.5471 191.213L20.0717 220.594C16.8865 222.169 13.0311 220.863 11.4557 217.678C9.68695 214.183 11.5801 209.803 15.3388 208.684L78.9184 189.161C79.1257 189.845 79.3329 190.536 79.554 191.213H79.5471Z" fill="white"/>
<path d="M76.4378 179.193L12.5127 199.703C9.02347 200.823 5.29243 198.902 4.17312 195.413C2.89489 191.559 5.52044 187.379 9.52785 186.827L76.0439 177.134C76.1683 177.818 76.2927 178.509 76.4309 179.186L76.4378 179.193Z" fill="white"/>
<path d="M74.6757 166.744L8.09056 177.48C4.36643 178.081 0.863406 175.545 0.262295 171.822C-0.449366 167.698 2.90166 163.829 7.0818 163.905L74.5237 164.637C74.5652 165.342 74.6204 166.04 74.6826 166.737L74.6757 166.744Z" fill="white"/>
<path d="M74.434 151.67C74.3994 152.403 74.3649 153.149 74.3441 153.881L7.08876 154.434C3.20572 154.468 0.0343399 151.346 -0.000206704 147.463C-0.0831186 143.139 3.94502 139.726 8.20116 140.479L74.434 151.67Z" fill="white"/>
<path d="M75.8021 138.98C75.6708 139.774 75.5465 140.569 75.429 141.363L9.52788 131.92C5.57575 131.353 2.83275 127.692 3.39931 123.747C3.9866 119.326 8.63658 116.466 12.8513 117.917L75.809 138.98H75.8021Z" fill="white"/>
<path d="M78.6144 126.58C78.3587 127.45 78.1238 128.321 77.8889 129.198L15.2006 110.456C11.2692 109.282 9.03054 105.143 10.2051 101.213C11.4764 96.7983 16.6653 94.6015 20.728 96.7431L78.6075 126.58H78.6144Z" fill="white"/>
<path d="M82.8982 114.435C82.4975 115.395 82.1036 116.363 81.7305 117.33L23.8718 90.353C20.051 88.5776 18.3996 84.0389 20.1823 80.2186C22.1376 75.901 27.7687 74.4572 31.5688 77.2619L82.9051 114.428L82.8982 114.435Z" fill="white"/>
<path d="M88.7296 102.588C88.1285 103.645 87.5481 104.708 86.9815 105.786L35.2583 71.9012C31.6447 69.5317 30.6291 64.6821 32.999 61.0691C35.6245 56.9656 41.5804 56.33 45.0212 59.7703L88.7296 102.594V102.588Z" fill="white"/>
<path d="M96.1846 91.1681C95.3347 92.308 94.5056 93.4617 93.7041 94.6361L49.1321 55.3351C45.8087 52.3991 45.4909 47.3285 48.4204 44.0056C51.6954 40.2061 57.8655 40.4548 60.8434 44.4754L96.1915 91.1681H96.1846Z" fill="white"/>
<path d="M105.353 80.3565C104.199 81.5585 103.059 82.7882 101.961 84.0455L65.2654 40.9174C62.322 37.4564 62.7435 32.2683 66.1981 29.3254C70.0812 25.9403 76.3341 27.1147 78.7455 31.6465L105.353 80.3565Z" fill="white"/>
<path d="M116.332 70.3883C114.798 71.6042 113.299 72.8615 111.827 74.1602L83.4232 28.8975C80.9496 24.9529 82.138 19.7579 86.0833 17.2847C90.5329 14.4178 96.7167 16.5524 98.4786 21.5333L116.332 70.3952V70.3883Z" fill="white"/>
<path d="M129.232 61.5454C127.256 62.706 125.315 63.9287 123.414 65.1998L103.391 19.5433C101.477 15.1773 103.46 10.0929 107.827 8.17928C112.774 5.9341 118.737 9.05663 119.753 14.376L129.232 61.5385V61.5454Z" fill="white"/>
<path d="M144.163 54.2435C141.683 55.2314 139.244 56.3091 136.86 57.4697L124.9 13.1672C123.629 8.45574 126.413 3.61307 131.118 2.34886C135.824 1.07775 140.667 3.86177 141.938 8.56628C142.097 9.16729 142.194 9.80976 142.229 10.4039V10.4729L144.156 54.2435H144.163Z" fill="white"/>
<path d="M165.568 10.0515L161.174 49.0001C158.161 49.6633 155.197 50.4509 152.289 51.3558L147.625 10.0446C147.065 5.0914 150.63 0.621775 155.584 0.0622083C161.264 -0.64934 166.266 4.38676 165.568 10.0446V10.0515Z" fill="white"/>
<path d="M189.212 143.747C189.212 147.277 189.012 149.902 188.618 151.629C188.217 153.349 187.54 154.517 186.566 155.138C185.598 155.76 184.182 156.064 182.33 156.064C181.757 156.064 181.183 156.057 180.61 156.05V130.794C181.246 130.78 181.867 130.773 182.462 130.773C184.23 130.773 185.578 131.125 186.504 131.83C187.429 132.541 188.106 133.819 188.556 135.671C188.998 137.529 189.219 140.217 189.219 143.747H189.212Z" fill="white"/>
<path d="M282.764 162.779L165.513 230.466C159.771 233.781 152.592 229.637 152.592 223.005V197.368H180.603V172.568C182.441 172.595 184.161 172.609 185.764 172.609C197.24 172.609 205.78 169.715 211.391 163.932C216.994 158.15 219.799 150.717 219.799 141.626C219.799 135.802 218.784 130.835 216.752 126.731C214.721 122.621 210.928 119.36 205.366 116.936C199.804 114.511 191.948 113.295 181.798 113.295C175.262 113.295 167.758 113.475 159.287 113.827C157.878 113.827 155.646 113.91 152.592 114.062V87.6447C152.592 81.0197 159.771 76.8747 165.513 80.1838L282.764 147.864C288.506 151.18 288.506 159.463 282.764 162.779Z" fill="white"/>
<path d="M102.154 197.631C97.6975 196.664 93.2617 195.206 88.8467 193.265L91.493 173.673C95.908 175.172 100.012 176.319 103.805 177.113C107.599 177.908 110.957 178.309 113.865 178.309C116.422 178.309 118.301 177.935 119.496 177.182C120.685 176.436 121.286 175.179 121.286 173.411C121.286 172.174 120.934 171.117 120.229 170.233C119.524 169.349 118.377 168.402 116.788 167.387C115.199 166.371 112.684 164.934 109.243 163.083C105.008 160.789 101.539 158.537 98.8514 156.333C96.1568 154.13 94.0839 151.615 92.6261 148.79C91.1682 145.964 90.4427 142.655 90.4427 138.862C90.4427 134.006 91.721 129.578 94.2843 125.557C96.8408 121.544 100.731 118.345 105.933 115.962C111.143 113.578 117.541 112.39 125.134 112.39C129.37 112.39 133.495 112.791 137.516 113.585C141.53 114.38 145.13 115.437 148.308 116.763L145.261 137.018C142.346 135.961 139.305 135.146 136.127 134.566C132.949 133.992 129.992 133.702 127.256 133.702C124.782 133.702 122.841 134.096 121.431 134.89C120.015 135.685 119.31 136.963 119.31 138.731C119.31 139.788 119.683 140.762 120.436 141.647C121.182 142.531 122.599 143.546 124.672 144.693C126.744 145.84 129.902 147.387 134.137 149.328C139.699 151.802 143.955 154.779 146.913 158.268C149.87 161.756 151.348 166.323 151.348 171.974C151.348 180.802 148.281 187.531 142.145 192.166C136.01 196.802 127.691 199.116 117.189 199.116C111.627 199.116 106.617 198.633 102.161 197.658L102.154 197.631Z" fill="white"/>
</g>
<defs>
<clipPath id="clip0_1591_4173">
<rect width="761" height="314" fill="white"/>
</clipPath>
</defs>
</svg>
