<svg width="719" height="294" viewBox="0 0 719 294" fill="none" xmlns="http://www.w3.org/2000/svg">
<path d="M350.48 73.0308C347.111 71.5754 342.352 70.8498 336.203 70.8498C332.245 70.8498 327.702 70.9546 322.57 71.1686C321.659 71.1686 320.188 71.2231 318.158 71.3279V121.256H335.483V106.388C336.593 106.404 337.64 106.413 338.61 106.413C345.56 106.413 350.735 104.681 354.129 101.212C357.524 97.7476 359.223 93.2891 359.223 87.8365C359.223 84.3427 358.609 81.369 357.38 78.907C356.151 76.4449 353.849 74.4904 350.48 73.035V73.0308ZM340.335 93.8259C340.093 94.8577 339.678 95.5582 339.093 95.9272C338.504 96.2963 337.648 96.4851 336.525 96.4851C336.178 96.4851 335.83 96.4767 335.483 96.4767V81.3354C335.868 81.3312 336.245 81.327 336.606 81.327C337.674 81.327 338.491 81.5368 339.051 81.9604C339.61 82.384 340.026 83.1515 340.293 84.263C340.56 85.3745 340.695 86.9893 340.695 89.1032C340.695 91.2171 340.577 92.7941 340.335 93.8259Z" fill="#282561"/>
<path d="M399.199 102.638C398.809 102.013 398.419 101.405 398.033 100.818C399.72 99.962 401.212 98.8589 402.487 97.4748C404.814 94.9625 405.975 91.217 405.975 86.2426C405.975 82.4845 405.119 79.4815 403.407 77.2333C401.695 74.9852 399.143 73.3704 395.749 72.3932C392.354 71.4159 388.011 70.9252 382.718 70.9252C376.89 70.9252 371.996 71.0049 368.042 71.1642C366.758 71.2188 365.448 71.2691 364.113 71.3236V121.252H381.438V103.536C381.989 103.527 382.527 103.515 383.061 103.498L389.299 121.252H408.628L402.292 107.998C401.703 106.782 400.673 104.995 399.203 102.642L399.199 102.638ZM381.438 81.4276C382.056 81.4108 382.645 81.4024 383.201 81.4024C384.485 81.4024 385.447 81.6163 386.087 82.0358C386.727 82.4594 387.155 83.1053 387.371 83.9819C387.583 84.8543 387.693 86.1126 387.693 87.7525C387.693 89.5519 387.477 90.8772 387.053 91.7203C386.625 92.5675 386.01 93.1086 385.209 93.3477C384.408 93.5867 383.285 93.7042 381.84 93.7042C381.709 93.7042 381.573 93.7042 381.438 93.7042V81.4276Z" fill="#282561"/>
<path d="M434.61 70.2918C429.583 70.2918 425.159 71.311 421.337 73.3494C417.514 75.3878 414.56 78.349 412.475 82.2412C410.39 86.1293 409.348 90.7724 409.348 96.1704C409.348 104.479 411.378 110.909 415.442 115.46C419.506 120.011 425.655 122.288 433.889 122.288C438.915 122.288 443.246 121.189 446.882 118.996C450.519 116.802 453.299 113.69 455.223 109.667C457.147 105.645 458.109 100.964 458.109 95.6167C458.109 87.5721 456.091 81.3437 452.053 76.9229C448.014 72.5064 442.2 70.296 434.61 70.296V70.2918ZM438.699 105.217C438.271 107.335 437.695 108.736 436.974 109.424C436.254 110.112 435.305 110.456 434.126 110.456C432.842 110.456 431.8 110.125 430.999 109.462C430.198 108.799 429.567 107.424 429.113 105.335C428.66 103.246 428.431 100.163 428.431 96.0865C428.431 91.0576 428.927 87.6854 429.914 85.9657C430.901 84.2461 432.253 83.3863 433.965 83.3863C435.889 83.3863 437.267 84.288 438.097 86.0832C438.928 87.8825 439.339 91.1373 439.339 95.8474C439.339 99.9746 439.123 103.099 438.699 105.213V105.217Z" fill="#282561"/>
<path d="M485.534 103.549L490.344 103.356V110.226C489.589 110.268 488.865 110.297 488.178 110.297C485.826 110.297 484.046 109.941 482.847 109.228C481.643 108.515 480.775 107.189 480.241 105.26C479.707 103.331 479.44 100.432 479.44 96.5696C479.44 93.1303 479.906 90.446 480.842 88.5124C481.779 86.583 483.169 85.2325 485.012 84.4649C486.856 83.6974 489.276 83.3157 492.272 83.3157C493.717 83.3157 495.213 83.3954 496.764 83.5548C498.315 83.7142 499.836 83.8987 501.337 84.1084C501.659 84.163 501.951 84.2133 502.218 84.2678L503.583 72.44C501.176 71.7522 498.904 71.2237 496.764 70.8504C494.624 70.4813 492.191 70.2968 489.466 70.2968C484.063 70.2968 479.215 71.3537 474.909 73.4718C470.604 75.5899 467.209 78.6978 464.721 82.7998C462.234 86.9018 460.992 91.8343 460.992 97.6014C460.992 106.279 463.319 112.562 467.968 116.455C472.621 120.343 479.651 122.289 489.06 122.289C492.641 122.289 497.425 121.97 503.417 121.337L505.502 121.098V92.6815H485.534V103.557V103.549Z" fill="#282561"/>
<path d="M547.095 102.638C546.705 102.013 546.315 101.405 545.93 100.818C547.616 99.962 549.108 98.8589 550.384 97.4748C552.71 94.9625 553.871 91.217 553.871 86.2426C553.871 82.4845 553.015 79.4815 551.303 77.2333C549.591 74.9852 547.04 73.3704 543.645 72.3932C540.251 71.4159 535.907 70.9252 530.614 70.9252C524.787 70.9252 519.892 71.0049 515.938 71.1642C514.654 71.2188 513.345 71.2691 512.01 71.3236V121.252H529.334V103.536C529.885 103.527 530.423 103.515 530.957 103.498L537.195 121.252H556.524L550.189 107.998C549.6 106.782 548.57 104.995 547.099 102.642L547.095 102.638ZM529.33 81.4276C529.949 81.4108 530.538 81.4024 531.093 81.4024C532.377 81.4024 533.339 81.6163 533.979 82.0358C534.619 82.4594 535.047 83.1053 535.263 83.9819C535.475 84.8543 535.585 86.1126 535.585 87.7525C535.585 89.5519 535.369 90.8772 534.945 91.7203C534.517 92.5675 533.903 93.1086 533.102 93.3477C532.301 93.5867 531.178 93.7042 529.732 93.7042C529.601 93.7042 529.466 93.7042 529.33 93.7042V81.4276Z" fill="#282561"/>
<path d="M571.511 71.3237L556.594 121.252H575.278L576.571 113.552H586.755L588.191 121.252H606.397L591.882 71.3237H571.511ZM578.618 101.409L581.406 84.825L584.496 101.409H578.618Z" fill="#282561"/>
<path d="M646.338 71.3237L640.405 93.7882C639.875 95.7217 639.346 97.7517 638.824 99.8698C638.337 97.5169 637.82 95.3526 637.278 93.3939L631.501 71.3279H610.248L607.922 121.256H623.801L623.339 89.5645L631.264 116.651H644.499L652.258 89.3464L652.199 121.256H667.676L666.311 71.3279H646.342L646.338 71.3237Z" fill="#282561"/>
<path d="M700.795 121.252H719.001L704.486 71.3237H684.115L669.197 121.252H687.882L689.175 113.552H699.358L700.795 121.252ZM691.217 101.409L694.006 84.825L697.095 101.409H691.217Z" fill="#282561"/>
<path d="M352.845 138.167C349.129 136.578 344.357 135.785 338.53 135.785C332.703 135.785 326.765 135.919 320.726 136.183L318.158 136.343V186.271C325.858 186.59 332.436 186.749 337.89 186.749C343.933 186.749 348.891 185.772 352.769 183.813C356.646 181.855 359.507 178.944 361.351 175.081C363.194 171.218 364.118 166.403 364.118 160.636C364.118 154.5 363.169 149.618 361.27 145.99C359.371 142.366 356.566 139.757 352.849 138.171L352.845 138.167ZM344.742 170.316C344.289 172.329 343.526 173.73 342.458 174.523C341.386 175.316 339.809 175.714 337.724 175.714C337.068 175.714 336.368 175.702 335.639 175.681V147.114C336.415 147.08 337.19 147.059 337.966 147.059C340.051 147.059 341.615 147.445 342.657 148.208C343.7 148.976 344.42 150.364 344.823 152.377C345.225 154.391 345.425 157.406 345.425 161.424C345.425 165.442 345.196 168.303 344.742 170.316Z" fill="#1281AA"/>
<path d="M386.246 174.125V167.062H400.282V155.154H386.246V148.485H402.287L402.927 136.343H369.244V186.271H403.007L402.766 174.125H386.246Z" fill="#1281AA"/>
<path d="M458.586 136.343L452.653 158.807C452.123 160.741 451.594 162.771 451.072 164.889C450.585 162.536 450.068 160.372 449.526 158.413L443.749 136.347H422.497L420.17 186.275H436.049L435.587 154.584L443.512 181.67H456.747L464.506 154.365L464.447 186.275H479.924L478.559 136.347H458.59L458.586 136.343Z" fill="#1281AA"/>
<path d="M502.137 174.125V167.062H516.173V155.154H502.137V148.485H518.177L518.817 136.343H485.135V186.271H518.898L518.656 174.125H502.137Z" fill="#1281AA"/>
<path d="M559.882 148.565L560.361 136.343H520.902L521.462 148.565H531.811V186.271H549.372V148.565H559.882Z" fill="#1281AA"/>
<path d="M571.591 136.343L556.674 186.271H575.359L576.651 178.571H586.835L588.271 186.271H606.477L591.963 136.343H571.591ZM578.694 166.424L581.482 149.84L584.572 166.424H578.694Z" fill="#1281AA"/>
<path d="M642.767 162.813C640.975 160.724 638.398 158.937 635.029 157.457C632.461 156.295 630.55 155.368 629.295 154.68C628.037 153.992 627.18 153.384 626.727 152.855C626.274 152.327 626.045 151.744 626.045 151.111C626.045 150.054 626.473 149.286 627.329 148.808C628.185 148.33 629.359 148.095 630.859 148.095C632.516 148.095 634.309 148.267 636.233 148.611C638.157 148.955 640 149.446 641.767 150.079L643.611 137.932C641.687 137.14 639.508 136.502 637.076 136.028C634.643 135.55 632.143 135.315 629.575 135.315C624.977 135.315 621.099 136.028 617.946 137.458C614.789 138.889 612.437 140.805 610.89 143.213C609.339 145.62 608.564 148.28 608.564 151.19C608.564 153.468 609.004 155.452 609.886 157.142C610.767 158.836 612.022 160.346 613.653 161.668C615.285 162.993 617.383 164.339 619.951 165.715C622.036 166.827 623.561 167.686 624.523 168.294C625.485 168.903 626.18 169.473 626.608 170.002C627.036 170.53 627.248 171.168 627.248 171.906C627.248 172.967 626.888 173.718 626.168 174.166C625.447 174.615 624.311 174.842 622.76 174.842C620.997 174.842 618.963 174.603 616.666 174.129C614.365 173.651 611.882 172.967 609.208 172.065L607.602 183.813C610.276 184.979 612.962 185.852 615.662 186.435C618.362 187.018 621.396 187.307 624.765 187.307C631.126 187.307 636.165 185.919 639.881 183.138C643.598 180.361 645.454 176.326 645.454 171.033C645.454 167.649 644.56 164.91 642.767 162.817V162.813Z" fill="#1281AA"/>
<path d="M347.383 205.578C344.883 203.288 341.226 202.138 336.407 202.138C333.793 202.138 331.326 202.424 329.008 202.99C326.69 203.56 324.613 204.34 322.778 205.339L323.261 213.513C325.096 212.788 326.864 212.23 328.559 211.844C330.254 211.458 331.886 211.265 333.445 211.265C335.649 211.265 337.17 211.697 338.022 212.557C338.87 213.421 339.179 214.646 338.95 216.235C338.768 217.598 337.997 219.188 336.645 221.004C335.293 222.82 333.606 224.741 331.585 226.759C329.563 228.78 326.766 231.469 323.189 234.828C321.905 236.053 320.596 237.303 319.265 238.574L318.646 245.792H346.794L347.964 236.666H341.15C338.484 236.666 335.89 236.737 333.36 236.871C336.835 233.755 339.632 231.142 341.734 229.04C343.959 226.817 345.875 224.544 347.481 222.229C349.087 219.914 350.028 217.666 350.303 215.485C350.854 211.173 349.88 207.868 347.379 205.574L347.383 205.578Z" fill="#4AC3D6"/>
<path d="M373.155 202.138C368.015 202.138 363.819 203.82 360.56 207.18C357.301 210.539 355.216 215.967 354.297 223.458C353.377 230.949 354.204 236.67 356.776 240.621C359.344 244.572 363.518 246.547 369.303 246.547C374.715 246.547 378.94 244.752 381.966 241.166C384.996 237.58 386.945 232.106 387.814 224.75C388.687 217.212 387.835 211.559 385.267 207.788C382.699 204.017 378.66 202.134 373.155 202.134V202.138ZM375.842 225.161C375.384 228.839 374.867 231.62 374.295 233.503C373.719 235.386 373.079 236.661 372.367 237.316C371.655 237.974 370.795 238.301 369.786 238.301C368.549 238.301 367.608 237.915 366.964 237.144C366.32 236.372 365.93 234.929 365.794 232.819C365.659 230.71 365.841 227.656 366.345 223.659C366.756 220.115 367.252 217.393 367.824 215.484C368.396 213.576 369.062 212.272 369.82 211.567C370.579 210.862 371.528 210.51 372.676 210.51C373.914 210.51 374.834 210.93 375.431 211.768C376.029 212.607 376.359 214.084 376.427 216.198C376.495 218.311 376.3 221.294 375.842 225.152V225.161Z" fill="#4AC3D6"/>
<path d="M418.264 205.578C415.764 203.288 412.107 202.138 407.288 202.138C404.673 202.138 402.207 202.424 399.889 202.99C397.571 203.56 395.494 204.34 393.659 205.339L394.142 213.513C395.977 212.788 397.745 212.23 399.44 211.844C401.135 211.458 402.766 211.265 404.326 211.265C406.53 211.265 408.051 211.697 408.903 212.557C409.75 213.421 410.06 214.646 409.831 216.235C409.649 217.598 408.877 219.188 407.526 221.004C406.174 222.82 404.487 224.741 402.466 226.759C400.444 228.78 397.647 231.469 394.07 234.828C392.786 236.053 391.477 237.303 390.146 238.574L389.527 245.792H417.675L418.845 236.666H412.03C409.365 236.666 406.771 236.737 404.241 236.871C407.716 233.755 410.513 231.142 412.615 229.04C414.84 226.817 416.756 224.544 418.362 222.229C419.968 219.914 420.909 217.666 421.184 215.485C421.735 211.173 420.76 207.868 418.26 205.574L418.264 205.578Z" fill="#4AC3D6"/>
<path d="M426.007 222.027L427.177 227.543C428.597 227.224 429.86 226.989 430.961 226.826C432.063 226.666 433.207 226.587 434.403 226.587C436.42 226.587 437.899 227.019 438.84 227.883C439.78 228.747 440.158 230.064 439.975 231.834C439.793 233.423 439.323 234.686 438.564 235.613C437.806 236.544 436.636 237.248 435.055 237.722C433.474 238.2 431.279 238.507 428.482 238.641C427.198 238.687 425.728 238.641 424.079 238.507L423.393 246.203C424.77 246.337 426.49 246.409 428.554 246.409C435.208 246.409 440.632 245.205 444.832 242.797C449.032 240.39 451.473 236.439 452.159 230.944C452.617 227.04 451.858 224.125 449.888 222.191C447.913 220.262 444.794 219.297 440.526 219.297C439.259 219.297 437.962 219.381 436.64 219.532C437.119 218.064 437.636 216.42 438.187 214.595L439.051 211.869H453.876L455.664 202.948H431.716L426.003 222.019L426.007 222.027Z" fill="#4AC3D6"/>
<path d="M464.061 252.746L474.109 255.061L495.51 197.713L485.462 195.943L464.061 252.746Z" fill="#4AC3D6"/>
<path d="M533.192 205.578C530.692 203.288 527.034 202.138 522.216 202.138C519.601 202.138 517.135 202.424 514.817 202.99C512.499 203.56 510.422 204.34 508.587 205.339L509.07 213.513C510.905 212.788 512.672 212.23 514.367 211.844C516.063 211.458 517.694 211.265 519.254 211.265C521.457 211.265 522.979 211.697 523.831 212.557C524.678 213.421 524.988 214.646 524.759 216.235C524.576 217.598 523.805 219.188 522.453 221.004C521.101 222.82 519.415 224.741 517.393 226.759C515.372 228.78 512.575 231.469 508.998 234.828C507.714 236.053 506.405 237.303 505.074 238.574L504.455 245.792H532.603L533.773 236.666H526.958C524.293 236.666 521.699 236.737 519.169 236.871C522.644 233.755 525.441 231.142 527.543 229.04C529.768 226.817 531.683 224.544 533.29 222.229C534.896 219.914 535.836 217.666 536.112 215.485C536.663 211.173 535.688 207.868 533.188 205.574L533.192 205.578Z" fill="#4AC3D6"/>
<path d="M558.962 202.138C553.821 202.138 549.626 203.82 546.367 207.18C543.108 210.539 541.023 215.967 540.104 223.458C539.184 230.949 540.01 236.67 542.583 240.621C545.151 244.572 549.325 246.547 555.11 246.547C560.522 246.547 564.747 244.752 567.773 241.166C570.803 237.58 572.752 232.106 573.621 224.75C574.494 217.212 573.642 211.559 571.074 207.788C568.506 204.017 564.467 202.134 558.962 202.134V202.138ZM561.649 225.161C561.191 228.839 560.674 231.62 560.102 233.503C559.526 235.386 558.886 236.661 558.174 237.316C557.462 237.974 556.602 238.301 555.593 238.301C554.355 238.301 553.415 237.915 552.77 237.144C552.126 236.372 551.736 234.929 551.601 232.819C551.465 230.71 551.647 227.656 552.152 223.659C552.563 220.115 553.059 217.393 553.631 215.484C554.203 213.576 554.868 212.272 555.627 211.567C556.385 210.862 557.335 210.51 558.483 210.51C559.721 210.51 560.64 210.93 561.238 211.768C561.835 212.607 562.166 214.084 562.234 216.198C562.301 218.311 562.107 221.294 561.649 225.152V225.161Z" fill="#4AC3D6"/>
<path d="M604.081 205.578C601.58 203.288 597.923 202.138 593.105 202.138C590.49 202.138 588.023 202.424 585.705 202.99C583.387 203.56 581.311 204.34 579.476 205.339L579.959 213.513C581.794 212.788 583.561 212.23 585.256 211.844C586.951 211.458 588.583 211.265 590.142 211.265C592.346 211.265 593.867 211.697 594.719 212.557C595.567 213.421 595.876 214.646 595.647 216.235C595.465 217.598 594.694 219.188 593.342 221.004C591.99 222.82 590.303 224.741 588.282 226.759C586.261 228.78 583.463 231.469 579.887 234.828C578.603 236.053 577.293 237.303 575.962 238.574L575.344 245.792H603.492L604.661 236.666H597.847C595.181 236.666 592.588 236.737 590.058 236.871C593.533 233.755 596.33 231.142 598.432 229.04C600.657 226.817 602.572 224.544 604.178 222.229C605.784 219.914 606.725 217.666 607.001 215.485C607.552 211.173 606.577 207.868 604.076 205.574L604.081 205.578Z" fill="#4AC3D6"/>
<path d="M643.131 214.13C643.36 211.722 642.924 209.613 641.826 207.797C640.724 205.98 639.063 204.584 636.838 203.606C634.613 202.629 632.032 202.143 629.096 202.143C624.828 202.143 621.353 203.107 618.67 205.037C615.988 206.966 614.462 209.567 614.094 212.834C613.771 215.833 614.462 218.475 616.157 220.769C616.874 221.738 617.772 222.69 618.831 223.63C617.03 224.515 615.467 225.521 614.161 226.662C611.822 228.705 610.491 231.205 610.169 234.153C609.894 236.607 610.318 238.775 611.441 240.659C612.564 242.542 614.297 243.997 616.636 245.016C618.976 246.04 621.73 246.547 624.896 246.547C628.244 246.547 631.126 246.103 633.533 245.218C635.94 244.333 637.843 243.016 639.245 241.267C640.644 239.518 641.483 237.395 641.758 234.9C641.987 232.903 641.699 231.096 640.898 229.485C640.093 227.874 638.936 226.432 637.423 225.161C636.944 224.758 636.419 224.351 635.859 223.944C637.461 223.047 638.868 221.994 640.072 220.769C641.839 218.974 642.86 216.764 643.136 214.13H643.131ZM624.345 212.767C624.438 211.63 624.883 210.77 625.688 210.179C626.489 209.587 627.489 209.294 628.68 209.294C630.147 209.294 631.248 209.726 631.982 210.59C632.715 211.454 632.99 212.586 632.808 213.996C632.626 215.631 632.121 216.995 631.295 218.081C630.791 218.744 630.159 219.335 629.396 219.847C627.739 218.744 626.532 217.733 625.79 216.823C624.735 215.531 624.252 214.18 624.345 212.771V212.767ZM630.608 235.445C630.426 236.628 629.909 237.521 629.062 238.134C628.214 238.746 627.053 239.052 625.587 239.052C623.798 239.052 622.476 238.587 621.628 237.655C620.781 236.724 620.425 235.508 620.56 234.011C620.743 232.333 621.501 230.823 622.832 229.481C623.396 228.915 624.074 228.365 624.849 227.837C626.341 228.755 627.515 229.602 628.371 230.37C629.358 231.255 630.011 232.098 630.333 232.891C630.655 233.688 630.744 234.535 630.608 235.445Z" fill="#4AC3D6"/>
<path d="M171.118 11.2743L165.507 43.7924C165.185 43.8218 164.863 43.8511 164.541 43.8847L169.444 11.0101C169.635 9.9154 171.279 10.1587 171.118 11.2743Z" fill="#6FCBDC"/>
<path d="M192.098 16.3705L182.838 43.6457C182.406 43.6121 181.973 43.587 181.541 43.5576L190.131 15.7455C190.563 14.4579 192.504 15.0576 192.098 16.3705Z" fill="#6ACADB"/>
<path d="M211.722 24.4316L200.267 46.3801C199.729 46.2459 199.191 46.1201 198.648 45.9984L209.536 23.362C210.273 21.9276 212.434 22.9678 211.722 24.4316Z" fill="#67C9DA"/>
<path d="M229.698 35.1818L217.302 52.1224C216.675 51.8456 216.044 51.5813 215.412 51.3213L227.388 33.5922C228.473 32.0738 230.766 33.6341 229.698 35.1818Z" fill="#62C8DA"/>
<path d="M245.768 48.3557L233.376 60.8672C232.694 60.4142 232.008 59.9696 231.312 59.5334L243.446 46.1957C244.916 44.6648 247.23 46.7913 245.768 48.3557Z" fill="#5FC7D8"/>
<path d="M259.692 63.6984L247.932 72.4938C247.241 71.8353 246.542 71.1852 245.834 70.5477L257.484 60.9428C259.374 59.4832 261.569 62.1927 259.692 63.6984Z" fill="#57C6D7"/>
<path d="M271.241 80.9744L260.409 86.8003C259.769 85.9153 259.117 85.0429 258.451 84.1789L269.275 77.6106C271.584 76.3104 273.542 79.6323 271.241 80.9744Z" fill="#51C4D5"/>
<path d="M280.144 99.9368L270.244 103.477C269.723 102.365 269.185 101.266 268.621 100.18L278.567 95.9774C281.297 94.9415 282.865 98.8463 280.144 99.9368Z" fill="#4AC3D6"/>
<path d="M286.14 120.312L276.88 122.099C276.554 120.786 276.198 119.486 275.816 118.194L285.106 115.804C288.208 115.124 289.25 119.587 286.14 120.312Z" fill="#41C2D5"/>
<path d="M288.964 141.77L279.84 142.097C279.768 140.634 279.667 139.174 279.535 137.723L288.613 136.792C292.05 136.569 292.414 141.51 288.964 141.77Z" fill="#33C0D4"/>
<path d="M288.396 163.715L278.814 162.565C279.048 161.026 279.247 159.478 279.408 157.918L288.854 158.371C292.549 158.698 292.113 164.004 288.396 163.715Z" fill="#2BBFD3"/>
<path d="M284.493 184.875L273.945 181.918C274.496 180.374 275.013 178.818 275.492 177.241L285.858 179.309C289.719 180.248 288.379 185.785 284.493 184.875Z" fill="#1CBED3"/>
<path d="M277.502 204.814L265.695 199.467C266.564 197.999 267.395 196.51 268.187 195L279.833 199.169C283.761 200.775 281.456 206.391 277.502 204.814Z" fill="#0DB9D1"/>
<path d="M272.382 222.048C271.488 223.718 269.297 224.267 267.712 223.227L254.672 214.776C255.82 213.459 256.931 212.112 258.003 210.736L271.047 217.67C272.64 218.513 273.234 220.476 272.382 222.048Z" fill="#00B2CC"/>
<path d="M260.465 239.337C259.27 240.952 256.884 241.191 255.384 239.857L241.445 227.555C242.823 226.448 244.166 225.299 245.48 224.12L259.736 234.551C261.274 235.675 261.596 237.814 260.465 239.337Z" fill="#08AEC8"/>
<path d="M246.175 254.692C244.683 256.202 242.144 256.097 240.784 254.466L226.596 237.613C228.134 236.753 229.651 235.856 231.139 234.92L246.145 249.592C247.573 250.993 247.59 253.274 246.175 254.692Z" fill="#03A8C5"/>
<path d="M229.744 267.879C227.956 269.234 225.32 268.735 224.159 266.826L210.648 244.857C212.28 244.274 213.899 243.653 215.492 242.99L230.486 262.569C231.761 264.238 231.431 266.612 229.744 267.879Z" fill="#06A2C2"/>
<path d="M211.394 278.641C209.326 279.786 206.656 278.864 205.753 276.699L194.129 249.269C195.786 248.971 197.426 248.632 199.053 248.254L212.975 273.243C214.043 275.164 213.339 277.584 211.394 278.641Z" fill="#0A9DBE"/>
<path d="M191.369 286.716C189.043 287.592 186.415 286.216 185.822 283.826L177.516 250.951C179.122 250.918 180.719 250.846 182.309 250.737L193.84 281.364C194.649 283.519 193.543 285.914 191.369 286.716Z" fill="#0E98BB"/>
<path d="M169.954 291.811C167.407 292.357 164.898 290.52 164.678 287.949L161.207 250.079C162.69 250.276 164.182 250.439 165.686 250.569L173.349 286.665C173.844 289.014 172.327 291.317 169.954 291.811Z" fill="#0E92B7"/>
<path d="M147.489 293.653C144.768 293.821 142.471 291.518 142.666 288.834L145.463 246.782C146.794 247.172 148.137 247.533 149.493 247.868L151.803 288.876C151.943 291.375 150.01 293.514 147.489 293.653Z" fill="#0F8BB2"/>
<path d="M134.55 242.944L130.197 287.839C129.947 290.431 127.621 292.331 125.002 292.08C122.167 291.832 120.166 289.089 120.811 286.35L131.058 241.422C132.21 241.95 133.376 242.462 134.55 242.944Z" fill="#1186AE"/>
<path d="M121.411 236.384L109.46 283.679C108.795 286.304 106.108 287.902 103.455 287.244C100.573 286.556 98.9461 283.41 100.052 280.688L118.466 234.577C119.436 235.197 120.419 235.797 121.411 236.384Z" fill="#0E81AC"/>
<path d="M109.988 228.575L89.9173 276.632C88.8324 279.229 85.8278 280.462 83.2045 279.388C80.3397 278.243 79.1574 274.753 80.7296 272.128L107.564 226.616C108.36 227.283 109.17 227.937 109.988 228.575Z" fill="#0E7BA8"/>
<path d="M100.155 219.821L71.8373 266.944C70.3328 269.444 67.0655 270.266 64.5355 268.777C62.0097 267.288 61.1791 264.054 62.6835 261.554C62.7895 261.37 62.9251 261.181 63.0564 261.013C63.0564 261.013 63.0564 261.013 63.0607 261.013L63.0692 261.001C63.0692 261.001 63.0988 260.963 63.1115 260.946L98.201 217.8C98.8452 218.483 99.4936 219.159 100.155 219.825V219.821Z" fill="#1176A4"/>
<path d="M91.8242 210.321L55.4718 254.848C53.5605 257.192 50.0897 257.553 47.7207 255.661C45.1102 253.61 44.9831 249.621 47.4453 247.407L90.2858 208.291C90.7901 208.975 91.3029 209.65 91.8242 210.321Z" fill="#0F70A0"/>
<path d="M84.9137 200.247L41.0433 240.566C38.7379 242.688 35.1315 242.554 32.9872 240.272C30.614 237.785 31.0928 233.666 33.9576 231.766L83.7398 198.246C84.1212 198.917 84.5153 199.584 84.9137 200.247Z" fill="#116A9C"/>
<path d="M79.3776 189.723L28.7944 224.317C26.1204 226.146 22.4504 225.483 20.6027 222.833C18.7549 220.186 19.4245 216.558 22.0986 214.725C22.3105 214.583 22.5521 214.444 22.7767 214.327C22.7767 214.327 22.7809 214.327 22.7979 214.314C22.7979 214.314 22.8021 214.314 22.8063 214.31L22.836 214.293L22.8911 214.268L78.5131 187.765C78.7928 188.423 79.0809 189.073 79.3776 189.723Z" fill="#126498"/>
<path d="M75.1535 178.826L18.9594 206.303C15.9505 207.775 12.306 206.555 10.8185 203.577C9.14877 200.305 10.9372 196.212 14.4842 195.163L74.5517 176.906C74.7467 177.547 74.9458 178.189 75.1535 178.826Z" fill="#136094"/>
<path d="M72.2211 167.586L11.823 186.77C8.52597 187.815 5.00006 186.02 3.94484 182.761C2.73704 179.158 5.21619 175.245 9.00484 174.729L71.8524 165.665C71.9668 166.307 72.0897 166.948 72.2211 167.586Z" fill="#135990"/>
<path d="M70.5546 155.943L7.64352 165.984C4.1261 166.546 0.812087 164.176 0.244213 160.695C-0.42537 156.836 2.73608 153.217 6.68577 153.292L70.4063 153.976C70.4487 154.634 70.4995 155.289 70.5546 155.943Z" fill="#14538E"/>
<path d="M70.3242 141.85C70.2903 142.538 70.2607 143.23 70.2395 143.918L6.69695 144.438C3.02696 144.471 0.0307928 141.552 0.00112774 137.92C-0.0751538 133.877 3.73045 130.681 7.74794 131.385L70.3242 141.85Z" fill="#14538E"/>
<path d="M71.6202 129.98C71.493 130.723 71.3786 131.465 71.2684 132.212L9.0015 123.383C5.26794 122.854 2.67437 119.432 3.20834 115.737C3.7635 111.601 8.15816 108.929 12.1375 110.284L71.6202 129.98Z" fill="#154985"/>
<path d="M74.2788 118.383C74.0373 119.197 73.8127 120.01 73.5965 120.833L14.3681 103.305C10.6515 102.206 8.54108 98.3346 9.6514 94.6604C10.855 90.5291 15.7582 88.4781 19.5934 90.4787L74.2788 118.383Z" fill="#1E4381"/>
<path d="M78.3201 107.025C77.9387 107.923 77.57 108.824 77.2183 109.734L22.5498 84.5018C18.9391 82.8409 17.3796 78.5963 19.062 75.027C20.9098 70.9921 26.2283 69.6373 29.8177 72.2629L78.3201 107.025Z" fill="#223E7D"/>
<path d="M83.832 95.9438C83.2642 96.9294 82.7133 97.9276 82.1793 98.9343L33.3125 67.2425C29.8968 65.0279 28.939 60.4897 31.1808 57.1092C33.66 53.2714 39.2879 52.68 42.5383 55.8928L83.832 95.9438Z" fill="#253A79"/>
<path d="M90.8741 85.2652C90.0731 86.3305 89.2891 87.4126 88.5305 88.5115L46.4189 51.7572C43.2786 49.0142 42.9777 44.2705 45.7451 41.1626C48.8387 37.61 54.6658 37.8407 57.4797 41.5988L90.8741 85.2652Z" fill="#273675"/>
<path d="M99.5388 75.1529C98.4455 76.277 97.3733 77.4262 96.3308 78.6006L61.6608 38.2686C58.8808 35.0348 59.2749 30.1779 62.5423 27.4265C66.2123 24.2598 72.1156 25.3587 74.3998 29.5991L99.5388 75.1529Z" fill="#283170"/>
<path d="M109.91 65.8291C108.461 66.9657 107.041 68.1401 105.655 69.3565L78.8212 27.0238C76.4819 23.3371 77.6092 18.4759 81.3342 16.1607C85.5382 13.4806 91.378 15.4771 93.0435 20.1327L109.91 65.8291Z" fill="#2A2D6C"/>
<path d="M122.101 57.5581C120.233 58.6444 118.398 59.7853 116.605 60.9764L97.6871 18.2789C95.8776 14.1979 97.755 9.4416 101.878 7.65065C106.553 5.55352 112.185 8.46853 113.143 13.4471L122.101 57.5581Z" fill="#2A2969"/>
<path d="M136.208 50.7297C133.864 51.6524 131.563 52.6591 129.308 53.7454L118.01 12.3103C116.807 7.90634 119.438 3.37655 123.888 2.18957C128.334 1.0026 132.911 3.60723 134.114 8.00701C134.267 8.56904 134.356 9.16881 134.39 9.72665V9.79376L136.208 50.7297Z" fill="#292565"/>
<path d="M156.43 9.39964L152.277 45.8268C149.433 46.4475 146.632 47.1857 143.882 48.0329L139.479 9.39964C138.949 4.76499 142.318 0.587508 146.997 0.0632264C152.362 -0.60366 157.091 4.10649 156.43 9.39964Z" fill="#272361"/>
<path d="M178.771 134.439C178.771 137.739 178.58 140.197 178.208 141.808C177.83 143.414 177.186 144.509 176.267 145.088C175.351 145.667 174.016 145.952 172.266 145.952C171.724 145.952 171.181 145.943 170.639 145.939V122.321C171.24 122.309 171.825 122.305 172.389 122.305C174.059 122.305 175.33 122.636 176.207 123.294C177.08 123.957 177.724 125.152 178.144 126.885C178.559 128.621 178.771 131.138 178.771 134.439Z" fill="#292561"/>
<path d="M267.157 152.235L156.379 215.535C150.954 218.634 144.174 214.759 144.174 208.56V184.585H170.639V161.391C172.373 161.416 174 161.433 175.517 161.433C186.358 161.433 194.431 158.728 199.728 153.321C205.021 147.915 207.67 140.961 207.67 132.459C207.67 127.011 206.712 122.368 204.792 118.53C202.872 114.688 199.287 111.639 194.032 109.366C188.777 107.097 181.357 105.96 171.767 105.96C165.592 105.96 158.502 106.128 150.497 106.455C149.162 106.455 147.056 106.53 144.174 106.673V81.9645C144.174 75.7654 150.954 71.8899 156.379 74.9895L267.157 138.285C272.581 141.389 272.581 149.136 267.157 152.235Z" fill="#292561"/>
<path d="M96.5132 184.833C92.3008 183.927 88.1095 182.564 83.9395 180.747L86.4398 162.423C90.6098 163.828 94.4875 164.897 98.0727 165.64C101.658 166.382 104.828 166.755 107.582 166.755C110.002 166.755 111.774 166.407 112.901 165.703C114.028 165.002 114.592 163.828 114.592 162.175C114.592 161.022 114.257 160.028 113.592 159.206C112.922 158.384 111.842 157.494 110.341 156.542C108.841 155.594 106.464 154.252 103.209 152.52C99.2042 150.373 95.9326 148.271 93.3899 146.208C90.8429 144.144 88.885 141.791 87.512 139.149C86.1347 136.506 85.4481 133.411 85.4481 129.863C85.4481 125.324 86.6559 121.176 89.0757 117.418C91.4956 113.664 95.1613 110.67 100.086 108.443C105.006 106.215 111.053 105.1 118.224 105.1C122.229 105.1 126.123 105.473 129.92 106.215C133.713 106.958 137.112 107.948 140.117 109.185L137.239 128.13C134.484 127.141 131.607 126.377 128.607 125.84C125.606 125.304 122.809 125.035 120.224 125.035C117.889 125.035 116.054 125.404 114.719 126.151C113.384 126.893 112.719 128.093 112.719 129.741C112.719 130.731 113.071 131.641 113.782 132.467C114.49 133.294 115.825 134.241 117.787 135.315C119.745 136.389 122.729 137.836 126.733 139.648C131.988 141.959 136.01 144.744 138.807 148.007C141.6 151.27 142.998 155.54 142.998 160.82C142.998 169.075 140.1 175.37 134.302 179.703C128.505 184.036 120.644 186.204 110.719 186.204C105.464 186.204 100.73 185.751 96.5174 184.841L96.5132 184.833Z" fill="#272361"/>
</svg>
