<svg width="198" height="201" viewBox="0 0 198 201" fill="none" xmlns="http://www.w3.org/2000/svg">
<path d="M116.01 7.71695L112.206 29.9743C111.988 29.9944 111.77 30.0145 111.551 30.0375L114.875 7.53609C115.005 6.78681 116.119 6.95332 116.01 7.71695Z" fill="black"/>
<path d="M130.235 11.205L123.957 29.8739C123.664 29.8509 123.371 29.8337 123.078 29.8136L128.902 10.7773C129.195 9.89591 130.511 10.3064 130.235 11.205Z" fill="black"/>
<path d="M143.54 16.7227L135.774 31.7456C135.409 31.6538 135.044 31.5676 134.677 31.4844L142.058 15.9906C142.558 15.0088 144.023 15.7208 143.54 16.7227Z" fill="black"/>
<path d="M155.725 24.0806L147.321 35.6757C146.896 35.4863 146.468 35.3054 146.04 35.1274L154.159 22.9925C154.895 21.9533 156.449 23.0212 155.725 24.0806Z" fill="black"/>
<path d="M166.62 33.0978L158.219 41.6614C157.756 41.3513 157.291 41.047 156.82 40.7485L165.045 31.6193C166.042 30.5714 167.611 32.0269 166.62 33.0978Z" fill="black"/>
<path d="M176.061 43.5992L168.088 49.6193C167.62 49.1686 167.146 48.7236 166.666 48.2872L174.564 41.7131C175.845 40.714 177.334 42.5686 176.061 43.5992Z" fill="black"/>
<path d="M183.89 55.424L176.546 59.4116C176.112 58.8059 175.67 58.2087 175.219 57.6173L182.557 53.1217C184.123 52.2317 185.45 54.5054 183.89 55.424Z" fill="black"/>
<path d="M189.926 68.403L183.215 70.8259C182.861 70.0652 182.496 69.313 182.114 68.5695L188.857 65.6929C190.708 64.9838 191.771 67.6566 189.926 68.403Z" fill="black"/>
<path d="M193.992 82.3493L187.714 83.5723C187.493 82.6737 187.251 81.7838 186.993 80.8996L193.291 79.2632C195.394 78.7982 196.1 81.8527 193.992 82.3493Z" fill="black"/>
<path d="M195.905 97.0364L189.719 97.2603C189.671 96.2584 189.602 95.2594 189.513 94.2661L195.667 93.6288C197.997 93.4766 198.244 96.8584 195.905 97.0364Z" fill="black"/>
<path d="M195.52 112.056L189.024 111.27C189.182 110.216 189.317 109.157 189.426 108.089L195.83 108.399C198.336 108.623 198.04 112.255 195.52 112.056Z" fill="black"/>
<path d="M192.874 126.54L185.723 124.516C186.096 123.459 186.447 122.394 186.772 121.315L193.799 122.73C196.417 123.373 195.509 127.163 192.874 126.54Z" fill="black"/>
<path d="M188.136 140.188L180.132 136.527C180.721 135.522 181.284 134.503 181.821 133.47L189.716 136.323C192.38 137.423 190.817 141.267 188.136 140.188Z" fill="black"/>
<path d="M184.663 151.984C184.057 153.126 182.571 153.502 181.497 152.79L172.656 147.006C173.435 146.104 174.187 145.183 174.914 144.241L183.758 148.987C184.838 149.564 185.24 150.907 184.663 151.984Z" fill="black"/>
<path d="M176.584 163.817C175.773 164.922 174.156 165.086 173.139 164.173L163.689 155.753C164.623 154.995 165.534 154.209 166.424 153.402L176.089 160.542C177.132 161.311 177.351 162.775 176.584 163.817Z" fill="black"/>
<path d="M166.896 174.327C165.884 175.361 164.163 175.289 163.241 174.172L153.622 162.637C154.665 162.049 155.693 161.434 156.702 160.794L166.875 170.836C167.844 171.795 167.855 173.357 166.896 174.327Z" fill="black"/>
<path d="M155.757 183.353C154.544 184.28 152.757 183.939 151.97 182.632L142.811 167.595C143.917 167.196 145.014 166.771 146.094 166.318L156.259 179.719C157.124 180.861 156.9 182.486 155.757 183.353Z" fill="black"/>
<path d="M143.316 190.72C141.914 191.503 140.104 190.872 139.492 189.39L131.611 170.615C132.735 170.411 133.846 170.179 134.95 169.921L144.388 187.025C145.112 188.34 144.635 189.996 143.316 190.72Z" fill="black"/>
<path d="M129.741 196.246C128.163 196.846 126.382 195.904 125.98 194.268L120.349 171.766C121.437 171.743 122.521 171.695 123.598 171.62L131.416 192.583C131.964 194.058 131.215 195.697 129.741 196.246Z" fill="black"/>
<path d="M115.22 199.734C113.493 200.107 111.793 198.85 111.643 197.09L109.29 171.169C110.296 171.304 111.307 171.416 112.327 171.505L117.522 196.211C117.858 197.819 116.829 199.395 115.22 199.734Z" fill="black"/>
<path d="M99.99 200.994C98.1455 201.109 96.5883 199.533 96.7204 197.696L98.6167 168.913C99.5188 169.18 100.43 169.427 101.349 169.656L102.915 197.724C103.01 199.435 101.699 200.899 99.99 200.994Z" fill="black"/>
<path d="M91.2184 166.286L88.2677 197.015C88.0982 198.789 86.5209 200.09 84.7453 199.918C82.8232 199.748 81.4671 197.871 81.9038 195.996L88.851 165.244C89.6324 165.606 90.4225 165.956 91.2184 166.286Z" fill="black"/>
<path d="M82.3118 161.796L74.2097 194.167C73.7587 195.964 71.9371 197.058 70.1386 196.607C68.1849 196.137 67.0816 193.984 67.8315 192.12L80.315 160.559C80.973 160.984 81.6395 161.394 82.3118 161.796Z" fill="black"/>
<path d="M74.566 156.451L60.9591 189.344C60.2236 191.121 58.1866 191.965 56.4081 191.23C54.4659 190.447 53.6643 188.058 54.7302 186.261L72.9226 155.11C73.4628 155.566 74.0115 156.014 74.566 156.451Z" fill="black"/>
<path d="M67.9005 150.459L48.7025 182.713C47.6825 184.424 45.4674 184.986 43.7521 183.967C42.0398 182.948 41.4767 180.735 42.4966 179.024C42.5684 178.897 42.6604 178.768 42.7494 178.653C42.7494 178.653 42.7494 178.653 42.7523 178.653L42.7581 178.645C42.7581 178.645 42.7782 178.619 42.7868 178.608L66.576 149.076C67.0127 149.543 67.4522 150.006 67.9005 150.462V150.459Z" fill="black"/>
<path d="M62.2519 143.957L37.6066 174.433C36.3108 176.038 33.9578 176.285 32.3517 174.99C30.5819 173.586 30.4957 170.856 32.165 169.341L61.209 142.567C61.5509 143.035 61.8985 143.498 62.2519 143.957Z" fill="black"/>
<path d="M57.5689 137.061L27.8267 164.658C26.2637 166.111 23.8187 166.019 22.3649 164.457C20.756 162.755 21.0806 159.936 23.0228 158.635L56.773 135.692C57.0316 136.151 57.2988 136.608 57.5689 137.061Z" fill="black"/>
<path d="M53.8136 129.858L19.5204 153.537C17.7075 154.788 15.2194 154.335 13.9668 152.521C12.7141 150.709 13.168 148.226 14.981 146.971C15.1246 146.874 15.2884 146.779 15.4407 146.699C15.4407 146.699 15.4435 146.699 15.455 146.69C15.455 146.69 15.4579 146.69 15.4608 146.687L15.4809 146.676L15.5182 146.658L53.2275 128.518C53.4171 128.968 53.6125 129.413 53.8136 129.858Z" fill="black"/>
<path d="M50.952 122.4L12.8549 141.207C10.815 142.214 8.34413 141.379 7.33568 139.341C6.20368 137.101 7.41612 134.299 9.8209 133.582L50.544 121.085C50.6762 121.524 50.8112 121.964 50.952 122.4Z" fill="black"/>
<path d="M48.9611 114.706L8.0138 127.837C5.77854 128.552 3.38813 127.323 2.67273 125.093C1.8539 122.627 3.53466 119.948 6.1032 119.595L48.7111 113.391C48.7887 113.831 48.872 114.27 48.9611 114.706Z" fill="black"/>
<path d="M47.8348 106.737L5.18378 113.61C2.79912 113.994 0.552363 112.372 0.16737 109.989C-0.286578 107.348 1.85675 104.871 4.53446 104.923L47.7342 105.39C47.7629 105.841 47.7974 106.289 47.8348 106.737Z" fill="black"/>
<path d="M47.6768 97.091C47.6538 97.5618 47.6337 98.0354 47.6193 98.5063L4.54024 98.8622C2.05215 98.8852 0.0208762 96.8871 0.00076456 94.401C-0.050951 91.6335 2.52908 89.446 5.25277 89.9283L47.6768 97.091Z" fill="black"/>
<path d="M48.556 88.9666C48.4698 89.4747 48.3922 89.9828 48.3175 90.4939L6.10321 84.4508C3.57202 84.0891 1.81369 81.7465 2.1757 79.2173C2.55208 76.3867 5.53147 74.558 8.2293 75.4853L48.556 88.9666Z" fill="black"/>
<path d="M50.3573 81.0288C50.1936 81.5857 50.0413 82.1426 49.8948 82.7053L9.74049 70.7082C7.2208 69.9561 5.79 67.3063 6.54275 64.7915C7.35871 61.9637 10.6829 60.5599 13.283 61.9293L50.3573 81.0288Z" fill="black"/>
<path d="M53.0983 73.2546C52.8397 73.869 52.5897 74.4862 52.3513 75.1092L15.2884 57.8384C12.8406 56.7016 11.7833 53.7963 12.9239 51.3532C14.1766 48.5915 17.7823 47.6643 20.2158 49.4614L53.0983 73.2546Z" fill="black"/>
<path d="M56.8334 65.67C56.4484 66.3446 56.0749 67.0279 55.7129 67.7169L22.5833 46.025C20.2676 44.5092 19.6183 41.403 21.1381 39.0891C22.8189 36.4624 26.6344 36.0576 28.838 38.2566L56.8334 65.67Z" fill="black"/>
<path d="M61.6084 58.3609C61.0654 59.0901 60.5339 59.8307 60.0196 60.5829L31.4697 35.426C29.3408 33.5485 29.1368 30.3016 31.0129 28.1743C33.1103 25.7428 37.0608 25.9006 38.9685 28.4729L61.6084 58.3609Z" fill="black"/>
<path d="M67.4809 51.4393C66.7397 52.2087 66.0128 52.9953 65.306 53.7991L41.8013 26.1935C39.9165 23.9801 40.1837 20.6557 42.3989 18.7724C44.887 16.605 48.8892 17.3571 50.4378 20.2595L67.4809 51.4393Z" fill="black"/>
<path d="M74.5143 45.0575C73.5317 45.8355 72.5692 46.6394 71.6297 47.4719L53.4373 18.4968C51.8514 15.9734 52.6156 12.6461 55.1411 11.0614C57.9912 9.227 61.9503 10.5935 63.0794 13.7801L74.5143 45.0575Z" fill="black"/>
<path d="M82.7802 39.3963C81.5132 40.1399 80.2691 40.9207 79.0538 41.736L66.2283 12.5112C65.0015 9.71791 66.2743 6.46241 69.0698 5.23658C72.2389 3.80118 76.0572 5.79639 76.7065 9.20404L82.7802 39.3963Z" fill="black"/>
<path d="M92.3418 34.7226C90.753 35.3542 89.1929 36.0432 87.6644 36.7868L80.0048 8.42605C79.1888 5.4117 80.973 2.31123 83.9898 1.49879C87.0036 0.686354 90.1066 2.46913 90.9225 5.4806C91.0259 5.86529 91.0863 6.27582 91.1093 6.65763V6.70357L92.3418 34.7226Z" fill="black"/>
<path d="M106.052 6.43369L103.237 31.3667C101.309 31.7915 99.4097 32.2968 97.545 32.8767L94.5599 6.43369C94.2007 3.26145 96.4848 0.402127 99.6567 0.0432761C103.294 -0.413182 106.5 2.81073 106.052 6.43369Z" fill="black"/>
<path d="M121.199 92.0182C121.199 94.2776 121.07 95.9599 120.817 97.0622C120.561 98.1618 120.125 98.9111 119.501 99.3072C118.881 99.7034 117.976 99.8986 116.789 99.8986C116.421 99.8986 116.053 99.8929 115.686 99.89V83.7245C116.094 83.7159 116.49 83.713 116.872 83.713C118.004 83.713 118.866 83.9398 119.461 84.3905C120.053 84.8441 120.489 85.6623 120.774 86.8479C121.055 88.0364 121.199 89.7589 121.199 92.0182Z" fill="black"/>
<path d="M181.12 104.199L106.018 147.525C102.34 149.647 97.7432 146.994 97.7432 142.751V126.342H115.686V110.466C116.861 110.483 117.964 110.495 118.993 110.495C126.342 110.495 131.815 108.643 135.407 104.943C138.995 101.242 140.791 96.4824 140.791 90.6632C140.791 86.934 140.141 83.7561 138.84 81.1293C137.538 78.4996 135.108 76.4125 131.545 74.8566C127.982 73.3035 122.952 72.5255 116.45 72.5255C112.264 72.5255 107.457 72.6403 102.03 72.8642C101.125 72.8642 99.6969 72.9159 97.7432 73.0135V56.1016C97.7432 51.8585 102.34 49.2059 106.018 51.3274L181.12 94.6508C184.798 96.7752 184.798 102.078 181.12 104.199Z" fill="black"/>
<path d="M65.4324 126.511C62.5766 125.891 59.7351 124.958 56.908 123.715L58.6031 111.172C61.4302 112.134 64.0591 112.866 66.4897 113.374C68.9203 113.882 71.0694 114.138 72.9369 114.138C74.5775 114.138 75.7784 113.9 76.5427 113.417C77.3069 112.938 77.689 112.134 77.689 111.003C77.689 110.213 77.462 109.533 77.011 108.97C76.557 108.408 75.8244 107.799 74.8073 107.147C73.7902 106.499 72.1784 105.58 69.9719 104.394C67.2568 102.924 65.0388 101.486 63.315 100.074C61.5882 98.6613 60.2609 97.0508 59.33 95.2421C58.3962 93.4335 57.9308 91.3149 57.9308 88.8862C57.9308 85.7799 58.7496 82.9407 60.3902 80.3685C62.0307 77.7991 64.5159 75.7494 67.8544 74.225C71.1901 72.7006 75.29 71.9369 80.1513 71.9369C82.8663 71.9369 85.5067 72.1924 88.081 72.7006C90.6524 73.2087 92.9566 73.8862 94.9936 74.7331L93.0428 87.7005C91.1753 87.023 89.2245 86.5005 87.1903 86.1331C85.1562 85.7656 83.2599 85.5819 81.5074 85.5819C79.9243 85.5819 78.6802 85.8345 77.7752 86.3455C76.8702 86.8536 76.4191 87.6747 76.4191 88.8029C76.4191 89.4804 76.6576 90.1034 77.1403 90.6689C77.6201 91.2345 78.5251 91.8833 79.8553 92.6182C81.1827 93.3531 83.2053 94.3436 85.9204 95.5838C89.483 97.1656 92.2096 99.0718 94.1058 101.305C95.9992 103.539 96.9473 106.461 96.9473 110.076C96.9473 115.725 94.9821 120.034 91.0518 123C87.1214 125.966 81.7918 127.45 75.063 127.45C71.5004 127.45 68.2911 127.14 65.4353 126.517L65.4324 126.511Z" fill="black"/>
</svg>
