<svg width="475" height="222" viewBox="0 0 475 222" fill="none" xmlns="http://www.w3.org/2000/svg">
<g clip-path="url(#clip0_2875_3387)">
<path d="M38.3137 3.30337C34.32 1.55457 28.6806 0.680176 21.3952 0.680176C16.6997 0.680176 11.3264 0.80162 5.22705 1.0688C4.13788 1.0688 2.3952 1.14166 -0.000976562 1.26311V61.2565H20.5239V43.4042C21.8309 43.4042 23.0895 43.4285 24.227 43.4285C32.4563 43.4285 38.6041 41.3397 42.622 37.1863C46.6398 33.0329 48.6487 27.6651 48.6487 21.1071C48.6487 16.9051 47.9226 13.3347 46.4704 10.3714C45.0181 7.40819 42.2831 5.05217 38.2895 3.30337H38.3137ZM26.3086 28.2966C26.0181 29.5353 25.5341 30.3854 24.8321 30.8226C24.1302 31.2598 23.1137 31.4784 21.7825 31.4784C21.371 31.4784 20.9595 31.4784 20.5481 31.4784V13.2861C21.0079 13.2861 21.4436 13.2861 21.8793 13.2861C23.1379 13.2861 24.106 13.529 24.7837 14.039C25.4372 14.5491 25.9455 15.4721 26.2602 16.808C26.5748 18.1439 26.7442 20.087 26.7442 22.6373C26.7442 25.1876 26.599 27.0821 26.3086 28.3209V28.2966Z" fill="white"/>
<path d="M96.0636 38.8864C95.6037 38.1335 95.1439 37.4048 94.684 36.7004C96.6929 35.6803 98.4598 34.3444 99.9604 32.6928C102.72 29.6809 104.099 25.1632 104.099 19.1882C104.099 14.6704 103.083 11.0757 101.05 8.35534C99.0165 5.65928 95.991 3.71617 91.9732 2.52601C87.9553 1.36015 82.7999 0.75293 76.5311 0.75293C69.633 0.75293 63.8241 0.850085 59.1286 1.0444C57.6037 1.11726 56.0547 1.16584 54.4814 1.23871V61.2321H75.0063V39.9551C75.6598 39.9551 76.2891 39.9308 76.9184 39.9065L84.3006 61.2321H107.197L99.6942 45.2987C98.9923 43.8413 97.7821 41.6796 96.0394 38.8621L96.0636 38.8864ZM75.0063 13.4074C75.7324 13.4074 76.4343 13.3831 77.0878 13.3831C78.6127 13.3831 79.7502 13.626 80.5006 14.1361C81.2509 14.6461 81.7592 15.4234 82.0254 16.4678C82.2674 17.5122 82.4127 19.0181 82.4127 21.0098C82.4127 23.1715 82.1706 24.7503 81.6623 25.7704C81.1541 26.7906 80.4279 27.4464 79.484 27.7378C78.54 28.0293 77.2088 28.175 75.4904 28.175C75.3451 28.175 75.1757 28.175 75.0063 28.175V13.4317V13.4074Z" fill="white"/>
<path d="M138.008 0.0244141C132.054 0.0244141 126.802 1.23886 122.276 3.69203C117.75 6.1452 114.24 9.69137 111.772 14.3791C109.303 19.0426 108.068 24.629 108.068 31.1141C108.068 41.0968 110.465 48.8207 115.281 54.2857C120.098 59.7507 127.383 62.4953 137.137 62.4953C143.091 62.4953 148.222 61.1837 152.531 58.5362C156.839 55.8887 160.131 52.1726 162.406 47.3391C164.681 42.5056 165.819 36.8706 165.819 30.4583C165.819 20.7914 163.423 13.3104 158.654 7.99115C153.862 2.6719 146.988 0.0244141 137.984 0.0244141L138.008 0.0244141ZM142.873 41.9955C142.365 44.5459 141.687 46.2218 140.84 47.0476C139.993 47.8734 138.856 48.2863 137.476 48.2863C135.951 48.2863 134.717 47.8977 133.773 47.0962C132.829 46.2947 132.079 44.643 131.546 42.1413C131.014 39.6395 130.747 35.9233 130.747 31.0413C130.747 24.9933 131.328 20.9371 132.514 18.8726C133.676 16.808 135.298 15.7636 137.307 15.7636C139.582 15.7636 141.228 16.8566 142.196 19.0183C143.188 21.18 143.672 25.0905 143.672 30.7498C143.672 35.7047 143.43 39.4695 142.922 41.9955H142.873Z" fill="white"/>
<path d="M198.373 39.9794L204.085 39.7365V47.9947C203.19 48.0433 202.318 48.0676 201.52 48.0676C198.736 48.0676 196.631 47.6304 195.203 46.7803C193.775 45.9302 192.758 44.3271 192.104 42.0197C191.475 39.688 191.161 36.2147 191.161 31.5755C191.161 27.4464 191.717 24.216 192.831 21.8842C193.944 19.5525 195.59 17.9495 197.768 17.0265C199.947 16.1035 202.827 15.642 206.361 15.642C208.079 15.642 209.846 15.7392 211.685 15.9335C213.525 16.1278 215.34 16.3464 217.107 16.5893C217.494 16.6621 217.833 16.7107 218.148 16.7836L219.769 2.57462C216.913 1.7488 214.227 1.11729 211.685 0.655799C209.144 0.218599 206.264 0 203.045 0C196.655 0 190.894 1.26302 185.787 3.81335C180.68 6.36368 176.662 10.1042 173.71 15.0105C170.757 19.9411 169.28 25.8676 169.28 32.7899C169.28 43.2098 172.04 50.7637 177.558 55.4514C183.076 60.1149 191.403 62.4709 202.561 62.4709C206.796 62.4709 212.484 62.0823 219.576 61.3293L222.045 61.0379V26.8877H198.373V39.9551V39.9794Z" fill="white"/>
<path d="M271.299 38.8864C270.839 38.1335 270.379 37.4048 269.919 36.7004C271.928 35.6803 273.695 34.3444 275.196 32.6928C277.955 29.6809 279.335 25.1632 279.335 19.1882C279.335 14.6704 278.318 11.0757 276.285 8.35534C274.252 5.65928 271.226 3.71617 267.209 2.52601C263.191 1.36015 258.035 0.75293 251.766 0.75293C244.868 0.75293 239.059 0.850085 234.364 1.0444C232.839 1.11726 231.29 1.16584 229.717 1.23871V61.2321H250.242V39.9551C250.895 39.9551 251.524 39.9308 252.154 39.9065L259.536 61.2321H282.433L274.93 45.2987C274.228 43.8413 273.017 41.6796 271.275 38.8621L271.299 38.8864ZM250.266 13.4074C250.992 13.4074 251.694 13.3831 252.347 13.3831C253.872 13.3831 255.01 13.626 255.76 14.1361C256.51 14.6461 257.019 15.4234 257.285 16.4678C257.527 17.5122 257.672 19.0181 257.672 21.0098C257.672 23.1715 257.43 24.7503 256.922 25.7704C256.414 26.7906 255.687 27.4464 254.744 27.7378C253.8 28.0293 252.468 28.175 250.75 28.175C250.605 28.175 250.435 28.175 250.266 28.175V13.4317V13.4074Z" fill="white"/>
<path d="M300.247 1.26318L282.578 61.2566H304.725L306.249 52.0026H318.327L320.021 61.2566H341.587L324.378 1.26318H300.247ZM308.67 37.405L311.962 17.4881L315.616 37.405H308.646H308.67Z" fill="white"/>
<path d="M388.93 1.26306L381.886 28.248C381.257 30.5797 380.628 33.0086 380.023 35.5589C379.442 32.7414 378.837 30.1425 378.183 27.7865L371.333 1.26306H346.137L343.378 61.2565H362.184L361.628 23.1716L371.019 55.7186H386.703L395.9 22.9044L395.828 61.2322H414.174L412.552 1.23877H388.881L388.93 1.26306Z" fill="white"/>
<path d="M453.457 61.2566H475.023L457.814 1.26318H433.682L416.014 61.2566H438.16L439.685 52.0026H451.763L453.457 61.2566ZM442.105 37.405L445.397 17.4881L449.052 37.405H442.081H442.105Z" fill="white"/>
<path d="M41.1213 81.5868C36.7162 79.668 31.0525 78.7207 24.1544 78.7207C17.2563 78.7207 10.213 78.8907 3.04871 79.2065L-0.000976562 79.4008V139.394C9.12386 139.783 16.9175 139.977 23.3799 139.977C30.5442 139.977 36.4258 138.811 41.0003 136.455C45.599 134.099 48.9876 130.602 51.1659 125.962C53.3442 121.323 54.4334 115.543 54.4334 108.596C54.4334 101.212 53.2958 95.3586 51.0691 91.0108C48.8181 86.6631 45.5022 83.5299 41.0971 81.6111L41.1213 81.5868ZM31.5366 120.206C31.0041 122.635 30.0844 124.311 28.8258 125.258C27.5672 126.205 25.6793 126.691 23.2105 126.691C22.436 126.691 21.613 126.691 20.7417 126.643V92.3224C21.6614 92.2739 22.5812 92.2496 23.5009 92.2496C25.9697 92.2496 27.8334 92.7111 29.0678 93.634C30.3022 94.557 31.1493 96.233 31.6334 98.6375C32.1175 101.066 32.3353 104.685 32.3353 109.519C32.3353 114.352 32.0691 117.777 31.5366 120.206Z" fill="white"/>
<path d="M80.7184 124.772V116.296H97.3464V101.989H80.7184V93.9741H99.7184L100.469 79.3765H60.5566V139.37H100.566L100.299 124.772H80.7184Z" fill="white"/>
<path d="M166.425 79.3763L159.381 106.361C158.752 108.693 158.123 111.122 157.518 113.672C156.937 110.855 156.332 108.256 155.678 105.9L148.828 79.3763H123.632L120.873 139.37H139.679L139.123 101.285L148.514 133.832H164.198L173.395 101.018L173.323 139.345H191.669L190.048 79.3521H166.376L166.425 79.3763Z" fill="white"/>
<path d="M218.027 124.772V116.296H234.679V101.989H218.027V93.9741H237.051L237.802 79.3765H197.89V139.37H237.899L237.608 124.772H218.027Z" fill="white"/>
<path d="M286.476 94.0712L287.032 79.3765H240.271L240.948 94.0712H253.195V139.37H274.011V94.0712H286.476Z" fill="white"/>
<path d="M300.345 79.3765L282.676 139.37H304.822L306.347 130.116H318.425L320.119 139.37H341.685L324.476 79.3765H300.345ZM308.767 115.543L312.059 95.6257L315.714 115.543H308.743H308.767Z" fill="white"/>
<path d="M384.695 111.195C382.565 108.693 379.515 106.531 375.521 104.758C372.472 103.349 370.221 102.256 368.72 101.431C367.219 100.605 366.227 99.8761 365.67 99.2446C365.138 98.6131 364.872 97.9087 364.872 97.1558C364.872 95.8927 365.38 94.9697 366.396 94.3868C367.413 93.8039 368.793 93.5367 370.584 93.5367C372.544 93.5367 374.674 93.7553 376.949 94.1682C379.225 94.5811 381.427 95.1641 383.509 95.9413L385.687 81.3437C383.412 80.3964 380.822 79.6192 377.942 79.0606C375.061 78.4776 372.109 78.2104 369.059 78.2104C363.613 78.2104 359.014 79.0606 355.287 80.7851C351.56 82.5096 348.752 84.817 346.912 87.7074C345.073 90.5978 344.153 93.8039 344.153 97.3015C344.153 100.046 344.686 102.426 345.726 104.442C346.767 106.483 348.268 108.28 350.204 109.883C352.14 111.462 354.633 113.089 357.659 114.741C360.128 116.077 361.943 117.121 363.081 117.85C364.218 118.579 365.041 119.259 365.549 119.89C366.058 120.522 366.3 121.299 366.3 122.173C366.3 123.436 365.864 124.359 365.017 124.894C364.17 125.428 362.814 125.695 360.975 125.695C358.893 125.695 356.473 125.404 353.762 124.845C351.027 124.262 348.098 123.436 344.928 122.368L343.016 136.479C346.186 137.888 349.357 138.933 352.576 139.637C355.771 140.341 359.377 140.681 363.371 140.681C370.898 140.681 376.877 139.005 381.282 135.678C385.687 132.35 387.889 127.493 387.889 121.129C387.889 117.073 386.825 113.769 384.695 111.268V111.195Z" fill="white"/>
<path d="M34.6583 162.566C31.7054 159.821 27.3487 158.437 21.6608 158.437C18.5627 158.437 15.6341 158.777 12.8991 159.457C10.164 160.137 7.69523 161.084 5.51689 162.274L6.09778 172.087C8.27613 171.212 10.3577 170.557 12.3666 170.071C14.3755 169.609 16.3118 169.367 18.1513 169.367C20.7653 169.367 22.5564 169.877 23.5729 170.921C24.5895 171.965 24.9526 173.423 24.6621 175.342C24.4443 176.969 23.5245 178.888 21.9271 181.074C20.3296 183.26 18.3207 185.567 15.9245 187.996C13.5284 190.425 10.2124 193.655 5.97676 197.687C4.45192 199.169 2.90288 200.651 1.32963 202.181L0.603516 210.852H33.9564L35.336 199.898H27.2519C24.1054 199.898 21.0073 199.97 18.0303 200.14C22.1449 196.4 25.4608 193.267 27.9538 190.741C30.592 188.069 32.8672 185.349 34.7551 182.555C36.6672 179.762 37.7806 177.066 38.0952 174.443C38.7487 169.269 37.587 165.286 34.6341 162.541L34.6583 162.566Z" fill="white"/>
<path d="M65.2036 158.436C59.1042 158.436 54.1424 160.452 50.2698 164.484C46.3972 168.516 43.9284 175.05 42.8392 184.037C41.7501 193.048 42.7182 199.922 45.7679 204.658C48.8176 209.394 53.7552 211.775 60.6048 211.775C67.0189 211.775 72.029 209.613 75.6112 205.314C79.1934 201.015 81.5169 194.432 82.5335 185.591C83.5743 176.532 82.5577 169.755 79.508 165.213C76.4584 160.695 71.6902 158.412 65.1552 158.412L65.2036 158.436ZM68.3743 186.101C67.8418 190.522 67.2125 193.874 66.5348 196.133C65.8571 198.392 65.0826 199.922 64.2596 200.723C63.4125 201.525 62.3959 201.913 61.2099 201.913C59.7335 201.913 58.6201 201.452 57.8698 200.529C57.1195 199.606 56.6354 197.881 56.4902 195.331C56.345 192.781 56.5386 189.113 57.1437 184.328C57.6278 180.078 58.2087 176.799 58.8864 174.516C59.5641 172.232 60.3628 170.654 61.2583 169.804C62.1539 168.953 63.2915 168.541 64.6469 168.541C66.1233 168.541 67.2125 169.051 67.9144 170.046C68.6163 171.067 69.0036 172.84 69.1004 175.366C69.173 177.892 68.9552 181.487 68.3985 186.126L68.3743 186.101Z" fill="white"/>
<path d="M118.646 162.566C115.693 159.821 111.336 158.437 105.648 158.437C102.55 158.437 99.6214 158.777 96.8864 159.457C94.1513 160.137 91.6825 161.084 89.5042 162.274L90.0851 172.087C92.2634 171.212 94.345 170.557 96.3539 170.071C98.3628 169.609 100.299 169.367 102.139 169.367C104.753 169.367 106.544 169.877 107.56 170.921C108.577 171.965 108.94 173.423 108.649 175.342C108.432 176.969 107.512 178.888 105.914 181.074C104.317 183.26 102.308 185.567 99.9118 187.996C97.5157 190.425 94.1997 193.655 89.9641 197.687C88.4392 199.169 86.8902 200.651 85.3169 202.181L84.5908 210.852H117.944L119.323 199.898H111.239C108.093 199.898 104.995 199.97 102.018 200.14C106.132 196.4 109.448 193.267 111.941 190.741C114.579 188.069 116.855 185.349 118.742 182.555C120.655 179.762 121.768 177.066 122.083 174.443C122.736 169.269 121.574 165.286 118.621 162.541L118.646 162.566Z" fill="white"/>
<path d="M127.818 182.336L129.198 188.967C130.892 188.579 132.369 188.311 133.676 188.117C134.983 187.923 136.338 187.826 137.742 187.826C140.138 187.826 141.881 188.336 142.994 189.38C144.108 190.425 144.567 192.003 144.35 194.116C144.132 196.035 143.575 197.541 142.68 198.658C141.784 199.776 140.404 200.626 138.516 201.185C136.653 201.767 134.039 202.132 130.723 202.278C129.198 202.326 127.455 202.278 125.495 202.107L124.672 211.362C126.294 211.532 128.351 211.604 130.795 211.604C138.686 211.604 145.1 210.171 150.086 207.257C155.072 204.366 157.952 199.63 158.775 193.023C159.308 188.336 158.412 184.838 156.088 182.506C153.741 180.199 150.062 179.033 145.003 179.033C143.502 179.033 141.953 179.13 140.404 179.325C140.985 177.551 141.59 175.584 142.244 173.398L143.26 170.119H160.832L162.962 159.408H134.571L127.794 182.312L127.818 182.336Z" fill="white"/>
<path d="M172.91 219.256L184.818 222.024L210.184 153.117L198.276 151.004L172.91 219.256Z" fill="white"/>
<path d="M254.841 162.566C251.888 159.821 247.531 158.437 241.843 158.437C238.745 158.437 235.817 158.777 233.082 159.457C230.347 160.137 227.878 161.084 225.7 162.274L226.28 172.087C228.459 171.212 230.54 170.557 232.549 170.071C234.558 169.609 236.494 169.367 238.334 169.367C240.948 169.367 242.739 169.877 243.756 170.921C244.772 171.965 245.135 173.423 244.845 175.342C244.627 176.969 243.707 178.888 242.11 181.074C240.512 183.26 238.503 185.567 236.107 187.996C233.711 190.425 230.395 193.655 226.159 197.687C224.635 199.169 223.086 200.651 221.512 202.181L220.786 210.852H254.139L255.519 199.898H247.435C244.288 199.898 241.19 199.97 238.213 200.14C242.328 196.4 245.643 193.267 248.136 190.741C250.775 188.069 253.05 185.349 254.938 182.555C256.85 179.762 257.963 177.066 258.278 174.443C258.931 169.269 257.77 165.286 254.817 162.541L254.841 162.566Z" fill="white"/>
<path d="M285.386 158.436C279.287 158.436 274.325 160.452 270.452 164.484C266.58 168.516 264.111 175.05 263.022 184.037C261.933 193.048 262.901 199.922 265.951 204.658C269 209.394 273.938 211.775 280.787 211.775C287.201 211.775 292.212 209.613 295.794 205.314C299.376 201.015 301.7 194.432 302.716 185.591C303.757 176.532 302.74 169.755 299.691 165.213C296.641 160.695 291.873 158.412 285.338 158.412L285.386 158.436ZM288.557 186.101C288.024 190.522 287.395 193.874 286.717 196.133C286.04 198.392 285.265 199.922 284.442 200.723C283.595 201.525 282.579 201.913 281.393 201.913C279.916 201.913 278.803 201.452 278.052 200.529C277.302 199.606 276.818 197.881 276.673 195.331C276.528 192.781 276.721 189.113 277.326 184.328C277.81 180.078 278.391 176.799 279.069 174.516C279.747 172.232 280.545 170.654 281.441 169.804C282.336 168.953 283.474 168.541 284.829 168.541C286.306 168.541 287.395 169.051 288.097 170.046C288.799 171.067 289.186 172.84 289.283 175.366C289.38 177.892 289.138 181.487 288.581 186.126L288.557 186.101Z" fill="white"/>
<path d="M338.828 162.566C335.875 159.821 331.519 158.437 325.831 158.437C322.733 158.437 319.804 158.777 317.069 159.457C314.334 160.137 311.865 161.084 309.687 162.274L310.268 172.087C312.446 171.212 314.528 170.557 316.536 170.071C318.545 169.609 320.482 169.367 322.321 169.367C324.935 169.367 326.726 169.877 327.743 170.921C328.759 171.965 329.122 173.423 328.832 175.342C328.614 176.969 327.694 178.888 326.097 181.074C324.5 183.26 322.491 185.567 320.094 187.996C317.698 190.425 314.382 193.655 310.147 197.687C308.622 199.169 307.073 200.651 305.5 202.181L304.773 210.852H338.126L339.506 199.898H331.422C328.275 199.898 325.177 199.97 322.2 200.14C326.315 196.4 329.631 193.267 332.124 190.741C334.762 188.069 337.037 185.349 338.925 182.555C340.837 179.762 341.95 177.066 342.265 174.443C342.919 169.269 341.757 165.286 338.804 162.541L338.828 162.566Z" fill="white"/>
<path d="M385.105 172.839C385.371 169.949 384.863 167.423 383.556 165.237C382.249 163.051 380.288 161.375 377.65 160.209C375.012 159.043 371.962 158.46 368.477 158.46C363.418 158.46 359.304 159.626 356.133 161.934C352.962 164.241 351.147 167.374 350.711 171.309C350.324 174.904 351.147 178.086 353.156 180.855C354.003 182.021 355.068 183.162 356.327 184.304C354.197 185.372 352.333 186.587 350.784 187.947C348.001 190.4 346.427 193.412 346.064 196.958C345.75 199.897 346.234 202.52 347.565 204.779C348.896 207.038 350.953 208.787 353.713 210.026C356.496 211.264 359.739 211.872 363.491 211.872C367.46 211.872 370.873 211.337 373.729 210.269C376.585 209.2 378.836 207.621 380.506 205.532C382.152 203.443 383.145 200.893 383.483 197.881C383.75 195.477 383.411 193.315 382.467 191.372C381.523 189.429 380.143 187.704 378.352 186.174C377.771 185.688 377.166 185.202 376.488 184.717C378.376 183.648 380.046 182.361 381.474 180.903C383.556 178.742 384.766 176.094 385.105 172.912V172.839ZM362.862 171.212C362.959 169.852 363.491 168.807 364.459 168.103C365.403 167.399 366.589 167.034 368.017 167.034C369.76 167.034 371.067 167.544 371.938 168.589C372.81 169.633 373.124 170.993 372.906 172.669C372.688 174.637 372.083 176.264 371.115 177.576C370.51 178.377 369.76 179.082 368.864 179.689C366.904 178.353 365.476 177.139 364.58 176.046C363.322 174.491 362.765 172.864 362.862 171.188V171.212ZM370.268 198.464C370.05 199.873 369.445 200.966 368.429 201.695C367.412 202.423 366.057 202.788 364.314 202.788C362.184 202.788 360.635 202.229 359.618 201.112C358.602 199.994 358.19 198.537 358.36 196.74C358.578 194.724 359.473 192.902 361.046 191.299C361.724 190.619 362.523 189.963 363.443 189.332C365.209 190.449 366.613 191.445 367.606 192.368C368.767 193.436 369.542 194.432 369.929 195.404C370.317 196.351 370.413 197.371 370.244 198.464H370.268Z" fill="white"/>
</g>
<defs>
<clipPath id="clip0_2875_3387">
<rect width="475" height="222" fill="white"/>
</clipPath>
</defs>
</svg>
