<svg width="55" height="29" viewBox="0 0 55 29" fill="none" xmlns="http://www.w3.org/2000/svg">
<g clip-path="url(#clip0_2741_2506)">
<path d="M17.8285 22.8155C17.3087 22.3293 16.8534 21.8963 16.3891 21.4751C16.1781 21.284 15.971 21.0561 16.1068 20.779C16.2032 20.5824 16.4338 20.3898 16.6417 20.3287C19.1959 19.5778 21.7568 18.8496 24.317 18.1207C25.0257 17.9187 25.3118 18.1684 25.198 18.917C24.8482 21.2206 24.4809 23.5218 24.1212 25.8238C24.0537 26.2545 24.0112 26.6914 23.911 27.1134C23.8632 27.317 23.7358 27.6177 23.5939 27.6521C23.3753 27.7054 23.0619 27.6373 22.8798 27.4963C22.4268 27.1448 22.014 26.7353 21.6081 26.325C21.3941 26.1089 21.2416 26.0681 20.9737 26.2615C19.8628 27.0625 18.6708 27.7077 17.3672 28.1118C15.4937 28.692 13.5823 28.8407 11.6405 28.6301C8.36098 28.2738 5.58074 26.8488 3.35215 24.3628C1.6145 22.4248 0.55825 20.1158 0.197062 17.481C-0.043477 15.7255 -0.0594117 13.9614 0.137117 12.2122C0.553697 8.49994 1.92181 5.26615 4.84926 2.89679C6.56793 1.50383 8.53778 0.665239 10.6806 0.290181C15.7706 -0.60244 20.1057 0.92911 23.694 4.72901C26.0243 7.19625 27.7642 10.0941 29.3 13.1283C30.3532 15.2095 31.3761 17.3032 32.8262 19.1386C35.0305 21.9276 37.7986 23.7716 41.2739 24.2563C45.0656 24.7856 48.6023 22.8132 49.8195 18.9334C50.7057 16.1091 50.7239 13.2614 49.8718 10.4363C49.0447 7.69345 47.1834 5.98025 44.5481 5.17767C43.6823 4.9138 42.7687 4.76425 41.8672 4.68751C39.8807 4.51917 38.0831 5.18472 36.4168 6.23707C34.6139 7.37556 33.2541 8.99402 32.012 10.7268C31.9414 10.8255 31.8777 10.9312 31.7972 11.0212C31.5172 11.336 31.0612 11.3305 30.8487 10.9625C30.2265 9.88429 29.6195 8.79514 29.0458 7.68954C28.9578 7.52041 28.9935 7.17041 29.1111 7.01694C31.1257 4.39154 33.4499 2.13415 36.5678 0.990184C41.7785 -0.921904 46.5801 -0.0707826 50.8241 3.59601C52.8023 5.3053 53.9162 7.62533 54.4914 10.1998C55.2145 13.4368 55.1986 16.6839 54.2561 19.8668C52.9275 24.3557 50.063 27.317 45.6483 28.5518C42.8173 29.3434 40.0112 29.0412 37.2765 28.0014C32.83 26.3109 29.6218 23.1327 27.2573 18.9882C26.2929 17.297 25.462 15.525 24.5295 13.8134C23.2023 11.379 21.7318 9.0457 19.658 7.19703C17.6267 5.38673 15.266 4.45809 12.5769 4.70239C9.97039 4.93886 7.67199 5.90038 6.10886 8.22198C5.28556 9.44503 4.8576 10.8302 4.66563 12.2959C4.43799 14.0389 4.39018 15.7912 4.78703 17.5068C5.39028 20.1189 6.8927 22.0466 9.26243 23.1656C11.9053 24.4137 14.5846 24.4199 17.2442 23.1632C17.421 23.0794 17.5827 22.9635 17.8285 22.8155Z" fill="white"/>
</g>
<defs>
<clipPath id="clip0_2741_2506">
<rect width="55" height="29" fill="white"/>
</clipPath>
</defs>
</svg>
