<svg width="47" height="46" viewBox="0 0 47 46" fill="none" xmlns="http://www.w3.org/2000/svg">
<g clip-path="url(#clip0_2741_2539)">
<path d="M13.4327 24.7848C11.6701 24.7848 9.90747 24.8126 8.1457 24.7778C5.7717 24.7308 4.05086 23.6122 3.12513 21.4279C2.36834 19.642 2.59216 17.9058 3.69729 16.2965C3.73212 16.2452 3.76435 16.1904 3.80615 16.1451C4.08918 15.8424 4.12663 15.6589 3.706 15.364C1.95729 14.1383 1.22924 11.8958 1.84843 9.85765C2.47023 7.80822 4.35218 6.36422 6.54155 6.29202C6.91167 6.27984 7.02053 6.19025 7.07714 5.81011C7.76077 1.21542 12.6908 -1.3803 16.8997 0.76134C20.0932 2.38627 21.4195 5.97452 20.128 9.32181C20.0148 9.61495 19.9608 9.79241 20.3832 9.91332C22.2312 10.4405 23.716 11.5122 24.7105 13.1554C26.3669 15.892 26.38 18.6921 24.6513 21.3827C23.17 23.6887 20.9684 24.8239 18.2051 24.8239C16.614 24.8239 15.023 24.8239 13.4327 24.8239C13.4327 24.8108 13.4327 24.7978 13.4327 24.7848Z" fill="white"/>
<path d="M23.517 42.7316C31.0204 42.7316 38.5238 42.7316 46.0264 42.7316C46.245 42.7316 46.4635 42.7394 46.6813 42.735C46.8894 42.7307 46.9991 42.8064 46.9983 43.0325C46.9939 43.8894 47.0009 44.7462 46.9983 45.603C46.9974 45.9353 46.7892 45.9997 46.4975 45.9997C38.1676 45.991 29.8378 45.9875 21.5079 45.984C14.5505 45.9814 7.59312 45.9814 0.635742 45.9779C0.0095861 45.9779 0.00871525 45.971 0.00871525 45.3368C0.00871525 44.6514 0.0296161 43.965 0.00174828 43.2804C-0.0156691 42.8681 0.0923188 42.7115 0.539946 42.7211C1.86541 42.7498 3.19175 42.7307 4.51721 42.7307C10.8502 42.7307 17.184 42.7307 23.517 42.7307V42.7316Z" fill="white"/>
<path d="M23.4193 40.3293C15.8367 40.3293 8.25399 40.3293 0.671319 40.3293C0.0146828 40.3293 0.0129411 40.3275 0.0103285 39.6769C0.00858678 38.9914 0.0321003 38.3051 0.00161981 37.6205C-0.0166685 37.209 0.117446 37.0881 0.529367 37.0899C4.46135 37.102 8.39246 37.0942 12.3244 37.0942C23.5735 37.0942 34.8225 37.0942 46.0715 37.0942C46.9711 37.0942 46.9755 37.0959 46.9877 37.9797C46.9964 38.5869 46.9781 39.195 46.9964 39.8021C47.0086 40.2023 46.8562 40.3467 46.4469 40.3406C45.0117 40.3197 43.5765 40.3319 42.1404 40.3319C35.8998 40.3319 29.6591 40.3319 23.4185 40.3319L23.4193 40.3293Z" fill="white"/>
<path d="M33.7994 17.4792C35.1902 17.4296 36.3459 17.9306 37.4057 18.63C37.8185 18.9023 38.0711 18.8562 38.4325 18.6161C39.9208 17.6288 41.531 17.173 43.3067 17.6532C44.1593 17.8837 44.8943 18.3517 45.5553 18.9354C45.7278 19.0876 45.8401 19.2624 45.8357 19.499C45.8288 19.8827 45.5466 20.0888 45.2061 19.9192C43.2066 18.9232 41.3691 19.4808 39.5768 20.4855C39.1832 20.7064 38.8305 20.9874 38.496 21.2919C38.0171 21.7285 37.815 21.7337 37.343 21.311C35.9549 20.0662 34.342 19.3973 32.4653 19.4199C31.8705 19.4268 31.2861 19.5051 30.7688 19.8505C30.5441 20.0001 30.289 20.0471 30.1061 19.7913C29.9337 19.5504 29.9493 19.2877 30.1609 19.0684C30.7993 18.4056 31.5726 17.9533 32.4461 17.6784C32.9068 17.534 33.3806 17.4374 33.7986 17.48L33.7994 17.4792Z" fill="white"/>
<path d="M28.4248 5.78809C29.5456 5.78287 30.4357 6.04645 31.2447 6.54054C31.573 6.74061 31.7803 6.73887 32.0956 6.50226C33.0605 5.78026 34.1386 5.30618 35.3735 5.36185C36.4168 5.40882 37.3208 5.84202 38.1167 6.50487C38.3615 6.70929 38.3649 6.97721 38.216 7.22078C38.0636 7.46957 37.832 7.41302 37.6012 7.29907C36.9263 6.96591 36.2113 6.98417 35.4998 7.11726C34.2762 7.34691 33.2329 7.92277 32.3603 8.81353C31.9536 9.22759 31.8055 9.23455 31.3301 8.87877C30.1457 7.99497 28.8411 7.48174 27.3406 7.59309C26.8607 7.62875 26.3818 7.71748 25.9725 7.99758C25.7426 8.15503 25.5187 8.25072 25.3176 7.99758C25.1164 7.74445 25.1434 7.46783 25.3663 7.23731C25.982 6.60143 26.6883 6.10386 27.5679 5.90727C27.9006 5.83333 28.2454 5.81158 28.4248 5.78722V5.78809Z" fill="white"/>
<path d="M12.727 30.3969C12.727 29.3226 12.7374 28.2483 12.7209 27.1749C12.7156 26.8156 12.8376 26.6651 13.2033 26.6721C13.9819 26.6869 14.7622 26.686 15.5407 26.6765C15.8516 26.6721 15.9474 26.8156 15.9466 27.1036C15.9413 29.2983 15.9396 31.493 15.9466 33.6885C15.9474 33.9739 15.8264 34.0817 15.5582 34.0826C14.7474 34.0843 13.9375 34.0869 13.1267 34.0948C12.8297 34.0974 12.7217 33.9643 12.7252 33.6677C12.7365 32.5777 12.7296 31.4886 12.7296 30.3987H12.7261L12.727 30.3969Z" fill="white"/>
<path d="M44.7745 3.51344C44.7702 3.72308 44.704 3.89966 44.535 4.00405C44.3887 4.09451 44.2354 4.05102 44.1048 3.94055C42.8229 2.86538 41.4191 2.97672 39.9804 3.53692C39.3568 3.77962 39.2454 3.75265 38.877 3.19941C38.1934 2.17208 37.2772 1.47966 36.0319 1.28046C35.8011 1.24393 35.572 1.22392 35.3378 1.28916C35.1331 1.3457 34.9189 1.34135 34.8213 1.10648C34.7203 0.863789 34.7987 0.6411 35.0007 0.486262C35.2899 0.264443 35.6391 0.165277 35.9892 0.0956865C37.4609 -0.199202 38.6497 0.314896 39.6042 1.41616C39.8332 1.67973 40.0126 1.72323 40.3522 1.62145C42.0966 1.10127 43.6746 1.68147 44.6195 3.14635C44.6944 3.26204 44.7954 3.36991 44.7745 3.51344Z" fill="white"/>
</g>
<defs>
<clipPath id="clip0_2741_2539">
<rect width="47" height="46" fill="white"/>
</clipPath>
</defs>
</svg>
