<svg width="400" height="300" viewBox="0 0 162 71" fill="none" xmlns="http://www.w3.org/2000/svg">
<g clip-path="url(#clip0_2033_25)">
<mask id="mask0_2033_25" style="mask-type:luminance" maskUnits="userSpaceOnUse" x="0" y="0" width="162" height="71">
<path d="M162 0H0V70.6519H162V0Z" fill="white"/>
</mask>
<g mask="url(#mask0_2033_25)">
<path d="M52.0748 39.5959C52.2212 39.7684 52.3209 39.8936 52.4292 40.0098C53.5349 41.1824 55.0564 41.023 55.8903 39.6262C56.0834 39.303 56.2277 38.9385 56.3339 38.5764C57.4777 34.6664 58.6088 30.7543 59.7464 26.8422C59.8524 26.4756 59.8928 26.0446 60.1134 25.7665C60.3448 25.4734 60.7565 25.329 61.0874 25.1199C61.2446 25.4842 61.4143 25.8441 61.55 26.217C61.5799 26.2968 61.4865 26.4196 61.4567 26.5253C59.8544 32.4938 58.2545 38.4623 56.6543 44.4308C56.1323 46.3793 55.6103 48.3258 55.0544 50.4034H61.0959C61.0959 50.8347 61.0959 51.1579 61.0959 51.4813C61.0959 56.8268 61.0918 62.1723 61.1003 67.5179C61.1003 68.8198 61.6796 69.792 62.8679 70.305C63.9695 70.7812 64.986 70.5377 65.8603 69.7294C66.5967 69.0462 66.7451 68.1474 66.743 67.1794C66.7325 61.9977 66.7387 56.816 66.7387 51.6365C66.7387 51.3909 66.6816 51.1192 66.7621 50.9036C66.8364 50.7011 67.038 50.4423 67.2206 50.41C67.6238 50.3366 68.0504 50.3863 68.534 50.3863C68.534 50.8541 68.534 51.1794 68.534 51.505C68.534 56.8786 68.5299 62.252 68.5364 67.6257C68.5364 69.195 69.6588 70.4236 71.1528 70.5269C72.8209 70.6434 74.1367 69.3349 74.1387 67.4942C74.1513 62.1208 74.1428 56.7471 74.1428 51.3735C74.1428 51.0803 74.1428 50.7871 74.1428 50.3863H80.1402C80.0913 50.0866 80.0764 49.8991 80.0276 49.7181C77.984 42.1135 75.9362 34.5092 73.8968 26.9045C73.8055 26.564 73.6826 26.1869 73.7481 25.8635C73.8075 25.5725 74.0729 25.1673 74.3105 25.1156C74.544 25.066 74.8752 25.3742 75.1233 25.5768C75.2295 25.6631 75.2401 25.8743 75.2869 26.0338C76.3923 29.8684 77.479 33.7095 78.6143 37.5353C78.8668 38.3889 79.1893 39.2512 79.6542 39.999C80.0744 40.6738 80.8064 40.9323 81.6447 40.734C82.5296 40.525 83.249 40.094 83.3912 39.1455C83.4931 38.4623 83.4931 37.712 83.3254 37.0462C82.0775 32.0865 80.7915 27.1375 79.4845 22.1949C78.7395 19.3799 76.3754 17.5779 73.5234 17.5757C69.99 17.5736 66.4586 17.58 62.9252 17.5736C61.3104 17.5693 59.8375 18.0176 58.821 19.3195C58.0974 20.2464 57.4332 21.3004 57.049 22.4062C56.1344 25.0358 55.4023 27.7302 54.5959 30.4009C53.817 32.9808 53.0404 35.5589 52.2595 38.1454C50.6148 37.3005 50.1437 37.4599 49.1717 39.0808C48.4417 40.2943 47.6926 41.4992 46.9158 42.6805C46.3704 43.5083 45.6002 43.9069 44.5794 43.8746C43.0705 43.8294 41.5574 43.812 40.0508 43.8791C38.8667 43.9306 38.0325 43.463 37.4213 42.4693C36.5917 41.1243 35.747 39.7879 34.9087 38.447C34.5225 37.8285 33.9537 37.5398 33.2599 37.6842C32.8927 37.7596 32.5618 38.0289 32.0863 38.279C32.0863 37.863 32.0863 37.5482 32.0863 37.2314C32.0843 32.1877 32.1352 27.1417 32.0629 22.0979C32.0015 17.7396 28.5658 14.3943 24.3044 14.3921C20.179 14.39 16.0536 14.3878 11.9281 14.3921C7.76659 14.3964 4.32023 17.774 4.27567 22.0203C4.21838 27.5577 4.26505 33.0952 4.25445 38.6324C4.25445 39.3677 4.50486 39.9451 5.02053 40.4582C5.18819 40.6241 5.29642 40.9799 5.25397 41.2168C4.5388 45.1463 3.79183 49.0694 3.05756 52.9965C2.04954 58.3744 1.05213 63.7546 0.0292568 69.1303C-0.0789723 69.7015 0.0780659 70.0894 0.585257 70.2187C1.18158 70.3718 1.37257 69.9127 1.46382 69.4104C1.67816 68.2531 1.89886 67.0976 2.11532 65.9424C3.63266 57.8206 5.14998 49.6987 6.67581 41.5789C6.71189 41.3851 6.8095 41.1027 6.95381 41.0422C8.26529 40.4863 8.43719 39.3782 8.43295 38.1281C8.41809 33.7697 8.42657 29.4093 8.42871 25.0509C8.42871 24.7772 8.41384 24.4969 8.46051 24.2318C8.55815 23.6671 8.90617 23.402 9.47703 23.3783C10.0585 23.3567 10.3174 23.6887 10.4044 24.1974C10.4596 24.5185 10.4447 24.8526 10.4447 25.1802C10.4447 38.9969 10.4447 52.8135 10.449 66.6322C10.449 67.0695 10.4405 67.5136 10.5042 67.9446C10.7418 69.5203 12.0215 70.6261 13.594 70.6521C15.192 70.6779 16.5013 69.6476 16.7942 68.0827C16.8833 67.6041 16.8727 67.0997 16.8748 66.6083C16.8791 58.8509 16.8769 51.0911 16.8791 43.3337C16.8791 43.0878 16.8684 42.8401 16.8854 42.5942C16.93 41.9326 17.2207 41.4864 17.9338 41.51C18.598 41.5337 18.876 41.9584 18.8993 42.59C18.91 42.8356 18.9036 43.0836 18.9036 43.3292C18.9036 50.9791 18.9036 58.6265 18.9036 66.2764C18.9036 66.6601 18.9015 67.0458 18.9418 67.4253C19.1222 69.1603 20.4825 70.4386 22.125 70.4365C23.7421 70.4344 25.0854 69.2034 25.2976 67.505C25.3592 67.018 25.3825 66.522 25.3825 66.0308C25.3867 52.3241 25.3867 38.6153 25.3867 24.9086C25.3867 24.581 25.3103 24.2081 25.4355 23.9344C25.5862 23.6067 25.9216 23.1304 26.1656 23.139C26.5369 23.1498 26.9995 23.4408 27.2351 23.7598C27.4282 24.0227 27.3837 24.4926 27.3858 24.872C27.3943 29.1484 27.3901 33.425 27.3922 37.7013C27.3922 38.1131 27.3773 38.527 27.4261 38.9322C27.5833 40.2362 28.9775 41.1545 30.1722 40.6801C30.724 40.4603 31.1951 40.0293 31.7341 39.6714C31.7893 39.7426 31.8847 39.8373 31.9485 39.9517C33.4381 42.7128 34.9427 45.4652 36.3963 48.2458C36.6383 48.7071 36.719 49.2848 36.7656 49.8194C36.9376 51.7895 36.0908 53.5656 35.6493 55.4171C35.2569 57.0596 34.7771 58.6805 34.2998 60.446C34.8812 60.446 35.3374 60.4867 35.781 60.4373C36.5514 60.349 36.8124 60.6335 36.7933 61.4395C36.7445 63.6315 36.7635 65.8259 36.789 68.018C36.8018 69.1756 37.3958 69.9321 38.3997 70.193C39.8194 70.5638 41.0588 69.5506 41.0779 67.9446C41.1054 65.6966 41.0989 63.4485 41.0779 61.2002C41.0714 60.6335 41.2519 60.4352 41.8184 60.4286C42.4212 60.4221 42.6184 60.6335 42.6122 61.2391C42.5888 63.5153 42.5888 65.7894 42.6143 68.0653C42.6269 69.251 43.3358 70.057 44.4266 70.2382C45.789 70.4646 46.8883 69.4535 46.9052 67.8973C46.9307 65.6771 46.9307 63.4548 46.9011 61.2349C46.8926 60.6182 47.0942 60.3921 47.6926 60.4352C48.2252 60.4739 48.7621 60.4436 49.3478 60.4436C49.2735 60.1183 49.227 59.879 49.1632 59.6439C48.4522 57.0035 47.6543 54.3847 47.0665 51.7161C46.8479 50.7248 46.797 49.4615 47.2172 48.5971C48.6901 45.5623 50.4003 42.646 52.0728 39.5938L52.0748 39.5959ZM140.725 45.8061V47.3686C140.725 53.9471 140.719 60.5278 140.73 67.1063C140.734 69.777 143.299 71.3784 145.536 70.113C146.816 69.3888 147.179 68.186 147.177 66.7742C147.164 58.853 147.17 50.9294 147.17 43.0081C147.17 42.8701 147.153 42.7344 147.162 42.5963C147.202 41.9736 147.472 41.5424 148.133 41.5079C148.751 41.4756 149.091 41.8206 149.173 42.4196C149.222 42.7709 149.237 43.1288 149.237 43.4822C149.241 51.3777 149.235 59.2711 149.246 67.1665C149.248 68.8953 150.271 70.0462 152.013 70.3739C153.379 70.6305 154.927 69.7359 155.398 68.3025C155.597 67.6948 155.64 67.0114 155.64 66.3627C155.652 52.6021 155.65 38.8394 155.65 25.0789C155.65 24.7233 155.563 24.3159 155.701 24.0249C155.877 23.6606 156.198 23.2166 156.541 23.1196C157.104 22.9601 157.503 23.3718 157.622 23.9602C157.675 24.2254 157.67 24.5056 157.673 24.7772C157.677 27.5448 157.673 30.3146 157.673 33.0821C157.673 34.8647 157.66 36.6452 157.679 38.4278C157.694 39.7942 158.647 40.8332 159.835 40.8311C161.064 40.8311 161.968 39.831 161.993 38.4428C161.993 38.3329 161.993 38.223 161.993 38.1131C161.995 32.6855 162.002 27.2582 162.002 21.8306C162.002 17.7115 158.77 14.4029 154.721 14.3921C150.542 14.3813 146.361 14.3878 142.183 14.3921C137.911 14.3943 134.469 17.7331 134.416 22.0828C134.348 27.5922 134.388 33.1015 134.412 38.6132C134.412 39.055 134.562 39.542 134.783 39.9259C135.282 40.7879 136.322 41.1285 137.253 40.8311C138.138 40.5465 138.705 39.7037 138.705 38.5959C138.711 34.0456 138.705 29.4955 138.711 24.9453C138.711 24.6176 138.696 24.2771 138.781 23.9667C138.93 23.4149 139.386 23.1024 139.887 23.2511C140.214 23.3481 140.519 23.7663 140.676 24.1133C140.812 24.4107 140.73 24.8138 140.73 25.1694C140.73 32.0497 140.73 38.9301 140.73 45.8103L140.725 45.8061ZM114.283 50.3798C114.203 49.9853 114.16 49.7181 114.09 49.4573C112.982 45.3382 111.868 41.2213 110.758 37.1043C109.827 33.6448 108.893 30.1874 107.968 26.7257C107.802 26.1093 107.605 25.3635 108.396 25.1134C109.245 24.8461 109.3 25.6803 109.46 26.2235C110.385 29.3706 111.291 32.5238 112.206 35.673C112.532 36.8025 112.823 37.945 113.207 39.0529C113.746 40.6154 115.121 41.1845 116.497 40.4818C117.473 39.984 117.946 38.736 117.549 37.4018C116.03 32.2911 114.57 27.1612 112.897 22.1022C112.038 19.5006 110.092 17.4206 106.627 17.5413C103.341 17.6555 100.046 17.6404 96.7586 17.5456C93.2445 17.4443 91.4087 19.6062 90.5895 22.1173C88.981 27.0534 87.5379 32.0455 86.0715 37.0268C85.8868 37.656 85.8783 38.3868 85.9676 39.0442C86.1054 40.0679 86.8483 40.5531 87.8054 40.7385C88.6712 40.9086 89.3565 40.5789 89.8383 39.8804C90.1248 39.4644 90.3413 38.9709 90.4856 38.4817C91.6952 34.3648 92.8752 30.2371 94.0825 26.1179C94.244 25.5682 94.4731 24.9086 95.2116 25.1285C95.8354 25.3139 95.774 25.9002 95.6274 26.4433C93.8618 32.9895 92.0984 39.5378 90.3369 46.0861C89.9615 47.4785 89.5899 48.8709 89.1867 50.3711C90.8803 50.3711 92.4656 50.3711 94.0509 50.3711C94.8403 50.3711 95.235 50.765 95.235 51.5523C95.235 56.87 95.2242 62.1897 95.2435 67.5071C95.2497 69.2768 96.4891 70.5485 98.0978 70.5183C99.6743 70.4883 100.848 69.2121 100.858 67.4987C100.869 65.882 100.861 64.2632 100.861 62.6467C100.861 58.8356 100.856 55.0247 100.871 51.2139C100.871 50.9446 100.933 50.5349 101.105 50.4337C101.886 49.9659 102.658 50.4789 102.658 51.4101C102.658 56.7277 102.667 62.0474 102.652 67.3648C102.65 68.2594 102.86 69.0441 103.488 69.6862C104.277 70.4925 105.459 70.7533 106.472 70.3158C107.66 69.8027 108.278 68.8674 108.28 67.5568C108.29 62.1013 108.295 56.6456 108.271 51.1902C108.269 50.5415 108.452 50.3411 109.09 50.3561C110.786 50.3971 112.482 50.3711 114.281 50.3711L114.283 50.3798ZM131.362 48.58C131.439 48.5672 131.513 48.5519 131.589 48.539C131.71 48.7912 131.855 49.0326 131.948 49.2956C132.752 51.561 133.527 53.8372 134.35 56.0939C134.707 57.0682 135.73 57.2623 136.472 56.5552C137.149 55.913 137.328 55.1412 136.982 54.249C135.863 51.3735 134.703 48.5133 133.624 45.6207C132.918 43.726 131.666 42.7473 129.656 42.7625C127.472 42.7775 125.287 42.812 123.105 42.7344C121.352 42.6718 120.074 43.4068 119.4 44.9717C117.878 48.5046 116.444 52.0761 115.026 55.6543C114.648 56.6091 115.054 57.4109 115.849 57.6696C116.698 57.9434 117.379 57.4971 117.698 56.4668C118.438 54.0636 119.175 51.658 119.93 49.2611C120.013 49.0003 120.211 48.7804 120.355 48.539C120.448 48.5735 120.539 48.6079 120.633 48.6426C120.633 48.9571 120.633 49.274 120.633 49.5888C120.633 55.5659 120.633 61.541 120.633 67.5179C120.633 67.7637 120.622 68.0114 120.639 68.2573C120.716 69.3544 121.511 70.1951 122.655 70.3999C123.548 70.5593 124.661 69.9429 124.992 69.0073C125.161 68.531 125.208 67.9901 125.215 67.4771C125.234 65.147 125.217 62.8169 125.219 60.4867C125.219 59.9285 125.193 59.2819 125.964 59.2884C126.711 59.2947 126.711 59.9393 126.736 60.4954C126.747 60.7413 126.738 60.989 126.738 61.2349C126.738 63.4829 126.747 65.731 126.734 67.9793C126.73 68.9492 127.103 69.6862 127.95 70.1283C129.565 70.9732 131.267 69.8459 131.269 67.9168C131.279 61.8039 131.271 55.6908 131.277 49.578C131.277 49.2461 131.328 48.914 131.356 48.5821L131.362 48.58ZM148.303 11.8896C151.514 11.8939 154.054 9.26642 154.05 5.94267C154.046 2.67283 151.434 -0.0128863 148.265 4.65127e-05C145.056 0.0129793 142.476 2.65127 142.474 5.92542C142.47 9.25133 145.046 11.8853 148.303 11.8896ZM18.2245 11.8896C21.4608 11.8788 24.0201 9.21251 23.9988 5.87154C23.9776 2.6017 21.3886 0.00220198 18.1608 0.00866839C14.9288 0.0172903 12.4141 2.63186 12.4395 5.96424C12.4629 9.26426 15.0392 11.9004 18.2245 11.8896ZM62.8553 9.12416C62.8363 12.2129 65.2277 14.6896 68.2455 14.709C71.2739 14.7284 73.6952 12.3099 73.7396 9.22114C73.7844 6.17332 71.3608 3.66649 68.3389 3.63417C65.3213 3.60183 62.8723 6.05475 62.8553 9.12416ZM107.2 9.18882C107.206 6.14097 104.757 3.63633 101.773 3.63417C98.7661 3.63417 96.3279 6.10434 96.3258 9.15648C96.3235 12.2215 98.7406 14.7003 101.741 14.709C104.74 14.7176 107.191 12.2345 107.2 9.18882ZM121.579 36.0094C121.556 38.5722 123.519 40.6328 126.029 40.6759C128.514 40.719 130.598 38.6585 130.622 36.1387C130.645 33.578 128.661 31.5109 126.157 31.4893C123.612 31.4677 121.605 33.4528 121.579 36.0094ZM37.7185 35.9791C37.6527 38.5054 39.6433 40.6178 42.1453 40.6759C44.6092 40.734 46.7376 38.6648 46.7844 36.1666C46.833 33.6771 44.8404 31.5498 42.4063 31.4935C39.8068 31.4333 37.7864 33.369 37.7185 35.9791Z" fill="white"/>
<path d="M52.0758 39.6007C50.4057 42.6529 48.6952 45.5691 47.2205 48.604C46.8003 49.4683 46.8512 50.7316 47.0698 51.723C47.6576 54.3915 48.4555 57.0104 49.1665 59.6508C49.23 59.8859 49.2768 60.1228 49.3512 60.4504C48.7631 60.4504 48.2264 60.4807 47.6957 60.442C47.0973 60.3989 46.8957 60.6251 46.9042 61.2417C46.934 63.4616 46.934 65.6818 46.9086 67.9041C46.8916 69.4603 45.7923 70.4691 44.4297 70.245C43.3389 70.0638 42.6323 69.2579 42.6173 68.0722C42.5919 65.7962 42.5919 63.5221 42.6153 61.2459C42.6217 60.6403 42.4242 60.4289 41.8217 60.4355C41.255 60.442 41.0768 60.6403 41.0809 61.207C41.1043 63.4553 41.1107 65.7034 41.0809 67.9515C41.0598 69.5574 39.8227 70.5682 38.4028 70.1998C37.3991 69.9389 36.8049 69.1824 36.7923 68.0248C36.7668 65.8328 36.7499 63.6383 36.7964 61.4463C36.8134 60.6403 36.5544 60.3579 35.7843 60.4441C35.3384 60.4936 34.8843 60.4528 34.3029 60.4528C34.7804 58.6873 35.26 57.0664 35.6526 55.4239C36.0939 53.5724 36.9407 51.7984 36.7689 49.8262C36.7221 49.2916 36.6416 48.7139 36.3996 48.2527C34.946 45.4721 33.4412 42.7175 31.9516 39.9585C31.8901 39.8442 31.7924 39.7474 31.7374 39.6782C31.1981 40.034 30.7291 40.4671 30.1752 40.6869C28.9826 41.1634 27.5863 40.2431 27.4292 38.939C27.3806 38.5338 27.3952 38.1178 27.3952 37.7081C27.3952 33.4318 27.3952 29.1552 27.3891 24.8789C27.3891 24.4995 27.4336 24.0274 27.2384 23.7666C27.0028 23.4498 26.54 23.1566 26.1687 23.1459C25.9246 23.1394 25.5894 23.6136 25.4387 23.9412C25.3135 24.215 25.3899 24.5879 25.3899 24.9155C25.3899 38.6222 25.3899 52.3309 25.3857 66.0376C25.3857 66.5288 25.3623 67.0248 25.3008 67.5118C25.0886 69.2103 23.7453 70.4391 22.1282 70.4433C20.4856 70.4454 19.1253 69.1671 18.945 67.4321C18.9046 67.0527 18.9089 66.6648 18.9068 66.2832C18.9068 58.6334 18.9068 50.9859 18.9068 43.336C18.9068 43.0904 18.911 42.8425 18.9025 42.5968C18.8771 41.9652 18.6012 41.5384 17.9369 41.5169C17.2239 41.4932 16.931 41.9373 16.8886 42.6011C16.8716 42.8469 16.8822 43.0946 16.8822 43.3405C16.8822 51.0979 16.8822 58.8577 16.878 66.6151C16.878 67.1066 16.8886 67.6109 16.7974 68.0895C16.5045 69.6544 15.1951 70.6847 13.5972 70.6589C12.0247 70.635 10.745 69.5271 10.5073 67.9515C10.4416 67.5205 10.4521 67.0763 10.4521 66.6388C10.45 52.8224 10.4521 39.0058 10.4479 25.1871C10.4479 24.8595 10.4628 24.5254 10.4076 24.2042C10.3206 23.6955 10.0617 23.3636 9.48022 23.3851C8.90936 23.4067 8.56132 23.6739 8.46371 24.2387C8.41701 24.5059 8.43187 24.784 8.43187 25.0578C8.43187 29.4161 8.42125 33.7765 8.43612 38.1349C8.44036 39.3829 8.26846 40.4931 6.95698 41.049C6.81481 41.1095 6.71717 41.392 6.67898 41.5858C5.15317 49.7055 3.63582 57.8274 2.1185 65.9493C1.90204 67.1066 1.68133 68.262 1.467 69.4172C1.37362 69.9195 1.18475 70.3786 0.588431 70.2256C0.08124 70.0962 -0.0757986 69.7083 0.0324306 69.1372C1.0553 63.7614 2.05271 58.3812 3.06072 53.0033C3.7971 49.0784 4.54199 45.1531 5.25714 41.2237C5.29959 40.9888 5.19136 40.6309 5.0237 40.465C4.50803 39.952 4.25549 39.3721 4.25762 38.6393C4.26611 33.102 4.22154 27.5625 4.27883 22.0272C4.3234 17.783 7.76976 14.4033 11.9313 14.399C16.0567 14.3947 20.1822 14.3968 24.3076 14.399C28.5688 14.4011 32.0045 17.7464 32.0663 22.1048C32.1383 27.1486 32.0873 32.1925 32.0894 37.2382C32.0894 37.553 32.0894 37.8698 32.0894 38.2858C32.5669 38.0358 32.8961 37.7665 33.263 37.691C33.957 37.5466 34.5258 37.8354 34.9121 38.4539C35.7501 39.7947 36.5948 41.1311 37.4246 42.4761C38.0358 43.4675 38.8697 43.9374 40.0539 43.8859C41.5607 43.8188 43.0738 43.8362 44.5827 43.8814C45.6012 43.9117 46.3737 43.5151 46.9191 42.6873C47.698 41.504 48.445 40.3012 49.175 39.0876C50.1468 37.4688 50.6202 37.3074 52.2625 38.1523C53.0414 35.5657 53.8203 32.9856 54.5992 30.4077C55.4056 27.7392 56.1377 25.0427 57.0523 22.413C57.4365 21.3051 58.1007 20.2532 58.8243 19.3264C59.8408 18.0245 61.3134 17.5761 62.9286 17.5804C66.462 17.5869 69.993 17.5804 73.5265 17.5826C76.3787 17.5847 78.7449 19.3867 79.4875 22.2018C80.7949 27.1444 82.0788 32.0954 83.3288 37.0528C83.4964 37.7189 83.4964 38.4691 83.3943 39.1523C83.2524 40.1008 82.5329 40.5318 81.6478 40.7409C80.8098 40.9391 80.0754 40.6806 79.6573 40.0059C79.1926 39.2601 78.8701 38.3958 78.6174 37.5422C77.4821 33.7163 76.3957 29.8752 75.2899 26.0407C75.2455 25.8833 75.2326 25.6699 75.1267 25.5837C74.8783 25.3811 74.5473 25.0728 74.3138 25.1224C74.0762 25.1741 73.8109 25.5794 73.7515 25.8704C73.6856 26.1937 73.8088 26.5708 73.9001 26.9114C75.9392 34.516 77.9871 42.1204 80.0309 49.725C80.0797 49.9038 80.0944 50.0934 80.1433 50.3932H74.1462C74.1462 50.7939 74.1462 51.0871 74.1462 51.3803C74.1462 56.754 74.1526 62.1274 74.1418 67.501C74.1377 69.3417 72.8239 70.6524 71.1561 70.5338C69.6621 70.4283 68.5394 69.2018 68.5394 67.6325C68.533 62.2588 68.5374 56.8855 68.5374 51.5118C68.5374 51.1863 68.5374 50.8631 68.5374 50.3932C68.0534 50.3932 67.6291 50.3414 67.2236 50.4168C67.0413 50.4492 66.8397 50.7079 66.7654 50.9104C66.6846 51.1282 66.742 51.3977 66.742 51.6433C66.742 56.825 66.7356 62.0067 66.7461 67.1865C66.7461 68.1542 66.6019 69.053 65.8633 69.7362C64.989 70.5445 63.9726 70.788 62.8712 70.3118C61.6827 69.7988 61.1057 68.8266 61.1034 67.5247C61.0949 62.1792 61.0992 56.8337 61.0992 51.4881C61.0992 51.1647 61.0992 50.8415 61.0992 50.4103H55.0574C55.6134 48.3326 56.1356 46.3861 56.6576 44.4376C58.2576 38.4691 59.8578 32.5007 61.46 26.5322C61.4875 26.4265 61.5809 26.3037 61.5534 26.2239C61.4176 25.851 61.2479 25.491 61.0908 25.1267C60.7575 25.3358 60.3479 25.4824 60.1167 25.7734C59.8961 26.0514 59.8557 26.4825 59.7495 26.8491C58.6122 30.7612 57.481 34.6733 56.3372 38.5832C56.231 38.9477 56.0868 39.3098 55.8936 39.633C55.0595 41.0299 53.538 41.1892 52.4325 40.0167C52.3219 39.9004 52.2245 39.7732 52.0779 39.6028L52.0758 39.6007Z" fill="white"/>
<path d="M140.723 45.8082C140.723 38.9281 140.723 32.0477 140.723 25.1675C140.723 24.8118 140.804 24.4087 140.67 24.1113C140.513 23.7642 140.205 23.3461 139.881 23.2491C139.38 23.1004 138.924 23.4129 138.775 23.9647C138.692 24.2751 138.705 24.6157 138.705 24.9433C138.701 29.4935 138.705 34.0438 138.699 38.5939C138.699 39.6996 138.132 40.5445 137.247 40.829C136.316 41.1265 135.276 40.788 134.777 39.9239C134.556 39.54 134.408 39.053 134.406 38.6112C134.382 33.1016 134.342 27.5902 134.41 22.0808C134.465 17.7311 137.907 14.3923 142.177 14.3901C146.356 14.3879 150.536 14.3815 154.714 14.3901C158.764 14.4009 161.995 17.7074 161.995 21.8286C161.995 27.2562 161.991 32.6835 161.987 38.1111C161.987 38.221 161.987 38.3309 161.987 38.4408C161.962 39.829 161.058 40.829 159.829 40.829C158.641 40.829 157.69 39.7924 157.673 38.4258C157.654 36.6432 157.666 34.8627 157.666 33.0803C157.666 30.3126 157.666 27.5428 157.666 24.7751C157.666 24.5014 157.671 24.2233 157.616 23.9582C157.497 23.3698 157.1 22.9581 156.535 23.1176C156.191 23.2146 155.871 23.6586 155.695 24.0229C155.555 24.3139 155.644 24.7213 155.644 25.0769C155.644 38.8374 155.644 52.6001 155.633 66.3607C155.633 67.0094 155.591 67.6928 155.392 68.3005C154.92 69.7318 153.376 70.6285 152.007 70.3719C150.264 70.0442 149.241 68.8933 149.239 67.1645C149.229 59.2691 149.235 51.3757 149.231 43.4802C149.231 43.1268 149.214 42.7689 149.167 42.4176C149.085 41.8186 148.745 41.4715 148.127 41.5059C147.465 41.5425 147.196 41.9737 147.155 42.5943C147.147 42.7303 147.164 42.8681 147.164 43.0061C147.164 50.9274 147.158 58.851 147.17 66.7725C147.172 68.184 146.81 69.3868 145.53 70.111C143.293 71.3764 140.727 69.775 140.723 67.1043C140.713 60.5258 140.719 53.9451 140.719 47.3666V45.804L140.723 45.8082Z" fill="white"/>
<path d="M114.285 50.3799C112.486 50.3799 110.788 50.408 109.095 50.3649C108.454 50.3496 108.271 50.5479 108.276 51.199C108.299 56.6544 108.295 62.1099 108.284 67.5655C108.282 68.8759 107.664 69.8115 106.476 70.3243C105.464 70.7619 104.282 70.5013 103.492 69.695C102.864 69.0526 102.654 68.2703 102.656 67.3736C102.671 62.0559 102.662 56.7365 102.662 51.4188C102.662 50.4877 101.888 49.9746 101.109 50.4425C100.937 50.5458 100.876 50.9555 100.876 51.2227C100.861 55.0335 100.865 58.8444 100.865 62.6552C100.865 64.2719 100.873 65.8907 100.863 67.5072C100.852 69.2209 99.6787 70.4968 98.1019 70.527C96.4935 70.5573 95.2541 69.2856 95.2476 67.5158C95.2307 62.1982 95.2412 56.8787 95.2391 51.5611C95.2391 50.7735 94.8444 50.3799 94.055 50.3799C92.4697 50.3799 90.8867 50.3799 89.1911 50.3799C89.5943 48.8797 89.9677 47.4873 90.3413 46.0949C92.1048 39.5466 93.8663 32.9983 95.6318 26.4521C95.7781 25.9088 95.8398 25.3225 95.2157 25.1372C94.4772 24.9173 94.2481 25.5747 94.0869 26.1265C92.8814 30.2456 91.7016 34.3712 90.4897 38.4903C90.3455 38.9796 90.1313 39.4732 89.8425 39.8892C89.3609 40.5877 88.6753 40.9153 87.8095 40.747C86.8545 40.5595 86.1098 40.0767 85.9717 39.053C85.8827 38.3932 85.8912 37.6648 86.0759 37.0353C87.54 32.0519 88.9831 27.0598 90.5939 22.126C91.4129 19.6149 93.2486 17.4529 96.763 17.5542C100.05 17.6491 103.344 17.6642 106.631 17.5499C110.098 17.4292 112.042 19.5114 112.902 22.1109C114.574 27.1697 116.034 32.2999 117.554 37.4105C117.95 38.7445 117.477 39.9905 116.501 40.4906C115.126 41.1933 113.751 40.6221 113.212 39.0614C112.827 37.9515 112.537 36.8091 112.21 35.6818C111.295 32.5305 110.389 29.3791 109.464 26.2322C109.305 25.6868 109.25 24.8548 108.401 25.1221C107.609 25.37 107.806 26.1158 107.972 26.7345C108.897 30.1961 109.831 33.6533 110.763 37.1129C111.872 41.2298 112.987 45.3491 114.094 49.4661C114.164 49.7267 114.205 49.9941 114.288 50.3885L114.285 50.3799Z" fill="white"/>
<path d="M131.364 48.5829C131.336 48.9148 131.285 49.2469 131.285 49.5787C131.281 55.6916 131.287 61.8047 131.277 67.9175C131.275 69.8466 129.573 70.9739 127.958 70.129C127.109 69.6849 126.735 68.9478 126.742 67.9801C126.755 65.7318 126.746 63.4837 126.746 61.2356C126.746 60.9898 126.755 60.742 126.744 60.4962C126.719 59.94 126.719 59.2955 125.972 59.2892C125.201 59.2826 125.227 59.9292 125.227 60.4875C125.227 62.8176 125.244 65.1477 125.222 67.4778C125.218 67.9909 125.169 68.5318 125 69.008C124.669 69.9436 123.554 70.56 122.663 70.4007C121.519 70.1979 120.723 69.3572 120.647 68.2581C120.63 68.0124 120.641 67.7645 120.641 67.5186C120.641 61.5417 120.641 55.5667 120.641 49.5895C120.641 49.2748 120.641 48.9579 120.641 48.6434C120.547 48.6087 120.456 48.5742 120.363 48.5398C120.218 48.7791 120.019 49.001 119.938 49.2619C119.183 51.6609 118.447 54.0644 117.706 56.4676C117.388 57.5 116.704 57.9462 115.858 57.6704C115.062 57.4116 114.654 56.612 115.034 55.655C116.452 52.0769 117.886 48.5053 119.408 44.9724C120.083 43.4054 121.36 42.6726 123.113 42.7351C125.295 42.8127 127.48 42.7783 129.664 42.7633C131.674 42.7501 132.926 43.7289 133.633 45.6214C134.711 48.514 135.871 51.3722 136.99 54.2498C137.338 55.142 137.157 55.9138 136.48 56.5559C135.738 57.263 134.713 57.069 134.358 56.0947C133.535 53.838 132.758 51.5617 131.956 49.2963C131.863 49.0334 131.718 48.792 131.597 48.5398C131.521 48.5527 131.447 48.5679 131.37 48.5808L131.364 48.5829Z" fill="white"/>
<path d="M148.303 11.8918C145.045 11.8875 142.469 9.25133 142.473 5.92543C142.478 2.65127 145.056 0.0129793 148.265 4.65127e-05C151.431 -0.0128863 154.045 2.67284 154.049 5.94268C154.054 9.26643 151.516 11.8961 148.303 11.8918Z" fill="white"/>
<path d="M18.2256 11.8878C15.0381 11.8986 12.4639 9.26244 12.4406 5.96241C12.4151 2.63222 14.9299 0.0154792 18.1619 0.00685731C21.3897 -0.00176459 23.9808 2.59989 23.9999 5.86974C24.0211 9.20856 21.4618 11.877 18.2256 11.8878Z" fill="white"/>
<path d="M62.8544 9.12486C62.8713 6.05548 65.3204 3.60472 68.3379 3.63703C71.3578 3.66938 73.7814 6.17618 73.7387 9.22403C73.6942 12.3128 71.275 14.7312 68.2446 14.7119C65.227 14.6925 62.8353 12.2137 62.8544 9.12486Z" fill="white"/>
<path d="M107.199 9.19137C107.193 12.2371 104.737 14.7201 101.739 14.7115C98.7383 14.7029 96.3212 12.2241 96.3232 9.15905C96.3253 6.10904 98.7638 3.63672 101.771 3.63672C104.756 3.63672 107.208 6.14355 107.199 9.19137Z" fill="white"/>
<path d="M121.58 36.0095C121.604 33.453 123.616 31.4679 126.16 31.4894C128.662 31.511 130.646 33.5779 130.625 36.1386C130.602 38.6583 128.518 40.7192 126.033 40.676C123.522 40.6329 121.557 38.5723 121.58 36.0095Z" fill="white"/>
<path d="M37.7178 35.9809C37.7857 33.3707 39.8081 31.435 42.4076 31.4955C44.8396 31.5515 46.8322 33.6789 46.7857 36.1686C46.7368 38.6668 44.6082 40.736 42.1466 40.6777C39.6445 40.6195 37.6519 38.5072 37.7178 35.9809Z" fill="white"/>
</g>
</g>
<defs>
<clipPath id="clip0_2033_25">
<rect width="400" height="300" fill="white"/>
</clipPath>
</defs>
</svg>
