<svg width="46" height="46" viewBox="0 0 46 46" fill="none" xmlns="http://www.w3.org/2000/svg">
<g clip-path="url(#clip0_2741_2552)">
<path d="M38.1933 32.4853C36.8175 32.4853 35.4417 32.4878 34.0658 32.4845C33.2616 32.482 32.7461 32.0113 32.7403 31.2868C32.7337 30.549 33.2624 30.0531 34.0749 30.0523C36.8134 30.049 39.551 30.0523 42.2895 30.0515C42.8463 30.0515 43.2835 30.2625 43.5062 30.8019C43.6984 31.2675 43.6184 31.7064 43.2868 32.0858C43.0426 32.3655 42.7284 32.4845 42.3605 32.4836C40.9714 32.4803 39.5824 32.482 38.1933 32.482V32.4861V32.4853Z" fill="white"/>
<path d="M42.4406 43.4618C43.1112 43.574 43.5187 43.9467 43.5888 44.5095C43.6688 45.1502 43.3686 45.5891 42.6337 45.9048C42.5248 45.9819 42.401 45.9476 42.2839 45.9476C39.5273 45.9492 36.7715 45.9501 34.0148 45.9476C33.8994 45.9476 33.774 45.9878 33.6692 45.899C33.1735 45.6988 32.7941 45.3931 32.7429 44.8094C32.691 44.2122 32.9434 43.8295 33.5892 43.4986C33.6701 43.3973 33.7847 43.4283 33.887 43.4283C36.6733 43.4266 39.4596 43.4266 42.246 43.4275C42.3128 43.4275 42.3796 43.4266 42.4398 43.4618H42.4406Z" fill="white"/>
<path d="M0.00285999 37.9724C0.00285999 37.6073 -0.00456362 37.2421 0.00450968 36.877C0.0226563 36.1282 0.453226 35.7003 1.18321 35.6936C2.22582 35.6835 2.6102 36.0679 2.61185 37.1207C2.61267 37.743 2.63164 38.3661 2.60937 38.9875C2.5772 39.882 2.13756 40.2254 1.10485 40.2036C0.411159 40.1885 0.0152327 39.7371 0.00780906 38.9465C0.00450968 38.6215 0.00780906 38.2974 0.00780906 37.9724H0.00368483H0.00285999Z" fill="white"/>
<path d="M43.1434 3.43224C42.7799 3.44564 42.6174 3.272 42.6559 2.9113C42.6774 2.70946 42.6856 2.50511 42.7252 2.30745C43.0477 0.675961 44.1151 0.0243698 45.7367 8.1731e-05C45.9561 -0.00326835 46.0048 0.0963966 46.0007 0.294052C45.966 2.1232 45.1395 3.33593 43.1434 3.43141V3.43224Z" fill="white"/>
<path d="M38.7402 2.36457C38.7452 1.70628 38.9935 1.12839 39.3094 0.569767C39.4174 0.377975 39.5205 0.393887 39.6938 0.49774C41.2387 1.42823 41.6165 3.11499 40.6027 4.60997C40.5343 4.71131 40.5054 4.85201 40.3033 4.76072C39.4809 4.38635 38.7411 3.2691 38.7411 2.36374L38.7402 2.36457Z" fill="white"/>
<path d="M36.1875 4.98409C36.204 4.49665 36.4432 3.90285 36.7723 3.33753C36.8705 3.16918 36.9653 3.15746 37.1237 3.26466C38.714 4.34004 39.0811 5.69431 38.036 7.43049C37.9692 7.54104 37.9222 7.61893 37.7588 7.54858C36.9497 7.19766 36.1834 6.05026 36.1875 4.98409Z" fill="white"/>
<path d="M41.5107 7.84766C42.3677 7.89707 42.9764 8.41298 43.5002 9.07714C43.6 9.2036 43.5274 9.26893 43.4367 9.33844C42.0344 10.4096 40.7807 10.3309 39.6366 8.91885C39.5112 8.7639 39.5376 8.66759 39.6853 8.55787C40.2223 8.16089 40.8005 7.87613 41.5107 7.84766Z" fill="white"/>
<path d="M44.0641 7.18426C43.0479 7.17924 42.4969 6.83334 41.9731 6.42547C41.8535 6.3325 41.8263 6.24624 41.9376 6.09548C42.9068 4.78309 44.5805 4.62563 45.7451 5.74289C45.8416 5.83501 45.9274 5.90285 45.8095 6.03602C45.2535 6.66584 44.6365 7.18091 44.0641 7.18342V7.18426Z" fill="white"/>
<path d="M33.67 45.9004C36.6584 45.9029 39.6468 45.9046 42.6344 45.9071C42.5833 46.0486 42.4604 45.9892 42.3737 45.9892C39.5552 45.9934 36.7376 45.9917 33.9191 45.9908C33.8399 45.9908 33.7599 45.98 33.6807 45.9716C33.6716 45.9707 33.6601 45.9515 33.6584 45.9398C33.6568 45.928 33.665 45.9138 33.6691 45.9012L33.67 45.9004Z" fill="white"/>
<path d="M42.4401 43.4618C39.8229 43.466 37.2057 43.4693 34.5876 43.4752C34.2544 43.4752 33.9211 43.4903 33.5879 43.4986C33.6786 43.3194 33.8469 43.3881 33.9789 43.3872C36.6712 43.3822 39.3626 43.3839 42.0549 43.3856C42.1877 43.3856 42.323 43.3747 42.4393 43.4618H42.4401Z" fill="white"/>
<path d="M34.1192 42.6507C36.8338 42.649 39.5484 42.6482 42.2629 42.6465C42.3347 42.8031 42.1912 42.7302 42.1598 42.7302C39.4865 42.7327 36.8132 42.7302 34.139 42.7252C34.1019 42.7252 33.8454 42.7512 34.1184 42.6498L34.1192 42.6507Z" fill="white"/>
<path d="M42.7728 34.1227C42.772 33.601 42.5287 33.3497 42.0082 33.348C39.4545 33.3405 36.9008 33.3396 34.347 33.3447C33.8068 33.3455 33.5634 33.5993 33.5568 34.1445C33.5486 34.8087 33.5469 35.4736 33.5577 36.1378C33.5618 36.3723 33.5007 36.4787 33.2492 36.4887C32.9027 36.503 32.5588 36.5633 32.214 36.601C30.9124 36.7408 29.6116 36.9829 28.3092 36.9971C25.9575 37.0231 23.6042 36.9092 21.2518 36.8631C21.0134 36.8581 20.9284 36.7894 20.9301 36.5381C20.94 35.1956 20.9375 33.853 20.9284 32.5105C20.9268 32.281 20.9812 32.1814 21.2295 32.1495C22.1311 32.0331 23.017 31.8329 23.8938 31.5884C29.0268 30.1562 32.1727 26.2257 32.5192 20.8363C32.5885 19.7651 32.4738 18.6948 32.5612 17.6244C32.6561 16.4661 32.8607 15.3405 33.4908 14.3413C34.2431 13.1504 35.4037 12.6169 36.7028 12.3145C37.262 12.1847 37.2612 12.1872 37.3008 12.745C37.3701 13.7232 37.592 14.6688 37.8658 15.606C37.9401 15.8614 38.0613 15.936 38.2914 15.8807C38.6049 15.8045 38.3715 15.6127 38.3418 15.5063C38.0646 14.5138 37.8271 13.5172 37.7718 12.4803C37.7569 12.1964 37.8477 12.0901 38.1133 12.0834C38.5059 12.0733 38.8977 12.0507 39.3332 12.0314C38.8969 11.7048 38.5084 11.3991 38.1034 11.1185C37.8782 10.9628 37.8477 10.7969 37.9071 10.5339C38.2411 9.04567 39.1122 7.89743 40.13 6.83546C40.8938 6.03897 41.6758 5.25924 42.3183 4.35304C42.4214 4.20732 42.5006 4.08923 42.2886 3.96108C42.1427 3.87315 42.0461 3.83462 41.9323 4.00966C41.3293 4.93177 40.5268 5.67549 39.7795 6.46862C38.7443 7.56661 37.8312 8.73998 37.4765 10.2609C37.4278 10.4686 37.3486 10.4753 37.2175 10.3388C36.8529 9.96109 36.4859 9.58588 36.1287 9.20145C35.3896 8.40497 34.5153 8.13864 33.4735 8.47449C32.4062 8.81787 31.5211 9.47281 30.6765 10.183C29.8236 10.9008 29.0292 11.6922 28.1582 12.3857C25.8016 14.2601 23.2553 14.58 20.5482 13.2165C19.2754 12.575 18.2312 11.6303 17.234 10.6177C14.474 7.81452 11.3017 5.83797 7.28301 5.59006C6.36909 5.53395 5.45928 5.56578 4.5371 5.70564C6.13153 6.49961 6.79306 7.96611 7.30941 9.53646C7.68142 10.668 7.95279 11.8271 8.19859 12.9912C8.51121 14.477 8.85517 15.951 9.51835 17.3271C10.4422 19.2442 11.7792 20.7341 13.7614 21.5566C14.5499 21.8832 15.3764 22.0658 16.2342 22.2048C15.562 22.5038 14.9574 22.8899 14.432 23.3932C13.8587 23.9418 13.2904 24.4971 12.7253 25.0549C10.8538 26.8983 8.62834 27.6889 6.03007 27.3782C5.67951 27.3363 5.3273 27.307 4.97592 27.271C5.00726 27.3648 5.05593 27.4058 5.11202 27.4309C6.12988 27.8882 7.06278 28.4963 8.00558 29.0875C9.20903 29.843 10.3877 30.652 11.7141 31.1772C13.1897 31.7618 14.7281 32.0943 16.3044 32.2559C16.4924 32.2752 16.7861 32.1738 16.7828 32.5683C16.772 33.8698 16.7745 35.1721 16.7828 36.4736C16.7844 36.6998 16.6945 36.745 16.4957 36.7358C16.0948 36.7182 15.694 36.7241 15.2931 36.7149C11.4435 36.6311 7.59398 36.5499 3.74443 36.4561C3.45078 36.4485 3.34767 36.5088 3.35592 36.8254C3.37737 37.6252 3.37077 38.4259 3.35592 39.2257C3.3518 39.4795 3.43593 39.5515 3.67926 39.5406C4.36059 39.5105 5.04273 39.5021 5.72406 39.487C12.741 39.3246 19.758 39.1613 26.7749 39.0013C27.4291 38.9862 28.0889 38.9435 28.7381 39.0013C30.255 39.1378 31.7661 39.3321 33.2813 39.4904C33.5131 39.5147 33.5626 39.6152 33.5593 39.8271C33.5486 40.451 33.575 41.0758 33.5494 41.6981C33.5304 42.1654 33.6962 42.4812 34.1235 42.6546C34.2052 42.7207 34.3025 42.6981 34.3932 42.6989C36.9288 42.6998 39.4644 42.6998 41.9991 42.6989C42.0899 42.6989 42.188 42.7241 42.2672 42.6512C42.5674 42.4728 42.786 42.2601 42.7844 41.8572C42.7745 39.281 42.7811 36.704 42.7761 34.1278L42.7728 34.1227ZM19.6862 34.5591C19.6862 35.209 19.6788 35.8589 19.6903 36.508C19.6945 36.7283 19.6433 36.8271 19.4025 36.812C19.0296 36.7894 18.6552 36.7936 18.2815 36.7986C18.0786 36.8011 17.9978 36.7241 17.9986 36.513C18.0044 35.2274 18.0044 33.9418 18.0002 32.6554C18.0002 32.4552 18.0547 32.3631 18.2724 32.3648C18.6453 32.3681 19.0197 32.3514 19.3918 32.3204C19.6211 32.3011 19.6945 32.3765 19.6903 32.6102C19.678 33.2592 19.6862 33.9092 19.6854 34.5591H19.6862Z" fill="white"/>
</g>
<defs>
<clipPath id="clip0_2741_2552">
<rect width="46" height="46" fill="white"/>
</clipPath>
</defs>
</svg>
