<svg width="45" height="39" viewBox="0 0 45 39" fill="none" xmlns="http://www.w3.org/2000/svg">
<g clip-path="url(#clip0_2741_2530)">
<path d="M27.7515 38.9871C25.0084 39.0394 22.4409 38.2759 19.9418 37.1987C17.3014 36.0611 14.8705 34.5438 12.525 32.8752C11.9932 32.4971 11.4872 32.0779 10.9805 31.6636C10.7318 31.46 10.593 31.4745 10.4204 31.7762C8.69078 34.806 6.36653 37.1536 3.1049 38.4095C2.30244 38.7184 1.46311 38.8616 0.618282 38.9775C0.452769 39 0.281764 38.9839 0.177436 38.8335C0.0699702 38.6782 0.190771 38.5479 0.262938 38.4175C1.54233 36.1029 2.57856 33.6918 3.08529 31.0626C3.61007 28.3385 3.20766 25.7158 2.3197 23.1381C1.78237 21.5781 1.09678 20.0905 0.262154 18.6746C0.175083 18.5274 0.0872275 18.3753 0.182927 18.2112C0.288824 18.0285 0.468457 18.0422 0.652012 18.0648C3.1504 18.3673 5.29109 19.4413 7.16665 21.1461C8.48605 22.3448 9.57169 23.7254 10.44 25.2877C10.6189 25.6096 10.7522 25.575 10.9931 25.3787C12.4741 24.1671 14.0319 23.0673 15.6619 22.0793C18.1141 20.5926 20.6776 19.36 23.4387 18.6022C26.7184 17.7019 29.9588 17.8395 33.1624 19.0044C35.5039 19.8556 37.6156 21.1155 39.5665 22.6835C41.522 24.2547 43.2634 26.0376 44.7907 28.0465C45.059 28.3996 45.0802 28.6346 44.7923 29.0079C42.7434 31.6563 40.3885 33.9645 37.6172 35.7996C34.9917 37.5374 32.1442 38.6846 29.0073 38.9823C28.5924 39.0217 28.1704 38.988 27.7515 38.988V38.9871ZM32.9506 29.5976C34.5007 29.6048 35.6859 28.4069 35.693 26.8276C35.7 25.2491 34.5234 24.0246 32.9899 24.015C31.3881 24.0053 30.1832 25.2129 30.202 26.8686C30.2177 28.2299 31.2869 29.645 32.9506 29.5976Z" fill="white"/>
<path d="M44.7132 2.82172C44.9964 3.66888 44.3861 4.1532 43.706 4.58845C42.691 5.23769 41.5936 5.67053 40.3902 5.68581C39.2411 5.70029 38.1382 5.42676 37.1192 4.85796C36.2744 4.38651 35.4672 3.85633 34.7824 3.15479C34.5314 2.89734 34.3455 3.00997 34.1282 3.21432C32.9822 4.29319 31.6839 5.08242 30.1363 5.38814C28.1925 5.7727 26.3844 5.33585 24.6531 4.43478C23.9401 4.0639 23.2741 3.61658 22.6466 3.10813C22.4725 2.96733 22.3226 2.95688 22.1391 3.10088C20.993 4.00034 19.7568 4.72924 18.366 5.15644C16.0716 5.862 13.9113 5.57318 11.8898 4.23606C11.4333 3.93437 11.0152 3.58521 10.6182 3.2111C10.3257 2.93515 10.1099 2.97055 9.83069 3.25294C8.6368 4.45972 7.21385 5.24815 5.56656 5.58042C3.89731 5.91752 2.36141 5.51606 0.993376 4.52811C-0.205222 3.66325 0.0277515 4.0993 0.00500321 2.55381C0.0010811 2.30441 -0.00676313 2.0534 0.012063 1.8056C0.0387334 1.44035 0.21366 1.33737 0.525076 1.49506C2.02646 2.25453 3.61649 2.58519 5.27946 2.45083C6.95891 2.31567 8.43206 1.63263 9.72165 0.524001C10.4488 -0.101112 10.4394 -0.0737584 11.2246 0.452399C12.9747 1.62539 14.851 2.41945 16.9909 2.37521C18.7519 2.3382 20.2886 1.6986 21.6245 0.545723C22.3438 -0.074563 22.3265 -0.0858263 23.1094 0.5594C25.494 2.52324 28.1242 2.8539 30.963 1.79193C32.0244 1.3953 33.0182 0.866728 33.9125 0.160357C34.216 -0.0793901 34.4263 -0.040773 34.6828 0.212651C35.5009 1.0212 36.4517 1.61493 37.524 2.00513C39.2262 2.62541 40.9378 2.61737 42.6596 2.09845C43.1914 1.93835 43.7068 1.73078 44.2151 1.50471C44.5618 1.35105 44.6944 1.43955 44.7108 1.81928C44.7234 2.10971 44.7132 2.40176 44.7132 2.82252V2.82172Z" fill="white"/>
<path d="M44.7165 9.71549C44.7165 9.72917 44.7134 9.74365 44.7165 9.75732C44.9228 10.7211 44.3667 11.2159 43.656 11.6624C41.2227 13.1926 38.8334 12.9786 36.4566 11.5337C35.8714 11.1781 35.3474 10.7388 34.8634 10.2593C34.5732 9.97213 34.3904 10.0196 34.1229 10.273C33.2098 11.1403 32.1665 11.8064 30.9781 12.195C28.7457 12.9247 26.6293 12.5128 24.5945 11.438C23.8838 11.0623 23.2179 10.6133 22.5895 10.1089C22.3958 9.95363 22.2663 10.0003 22.0953 10.1419C20.6379 11.3495 18.9992 12.1677 17.1409 12.4702C15.7337 12.6987 14.3727 12.5096 13.0596 11.9223C12.1426 11.512 11.3393 10.9376 10.6067 10.2521C10.3361 9.99868 10.1556 9.99707 9.87089 10.2722C8.58444 11.5152 7.09325 12.3937 5.32594 12.6608C3.36253 12.9577 1.68936 12.2425 0.206798 10.9657C0.0624639 10.8418 0.0012789 10.6809 0.00284775 10.4886C0.00520102 9.96167 -0.0057809 9.43471 0.0044166 8.90775C0.0130453 8.47331 0.190325 8.35263 0.579399 8.55537C1.35912 8.96085 2.18276 9.22232 3.037 9.37759C5.67423 9.85869 7.98671 9.16037 9.976 7.32928C10.4333 6.90771 10.4121 6.91656 10.9181 7.27779C12.5873 8.46929 14.4033 9.32208 16.4569 9.42667C18.1026 9.51114 19.644 9.0582 21.0042 8.06461C21.3227 7.8321 21.631 7.58109 21.9228 7.3148C22.3142 6.95839 22.4021 6.96161 22.8037 7.32123C23.9976 8.39125 25.3389 9.15393 26.9399 9.35748C28.8775 9.60366 30.6605 9.08796 32.3666 8.19897C32.9219 7.91014 33.4506 7.57063 33.9386 7.17642C34.21 6.95678 34.3873 6.98897 34.6312 7.21986C35.7216 8.25126 36.9704 8.9882 38.4325 9.32932C40.3748 9.78226 42.2142 9.42506 44.0058 8.63582C44.6373 8.35746 44.7142 8.40975 44.715 9.13302C44.715 9.32691 44.715 9.5216 44.715 9.71549H44.7165Z" fill="white"/>
</g>
<defs>
<clipPath id="clip0_2741_2530">
<rect width="45" height="39" fill="white"/>
</clipPath>
</defs>
</svg>
