<svg width="43" height="42" viewBox="0 0 43 42" fill="none" xmlns="http://www.w3.org/2000/svg">
<g clip-path="url(#clip0_2741_2482)">
<path d="M30.0608 27.9651C29.8365 27.9793 29.662 27.9999 29.4881 27.9999C24.2899 28.0013 19.091 28.0013 13.8928 28.0006C13.2639 28.0006 13.2639 27.9985 13.2631 27.3848C13.2631 26.2305 13.279 25.0762 13.2523 23.9226C13.2437 23.5395 13.385 23.4366 13.7406 23.4459C14.3407 23.4615 14.9408 23.448 15.5416 23.448C20.1671 23.448 24.7927 23.4473 29.4174 23.448C30.0601 23.448 30.0601 23.4501 30.0608 24.083C30.0608 25.2238 30.0608 26.3646 30.0608 27.5054C30.0608 27.6494 30.0608 27.7934 30.0608 27.9658V27.9651Z" fill="white"/>
<path d="M21.6458 18.2925C19.0146 18.2925 16.3827 18.2861 13.7515 18.2989C13.3887 18.301 13.2437 18.2109 13.2502 17.832C13.2704 16.6253 13.2711 15.4178 13.2545 14.211C13.2495 13.842 13.375 13.7356 13.7486 13.7363C19.0254 13.747 24.3015 13.7463 29.5783 13.7363C29.944 13.7363 30.0767 13.8264 30.0695 14.2081C30.0457 15.4284 30.0493 16.6487 30.0674 17.8689C30.0724 18.2088 29.9548 18.2996 29.6216 18.2982C26.963 18.2875 24.3044 18.2918 21.6458 18.2918V18.2925Z" fill="white"/>
<path d="M21.7142 0C24.168 2.40507 26.7177 4.90449 29.297 7.43301H14.1113C16.6401 4.96054 19.1977 2.46041 21.7142 0Z" fill="white"/>
<path d="M43.0001 20.7646C40.5139 23.2059 37.9635 25.7095 35.3965 28.2295V13.2656C37.9375 15.7714 40.4793 18.2794 43.0001 20.7646Z" fill="white"/>
<path d="M14.6094 34.4805H30.0056C29.9133 34.6011 29.8563 34.6961 29.7799 34.7713C27.3903 37.1246 24.9957 39.4722 22.6133 41.8319C22.3803 42.0625 22.244 42.0476 22.0219 41.8276C19.6489 39.4779 17.2673 37.1367 14.8892 34.7919C14.8084 34.7125 14.737 34.6231 14.6094 34.4805Z" fill="white"/>
<path d="M7.61301 13.1973V28.1959C5.06765 25.6894 2.51796 23.1787 0 20.6984C2.48983 18.2451 5.02726 15.7449 7.61301 13.1973Z" fill="white"/>
</g>
<defs>
<clipPath id="clip0_2741_2482">
<rect width="43" height="42" fill="white"/>
</clipPath>
</defs>
</svg>
