<svg width="49" height="36" viewBox="0 0 49 36" fill="none" xmlns="http://www.w3.org/2000/svg">
<g clip-path="url(#clip0_2741_2494)">
<path d="M5.7116 27.0065C7.42606 27.0065 9.14129 27.005 10.8558 27.0065C11.3707 27.0065 11.4133 27.0431 11.4141 27.5566C11.4186 29.3683 11.4156 31.18 11.4156 32.9917C11.4156 33.7877 11.4156 34.5837 11.4118 35.3804C11.4103 35.7989 11.3251 35.8826 10.8976 35.8841C9.92246 35.8864 8.94733 35.8647 7.97372 35.8953C7.59492 35.9073 7.52114 35.769 7.52418 35.4417C7.53712 33.9536 7.53255 32.4648 7.53331 30.976C7.53331 30.3519 7.53331 30.3504 6.88449 30.3489C5.99227 30.3474 5.09929 30.3467 4.2063 30.3504C3.80165 30.3519 3.75068 30.4147 3.75144 30.8213C3.75373 32.3557 3.75525 33.8908 3.7522 35.4252C3.75144 35.8856 3.74384 35.8856 3.29354 35.8856C2.36557 35.8856 1.4376 35.8871 0.510385 35.8856C0.037271 35.8849 0 35.8453 0 35.3998C0.000760633 32.769 0.00152127 30.1381 0.00152127 27.5073C0.00152127 27.0439 0.0357498 27.0073 0.496694 27.0073C2.23474 27.0065 3.97279 27.0073 5.7116 27.0073V27.0065Z" fill="white"/>
<path d="M5.72192 26.0363C4.00669 26.0363 2.29146 26.037 0.576235 26.0348C0.405853 26.0348 0.211131 26.0849 0.109967 25.8823C0.0118454 25.6865 0.147999 25.5647 0.256009 25.4257C0.932972 24.5534 1.60157 23.6752 2.27777 22.8023C3.2993 21.4831 4.33148 20.1722 5.34236 18.8455C5.63216 18.4651 5.78581 18.4995 6.05203 18.8396C7.784 21.0496 9.5228 23.2545 11.2601 25.4593C11.3552 25.5804 11.4624 25.7014 11.3947 25.8629C11.3171 26.0482 11.1399 26.0318 10.9726 26.0318C9.22235 26.0303 7.47214 26.031 5.72116 26.031C5.72116 26.0325 5.72116 26.0348 5.72116 26.0363H5.72192Z" fill="white"/>
<path d="M43.3311 23.9474C41.6052 23.9474 39.8794 23.9407 38.1542 23.9534C37.8272 23.9556 37.7169 23.8375 37.723 23.5304C37.7336 22.9653 37.7321 22.4003 37.7153 21.8353C37.7055 21.4952 37.8401 21.3599 38.1915 21.3696C38.7894 21.3861 39.3887 21.3696 39.9874 21.3696C42.8047 21.3696 45.6221 21.3696 48.4395 21.3696C48.9309 21.3696 48.9826 21.4242 48.9796 21.904C48.9758 22.4459 48.9636 22.9885 48.978 23.5304C48.9864 23.8458 48.8617 23.9579 48.543 23.9564C46.8057 23.9474 45.0684 23.9519 43.3303 23.9519V23.9489L43.3311 23.9474Z" fill="white"/>
<path d="M23.9761 17.9466C23.9761 12.1408 23.9761 6.33499 23.9761 0.529193C23.9761 0.0164772 23.9708 0.00825585 23.4406 0.00750845C22.1955 0.00526626 20.9503 0.00601366 19.7044 0.00601366C17.5891 0.00601366 15.4745 0.0127403 13.36 3.44578e-05C13.0375 -0.00220774 12.9074 0.10467 12.9127 0.410357C12.918 0.710064 12.9127 1.01052 12.9127 1.31023C12.9127 12.1371 12.9127 22.9639 12.9127 33.79C12.9127 34.3094 12.9097 34.8289 12.9028 35.3476C12.896 35.8169 12.9561 35.8834 13.4383 35.8834C16.7281 35.8849 20.017 35.8857 23.3068 35.8864C23.7545 35.8864 23.9782 35.6657 23.9777 35.2242C23.9777 29.4648 23.9777 23.7053 23.9777 17.9451L23.9761 17.9466ZM17.44 30.5492H17.4362C17.4362 30.9289 17.4316 31.3086 17.4377 31.6883C17.4415 31.9215 17.3449 32.0142 17.1015 32.0097C16.4223 31.9985 15.743 31.9985 15.0638 32.0097C14.8113 32.0142 14.736 31.902 14.7367 31.6778C14.7405 30.9185 14.7398 30.1591 14.7352 29.3997C14.7337 29.1636 14.8341 29.0843 15.0767 29.0896C15.756 29.1038 16.4352 29.1053 17.1145 29.0896C17.3693 29.0836 17.4469 29.183 17.443 29.411C17.4362 29.7906 17.4415 30.1703 17.4415 30.55L17.44 30.5492ZM17.4324 24.4654C17.4324 24.4654 17.4347 24.4654 17.4362 24.4654C17.4362 24.8571 17.4362 25.2487 17.4362 25.6403C17.4362 25.8324 17.367 25.9281 17.1426 25.9243C16.439 25.9109 15.7354 25.9109 15.0318 25.9243C14.8037 25.9288 14.7398 25.8249 14.7398 25.6381C14.7398 24.8548 14.7436 24.0715 14.7428 23.2883C14.7428 23.0895 14.8173 23.0005 15.0356 23.0035C15.7392 23.0132 16.4428 23.014 17.1464 23.0035C17.3685 22.9998 17.4354 23.0947 17.4332 23.2905C17.4294 23.6821 17.4316 24.0738 17.4316 24.4654H17.4324ZM17.4408 18.4092H17.437C17.437 18.7897 17.4294 19.1708 17.4392 19.5513C17.4453 19.7919 17.3457 19.8711 17.1023 19.8667C16.4215 19.854 15.74 19.8555 15.0592 19.8667C14.8333 19.8704 14.7344 19.7964 14.7352 19.5729C14.7382 18.7882 14.736 18.0041 14.7322 17.2194C14.7314 17.0123 14.8386 16.9286 15.0372 16.9286C15.7415 16.9286 16.4466 16.9286 17.151 16.9286C17.3586 16.9286 17.4438 17.0333 17.4415 17.2321C17.437 17.6245 17.44 18.0169 17.44 18.4092H17.4408ZM17.4377 13.4712C17.4408 13.6991 17.3518 13.8053 17.1053 13.8023C16.4261 13.7925 15.7461 13.7933 15.0668 13.8023C14.8151 13.8053 14.7367 13.6842 14.7367 13.4637C14.7367 12.7155 14.7352 11.9674 14.7344 11.2193C14.7344 10.9853 14.8204 10.8695 15.0912 10.8762C15.7582 10.8941 16.4276 10.8949 17.0947 10.8762C17.3754 10.868 17.4415 11.0003 17.4415 11.2267C17.4415 11.5952 17.4415 11.9637 17.4415 12.3321H17.437C17.437 12.7118 17.4332 13.0922 17.4385 13.4719L17.4377 13.4712ZM17.4453 6.31182C17.4453 6.31182 17.44 6.31182 17.4377 6.31182C17.4377 6.69225 17.4332 7.07193 17.4392 7.45236C17.4423 7.65565 17.3556 7.74608 17.1464 7.74534C16.4428 7.7416 15.7392 7.74235 15.0356 7.74534C14.831 7.74534 14.736 7.65191 14.736 7.45161C14.7352 6.6915 14.7314 5.93065 14.7283 5.17055C14.7268 4.93063 14.828 4.82076 15.0904 4.82599C15.7582 4.83945 16.4276 4.84094 17.0954 4.82599C17.3632 4.82001 17.4507 4.93063 17.4476 5.17204C17.4415 5.55247 17.4461 5.93215 17.4461 6.31257L17.4453 6.31182ZM22.1613 13.5287C22.1651 13.7193 22.0867 13.7978 21.8935 13.797C21.1671 13.7933 20.4407 13.797 19.7143 13.797C19.5401 13.797 19.4671 13.7186 19.4686 13.5414C19.4747 12.7469 19.4755 11.9525 19.4679 11.1587C19.4656 10.9666 19.5378 10.8829 19.7295 10.8829C20.4673 10.8799 21.2059 10.8769 21.9437 10.8687C22.1537 10.8665 22.1582 10.9995 22.1582 11.146C22.1582 11.5376 22.1582 11.9285 22.1582 12.3202C22.1582 12.723 22.1529 13.1259 22.1613 13.5287ZM22.1597 30.5724H22.1575C22.1575 30.9528 22.1498 31.334 22.1605 31.7144C22.1658 31.9155 22.1027 32.0104 21.8829 32.0082C21.1549 32 20.427 32 19.6991 32.0037C19.5333 32.0044 19.4701 31.9394 19.4701 31.7795C19.4732 30.9603 19.4739 30.1412 19.4686 29.322C19.4679 29.1628 19.5203 29.0933 19.69 29.0948C20.4415 29.0993 21.193 29.1015 21.9445 29.0941C22.1552 29.0918 22.162 29.2107 22.1605 29.3616C22.1575 29.7652 22.159 30.1688 22.159 30.5732L22.1597 30.5724ZM21.8988 25.9206C21.1724 25.9131 20.446 25.9154 19.7196 25.9199C19.5508 25.9206 19.4656 25.8795 19.4679 25.6889C19.4762 24.8832 19.4747 24.0775 19.4686 23.2718C19.4671 23.0835 19.5295 23.0042 19.731 23.0065C20.4574 23.014 21.1838 23.0162 21.9102 23.005C22.1278 23.0013 22.1605 23.0999 22.1575 23.2763C22.1498 23.6792 22.1552 24.082 22.1552 24.4848H22.159C22.159 24.8765 22.1521 25.2674 22.162 25.659C22.1666 25.8511 22.0966 25.9236 21.8981 25.9214L21.8988 25.9206ZM22.1605 18.3965H22.1575C22.1575 18.7762 22.1468 19.1566 22.162 19.5363C22.1704 19.7531 22.0996 19.8622 21.8737 19.8607C21.1473 19.8555 20.4209 19.851 19.6945 19.848C19.5333 19.848 19.4694 19.7807 19.4701 19.617C19.4762 18.8001 19.4762 17.9825 19.4717 17.1648C19.4709 16.9802 19.5622 16.9279 19.7326 16.9286C20.4476 16.9324 21.1618 16.9316 21.8768 16.9286C22.0806 16.9286 22.1704 17.0123 22.1643 17.2209C22.1537 17.6118 22.1613 18.0034 22.1613 18.395L22.1605 18.3965ZM22.1613 7.41573C22.1643 7.66312 22.0525 7.74758 21.8258 7.74683C21.1329 7.74534 20.4399 7.73936 19.747 7.74608C19.5279 7.74833 19.4633 7.65415 19.4686 7.45236C19.4793 7.05997 19.4717 6.66759 19.4717 6.2752C19.4717 5.88282 19.48 5.49043 19.4686 5.09805C19.4633 4.90597 19.5287 4.82973 19.728 4.83048C20.4559 4.83347 21.1846 4.82898 21.9125 4.82076C22.1164 4.81852 22.1681 4.91045 22.1658 5.09655C22.1559 5.86936 22.1514 6.64292 22.1613 7.41648V7.41573Z" fill="white"/>
<path d="M36.4547 34.9149C36.4669 30.3685 36.4593 25.822 36.4593 21.2764C36.4593 16.8338 36.4593 12.3913 36.4593 7.94872C36.4593 7.60268 36.4608 7.25588 36.4471 6.91058C36.441 6.76708 36.4471 6.60041 36.2653 6.53165C36.0637 6.45467 35.9618 6.59593 35.8607 6.72C35.297 7.41583 34.7349 8.1139 34.1751 8.81272C31.4262 12.241 28.6765 15.6671 25.9336 19.0999C25.6788 19.4191 25.3845 19.6911 25.3867 20.1904C25.4118 25.106 25.4027 30.0217 25.4027 34.9366C25.4027 35.1444 25.4172 35.3529 25.4027 35.5592C25.3837 35.8342 25.5244 35.9344 25.7785 35.9366C25.8842 35.9373 25.9899 35.9403 26.0956 35.9403C29.2082 35.9403 32.3207 35.9463 35.4324 35.9344C36.5559 35.9299 36.4509 36.1444 36.4539 34.9142L36.4547 34.9149ZM30.4518 31.6577C30.4548 31.9074 30.3415 32.0165 30.0935 32.0157C29.5885 32.0127 29.0834 32.015 28.5791 32.015C28.1098 32.0142 27.6397 32.0053 27.1704 32.0172C26.9095 32.024 26.781 31.9515 26.7886 31.6675C26.8046 31.0912 26.8046 30.5135 26.7886 29.9372C26.7817 29.6921 26.8913 29.6099 27.1141 29.6024C28.1121 29.5673 29.1093 29.571 30.1072 29.6024C30.3392 29.6099 30.464 29.6981 30.4556 29.9626C30.4366 30.5277 30.4449 31.0927 30.4526 31.6585L30.4518 31.6577ZM26.7901 22.816C26.7817 22.5215 26.9012 22.4348 27.1864 22.4453C27.6557 22.4625 28.1258 22.4498 28.5958 22.4498C29.0895 22.4498 29.5831 22.4558 30.076 22.4468C30.3316 22.4415 30.4495 22.5611 30.4503 22.7966C30.4533 23.3855 30.4465 23.9737 30.448 24.5627C30.448 24.7839 30.3225 24.8818 30.1194 24.8826C29.1093 24.8855 28.0992 24.8826 27.089 24.8796C26.8669 24.8796 26.7855 24.763 26.7886 24.5485C26.7977 23.9715 26.8053 23.3937 26.7893 22.8175L26.7901 22.816ZM27.1499 26.0306C27.642 26.0388 28.1349 26.0328 28.6278 26.0328C29.0971 26.0328 29.5664 26.0433 30.035 26.0291C30.3134 26.0208 30.4548 26.1143 30.451 26.3998C30.4442 26.976 30.4427 27.5515 30.4457 28.1278C30.4465 28.3468 30.3377 28.4484 30.1255 28.4484C29.1055 28.4484 28.0855 28.4439 27.0655 28.4432C26.8479 28.4432 26.7893 28.3266 26.7909 28.1337C26.7962 27.5463 26.7992 26.9588 26.7886 26.3714C26.784 26.112 26.9019 26.0261 27.1499 26.0306ZM30.0083 21.3391C29.0826 21.3227 28.1562 21.3249 27.2305 21.3369C26.9186 21.3406 26.8213 21.2345 26.7825 20.9221C26.7201 20.4146 27.0305 20.1074 27.2982 19.7718C28.0877 18.7838 28.8872 17.8039 29.6851 16.8226C29.7505 16.7426 29.8387 16.6798 29.9011 16.5976C30.0061 16.4609 30.1453 16.4691 30.2814 16.5072C30.4274 16.5483 30.4571 16.6724 30.4571 16.8099C30.4548 17.5012 30.4564 18.1918 30.4564 18.8832H30.4602C30.4602 19.5514 30.4541 20.2195 30.4624 20.887C30.4662 21.2016 30.3529 21.3451 30.0083 21.3391ZM32.145 13.6035C32.7367 12.8718 33.3293 12.1409 33.9241 11.4114C34.1561 11.1267 34.4025 10.8531 34.6277 10.5631C34.7402 10.4189 34.8619 10.3367 35.0422 10.3994C35.2301 10.4652 35.2483 10.6267 35.2476 10.7956C35.2461 11.2791 35.2476 11.7627 35.2476 12.2463H35.2423C35.2423 12.7298 35.2369 13.2134 35.2438 13.697C35.2483 14.0034 35.1487 14.1611 34.795 14.1521C34.01 14.132 33.2251 14.1439 32.4401 14.1492C32.2788 14.1499 32.1358 14.1312 32.0522 13.978C31.97 13.8278 32.0567 13.7134 32.1457 13.6035H32.145ZM35.2552 31.6817C35.2605 31.9231 35.1555 32.0157 34.9228 32.0142C34.4185 32.0113 33.915 32.0135 33.4107 32.0135V32.015C32.9421 32.015 32.4728 32.003 32.0042 32.0195C31.7046 32.0299 31.5775 31.9283 31.5867 31.6226C31.6026 31.0934 31.6156 30.5613 31.5813 30.0344C31.5585 29.6839 31.7281 29.5904 32.0225 29.5859C32.3625 29.58 32.7025 29.5822 33.0425 29.583C33.6404 29.5844 34.2382 29.5912 34.8361 29.5904C35.1381 29.5904 35.2734 29.701 35.2582 30.0254C35.2324 30.577 35.2438 31.1308 35.2559 31.6831L35.2552 31.6817ZM35.2521 28.1128C35.2559 28.3348 35.154 28.4402 34.9449 28.4409C33.9142 28.4469 32.8828 28.4462 31.8521 28.4477C31.6559 28.4477 31.5897 28.337 31.5897 28.1592C31.5912 27.5493 31.592 26.9387 31.5874 26.3288C31.5859 26.1016 31.7038 26.0298 31.9183 26.0328C32.4218 26.0395 32.9261 26.035 33.4297 26.035C33.9104 26.035 34.3903 26.041 34.8711 26.0328C35.1274 26.0283 35.262 26.1046 35.2544 26.3863C35.24 26.9618 35.2415 27.5373 35.2506 28.1128H35.2521ZM31.5905 22.7644C31.5874 22.517 31.7114 22.4438 31.9373 22.446C32.4408 22.4513 32.9451 22.4475 33.4487 22.4475V22.4505C33.9408 22.4505 34.4329 22.455 34.9251 22.4483C35.1639 22.4453 35.259 22.541 35.2544 22.7786C35.2438 23.3653 35.2415 23.9528 35.2544 24.5395C35.2598 24.7832 35.1419 24.8811 34.9236 24.8818C33.9157 24.8863 32.9086 24.8848 31.9008 24.8818C31.6893 24.8818 31.5844 24.7794 31.5874 24.5589C31.595 23.9603 31.5973 23.3616 31.5897 22.7637L31.5905 22.7644ZM35.2544 20.9535C35.259 21.2457 35.1114 21.3369 34.8414 21.3332C34.3599 21.3264 33.8792 21.3309 33.3977 21.3317C32.9284 21.3317 32.4583 21.3264 31.989 21.3339C31.7106 21.3384 31.5821 21.2308 31.5882 20.9445C31.5996 20.3795 31.6003 19.8144 31.5867 19.2494C31.5806 18.9998 31.684 18.8735 31.9274 18.8727C32.9246 18.8682 33.9226 18.8667 34.9197 18.8742C35.135 18.8757 35.259 18.9848 35.2552 19.2247C35.2453 19.801 35.2453 20.378 35.2552 20.9542L35.2544 20.9535ZM34.8034 17.7471C34.3348 17.7284 33.8648 17.7426 33.3954 17.7426V17.7404C32.9261 17.7404 32.4561 17.7292 31.9875 17.7449C31.703 17.7546 31.5798 17.6589 31.5867 17.3689C31.5996 16.8047 31.5988 16.2389 31.5867 15.6746C31.5806 15.4078 31.6871 15.3009 31.9571 15.3031C32.9193 15.3114 33.8815 15.3084 34.8437 15.3114C35.1213 15.3121 35.2696 15.4152 35.2575 15.7269C35.2362 16.2561 35.2362 16.7882 35.259 17.3174C35.2734 17.6589 35.132 17.7613 34.8041 17.7486L34.8034 17.7471Z" fill="white"/>
<path d="M48.5067 24.8047C46.7922 24.8047 45.0778 24.8047 43.3633 24.8047V24.8062C41.6838 24.8062 40.0044 24.8054 38.3256 24.8062C37.7278 24.8062 37.6943 24.8376 37.6943 25.4325C37.6928 28.7323 37.6928 32.032 37.6966 35.3318C37.6966 35.9619 37.7384 35.9992 38.3758 36C41.7462 36.0015 45.1166 36.0007 48.4869 36C48.9114 36 48.9988 35.9133 48.9996 35.491C49.0011 32.0874 49.0011 28.6837 48.9996 25.28C48.9996 24.8563 48.9433 24.8047 48.5075 24.8047H48.5067ZM39.0847 26.437C39.0863 26.1799 39.1981 26.0364 39.4924 26.0454C39.9846 26.0603 40.4775 26.0491 40.9704 26.0491V26.0506C41.4747 26.0506 41.979 26.0573 42.4833 26.0476C42.7381 26.0431 42.856 26.1612 42.8583 26.3959C42.8628 26.9834 42.8567 27.5708 42.859 28.159C42.8598 28.3832 42.7229 28.4744 42.5259 28.4752C41.4823 28.4797 40.4387 28.4759 39.3951 28.4722C39.1715 28.4714 39.0908 28.3294 39.0893 28.1306C39.0863 27.5663 39.0817 27.0013 39.0847 26.437ZM42.4848 32.0193C41.9805 32.0156 41.4762 32.0178 40.9711 32.0178C40.4782 32.0178 39.9853 32.0111 39.4932 32.0201C39.1943 32.0253 39.0726 31.9027 39.0802 31.6075C39.0946 31.0544 39.0984 30.5006 39.0847 29.9475C39.0787 29.6934 39.2064 29.6269 39.424 29.6209C40.4683 29.5933 41.5119 29.5903 42.5555 29.6262C42.7769 29.6336 42.8636 29.7301 42.8605 29.9483C42.8522 30.5133 42.8506 31.0776 42.8605 31.6426C42.8651 31.9087 42.748 32.0216 42.484 32.0193H42.4848ZM47.7742 31.6972C47.7712 31.9035 47.6616 32.0238 47.4205 32.0186C46.9048 32.0074 46.3891 32.0149 45.8726 32.0149V32.0171C45.3919 32.0171 44.9112 32.0081 44.4305 32.0201C44.1369 32.0276 43.9992 31.9252 44.006 31.621C44.019 31.0686 44.0205 30.5148 44.0038 29.9625C43.9969 29.7218 44.1011 29.6202 44.3232 29.6187C45.3782 29.6135 46.4332 29.612 47.4882 29.6127C47.6746 29.6127 47.7659 29.7256 47.7674 29.9005C47.7735 30.4991 47.7811 31.0985 47.7735 31.6972H47.7742ZM47.7659 28.1456C47.7613 28.384 47.6213 28.4789 47.3749 28.4774C46.3906 28.4714 45.4064 28.4752 44.4221 28.4819C44.13 28.4841 43.9954 28.3735 44.0038 28.0716C44.019 27.5424 44.0197 27.0125 44.006 26.4833C43.9969 26.1485 44.1483 26.0371 44.4731 26.0476C44.9644 26.0633 45.4573 26.0514 45.9495 26.0521C46.4066 26.0521 46.8653 26.0768 47.3201 26.0439C47.6335 26.0215 47.7636 26.1627 47.7704 26.4206C47.7856 26.9953 47.7773 27.5716 47.7666 28.1463L47.7659 28.1456Z" fill="white"/>
</g>
<defs>
<clipPath id="clip0_2741_2494">
<rect width="49" height="36" fill="white"/>
</clipPath>
</defs>
</svg>
