<svg width="55" height="28" viewBox="0 0 55 28" fill="none" xmlns="http://www.w3.org/2000/svg">
<g clip-path="url(#clip0_2741_2513)">
<path d="M27.475 28C21.8512 27.9461 16.5217 26.7201 11.5503 24.0796C7.12383 21.7295 3.37676 18.5745 0.343299 14.594C-0.110963 13.998 -0.114941 13.9885 0.334548 13.3869C2.3847 10.6419 4.84297 8.30695 7.62503 6.30836C11.0411 3.85386 14.7906 2.09352 18.8766 1.05505C20.9522 0.527106 23.062 0.207332 25.2028 0.074357C27.1392 -0.0459539 29.0732 -0.0245829 31.0017 0.170131C34.4727 0.519982 37.8228 1.35424 41.0217 2.75128C46.2843 5.04906 50.7036 8.4423 54.2446 12.9381C55.2574 14.2243 55.2526 13.7431 54.2367 15.0254C50.1324 20.2074 44.9462 23.9197 38.6835 26.1153C35.9484 27.0739 33.1266 27.6549 30.2276 27.8401C29.3111 27.8986 28.3938 27.9469 27.4765 28H27.475ZM23.9912 13.2088C24.144 13.3402 24.2728 13.4352 24.3818 13.5492C24.6977 13.88 24.9944 14.2307 25.3198 14.552C25.7406 14.9684 26.3477 14.8821 26.8847 14.3518C27.2291 14.0114 27.1957 13.7075 26.743 13.2508C26.3023 12.8052 25.8409 12.3793 25.4105 11.9242C25.3166 11.8253 25.319 11.6369 25.2776 11.4897C25.4296 11.5071 25.6046 11.4825 25.7287 11.5498C26.214 11.815 26.6945 12.0928 27.1528 12.4015C27.331 12.5218 27.5346 12.7213 27.5696 12.9128C27.7049 13.6568 28.1981 13.9798 28.8656 14.1492C29.545 14.3209 30.1671 14.6003 30.646 15.1322C30.8521 15.3618 31.0375 15.2976 31.1711 15.0729C31.4026 14.6842 31.6755 14.3067 31.5363 13.8009C31.4511 13.4906 31.6111 13.3006 31.9157 13.2136C32.2952 13.1059 32.6238 13.2357 32.7853 13.5943C32.9524 13.9671 33.1345 14.3399 33.2419 14.7309C33.5124 15.7164 34.2332 16.2958 35.0502 16.7936C35.1481 16.853 35.2921 16.8364 35.4154 16.8546C35.4154 16.7303 35.452 16.5902 35.4067 16.4857C35.2865 16.2119 35.125 15.9562 34.9906 15.6879C34.6222 14.9525 35.0534 14.074 35.8434 13.8523C36.172 13.7605 36.4743 13.5626 36.7766 13.3917C36.9962 13.2674 36.9866 13.1044 36.8681 12.8772C36.74 12.631 36.6732 12.3445 36.6302 12.0675C36.6135 11.9582 36.7098 11.7509 36.7957 11.7263C36.8999 11.6962 37.0598 11.7936 37.1704 11.8704C37.2866 11.9511 37.3637 12.0841 37.4727 12.1767C37.6875 12.3587 37.9596 12.4086 38.1776 12.2511C38.3526 12.1244 38.499 11.9044 38.5642 11.697C38.6199 11.5181 38.5722 11.291 38.5205 11.0978C38.0582 9.35888 37.211 7.82729 36.0137 6.47775C32.9905 3.07263 28.082 1.78246 23.7764 3.29584C23.035 3.55625 22.3269 3.91006 21.603 4.22034C21.6181 4.2607 21.6324 4.30028 21.6475 4.34065C22.2211 4.30186 22.7939 4.23775 23.3675 4.23379C23.786 4.23142 24.2116 4.27891 24.6221 4.36043C24.9355 4.42296 25.132 4.65409 25.0604 4.99998C24.9849 5.36725 25.1273 5.63241 25.3978 5.85324C25.5473 5.97513 25.7088 6.08278 25.8544 6.20942C26.0978 6.42155 26.0883 6.58065 25.8146 6.74449C25.3691 7.01044 24.9204 7.27243 24.463 7.51701C24.2967 7.60646 24.1058 7.66503 23.9188 7.69352C23.8377 7.70619 23.6945 7.62704 23.6619 7.55342C23.6316 7.48535 23.6825 7.32705 23.7478 7.28193C23.9944 7.11096 24.2633 6.97245 24.5203 6.81731C24.6571 6.7342 24.7876 6.64159 24.9212 6.55294C24.9133 6.5102 24.9061 6.46746 24.8981 6.42472C24.6818 6.40493 24.4598 6.34398 24.2498 6.37327C23.2227 6.51495 22.1909 6.64318 21.1781 6.85689C20.7605 6.94475 20.3682 7.20753 19.9991 7.44499C19.7604 7.59775 19.7278 7.91277 19.9999 8.04021C20.4947 8.27133 21.0174 8.48188 21.5512 8.57765C21.9522 8.64968 22.1837 8.24205 22.4383 7.97372C22.5043 7.90486 22.5759 7.8352 22.6571 7.78692C22.9315 7.62466 23.2036 7.70381 23.3802 7.98639C23.0342 8.29904 22.7 8.62514 22.3396 8.92038C22.0636 9.14675 21.7302 9.12776 21.408 9.01932C20.6594 8.76841 19.9426 8.78345 19.2632 9.23303C19.0834 9.35176 18.8734 9.42774 18.6992 9.55201C18.6117 9.61454 18.5122 9.7491 18.5218 9.84092C18.5782 10.3997 18.2831 10.6198 17.7342 10.4472C17.5146 10.3784 17.2552 10.3665 17.0269 10.4045C16.5647 10.4813 16.3793 10.8612 16.5663 11.2902C16.6657 11.5181 16.8161 11.6171 17.0866 11.5039C17.3945 11.3757 17.727 11.3068 18.0397 11.1873C18.4191 11.0416 18.8113 10.9079 19.155 10.6997C19.5759 10.4448 19.8488 10.4805 20.0938 10.919C20.2457 11.192 20.3985 11.4651 20.5608 11.7319C20.6077 11.8086 20.6889 11.864 20.7549 11.9297C20.7708 11.9155 20.7875 11.9004 20.8034 11.8862C20.7366 11.5997 20.6698 11.3124 20.6029 11.0258C20.6515 10.9989 20.6992 10.972 20.7477 10.9451C20.8933 11.0852 21.0548 11.2126 21.1797 11.3693C21.3277 11.5538 21.4303 11.6654 21.708 11.5229C22.0691 11.3377 22.3834 11.5617 22.346 11.9646C22.3285 12.1522 22.2044 12.3754 22.058 12.4988C21.5019 12.965 20.8917 12.8147 20.2784 12.5986C19.5281 12.335 18.7755 12.0746 18.0134 11.849C17.7596 11.7738 17.4716 11.7857 17.2019 11.7999C16.828 11.8205 16.661 12.1102 16.4987 12.3999C16.3785 12.616 16.1383 12.8067 16.1128 13.0268C15.906 14.803 16.186 16.5221 16.8264 18.1867C16.9657 18.5476 17.2568 18.6458 17.6108 18.4661C17.8583 18.341 18.0969 18.1978 18.3436 18.0711C18.6156 17.931 18.8456 17.9461 19.0985 18.1724C19.4231 18.4629 19.7795 18.7091 19.7421 19.2014C20.1977 19.1592 20.4592 19.3558 20.5266 19.7911C20.5472 19.9209 20.5584 20.0578 20.6077 20.1774C20.6554 20.2929 20.7302 20.4607 20.8225 20.4813C21.0492 20.5328 21.0206 20.6784 21.0357 20.8327C21.0803 21.2728 21.1018 21.7192 21.1932 22.1506C21.3014 22.6588 21.525 22.7522 22.0461 22.6398C22.8552 22.4657 23.3548 21.9702 23.6372 21.2158C23.809 20.7568 23.8043 20.1995 24.3293 19.9249C24.3452 19.9162 24.3508 19.8829 24.3564 19.8592C24.4566 19.4413 24.6547 19.0186 24.634 18.6062C24.5927 17.8052 24.8679 17.206 25.4948 16.7366C25.5425 16.701 25.5863 16.6567 25.6229 16.6092C25.9085 16.2388 25.8504 15.9245 25.4487 15.6792C25.2943 15.585 25.1344 15.4995 24.9777 15.4085C24.3699 15.0539 23.6937 13.9133 23.9896 13.2057L23.9912 13.2088ZM34.3478 21.9551C34.6771 21.9551 34.9683 21.8942 35.2141 21.9717C35.4719 22.0533 35.6246 22.043 35.8084 21.8435C36.7217 20.851 37.4465 19.742 38.0041 18.5168C38.2038 18.0783 38.1569 17.692 37.95 17.2812C37.8084 17.0002 37.6692 16.9361 37.3971 17.1348C36.8442 17.5392 36.2165 17.7656 35.5395 17.8954C35.0089 17.9975 34.4838 18.1495 33.9723 18.3236C33.1242 18.6125 32.5228 19.5948 32.6691 20.4655C32.7384 20.8755 32.8943 21.2712 33.0136 21.6725C33.1314 22.0659 33.2411 22.1055 33.6135 21.9021C33.8251 21.7857 34.0399 21.6749 34.2913 21.5412C34.3199 21.7493 34.3374 21.8752 34.3478 21.9551ZM34.3271 23.1305C33.5968 22.7276 32.6111 22.7743 31.9261 23.4471C31.1854 24.1745 30.4742 24.1429 29.65 23.7479C29.5959 23.7218 29.5378 23.7036 29.4806 23.6854C28.3978 23.3442 27.319 22.9643 26.1535 23.144C25.3532 23.2675 24.6261 23.5366 24.2211 24.3107C24.0111 24.712 24.1034 24.9162 24.5394 25.027C26.9658 25.6476 29.3509 25.5193 31.6858 24.613C32.6222 24.2497 33.4997 23.7748 34.3279 23.1297L34.3271 23.1305ZM38.071 12.6326C38.0853 12.9191 38.2014 13.2429 38.0901 13.4415C37.8721 13.831 37.7631 14.2141 37.8188 14.6415C37.9007 15.2715 38.1617 15.8145 38.6828 16.3084C38.8872 15.2866 38.9707 14.3375 38.8753 13.3806C38.8307 12.9302 38.4727 12.65 38.0702 12.6334L38.071 12.6326ZM16.8543 9.71427C16.9012 9.75306 16.9474 9.79105 16.9943 9.82983C17.9378 9.4499 18.3945 8.42726 19.3706 8.07424C18.9943 7.66265 18.0858 7.65316 17.8066 8.0505C17.4406 8.57132 17.1669 9.15704 16.8543 9.71506V9.71427ZM25.0183 19.9051C25.0716 19.9122 25.1249 19.9201 25.179 19.9272C25.502 19.0819 25.8385 18.2421 26.1384 17.3896C26.2243 17.1451 26.0183 17.0065 25.7693 17.1181C25.4336 17.2693 25.2625 17.5582 25.1981 17.9025C25.1122 18.3616 25.0358 18.8239 24.9833 19.2877C24.9602 19.4895 25.0048 19.6993 25.0183 19.9051ZM18.5965 7.22257C19.2489 7.2384 19.8941 6.69225 19.9204 6.18726C19.9331 5.93793 19.8018 5.79625 19.583 5.83899C19.3627 5.88253 19.1288 5.98463 18.9601 6.13027C18.7557 6.30757 18.6069 6.55136 18.4478 6.77615C18.3921 6.85451 18.3237 6.99699 18.3571 7.04764C18.4207 7.14342 18.5528 7.19328 18.5965 7.22257ZM36.526 16.9321C36.6342 16.8751 36.7655 16.8063 36.8959 16.7374C36.8259 16.6203 36.775 16.4857 36.6819 16.3915C36.5936 16.3021 36.4671 16.2411 36.347 16.1913C36.0654 16.0725 35.8943 16.2617 35.8028 16.4659C35.6978 16.7018 35.9277 16.7643 36.0948 16.8245C36.2173 16.8688 36.3494 16.8886 36.5268 16.9313L36.526 16.9321ZM30.2618 15.8628C30.3509 15.7836 30.5641 15.6831 30.5713 15.5699C30.5888 15.2969 29.9985 14.9937 29.759 15.1401C29.6389 15.2137 29.5164 15.3546 29.4941 15.4829C29.4821 15.5517 29.6675 15.6776 29.7845 15.7393C29.8966 15.7979 30.0351 15.8074 30.2618 15.8628ZM36.0089 15.7528C36.0351 15.7306 36.1131 15.6633 36.1919 15.5968C35.9858 15.3958 35.7798 15.1948 35.5737 14.9937C35.5077 15.0792 35.3899 15.1615 35.3852 15.2502C35.3701 15.5375 35.6262 15.7615 36.0089 15.7528Z" fill="white"/>
<path d="M23.9912 13.2087C23.696 13.9163 24.3722 15.0569 24.9792 15.4115C25.136 15.5025 25.2959 15.588 25.4502 15.6822C25.852 15.9275 25.9108 16.2418 25.6244 16.6122C25.5879 16.6597 25.5441 16.7032 25.4964 16.7396C24.8695 17.209 24.595 17.8082 24.6356 18.6092C24.6571 19.0208 24.4582 19.4443 24.3579 19.8622C24.3524 19.8851 24.3468 19.9192 24.3309 19.9279C23.805 20.2025 23.8106 20.7598 23.6387 21.2188C23.3563 21.9732 22.8567 22.4686 22.0476 22.6428C21.5265 22.7552 21.303 22.6618 21.1948 22.1536C21.1033 21.7222 21.0818 21.2758 21.0373 20.8357C21.0214 20.6814 21.0508 20.5358 20.8241 20.4843C20.7326 20.4637 20.657 20.2951 20.6093 20.1804C20.5599 20.0608 20.548 19.9247 20.5281 19.7941C20.4602 19.3593 20.1988 19.1627 19.7437 19.2044C19.7811 18.7121 19.4247 18.4659 19.1001 18.1754C18.8471 17.9491 18.618 17.934 18.3451 18.0741C18.0985 18.2008 17.8598 18.344 17.6124 18.4691C17.2584 18.6488 16.9664 18.5498 16.828 18.1897C16.1876 16.5259 15.9067 14.8067 16.1144 13.0298C16.1398 12.8089 16.3801 12.6182 16.5002 12.4029C16.6625 12.1124 16.8288 11.8235 17.2035 11.8029C17.4732 11.7879 17.762 11.7768 18.0149 11.852C18.7771 12.0776 19.5297 12.338 20.2799 12.6016C20.8933 12.8169 21.5035 12.9672 22.0596 12.5018C22.2067 12.3792 22.33 12.1559 22.3476 11.9676C22.3849 11.5655 22.0715 11.3407 21.7095 11.5259C21.4311 11.6684 21.3292 11.5568 21.1813 11.3723C21.0564 11.2164 20.8949 11.0882 20.7493 10.9481C20.7007 10.975 20.653 11.0019 20.6045 11.0288C20.6713 11.3153 20.7381 11.6027 20.805 11.8892C20.7891 11.9034 20.7723 11.9185 20.7564 11.9327C20.6904 11.867 20.6093 11.8116 20.5623 11.7349C20.4 11.4681 20.2473 11.195 20.0953 10.922C19.8503 10.4827 19.5774 10.4471 19.1566 10.7027C18.8129 10.9109 18.4199 11.0446 18.0412 11.1903C17.7293 11.3098 17.396 11.3787 17.0881 11.5069C16.8176 11.6201 16.6673 11.5211 16.5678 11.2932C16.3809 10.8642 16.5662 10.4835 17.0285 10.4075C17.2568 10.3695 17.5161 10.3814 17.7357 10.4502C18.2838 10.6228 18.579 10.4027 18.5233 9.84391C18.5138 9.7521 18.6132 9.61754 18.7007 9.55501C18.8757 9.42995 19.085 9.35475 19.2648 9.23603C19.9442 8.78644 20.6602 8.7714 21.4096 9.02232C21.7318 9.12996 22.0651 9.14896 22.3412 8.92338C22.7016 8.62814 23.0365 8.30203 23.3818 7.98938C23.2044 7.70681 22.9331 7.62845 22.6586 7.78992C22.5767 7.8382 22.5059 7.90707 22.4398 7.97672C22.1845 8.24504 21.9538 8.65268 21.5528 8.58065C21.019 8.48488 20.4963 8.27433 20.0015 8.04321C19.7294 7.91577 19.762 7.60154 20.0007 7.44798C20.3698 7.21132 20.762 6.94854 21.1797 6.85989C22.1924 6.64617 23.2243 6.51795 24.2513 6.37627C24.4605 6.34698 24.6833 6.40793 24.8997 6.42772C24.9076 6.47046 24.9148 6.5132 24.9228 6.55594C24.7891 6.64459 24.6586 6.7372 24.5218 6.82031C24.264 6.97624 23.9951 7.11475 23.7493 7.28493C23.6833 7.33084 23.6324 7.48914 23.6634 7.55642C23.696 7.63003 23.8392 7.70919 23.9204 7.69652C24.1073 7.66803 24.2983 7.60866 24.4645 7.52001C24.922 7.27464 25.3707 7.01344 25.8162 6.74749C26.0898 6.58365 26.0994 6.42455 25.856 6.21242C25.7104 6.08578 25.5489 5.97892 25.3993 5.85624C25.1288 5.6354 24.9864 5.37025 25.062 5.00298C25.1328 4.65788 24.9371 4.42596 24.6236 4.36343C24.2123 4.28191 23.7875 4.23442 23.369 4.23679C22.7954 4.24075 22.2226 4.30486 21.6491 4.34365C21.6339 4.30328 21.6196 4.2637 21.6045 4.22333C22.3285 3.91306 23.0365 3.55925 23.778 3.29884C28.0835 1.78545 32.9921 3.07563 36.0152 6.48075C37.2133 7.8295 38.0598 9.36188 38.522 11.1008C38.5737 11.294 38.6215 11.5211 38.5658 11.7C38.5005 11.9074 38.3541 12.1267 38.1791 12.2541C37.9619 12.4116 37.6891 12.3617 37.4743 12.1797C37.3653 12.0871 37.2873 11.9541 37.1719 11.8734C37.0614 11.7958 36.9015 11.6992 36.7972 11.7293C36.7121 11.7539 36.6151 11.9612 36.6318 12.0705C36.6747 12.3475 36.7416 12.634 36.8696 12.8802C36.9874 13.1073 36.9969 13.2704 36.7781 13.3947C36.4758 13.5656 36.1735 13.7635 35.845 13.8553C35.055 14.077 34.6238 14.9555 34.9921 15.6909C35.1266 15.9592 35.2881 16.2141 35.4082 16.4887C35.4535 16.5932 35.417 16.7333 35.417 16.8576C35.2944 16.8394 35.1496 16.856 35.0518 16.7966C34.234 16.2988 33.514 15.7194 33.2435 14.7339C33.1361 14.3429 32.9539 13.9701 32.7868 13.5973C32.6261 13.2379 32.2968 13.1081 31.9173 13.2166C31.6118 13.3036 31.4519 13.4936 31.5378 13.8039C31.677 14.3097 31.4034 14.6872 31.1727 15.0759C31.039 15.2999 30.8536 15.364 30.6476 15.1352C30.1695 14.6025 29.5473 14.3239 28.8671 14.1522C28.1997 13.9836 27.7056 13.6598 27.5712 12.9158C27.5362 12.7243 27.3325 12.5248 27.1543 12.4045C26.6969 12.095 26.2155 11.818 25.7303 11.5528C25.6061 11.4847 25.4311 11.5101 25.2792 11.4926C25.3213 11.6399 25.319 11.8283 25.412 11.9272C25.8416 12.3823 26.3031 12.8089 26.7446 13.2538C27.1973 13.7105 27.2307 14.0152 26.8862 14.3548C26.3484 14.8859 25.7422 14.9722 25.3213 14.555C24.996 14.2329 24.6992 13.883 24.3834 13.5522C24.2744 13.4382 24.1447 13.3432 23.9928 13.2118L23.9912 13.2087Z" fill="#418C4D"/>
<path d="M34.3491 21.9554C34.3379 21.8754 34.3212 21.7496 34.2926 21.5414C34.0412 21.6752 33.8264 21.786 33.6148 21.9023C33.2424 22.1065 33.1327 22.067 33.0149 21.6728C32.8948 21.2715 32.7389 20.8757 32.6704 20.4657C32.5241 19.5951 33.1247 18.6128 33.9736 18.3239C34.4851 18.1497 35.0102 17.9978 35.5408 17.8957C36.2178 17.7659 36.8455 17.5395 37.3984 17.135C37.6705 16.9363 37.8097 16.9997 37.9513 17.2814C38.1582 17.6922 38.2051 18.0793 38.0054 18.517C37.4478 19.7423 36.723 20.852 35.8097 21.8438C35.6259 22.0432 35.474 22.0535 35.2154 21.972C34.9696 21.8936 34.6792 21.9554 34.3491 21.9554Z" fill="#418C4D"/>
<path d="M34.3273 23.1309C33.4991 23.776 32.6216 24.2509 31.6852 24.6142C29.3503 25.5197 26.9644 25.6479 24.5387 25.0282C24.1036 24.9166 24.0113 24.7131 24.2205 24.3118C24.6254 23.5377 25.3518 23.2686 26.1529 23.1451C27.3184 22.9655 28.3972 23.3454 29.4799 23.6865C29.5372 23.7047 29.5953 23.7237 29.6494 23.7491C30.4744 24.144 31.1848 24.1757 31.9255 23.4483C32.6104 22.7755 33.5969 22.7288 34.3265 23.1317L34.3273 23.1309Z" fill="#418C4D"/>
<path d="M38.0705 12.6336C38.473 12.6502 38.8302 12.9304 38.8756 13.3808C38.9703 14.3377 38.8875 15.2868 38.6831 16.3086C38.1612 15.8155 37.9002 15.2717 37.8191 14.6417C37.7634 14.2143 37.8724 13.8312 38.0904 13.4417C38.2018 13.2431 38.0856 12.9193 38.0713 12.6328L38.0705 12.6336Z" fill="#418C4D"/>
<path d="M16.8555 9.71398C17.1689 9.15596 17.4418 8.57103 17.8077 8.04942C18.087 7.65207 18.9955 7.66157 19.3718 8.07316C18.3949 8.42618 17.9382 9.44882 16.9955 9.82875C16.9485 9.78997 16.9024 9.75198 16.8555 9.71319V9.71398Z" fill="#418C4D"/>
<path d="M25.0184 19.9045C25.0049 19.6987 24.9595 19.489 24.9834 19.2871C25.0367 18.8233 25.1123 18.3611 25.1982 17.902C25.2626 17.5577 25.4337 17.2688 25.7694 17.1176C26.0184 17.0052 26.2245 17.1445 26.1385 17.3891C25.8386 18.2415 25.5021 19.0821 25.1791 19.9267C25.1258 19.9196 25.0725 19.9116 25.0184 19.9045Z" fill="#418C4D"/>
<path d="M18.5978 7.22338C18.5541 7.19409 18.4212 7.14423 18.3584 7.04846C18.3249 6.9978 18.3942 6.85532 18.4491 6.77696C18.6082 6.55217 18.7569 6.30838 18.9614 6.13108C19.1293 5.98544 19.3639 5.88334 19.5843 5.8398C19.8031 5.79627 19.9344 5.93874 19.9216 6.18807C19.8954 6.69306 19.2502 7.23921 18.5978 7.22338Z" fill="#418C4D"/>
<path d="M36.5258 16.9312C36.3484 16.8885 36.2172 16.8687 36.0939 16.8244C35.9268 16.7642 35.6969 16.7009 35.8019 16.4658C35.8934 16.2608 36.0644 16.0724 36.346 16.1912C36.4654 16.2418 36.5919 16.302 36.681 16.3914C36.7741 16.4856 36.8258 16.6202 36.895 16.7373C36.7645 16.8062 36.6332 16.875 36.525 16.932L36.5258 16.9312Z" fill="#418C4D"/>
<path d="M30.2625 15.8624C30.0357 15.807 29.8973 15.7983 29.7851 15.7389C29.6682 15.6772 29.482 15.5513 29.4948 15.4825C29.517 15.355 29.6403 15.2133 29.7597 15.1397C29.9991 14.9933 30.5894 15.2965 30.5719 15.5695C30.5648 15.6827 30.3508 15.7832 30.2625 15.8624Z" fill="#418C4D"/>
<path d="M36.0091 15.7532C35.6265 15.7619 35.3703 15.5379 35.3854 15.2506C35.3902 15.1619 35.5079 15.0796 35.5739 14.9941C35.78 15.1952 35.986 15.3962 36.1921 15.5973C36.1141 15.6646 36.0354 15.731 36.0091 15.7532Z" fill="#418C4D"/>
</g>
<defs>
<clipPath id="clip0_2741_2513">
<rect width="55" height="28" fill="white"/>
</clipPath>
</defs>
</svg>
