<svg width="46" height="45" viewBox="0 0 46 45" fill="none" xmlns="http://www.w3.org/2000/svg">
<g clip-path="url(#clip0_2741_2570)">
<path d="M22.9992 0C16.2624 0 10.8008 5.46924 10.8008 12.2154C10.8008 18.9616 16.2624 24.4309 22.9992 24.4309C29.736 24.4309 35.1977 18.9616 35.1977 12.2154C35.1977 5.46924 29.736 0 22.9992 0ZM22.9992 21.6007C17.8235 21.6007 13.627 17.3984 13.627 12.2154C13.627 7.03248 17.8235 2.83018 22.9992 2.83018C28.175 2.83018 32.3714 7.03248 32.3714 12.2154C32.3714 17.3984 28.175 21.6007 22.9992 21.6007Z" fill="white"/>
<path d="M45.3995 16.2976C43.3175 9.8811 36.4357 6.36987 30.0281 8.45475C23.6205 10.5396 20.1141 17.431 22.1961 23.8476C24.2781 30.2641 31.1599 33.7753 37.5675 31.6905C43.9751 29.6056 47.4814 22.7142 45.3995 16.2976ZM24.8848 22.9729C23.2854 18.0436 25.9791 12.7488 30.9024 11.1472C35.8247 9.54559 41.1122 12.2431 42.7116 17.1731C44.311 22.1024 41.6172 27.3972 36.694 28.9988C31.7717 30.6005 26.4842 27.903 24.8848 22.9729Z" fill="white"/>
<path d="M36.8443 42.6656C42.2951 38.7004 43.5028 31.0611 39.5431 25.6027C35.5833 20.1443 27.9547 18.935 22.5039 22.9002C17.0531 26.8655 15.8455 34.5048 19.8052 39.9631C23.7649 45.4215 31.3935 46.6309 36.8443 42.6656ZM24.165 25.1904C28.3523 22.1441 34.214 23.073 37.2561 27.267C40.2982 31.4601 39.3705 37.3299 35.1824 40.3763C30.9943 43.4226 25.1335 42.4937 22.0914 38.2998C19.0493 34.1066 19.9769 28.2368 24.165 25.1904Z" fill="white"/>
<path d="M9.15627 42.6656C14.6071 46.6309 22.2357 45.4215 26.1954 39.9631C30.1551 34.5048 28.9475 26.8655 23.4967 22.9002C18.0459 18.935 10.4173 20.1443 6.45755 25.6027C2.49781 31.0611 3.70548 38.7004 9.15627 42.6656ZM21.8348 25.1904C26.022 28.2368 26.9505 34.1066 23.9084 38.2998C20.8663 42.4929 15.0046 43.4226 10.8173 40.3763C6.63007 37.3299 5.7016 31.4601 8.74371 27.267C11.7858 23.0738 17.6475 22.1441 21.8348 25.1904Z" fill="white"/>
<path d="M0.600393 16.2976C-1.48158 22.7142 2.02477 29.6056 8.43236 31.6905C14.84 33.7753 21.7218 30.2641 23.8038 23.8476C25.8857 17.431 22.3794 10.5396 15.9718 8.45475C9.56419 6.36987 2.68236 9.8811 0.600393 16.2976ZM21.1159 22.9729C19.5165 27.9021 14.229 30.6005 9.30665 28.9988C4.38427 27.3972 1.68972 22.1024 3.28912 17.1731C4.88851 12.2439 10.1759 9.54559 15.0983 11.1472C20.0207 12.7488 22.7153 18.0436 21.1159 22.9729Z" fill="white"/>
</g>
<defs>
<clipPath id="clip0_2741_2570">
<rect width="46" height="45" fill="white"/>
</clipPath>
</defs>
</svg>
