<svg width="38" height="34" viewBox="0 0 38 34" fill="none" xmlns="http://www.w3.org/2000/svg">
<g clip-path="url(#clip0_2741_2383)">
<path d="M37.7933 17.2133C37.6647 17.1113 37.5162 17.1239 37.3689 17.1239C31.2479 17.1239 25.1276 17.1239 19.0065 17.1239C12.8855 17.1239 6.77784 17.1239 0.663488 17.1239C0.5862 17.1239 0.508913 17.1204 0.432958 17.1274C0.13447 17.1547 -0.0467553 17.4132 0.0105438 17.7219C0.473601 20.2104 1.39172 22.4984 2.76157 24.588C4.27 26.8893 6.17353 28.7511 8.43418 30.2183C9.8087 31.1104 11.2698 31.8097 12.8109 32.3218C12.9568 32.37 13.0188 32.4336 13.0101 32.602C12.9955 32.8835 13.0055 33.1665 13.0061 33.4494C13.0075 33.8371 13.1627 33.9992 13.5338 33.9992C17.3255 33.9992 21.1173 33.9992 24.909 33.9992C25.2995 33.9992 25.4727 33.8239 25.4787 33.4152C25.4833 33.1127 25.4893 32.8095 25.476 32.5076C25.4687 32.3435 25.5213 32.2736 25.6692 32.2226C26.5967 31.9026 27.4928 31.5016 28.359 31.0322C30.8448 29.6859 32.9729 27.8821 34.6865 25.5556C36.3902 23.2418 37.4988 20.6492 37.9886 17.7688C38.0259 17.5473 37.9732 17.3566 37.794 17.2147L37.7933 17.2133Z" fill="white"/>
<path d="M18.7632 11.1138C19.3029 11.8718 19.6814 12.6962 19.7173 13.6624C19.7373 14.2066 19.666 14.7355 19.4761 15.242C19.4128 15.4117 19.4555 15.4481 19.6161 15.4439C19.9492 15.4341 20.283 15.4411 20.6168 15.4411C20.9759 15.4411 21.3357 15.439 21.6948 15.4425C21.7901 15.4432 21.8427 15.4201 21.87 15.3083C22.0786 14.463 22.1192 13.6128 21.958 12.7549C21.7101 11.4358 21.0952 10.3146 20.2277 9.34766C19.1037 8.09432 18.7193 6.61324 18.9565 4.94282C19.1284 3.73001 19.5674 2.6157 20.2057 1.58942C20.5395 1.05218 20.3909 0.473716 19.8419 0.189376C19.2143 -0.135485 18.516 0.0482534 18.1343 0.666537C17.3074 2.0058 16.7651 3.45894 16.5939 5.05251C16.4066 6.79418 16.7764 8.38844 17.7478 9.82342C18.057 10.2796 18.4448 10.6674 18.7632 11.1145V11.1138Z" fill="white"/>
<path d="M10.139 9.45919C10.4415 9.9636 10.8346 10.3891 11.1877 10.8495C12.2038 12.1747 12.6489 13.6265 12.0539 15.2976C12.0073 15.4282 12.0539 15.4436 12.1605 15.4422C12.5136 15.438 12.8661 15.4408 13.2192 15.4408C13.5657 15.4408 13.9121 15.4317 14.2586 15.445C14.3998 15.4506 14.4438 15.3926 14.4751 15.2634C14.7376 14.1819 14.7076 13.113 14.3792 12.0504C14.0587 11.0136 13.5084 10.1222 12.8108 9.32645C12.3451 8.7955 11.9706 8.20935 11.7434 7.524C11.365 6.38175 11.4236 5.2353 11.7241 4.09165C11.9606 3.19182 12.3197 2.34789 12.8148 1.56822C13.0686 1.1693 13.0406 0.716595 12.7315 0.409898C12.1219 -0.194413 11.1837 -0.125249 10.752 0.582459C9.72462 2.26615 9.09966 4.08048 9.15363 6.10928C9.18561 7.3221 9.52407 8.43361 10.1384 9.45919H10.139Z" fill="white"/>
<path d="M25.9877 10.8985C26.9784 12.2049 27.4075 13.6385 26.8265 15.2789C26.7825 15.4032 26.7998 15.4458 26.9324 15.4431C27.2849 15.4368 27.638 15.441 27.9911 15.441C28.3443 15.441 28.6841 15.4347 29.0305 15.4444C29.1584 15.4479 29.2097 15.4004 29.2391 15.274C29.4163 14.5076 29.4676 13.7363 29.351 12.9538C29.1678 11.7229 28.6374 10.6631 27.8925 9.71153C27.4988 9.20852 27.055 8.74673 26.7685 8.15709C26.1709 6.92821 26.1362 5.64553 26.4327 4.33281C26.6566 3.34216 27.0457 2.42487 27.5767 1.57324C27.8079 1.20227 27.8066 0.790783 27.5614 0.488279C27.0644 -0.126512 25.9903 -0.220127 25.5106 0.598661C24.6645 2.04342 24.0781 3.58039 23.9422 5.28783C23.8309 6.68229 24.1028 7.98383 24.7551 9.20223C25.0909 9.8289 25.5659 10.3424 25.9883 10.8992L25.9877 10.8985Z" fill="white"/>
</g>
<defs>
<clipPath id="clip0_2741_2383">
<rect width="38" height="34" fill="white"/>
</clipPath>
</defs>
</svg>
