<svg width="56" height="40" viewBox="0 0 56 40" fill="none" xmlns="http://www.w3.org/2000/svg">
<g clip-path="url(#clip0_2741_2393)">
<path d="M27.1478 21.5084C27.0455 21.682 26.9359 21.8512 26.8421 22.0297C25.4611 24.6408 24.0821 27.253 22.7016 29.8641C22.5427 30.1643 22.3567 30.4379 21.9902 30.4958C21.4387 30.5829 21.0133 30.2746 20.9232 29.7002C20.8173 29.0226 20.7309 28.3417 20.6356 27.6624C20.375 25.8036 20.1133 23.9453 19.8532 22.0865C19.5851 20.1714 19.3197 18.2558 19.049 16.3413C19.0331 16.2283 18.9823 16.1207 18.9213 15.9238C18.8254 16.0898 18.7677 16.1704 18.729 16.2602C17.6118 18.8215 16.4962 21.3834 15.3821 23.9464C15.1951 24.3764 14.8624 24.5408 14.418 24.5402C12.5379 24.5364 10.6573 24.5391 8.77722 24.5391C6.18623 24.5391 3.59471 24.5397 1.00373 24.5381C0.47504 24.5381 0.112163 24.2579 0.0183984 23.7896C-0.0886103 23.2568 0.283272 22.7447 0.819375 22.6933C0.949162 22.6809 1.08107 22.6857 1.21192 22.6857C5.32804 22.6857 9.44417 22.6825 13.5598 22.6917C13.867 22.6922 14.018 22.59 14.1446 22.298C15.5076 19.159 16.8871 16.0276 18.2618 12.8941C18.3842 12.6156 18.506 12.3365 18.6332 12.0607C18.8154 11.6659 19.0988 11.4928 19.5003 11.5236C19.8309 11.5491 20.1789 11.8254 20.26 12.1905C20.3548 12.6166 20.4089 13.0526 20.4703 13.4858C20.6441 14.7118 20.8131 15.9389 20.9831 17.1655C21.1886 18.6469 21.3931 20.1282 21.5992 21.609C21.81 23.1281 22.0209 24.6468 22.2349 26.1654C22.2471 26.2536 22.2842 26.3385 22.3318 26.5002C22.4388 26.3569 22.5135 26.279 22.5623 26.1876C23.1355 25.1157 23.7049 24.0421 24.2744 22.9681C25.1374 21.3407 25.9982 19.7117 26.8638 18.0855C27.0704 17.6977 27.4068 17.4965 27.7162 17.5538C28.2083 17.6458 28.4674 17.9043 28.5495 18.3927C28.9039 20.4965 29.2567 22.6003 29.6106 24.7036C29.9676 26.8258 30.3273 28.9474 30.6822 31.0696C30.8676 32.1778 31.0446 33.2875 31.2284 34.3962C31.2459 34.5028 31.2861 34.605 31.3163 34.7094C31.3492 34.7142 31.382 34.7186 31.4149 34.7234C31.5007 34.4638 31.5934 34.2059 31.6713 33.9436C32.3017 31.8078 32.9294 29.671 33.5577 27.5348C34.1484 25.5256 34.738 23.5164 35.3302 21.5078C36.1217 18.8232 36.9163 16.1401 37.7067 13.4555C38.5315 10.6524 39.3521 7.84765 40.1758 5.04401C40.5975 3.61028 41.0202 2.17709 41.4477 0.745527C41.5849 0.285825 41.8683 0.0289329 42.2381 0.00297324C42.6905 -0.0289355 42.9702 0.19767 43.1609 0.601667C44.6728 3.79741 46.1916 6.9899 47.7067 10.184C47.9472 10.6902 48.1946 11.1937 48.4155 11.7091C48.6062 12.1537 48.4409 12.6313 48.0431 12.8795C47.7236 13.0791 47.1896 12.9947 46.9385 12.6929C46.8554 12.5929 46.7929 12.4717 46.7362 12.3522C45.3927 9.51772 44.052 6.68217 42.7091 3.8477C42.6624 3.74927 42.5973 3.66058 42.5062 3.51023C42.441 3.63191 42.3912 3.69519 42.37 3.76766C41.8779 5.43827 41.3916 7.1105 40.8984 8.78057C40.3835 10.5242 39.8606 12.2651 39.3457 14.0082C38.9256 15.4316 38.5135 16.8583 38.095 18.2823C37.7162 19.57 37.3316 20.8556 36.9534 22.1433C36.4326 23.9145 35.9177 25.6873 35.3964 27.458C34.9769 28.882 34.5478 30.3033 34.1288 31.7278C33.3876 34.247 32.6502 36.7678 31.9128 39.288C31.7756 39.7569 31.4541 40.0251 31.0499 39.997C30.6229 39.9673 30.3035 39.6325 30.2256 39.1658C29.9342 37.4178 29.6333 35.672 29.3414 33.9241C29.0495 32.1767 28.7667 30.4282 28.4753 28.6808C28.1077 26.4726 27.7363 24.2649 27.3644 22.0573C27.3348 21.8815 27.2866 21.7085 27.2468 21.5343C27.214 21.5251 27.1806 21.5165 27.1478 21.5073V21.5084Z" fill="white"/>
<path d="M42.0104 21.2096C42.0486 19.6456 42.5825 18.3259 43.9313 17.4871C45.0273 16.8051 46.2447 16.6699 47.3905 17.5731C47.8625 17.9452 48.3001 18.3638 48.743 18.7732C49.0073 19.0177 49.0094 19.0106 49.287 18.77C49.8125 18.3141 50.3317 17.8435 50.8969 17.4428C52.1847 16.5293 53.7311 17.0004 54.6205 17.83C55.743 18.8771 56.1107 20.2107 55.9729 21.7191C55.8739 22.8045 55.3812 23.6915 54.6369 24.4503C52.8506 26.2723 51.0654 28.0965 49.2796 29.9196C49.0942 30.1089 48.9123 30.1129 48.734 29.9315C46.9349 28.0954 45.1301 26.2658 43.3401 24.4205C42.484 23.5379 42.0009 22.4784 42.0099 21.2102L42.0104 21.2096Z" fill="white"/>
</g>
<defs>
<clipPath id="clip0_2741_2393">
<rect width="56" height="40" fill="white"/>
</clipPath>
</defs>
</svg>
