<svg width="45" height="36" viewBox="0 0 45 36" fill="none" xmlns="http://www.w3.org/2000/svg">
<g clip-path="url(#clip0_2741_2401)">
<path d="M33.6611 2.35938C33.6611 2.5717 33.6611 2.71036 33.6611 2.84902C33.6611 11.3413 33.6589 19.8329 33.67 28.3252C33.67 28.6632 33.5497 28.7838 33.2403 28.8741C28.6921 30.2014 24.1467 31.5411 19.6007 32.8757C19.4552 32.9183 19.3061 32.9465 19.1031 32.9942C19.1031 32.771 19.1031 32.6071 19.1031 32.4431C19.1031 25.2833 19.1053 18.1235 19.0957 10.9636C19.0957 10.6516 19.2013 10.4891 19.4729 10.336C24.101 7.73323 28.7231 5.11961 33.3474 2.50959C33.4234 2.46698 33.5054 2.43376 33.6611 2.35938Z" fill="white"/>
<path d="M3.07844 2.32422C3.79896 2.7272 4.43236 3.07747 5.06282 3.43351C9.00722 5.66076 12.9465 7.89668 16.8997 10.1088C17.3648 10.3688 17.573 10.6302 17.5708 11.1964C17.5449 18.2551 17.5553 25.3139 17.556 32.3726C17.556 32.5604 17.556 32.7489 17.556 32.9829C17.3308 32.9273 17.167 32.8933 17.0068 32.8464C12.5249 31.524 8.04456 30.1959 3.55903 28.8858C3.19582 28.7797 3.06958 28.6345 3.07032 28.2583C3.08139 19.7905 3.07844 11.3221 3.07844 2.85431V2.32494V2.32422Z" fill="white"/>
<path d="M35.1903 2.25926C35.7396 2.68463 36.2091 3.02695 36.6461 3.40466C36.7472 3.49204 36.7716 3.7022 36.7723 3.85675C36.7782 9.01901 36.7768 14.182 36.7768 19.3442C36.7768 22.9184 36.7723 26.4925 36.7849 30.0667C36.7864 30.4162 36.6904 30.5621 36.3294 30.6726C30.8258 32.3589 25.3289 34.0647 19.8305 35.7684C18.9203 36.0508 17.9827 36.0753 17.085 35.8356C11.546 34.3587 6.01811 32.8421 0.482069 31.3543C0.11295 31.2554 0 31.1102 0 30.7354C0.0118118 21.8322 0.01255 12.929 0 4.02575C0 3.62493 0.0996621 3.35627 0.445157 3.13311C0.814276 2.89479 1.14648 2.60158 1.59164 2.25781C1.59164 2.52719 1.59164 2.70774 1.59164 2.88829C1.59164 11.7785 1.5909 20.6695 1.59312 29.5597C1.59312 30.2516 1.49124 30.0984 2.16525 30.2833C7.19043 31.6584 12.2134 33.0414 17.246 34.3912C18.0137 34.597 18.8302 34.5919 19.6076 34.3471C24.6748 32.7525 29.7384 31.1464 34.8072 29.5561C35.1172 29.4586 35.1977 29.3113 35.1977 29.0087C35.1896 20.2845 35.191 11.5611 35.191 2.83701C35.191 2.68463 35.191 2.53297 35.191 2.25998L35.1903 2.25926Z" fill="white"/>
<path d="M43.2255 33.9825C42.9686 33.1122 42.7116 32.2427 42.4555 31.3725C42.2133 30.5492 41.9557 29.7302 41.7401 28.9011C41.6353 28.4974 41.56 28.0735 41.5593 27.6582C41.5482 20.1792 41.5511 12.7001 41.5511 5.22033C41.5511 5.09466 41.563 4.96973 41.5703 4.81445H44.9677C44.9758 4.94228 44.9891 5.05422 44.9891 5.16544C44.9906 12.7723 44.995 20.3799 44.981 27.9868C44.9802 28.3855 44.8392 28.7892 44.727 29.1806C44.287 30.721 43.8338 32.2572 43.3834 33.7947C43.3657 33.8539 43.3355 33.9095 43.3104 33.9666C43.2816 33.9716 43.2535 33.976 43.2247 33.981L43.2255 33.9825Z" fill="white"/>
<path d="M41.5723 3.50868C41.5723 2.76987 41.5257 2.08956 41.5841 1.41792C41.6557 0.596784 42.4471 -0.0141931 43.3115 0.000250826C44.1679 0.0139725 44.9157 0.66106 44.9748 1.49086C45.0161 2.07656 44.9969 2.66732 44.9822 3.25519C44.98 3.34113 44.8537 3.4964 44.7821 3.49784C43.7264 3.51373 42.6708 3.50868 41.5715 3.50868H41.5723Z" fill="white"/>
</g>
<defs>
<clipPath id="clip0_2741_2401">
<rect width="45" height="36" fill="white"/>
</clipPath>
</defs>
</svg>
