<svg width="31" height="42" viewBox="0 0 31 42" fill="none" xmlns="http://www.w3.org/2000/svg">
<g clip-path="url(#clip0_2741_2412)">
<path d="M8.15531 13.9206C6.9622 13.8958 6.92554 14.5147 6.96089 15.3687C6.99623 16.2161 6.77043 17.1124 8.18934 17.0805C11.3871 17.0093 14.5875 17.0602 17.7873 17.0478C18.0733 17.0465 18.3593 16.9466 18.6774 16.8866V13.9461C15.0601 13.9461 11.6064 13.9925 8.15531 13.9206Z" fill="white"/>
<path d="M8.76399 18.8445C6.9308 18.8445 6.88891 18.8491 7.00803 20.7071C7.03552 21.1367 7.45176 21.8985 7.70177 21.9038C11.3243 21.9821 14.9495 21.9573 18.6584 21.9573V18.9189C18.1237 18.8922 17.6603 18.851 17.1963 18.8497C14.3853 18.8425 11.5743 18.8438 8.76334 18.8438L8.76399 18.8445Z" fill="white"/>
<path d="M30.9998 0H26.9263V0.00848709H20.8639V2.26409C20.8606 2.37769 20.8574 2.49651 20.8521 2.62186C20.8469 2.75569 20.8502 2.87647 20.8639 2.98484V4.07184H24.1186C22.8633 5.36841 21.754 6.51417 20.6532 7.65079C13.147 2.51087 4.5144 5.68961 1.31989 12.2652C-0.286195 15.5712 -0.433453 19.0065 0.91608 22.4412C2.07712 25.3953 3.96071 27.4858 6.39799 28.8652C6.39864 28.8652 6.3993 28.8639 6.39995 28.8633C7.78417 29.6859 9.33921 30.2526 11.0003 30.4961V33.9562H7.01058V38.0196H11.0003V41.9993H15.0737V38.0196H19.0634V33.9562H15.0737V30.436C17.1511 30.0678 19.0517 29.193 20.6453 27.9441C22.8823 26.2695 24.4269 23.9369 25.2011 20.9142C26.1331 17.2745 25.4813 13.8105 23.3941 10.6278C24.5755 9.51599 25.7195 8.44009 26.9257 7.30543V10.1734H29.6032C29.6431 10.176 29.683 10.1786 29.7229 10.1819C29.931 10.2008 30.1084 10.1982 30.2589 10.1734H30.9992V0H30.9998ZM13.3531 27.0392H12.2739C7.43926 26.7676 3.64591 22.8205 3.6086 17.8849C3.56999 12.7698 7.65589 8.6379 12.7746 8.6157C17.8919 8.59351 22.0335 12.6882 22.0538 17.7883C22.0734 22.7369 18.2427 26.7585 13.3525 27.0392H13.3531Z" fill="white"/>
</g>
<defs>
<clipPath id="clip0_2741_2412">
<rect width="31" height="42" fill="white"/>
</clipPath>
</defs>
</svg>
