<svg width="28" height="39" viewBox="0 0 28 39" fill="none" xmlns="http://www.w3.org/2000/svg">
<g clip-path="url(#clip0_2741_2420)">
<rect width="28" height="39" fill="#03ADD1"/>
<path d="M19.5551 33.6235C19.0989 34.0694 18.6365 34.509 18.1878 34.9617C16.9188 36.2425 15.6463 37.5198 14.3957 38.8193C14.1461 39.0782 14.0118 39.0443 13.7881 38.8124C12.5852 37.5648 11.3796 36.3208 10.1542 35.0961C9.73483 34.6765 9.31955 34.2528 8.90427 33.8284C8.83607 33.7585 8.71333 33.7004 8.74879 33.5958C8.7938 33.4636 8.93972 33.5134 9.04201 33.5127C9.57049 33.5086 10.0997 33.5065 10.6281 33.521C10.8654 33.528 10.9582 33.4553 10.9364 33.2012C10.8211 31.8844 10.7134 30.5669 10.6131 29.2481C10.5913 28.9615 10.4679 28.8729 10.1904 28.8742C8.51762 28.8839 6.84489 28.8708 5.17216 28.8846C4.79438 28.8874 4.61913 28.8078 4.55435 28.3689C4.23998 26.2518 3.88062 24.1423 3.53216 22.0307C3.25394 20.3484 2.96208 18.6682 2.68863 16.9852C2.46906 15.6359 2.27676 14.2817 2.05514 12.9324C1.83556 11.5948 1.55939 10.2663 1.37118 8.92459C1.14001 7.27204 0.832469 5.63334 0.589026 3.98356C0.430823 2.91394 0.241933 1.84778 0.0475881 0.783697C-0.0737923 0.11977 0.00530949 0 0.660627 0C9.57731 0.000692312 18.4947 0.00138462 27.4114 0.00207694C28.006 0.00207694 28.0558 0.0796158 27.9637 0.682619C27.7871 1.83947 27.6371 3.00048 27.4605 4.15733C27.2402 5.59596 27.0002 7.03112 26.7765 8.46905C26.4792 10.375 26.1853 12.2809 25.8982 14.1889C25.6759 15.6656 25.4741 17.1458 25.2483 18.6225C24.9838 20.3567 24.6967 22.0875 24.4307 23.8218C24.2043 25.2978 23.9882 26.7752 23.7788 28.2532C23.7024 28.7932 23.6254 28.8791 23.0785 28.8791C21.3935 28.8798 19.7085 28.8874 18.0235 28.8749C17.7057 28.8729 17.6075 28.9719 17.5871 29.2979C17.5073 30.5545 17.4016 31.809 17.2857 33.0627C17.2529 33.4193 17.3395 33.5439 17.7139 33.5204C18.3017 33.4837 18.8929 33.5107 19.4828 33.5107C19.5073 33.548 19.5312 33.5854 19.5557 33.6228L19.5551 33.6235Z" fill="white"/>
<path d="M26.7394 1.60704C26.7046 2.5195 26.4612 3.40151 26.3589 4.30498C26.3043 4.78682 26.2048 5.26244 26.1372 5.74291C26.1079 5.94991 26.0827 6.03437 25.8195 5.96445C25.0728 5.76506 24.3275 5.87375 23.6176 6.15552C22.4426 6.62145 21.267 7.08045 20.0307 7.35599C18.7937 7.63153 17.554 7.64538 16.2986 7.47923C14.5229 7.24453 12.9218 6.47468 11.2668 5.86406C10.5508 5.5996 9.81363 5.43067 9.04307 5.39606C8.1184 5.35521 7.29328 5.70275 6.44771 5.99075C5.19163 6.41791 3.93214 6.82845 2.584 6.8333C2.35078 6.83399 2.23759 6.7883 2.1919 6.53007C2.0221 5.56291 1.82707 4.5999 1.63955 3.6362C1.51612 3.00204 1.38861 2.36858 1.26654 1.73373C1.23858 1.58765 1.22426 1.4395 1.20312 1.29203C1.35792 1.2415 1.51749 1.24219 1.67705 1.24219C9.91046 1.24219 18.1446 1.24219 26.378 1.24288C26.7823 1.24288 26.7823 1.24426 26.7387 1.60704H26.7394Z" fill="#00AED1"/>
<path d="M14.0423 23.9124C13.0924 23.9802 12.1173 23.7123 11.2376 23.0954C9.89833 22.1553 9.21096 20.2251 9.53078 18.6065C9.80559 17.217 10.5502 16.0872 11.2792 14.9386C12.1152 13.6218 12.969 12.3161 13.8166 11.007C14.0791 10.6013 14.0948 10.6158 14.3594 11.0305C15.2397 12.4068 16.133 13.7742 17.0243 15.1435C17.6462 16.0989 18.2586 17.055 18.5511 18.1842C19.1867 20.6391 17.9674 23.137 15.4675 23.7794C15.0297 23.8916 14.5987 23.9103 14.0423 23.9137V23.9124Z" fill="#00AED1"/>
<path d="M26.7387 1.60769C26.7564 1.37576 26.6685 1.26222 26.4216 1.27607C26.1523 1.2913 25.8808 1.27953 25.6108 1.27953C17.6454 1.27953 9.67998 1.27953 1.71456 1.27953C1.54408 1.27953 1.3736 1.28784 1.20312 1.29199C1.28768 1.12999 1.44111 1.19091 1.56386 1.19091C9.85796 1.18814 18.1521 1.18884 26.4462 1.18953C26.8655 1.18953 26.8737 1.20476 26.7387 1.60769Z" fill="#00AED1"/>
</g>
<defs>
<clipPath id="clip0_2741_2420">
<rect width="28" height="39" fill="white"/>
</clipPath>
</defs>
</svg>
