<svg width="47" height="47" viewBox="0 0 47 47" fill="none" xmlns="http://www.w3.org/2000/svg">
<g clip-path="url(#clip0_2741_2430)">
<path d="M23.5215 10.1055C31.0566 10.1091 37.0064 16.0699 37.0174 23.6247C37.0276 31.1241 30.988 37.1754 23.5018 37.1652C15.9893 37.155 10.0176 31.1518 10.0176 23.6079C10.0176 16.0604 15.9776 10.1018 23.5215 10.1055Z" fill="white"/>
<path d="M24.6405 42.9852C24.6435 43.9145 24.6559 44.8438 24.6391 45.7723C24.6252 46.5336 24.1956 47.0143 23.4556 47.0011C22.8448 46.9902 22.3685 46.6095 22.3633 45.9155C22.3487 43.8436 22.3458 41.7717 22.3655 39.6998C22.3721 39.035 22.8148 38.59 23.4241 38.5586C24.1664 38.5206 24.6033 39.0306 24.6281 39.7692C24.6647 40.8402 24.6376 41.9127 24.6405 42.9852Z" fill="white"/>
<path d="M14.7458 40.945C14.2834 41.7508 13.8304 42.5625 13.3512 43.3581C12.9581 44.0105 12.3466 44.2121 11.7118 43.83C11.1879 43.5152 10.9658 42.9475 11.3092 42.344C12.3327 40.5424 13.3658 38.7467 14.4193 36.9619C14.7575 36.3891 15.3632 36.2255 15.9067 36.5031C16.5679 36.8414 16.6913 37.5011 16.3443 38.1542C15.841 39.0996 15.2806 40.0157 14.7473 40.945H14.7458Z" fill="white"/>
<path d="M7.19829 34.2311C6.39466 34.698 5.59687 35.1743 4.78375 35.6236C4.11746 35.9926 3.48698 35.8603 3.12827 35.213C2.83238 34.679 2.92371 34.0763 3.52205 33.7249C5.30903 32.6765 7.10186 31.6376 8.90637 30.6192C9.48572 30.2919 10.0921 30.4534 10.4238 30.9655C10.8278 31.5894 10.6042 32.2228 9.97739 32.6137C9.06856 33.1806 8.12539 33.6934 7.19829 34.2319V34.2311Z" fill="white"/>
<path d="M4.01623 24.6405C3.08694 24.6435 2.15765 24.6559 1.22909 24.6391C0.46783 24.6252 -0.0128872 24.1956 0.000263123 23.4556C0.0112217 22.8448 0.391851 22.3685 1.0859 22.3633C3.1578 22.3487 5.22971 22.3458 7.30162 22.3655C7.96644 22.3721 8.41136 22.8148 8.44277 23.4241C8.48076 24.1664 7.97082 24.6033 7.23221 24.6281C6.16119 24.6647 5.08871 24.6376 4.01623 24.6405Z" fill="white"/>
<path d="M6.05607 14.7458C5.25025 14.2834 4.43858 13.8304 3.64299 13.3512C2.99059 12.9581 2.78895 12.3466 3.17104 11.7118C3.48591 11.1879 4.05357 10.9658 4.65702 11.3092C6.45862 12.3327 8.25437 13.3658 10.0392 14.4193C10.6119 14.7575 10.7756 15.3632 10.498 15.9067C10.1597 16.5679 9.5 16.6913 8.84686 16.3443C7.9015 15.841 6.98536 15.2806 6.05607 14.7473V14.7458Z" fill="white"/>
<path d="M12.7713 7.19829C12.3044 6.39466 11.8281 5.59687 11.3788 4.78375C11.0099 4.11746 11.1421 3.48698 11.7894 3.12827C12.3234 2.83238 12.9261 2.92371 13.2776 3.52205C14.3259 5.30903 15.3648 7.10186 16.3832 8.90637C16.7105 9.48572 16.5491 10.0921 16.0369 10.4238C15.413 10.8278 14.7796 10.6042 14.3888 9.97739C13.8218 9.06856 13.309 8.12539 12.7705 7.19829H12.7713Z" fill="white"/>
<path d="M22.3587 4.01623C22.3558 3.08694 22.3434 2.15765 22.3602 1.22909C22.3741 0.46783 22.8036 -0.0128872 23.5437 0.000263123C24.1545 0.0112217 24.6308 0.391851 24.6359 1.0859C24.6505 3.1578 24.6535 5.22971 24.6337 7.30162C24.6272 7.96644 24.1844 8.41136 23.5751 8.44277C22.8329 8.48076 22.396 7.97082 22.3711 7.23221C22.3346 6.16119 22.3616 5.08871 22.3587 4.01623Z" fill="white"/>
<path d="M32.254 6.05607C32.7165 5.25025 33.1694 4.43858 33.6487 3.64299C34.0417 2.99059 34.6532 2.78895 35.2881 3.17104C35.8119 3.48591 36.034 4.05357 35.6906 4.65702C34.6671 6.45862 33.6341 8.25437 32.5806 10.0392C32.2423 10.6119 31.6367 10.7756 31.0931 10.498C30.432 10.1597 30.3085 9.5 30.6555 8.84686C31.1589 7.9015 31.7192 6.98536 32.2526 6.05607H32.254Z" fill="white"/>
<path d="M39.8038 12.7713C40.6074 12.3044 41.4052 11.8281 42.2183 11.3788C42.8846 11.0099 43.5151 11.1421 43.8738 11.7894C44.1697 12.3234 44.0783 12.9261 43.48 13.2776C41.693 14.3259 39.9002 15.3648 38.0957 16.3832C37.5163 16.7105 36.91 16.5491 36.5783 16.0369C36.1743 15.413 36.3978 14.7796 37.0247 14.3888C37.9335 13.8218 38.8767 13.309 39.8038 12.7705V12.7713Z" fill="white"/>
<path d="M42.9852 22.3587C43.9145 22.3558 44.8438 22.3434 45.7723 22.3602C46.5336 22.3741 47.0143 22.8036 47.0011 23.5437C46.9902 24.1545 46.6095 24.6308 45.9155 24.6359C43.8436 24.6505 41.7717 24.6535 39.6998 24.6337C39.035 24.6272 38.59 24.1844 38.5586 23.5751C38.5206 22.8329 39.0306 22.396 39.7692 22.3711C40.8402 22.3346 41.9127 22.3616 42.9852 22.3587Z" fill="white"/>
<path d="M40.945 32.254C41.7508 32.7165 42.5625 33.1694 43.3581 33.6487C44.0105 34.0417 44.2121 34.6532 43.83 35.2881C43.5152 35.8119 42.9475 36.034 42.344 35.6906C40.5424 34.6671 38.7467 33.6341 36.9619 32.5806C36.3891 32.2423 36.2255 31.6367 36.5031 31.0931C36.8414 30.432 37.5011 30.3085 38.1542 30.6555C39.0996 31.1589 40.0157 31.7192 40.945 32.2526V32.254Z" fill="white"/>
<path d="M34.2311 39.8038C34.698 40.6074 35.1743 41.4052 35.6236 42.2183C35.9926 42.8846 35.8603 43.5151 35.213 43.8738C34.679 44.1697 34.0763 44.0783 33.7249 43.48C32.6765 41.693 31.6376 39.9002 30.6192 38.0957C30.2919 37.5163 30.4534 36.91 30.9655 36.5783C31.5894 36.1743 32.2228 36.3978 32.6137 37.0247C33.1806 37.9335 33.6934 38.8767 34.2319 39.8038H34.2311Z" fill="white"/>
<path d="M22.4388 17.5764C22.4366 16.7998 22.4242 16.024 22.4403 15.2474C22.4534 14.611 22.8567 14.21 23.5522 14.2209C24.1264 14.2297 24.5735 14.5482 24.5779 15.1276C24.5918 16.8583 24.5947 18.5898 24.5757 20.3205C24.5699 20.8765 24.1535 21.2476 23.5814 21.2739C22.8844 21.3053 22.4739 20.8794 22.4498 20.262C22.4154 19.3678 22.441 18.4714 22.4381 17.5757L22.4388 17.5764Z" fill="#EFB822"/>
<path d="M25.6332 16.8457V19.3998C27.1214 20.1691 28.1383 21.7216 28.1383 23.5122C28.1383 26.0685 26.0664 28.1404 23.5101 28.1404C20.9539 28.1404 18.882 26.0685 18.882 23.5122C18.882 21.7778 19.8361 20.2677 21.2483 19.475V16.8925C18.4955 17.8327 16.5156 20.4416 16.5156 23.5129C16.5156 27.3755 19.6469 30.5074 23.5101 30.5074C27.3734 30.5074 30.5047 27.3762 30.5047 23.5129C30.5047 20.3904 28.4583 17.745 25.6332 16.8464V16.8457Z" fill="#EFB822"/>
</g>
<defs>
<clipPath id="clip0_2741_2430">
<rect width="47" height="47" fill="white"/>
</clipPath>
</defs>
</svg>
