<svg width="34" height="36" viewBox="0 0 34 36" fill="none" xmlns="http://www.w3.org/2000/svg">
<g clip-path="url(#clip0_2741_2464)">
<path d="M31.3692 22.1097C31.3692 17.7896 31.3692 13.4695 31.3692 9.14935C31.3692 9.01986 31.3953 8.88334 31.3629 8.76231C31.3214 8.60608 31.2651 8.37948 31.1553 8.33656C31.0378 8.29082 30.8204 8.38652 30.7001 8.48504C30.375 8.75386 30.0767 9.05575 29.7699 9.3478C27.6871 11.3309 25.6072 13.3168 23.5203 15.2963C23.1804 15.6186 23.0397 15.9944 23.0404 16.4588C23.046 22.7212 23.0439 28.9836 23.0446 35.246C23.0446 35.861 23.1804 35.9996 23.7869 35.9996C26.047 35.9996 28.3063 35.9996 30.5664 35.9996C31.2763 35.9996 31.3692 35.9089 31.3692 35.2108C31.3692 30.8435 31.3692 26.4762 31.3692 22.109V22.1097ZM21.1526 27.1511C21.1526 24.4439 21.1526 21.7374 21.1526 19.0302C21.1526 18.9127 21.1617 18.7924 21.1399 18.6784C21.0737 18.3343 20.8401 18.2385 20.5481 18.4384C20.4137 18.5306 20.2885 18.6397 20.1738 18.7558C19.181 19.7593 18.1924 20.7663 17.201 21.7705C16.8281 22.1484 16.7894 22.1371 16.4249 21.7628C15.4764 20.7867 14.5258 19.8121 13.5583 18.855C13.4274 18.7255 13.1938 18.7009 13.0081 18.627C12.9468 18.805 12.8336 18.9824 12.8329 19.1604C12.8237 24.5509 12.8251 29.9406 12.8272 35.3311C12.8272 35.8666 12.9637 35.9982 13.4999 35.9982C15.8184 35.9996 18.1361 35.9989 20.4546 35.9982C20.983 35.9982 21.1533 35.8272 21.1533 35.3065C21.1533 32.588 21.1533 29.8689 21.1533 27.1504L21.1526 27.1511ZM10.9394 13.2112C11.0717 13.3343 11.1582 13.4089 11.2391 13.4899C12.9581 15.2076 14.6757 16.9268 16.3939 18.6453C16.7682 19.0197 16.8914 19.0218 17.2608 18.6516C19.7741 16.138 22.2875 13.6243 24.8009 11.1099C26.79 9.1205 28.7827 7.13461 30.762 5.13606C31.0047 4.89116 31.1532 4.88976 31.3763 5.14309C31.6549 5.45977 31.9617 5.75322 32.272 6.04033C32.4936 6.24511 32.7617 6.148 32.8236 5.85948C33.2113 4.06007 33.5983 2.26067 33.9853 0.461271C34.0543 0.139673 33.8833 -0.0468119 33.5575 0.0101891C33.3732 0.04256 33.1944 0.101672 33.0115 0.142488C32.2452 0.314194 31.4776 0.481679 30.7113 0.654089C29.8993 0.837055 29.0874 1.01791 28.2789 1.21425C28.1459 1.24662 27.9475 1.33318 27.9278 1.42607C27.9003 1.55344 27.9806 1.74133 28.0763 1.849C28.3408 2.14737 28.6244 2.43097 28.9241 2.69416C29.1739 2.91302 29.1444 3.06572 28.9199 3.29021C24.9803 7.21906 21.0463 11.1535 17.118 15.0936C16.9048 15.3076 16.788 15.3202 16.5642 15.0936C14.8452 13.3533 13.1115 11.6285 11.3813 9.89951C11.0309 9.54906 10.8831 9.54765 10.5341 9.89599C9.57788 10.8516 8.62376 11.8087 7.66823 12.7643C5.18372 15.2492 2.69851 17.7326 0.213997 20.2181C-0.0702681 20.5024 -0.0702681 20.6438 0.207665 20.9218C0.589735 21.3046 0.972508 21.686 1.35669 22.0661C1.70287 22.4088 1.78309 22.4081 2.12927 22.0611C4.53005 19.6608 6.93153 17.2618 9.3295 14.8593C9.86636 14.3217 10.3913 13.7714 10.938 13.2112H10.9394ZM10.7093 26.5797C10.7093 23.6382 10.7128 20.6959 10.7002 17.7544C10.6995 17.5693 10.5707 17.3849 10.501 17.2006C10.3104 17.2822 10.0817 17.3216 9.93462 17.4532C9.2535 18.064 8.59069 18.6953 7.92928 19.3279C6.2075 20.9739 4.49135 22.6255 2.77028 24.2722C2.50642 24.5248 2.40791 24.8211 2.40861 25.1863C2.41635 28.5635 2.41354 31.9406 2.41354 35.3177C2.41354 35.8948 2.51627 35.9996 3.08902 35.9996C5.39481 36.0003 7.7013 36.0003 10.0071 35.9996C10.5974 35.9996 10.7086 35.8877 10.7086 35.2987C10.7086 32.3924 10.7086 29.486 10.7086 26.5797H10.7093Z" fill="white"/>
<path d="M31.3679 22.1087C31.3679 26.476 31.3679 30.8432 31.3679 35.2105C31.3679 35.9086 31.275 35.9994 30.5651 35.9994C28.305 35.9994 26.0457 35.9994 23.7856 35.9994C23.1791 35.9994 23.0433 35.8607 23.0433 35.2457C23.0433 28.9833 23.0447 22.721 23.0391 16.4586C23.0391 15.9941 23.1791 15.6183 23.5189 15.296C25.6059 13.3172 27.6858 11.3306 29.7686 9.34753C30.0746 9.05619 30.373 8.75359 30.6988 8.48478C30.8184 8.38555 31.0365 8.28985 31.154 8.33629C31.2638 8.37922 31.3201 8.60581 31.3616 8.76204C31.3939 8.88308 31.3679 9.0196 31.3679 9.14908C31.3679 13.4692 31.3679 17.7893 31.3679 22.1094V22.1087Z" fill="white"/>
<path d="M21.1518 27.1512C21.1518 29.8697 21.1518 32.5888 21.1518 35.3073C21.1518 35.8287 20.9815 35.999 20.4531 35.999C18.1347 36.0004 15.8169 36.0004 13.4985 35.999C12.963 35.999 12.8258 35.8667 12.8258 35.3319C12.8237 29.9414 12.8223 24.5517 12.8314 19.1612C12.8314 18.9832 12.9454 18.8051 13.0066 18.6278C13.1924 18.701 13.4267 18.7263 13.5569 18.8558C14.5243 19.8128 15.4749 20.7875 16.4234 21.7635C16.7879 22.1379 16.8266 22.1492 17.1995 21.7713C18.1909 20.7671 19.1795 19.7594 20.1724 18.7566C20.2871 18.6405 20.4123 18.5314 20.5467 18.4392C20.8387 18.2393 21.0723 18.335 21.1384 18.6792C21.1603 18.7932 21.1511 18.9135 21.1511 19.031C21.1511 21.7382 21.1511 24.4447 21.1511 27.1519L21.1518 27.1512Z" fill="white"/>
<path d="M10.938 13.2112C10.3913 13.7721 9.86636 14.3217 9.3295 14.8593C6.93153 17.2618 4.53005 19.6608 2.12927 22.0611C1.78309 22.4074 1.70287 22.4081 1.35669 22.0661C0.972508 21.686 0.589031 21.3039 0.207665 20.9218C-0.0702681 20.6431 -0.0702681 20.5024 0.213997 20.2181C2.69851 17.7333 5.18372 15.2492 7.66823 12.7643C8.62376 11.8087 9.57788 10.8516 10.5341 9.89599C10.8831 9.54765 11.0309 9.54906 11.3813 9.89951C13.1108 11.6285 14.8452 13.3533 16.5642 15.0936C16.788 15.3202 16.9048 15.3076 17.118 15.0936C21.0463 11.1535 24.9803 7.21906 28.9199 3.29021C29.1451 3.06572 29.1739 2.91302 28.9241 2.69416C28.6244 2.43097 28.3408 2.14737 28.0762 1.849C27.9806 1.74133 27.901 1.55273 27.9278 1.42607C27.9475 1.33318 28.1459 1.24662 28.2789 1.21425C29.0874 1.01861 29.8993 0.837055 30.7113 0.654089C31.4776 0.481679 32.2452 0.314194 33.0115 0.142488C33.1944 0.101672 33.3732 0.0418563 33.5575 0.0101891C33.8833 -0.0468119 34.0543 0.139673 33.9853 0.461271C33.5983 2.26067 33.2113 4.06007 32.8236 5.85948C32.7617 6.148 32.4936 6.24511 32.272 6.04033C31.9617 5.75392 31.6549 5.45977 31.3763 5.14309C31.1532 4.89046 31.0047 4.89116 30.762 5.13606C28.7827 7.13461 26.7893 9.1205 24.8009 11.1099C22.2875 13.6236 19.7749 16.138 17.2608 18.6516C16.8907 19.0211 16.7675 19.0197 16.3939 18.6453C14.6757 16.9268 12.9581 15.2076 11.2391 13.4899C11.1582 13.4089 11.0717 13.3343 10.9394 13.2112H10.938Z" fill="white"/>
<path d="M10.7082 26.5803C10.7082 29.4866 10.7082 32.393 10.7082 35.2993C10.7082 35.8876 10.597 35.9995 10.0067 36.0002C7.7009 36.0009 5.3944 36.0009 3.08862 36.0002C2.51586 36.0002 2.41313 35.8954 2.41313 35.3183C2.41313 31.9412 2.41595 28.5641 2.40821 25.1869C2.4075 24.8217 2.50601 24.5254 2.76987 24.2728C4.49095 22.6261 6.20709 20.9745 7.92887 19.3285C8.59028 18.6959 9.2531 18.0646 9.93421 17.4538C10.0806 17.3222 10.3092 17.2828 10.5006 17.2012C10.5703 17.3855 10.6991 17.5699 10.6998 17.755C10.7124 20.6965 10.7089 23.6381 10.7089 26.5803H10.7082Z" fill="white"/>
</g>
<defs>
<clipPath id="clip0_2741_2464">
<rect width="34" height="36" fill="white"/>
</clipPath>
</defs>
</svg>
