<svg width="41" height="41" viewBox="0 0 41 41" fill="none" xmlns="http://www.w3.org/2000/svg">
<g clip-path="url(#clip0_2741_2475)">
<path d="M40.9922 28.9996C40.9922 27.1552 40.9878 25.3107 40.9951 23.4663C40.9966 23.1057 40.8732 22.8479 40.5532 22.665C37.5153 20.9291 34.4819 19.1845 31.4396 17.4559C31.1768 17.3066 31.0784 17.1543 31.0799 16.8513C31.0916 13.3962 31.0828 9.94121 31.0931 6.48618C31.0946 6.10156 30.9595 5.85388 30.6262 5.66594C29.5008 5.03074 28.3834 4.38096 27.2624 3.73701C25.1789 2.5409 23.094 1.34843 21.0127 0.148673C20.6596 -0.0545639 20.3476 -0.0480079 19.9856 0.1596C16.8281 1.97635 13.6662 3.78509 10.4955 5.57853C10.0645 5.82256 9.8964 6.13215 9.89787 6.61293C9.90814 10.0031 9.8964 13.3933 9.91035 16.7835C9.91181 17.1288 9.8061 17.3226 9.50731 17.4923C6.52305 19.191 3.552 20.9109 0.561131 22.598C0.156622 22.826 0.00392228 23.1043 0.00392228 23.5275C0.00392228 27.1384 0.00539055 30.7493 -0.0019508 34.3603C-0.00268494 34.8476 0.170571 35.1681 0.619862 35.4216C3.74801 37.1852 6.86589 38.9662 9.97422 40.764C10.4286 41.027 10.7876 41.0278 11.2399 40.7655C14.1889 39.0566 17.1541 37.3746 20.1046 35.6686C20.41 35.4923 20.6302 35.5119 20.9216 35.6802C23.9155 37.4132 26.9173 39.1338 29.9163 40.8566C30.2217 41.0321 30.5241 41.0562 30.845 40.8726C34.0509 39.0354 37.2591 37.1998 40.4702 35.3706C40.8387 35.1608 41.0017 34.8833 40.998 34.455C40.9834 32.6367 40.9922 30.8178 40.9914 28.9996H40.9922ZM9.90374 38.6967C9.90374 38.7994 9.90374 38.9014 9.90374 39.1083C9.12188 38.6632 8.42225 38.2662 7.72483 37.867C5.73238 36.7255 3.74214 35.5797 1.74529 34.4455C1.52946 34.3231 1.41346 34.1913 1.4142 33.9341C1.42007 30.922 1.41787 27.9106 1.42007 24.8984C1.42007 24.811 1.44136 24.7236 1.46192 24.5663C2.16228 24.964 2.82741 25.3392 3.49033 25.7179C5.49526 26.8645 7.49577 28.0184 9.50804 29.1519C9.81197 29.323 9.91255 29.5124 9.91035 29.8555C9.89566 32.8028 9.903 35.7501 9.90374 38.6967ZM11.3147 7.5417C13.9143 9.02846 16.4544 10.4817 19.0959 11.9925C16.4662 13.4997 13.9195 14.958 11.3147 16.4506V7.5417ZM11.3206 39.1025V30.2008C13.9356 31.6985 16.4853 33.1583 19.0929 34.6516C16.4845 36.1457 13.9319 37.607 11.3206 39.1025ZM19.7551 33.422C17.1739 31.944 14.633 30.4893 12.0107 28.988C14.6257 27.4903 17.1599 26.0392 19.7551 24.5532V33.422ZM19.7691 22.0961C17.182 20.6159 14.6323 19.1568 12.0114 17.6569C14.625 16.1614 17.1658 14.7082 19.7691 13.2185V22.0954V22.0961ZM29.6667 7.55845V16.4368C27.0737 14.9515 24.5351 13.4975 21.9047 11.9911C24.5314 10.4905 27.073 9.03939 29.6667 7.55845ZM21.2131 13.2054C23.8156 14.6958 26.3557 16.1498 28.9891 17.6577C26.3535 19.1656 23.8097 20.621 21.2131 22.107V13.2054ZM29.9185 27.9157C27.4239 26.4653 24.9139 25.0412 22.4097 23.6076C22.2666 23.5253 22.1278 23.4343 21.9318 23.3126C22.5478 22.9564 23.1064 22.6293 23.6688 22.3081C25.7882 21.0945 27.9099 19.886 30.0249 18.6666C30.2753 18.5223 30.4727 18.4925 30.7385 18.6454C33.3843 20.1708 36.0382 21.6831 38.6892 23.2004C38.7332 23.2259 38.7699 23.2638 38.858 23.3345C38.4242 23.5858 38.0167 23.824 37.6071 24.0585C35.3636 25.3435 33.1142 26.6198 30.8795 27.9186C30.5285 28.1226 30.2738 28.1218 29.9185 27.9149V27.9157ZM39.2949 34.4287C36.6285 35.9439 33.968 37.4686 31.3053 38.9896C31.2619 39.0143 31.2091 39.0238 31.0858 39.0653C31.0858 38.8861 31.0858 38.7586 31.0858 38.6312C31.0858 35.6715 31.088 32.7111 31.0806 29.7514C31.0806 29.5197 31.1335 29.3718 31.3471 29.2502C34.0451 27.7124 36.7379 26.1659 39.4321 24.6216C39.4542 24.6092 39.4813 24.6041 39.5496 24.5808C39.5665 24.6806 39.5966 24.7731 39.5966 24.8649C39.5988 27.864 39.5958 30.8623 39.6032 33.8613C39.6032 34.1228 39.5349 34.2911 39.2956 34.4273L39.2949 34.4287Z" fill="white"/>
</g>
<defs>
<clipPath id="clip0_2741_2475">
<rect width="41" height="41" fill="white"/>
</clipPath>
</defs>
</svg>
