<svg width="326" height="180" viewBox="0 0 326 180" fill="none" xmlns="http://www.w3.org/2000/svg">
<path d="M103.369 6.88029L99.9792 26.7282C99.7846 26.7461 99.5901 26.764 99.3955 26.7845L102.357 6.71901C102.473 6.05084 103.466 6.19932 103.369 6.88029Z" fill="#3DB54A"/>
<path d="M116.044 9.99168L110.45 26.6395C110.189 26.619 109.928 26.6037 109.667 26.5858L114.856 9.61023C115.117 8.8243 116.29 9.19039 116.044 9.99168Z" fill="#3DB54A"/>
<path d="M127.9 14.9111L120.98 28.3077C120.655 28.2258 120.33 28.149 120.002 28.0748L126.579 14.2583C127.024 13.3828 128.33 14.0177 127.9 14.9111Z" fill="#3DB54A"/>
<path d="M138.757 21.4734L131.269 31.8134C130.89 31.6444 130.508 31.4831 130.127 31.3244L137.362 20.5032C138.017 19.5765 139.402 20.5288 138.757 21.4734Z" fill="#3DB54A"/>
<path d="M148.466 29.5141L140.98 37.1507C140.568 36.8742 140.153 36.6028 139.733 36.3366L147.063 28.1957C147.959 27.2638 149.344 28.5515 148.466 29.5141Z" fill="#3DB54A"/>
<path d="M174.215 99.9247L168.427 99.2232C168.568 98.2837 168.688 97.339 168.785 96.3867L174.491 96.6632C176.724 96.8629 176.46 100.101 174.215 99.9247Z" fill="#3DB54A"/>
<path d="M171.857 112.84L165.485 111.035C165.818 110.093 166.13 109.143 166.42 108.181L172.682 109.443C175.014 110.016 174.205 113.395 171.857 112.84Z" fill="#3DB54A"/>
<path d="M167.636 125.01L160.504 121.746C161.029 120.85 161.53 119.941 162.009 119.02L169.044 121.564C171.417 122.545 170.025 125.973 167.636 125.01Z" fill="#3DB54A"/>
<path d="M164.542 135.53C164.002 136.549 162.678 136.885 161.721 136.25L153.844 131.091C154.538 130.287 155.208 129.466 155.856 128.626L163.736 132.858C164.696 133.372 165.057 134.57 164.542 135.53Z" fill="#3DB54A"/>
<path d="M157.343 146.082C156.621 147.067 155.18 147.213 154.273 146.399L145.854 138.891C146.686 138.215 147.497 137.513 148.291 136.794L156.903 143.161C157.832 143.847 158.026 145.152 157.343 146.082Z" fill="#3DB54A"/>
<path d="M148.71 155.455C147.809 156.376 146.276 156.312 145.454 155.316L136.883 145.03C137.812 144.505 138.729 143.958 139.627 143.387L148.692 152.342C149.555 153.197 149.565 154.589 148.71 155.455Z" fill="#3DB54A"/>
<path d="M138.785 163.503C137.705 164.33 136.113 164.025 135.411 162.86L127.25 149.451C128.236 149.095 129.214 148.716 130.176 148.312L139.233 160.262C140.004 161.281 139.804 162.73 138.785 163.503Z" fill="#3DB54A"/>
<path d="M127.699 170.073C126.45 170.772 124.837 170.208 124.292 168.887L117.27 152.145C118.271 151.963 119.261 151.756 120.244 151.525L128.654 166.778C129.299 167.951 128.874 169.428 127.699 170.073Z" fill="#3DB54A"/>
<path d="M115.604 175.001C114.199 175.536 112.611 174.696 112.253 173.237L107.235 153.172C108.206 153.151 109.171 153.108 110.131 153.041L117.097 171.734C117.586 173.05 116.917 174.512 115.604 175.001Z" fill="#3DB54A"/>
<path d="M102.666 178.111C101.127 178.444 99.6116 177.322 99.4785 175.753L97.3818 152.639C98.2778 152.759 99.179 152.859 100.088 152.938L104.716 174.97C105.016 176.403 104.099 177.809 102.666 178.111Z" fill="#3DB54A"/>
<path d="M89.0941 179.235C87.4506 179.338 86.0631 177.932 86.1808 176.294L87.8704 150.627C88.6743 150.865 89.4858 151.085 90.305 151.29L91.7002 176.319C91.7847 177.845 90.6173 179.151 89.0941 179.235Z" fill="#3DB54A"/>
<path d="M81.279 148.285L78.6499 175.687C78.4989 177.269 77.0934 178.429 75.5113 178.275C73.7987 178.124 72.5903 176.45 72.9794 174.778L79.1696 147.355C79.8659 147.678 80.5699 147.99 81.279 148.285Z" fill="#3DB54A"/>
<path d="M73.3429 144.28L66.1236 173.147C65.7217 174.75 64.0986 175.725 62.4961 175.323C60.7552 174.903 59.7722 172.983 60.4404 171.322L71.5637 143.177C72.1499 143.556 72.7438 143.922 73.3429 144.28Z" fill="#3DB54A"/>
<path d="M66.4422 139.513L54.3179 168.846C53.6625 170.43 51.8475 171.183 50.2628 170.528C48.5322 169.829 47.818 167.699 48.7678 166.096L64.9779 138.317C65.4591 138.724 65.9481 139.124 66.4422 139.513Z" fill="#3DB54A"/>
<path d="M60.5009 134.17L43.3948 162.932C42.486 164.458 40.5122 164.96 38.9839 164.051C37.4581 163.142 36.9563 161.168 37.8651 159.643C37.9291 159.53 38.011 159.415 38.0904 159.312C38.0904 159.312 38.0904 159.312 38.093 159.312L38.0981 159.305C38.0981 159.305 38.116 159.282 38.1237 159.272L59.3207 132.937C59.7098 133.354 60.1015 133.766 60.5009 134.173V134.17Z" fill="#3DB54A"/>
<path d="M55.4691 128.372L33.5092 155.549C32.3546 156.98 30.2554 157.2 28.8269 156.046C27.2499 154.794 27.1731 152.359 28.6605 151.008L54.5398 127.133C54.8445 127.55 55.1542 127.962 55.4691 128.372Z" fill="#3DB54A"/>
<path d="M51.2958 122.223L24.7944 146.833C23.4017 148.128 21.2232 148.046 19.9278 146.653C18.4942 145.135 18.7835 142.621 20.514 141.462L50.5867 121.002C50.8171 121.412 51.0551 121.819 51.2958 122.223Z" fill="#3DB54A"/>
<path d="M47.9492 115.8L17.3927 136.915C15.7773 138.031 13.5603 137.627 12.4442 136.009C11.328 134.393 11.7325 132.179 13.3479 131.06C13.4759 130.973 13.6218 130.889 13.7575 130.817C13.7575 130.817 13.7575 130.817 13.7703 130.809C13.7703 130.809 13.7728 130.809 13.7754 130.807L13.7933 130.797L13.8266 130.781L47.4269 114.604C47.5959 115.006 47.77 115.403 47.9492 115.8Z" fill="#3DB54A"/>
<path d="M45.4002 109.148L11.4543 125.919C9.63664 126.817 7.43502 126.072 6.53645 124.255C5.5278 122.258 6.60813 119.759 8.75087 119.119L45.0367 107.976C45.1544 108.367 45.2748 108.759 45.4002 109.148Z" fill="#3DB54A"/>
<path d="M43.626 102.288L7.14053 113.997C5.14883 114.635 3.01889 113.539 2.38144 111.55C1.65183 109.351 3.14945 106.962 5.43811 106.647L43.4033 101.115C43.4724 101.507 43.5467 101.899 43.626 102.288Z" fill="#3DB54A"/>
<path d="M42.6234 95.1811L4.61983 101.31C2.495 101.653 0.493063 100.206 0.15002 98.0816C-0.254464 95.7264 1.65532 93.5196 4.04126 93.5631L42.5338 93.9804C42.5594 94.3823 42.5901 94.7817 42.6234 95.1811Z" fill="#3DB54A"/>
<path d="M42.4818 86.5808C42.4613 87.0006 42.4434 87.423 42.4306 87.8429L4.04552 88.1603C1.82854 88.1808 0.0186014 86.399 0.000681251 84.182C-0.0453992 81.7142 2.2535 79.7634 4.68041 80.1935L42.4818 86.5808Z" fill="#3DB54A"/>
<path d="M43.2651 79.3344C43.1883 79.7875 43.1191 80.2406 43.0526 80.6963L5.43812 75.3074C3.18274 74.9849 1.616 72.8959 1.93857 70.6405C2.27393 68.1163 4.92868 66.4856 7.33254 67.3125L43.2651 79.3344Z" fill="#3DB54A"/>
<path d="M44.8705 72.256C44.7246 72.7527 44.5889 73.2493 44.4584 73.7511L8.67944 63.0527C6.4343 62.382 5.15941 60.0191 5.83014 57.7765C6.55718 55.2549 9.51913 54.003 11.836 55.2242L44.8705 72.256Z" fill="#3DB54A"/>
<path d="M47.3125 65.3235C47.0821 65.8713 46.8594 66.4217 46.6469 66.9772L13.62 51.5761C11.4414 50.5624 10.4993 47.9716 11.5156 45.793C12.6318 43.3303 15.8446 42.506 18.013 44.106L47.3125 65.3235Z" fill="#3DB54A"/>
<path d="M50.6415 58.5604C50.2984 59.162 49.9656 59.7713 49.6431 60.3857L20.1234 41.0421C18.06 39.6904 17.4815 36.9205 18.8357 34.8571C20.3333 32.5147 23.733 32.1537 25.6966 34.1147L50.6415 58.5604Z" fill="#3DB54A"/>
<path d="M54.8948 52.0434C54.411 52.6936 53.9374 53.3541 53.4791 54.0248L28.0401 31.5888C26.1432 29.9171 25.9614 27.0217 27.6331 25.1247C29.5019 22.9564 33.0219 23.0972 34.7218 25.391L54.8948 52.0434Z" fill="#3DB54A"/>
<path d="M60.1274 45.8706C59.4669 46.5567 58.8192 47.2582 58.1894 47.975L37.2459 23.3578C35.5665 21.384 35.8046 18.4195 37.7783 16.7401C39.9953 14.8073 43.5614 15.478 44.9413 18.0662L60.1274 45.8706Z" fill="#3DB54A"/>
<path d="M66.395 40.1799C65.5195 40.8737 64.6619 41.5905 63.8248 42.3329L47.6147 16.4945C46.2016 14.2443 46.8825 11.2772 49.1328 9.86408C51.6723 8.22822 55.2 9.44679 56.2061 12.2884L66.395 40.1799Z" fill="#3DB54A"/>
<path d="M73.7603 35.1307C72.6313 35.7937 71.5228 36.4901 70.4399 37.2171L59.012 11.156C57.9188 8.66512 59.0529 5.76205 61.5438 4.66892C64.3676 3.38891 67.7698 5.16813 68.3484 8.20688L73.7603 35.1307Z" fill="#3DB54A"/>
<path d="M82.2792 30.9634C80.8636 31.5266 79.4735 32.141 78.1115 32.8041L71.2865 7.51357C70.5594 4.82554 72.1492 2.06071 74.8372 1.33622C77.5227 0.611736 80.2875 2.20151 81.0146 4.88698C81.1068 5.23002 81.1605 5.59611 81.181 5.93659V5.97755L82.2792 30.9634Z" fill="#3DB54A"/>
<path d="M94.4969 5.73721L91.988 27.971C90.2703 28.3499 88.5781 28.8005 86.9166 29.3176L84.2567 5.73721C83.9367 2.90838 85.972 0.358594 88.7982 0.0385912C92.0392 -0.368453 94.8962 2.50646 94.4969 5.73721Z" fill="#3DB54A"/>
<path d="M86.3616 72.5736C86.3616 74.1045 86.1363 75.213 85.6832 75.9017C85.2326 76.5877 84.4569 76.9333 83.3587 76.9333C82.1811 76.9333 81.3772 76.5801 80.9446 75.8735C80.5119 75.1669 80.2969 73.91 80.2969 72.1051V48.3174H67.4609V70.4565C67.4609 75.4818 68.7563 79.3475 71.3471 82.056C73.9378 84.7645 77.9417 86.1187 83.3587 86.1187C88.7757 86.1187 92.4647 84.785 95.1348 82.1148C97.8049 79.4473 99.1387 75.5407 99.1387 70.3976V48.3174H86.3616V72.5762V72.5736Z" fill="#3DB54A"/>
<path d="M125.988 69.6046C125.78 68.9928 125.583 68.4219 125.399 67.8945C124.654 65.7543 123.847 63.7037 122.985 61.7402L117.156 48.3154H103.672V85.3513H114.212V63.5655C114.232 63.6244 114.25 63.6833 114.27 63.7422C115.174 66.4123 116.234 69.1208 117.45 71.8677L123.456 85.3513H136.586V48.3154H125.988V69.6046Z" fill="#3DB54A"/>
<path d="M141.061 55.4989H144.181V78.2857H141.119L141.061 85.3513H160.079V78.2857H157.076V55.4989H160.079V48.3154H141.119L141.061 55.4989Z" fill="#3DB54A"/>
<path d="M179.016 72.8328L174.974 48.3154H161.667L171.677 85.3513H185.514L196.112 48.3154H183.865L179.016 72.8328Z" fill="#3DB54A"/>
<path d="M210.773 76.3426V71.1022H221.077V62.2701H210.773V57.3242H222.549L223.02 48.3154H198.29V85.3513H223.079L222.902 76.3426H210.773Z" fill="#3DB54A"/>
<path d="M252.608 71.544C252.322 71.0806 252.037 70.6352 251.756 70.2C252.995 69.5676 254.085 68.7382 255.022 67.7167C256.73 65.853 257.582 63.0754 257.582 59.3864C257.582 56.5985 256.953 54.3713 255.698 52.7022C254.441 51.0331 252.567 49.8375 250.076 49.1105C247.583 48.386 244.393 48.0225 240.507 48.0225C236.229 48.0225 232.637 48.0813 229.732 48.1991C228.79 48.2375 227.827 48.2785 226.847 48.3169V85.3528H239.565V72.2121C239.969 72.207 240.366 72.1968 240.758 72.184L245.335 85.3528H259.525L254.874 75.5197C254.441 74.616 253.686 73.2925 252.606 71.5465L252.608 71.544ZM239.565 55.8101C240.018 55.7998 240.451 55.7921 240.86 55.7921C241.802 55.7921 242.509 55.9483 242.98 56.2632C243.451 56.5781 243.766 57.0594 243.922 57.7045C244.078 58.3522 244.158 59.284 244.158 60.5026C244.158 61.8364 244.001 62.8194 243.687 63.4466C243.372 64.0738 242.921 64.4757 242.332 64.6524C241.743 64.829 240.919 64.9186 239.859 64.9186C239.762 64.9186 239.662 64.9186 239.565 64.9186V55.8126V55.8101Z" fill="#3DB54A"/>
<path d="M280.429 63.9765C278.545 63.1138 277.142 62.4251 276.218 61.9157C275.297 61.4062 274.667 60.9531 274.334 60.5614C274.001 60.1698 273.832 59.7371 273.832 59.2661C273.832 58.4801 274.147 57.9118 274.774 57.5585C275.401 57.2052 276.267 57.0286 277.365 57.0286C278.581 57.0286 279.897 57.1566 281.31 57.4126C282.723 57.6686 284.077 58.0321 285.373 58.5006L286.727 49.4919C285.314 48.9031 283.714 48.432 281.927 48.0788C280.14 47.7255 278.307 47.5488 276.423 47.5488C273.046 47.5488 270.202 48.0788 267.885 49.1386C265.568 50.1985 263.843 51.6218 262.704 53.4062C261.565 55.1931 260.996 57.1643 260.996 59.3249C260.996 61.012 261.319 62.484 261.966 63.741C262.614 64.998 263.536 66.1167 264.734 67.0972C265.929 68.0777 267.471 69.0786 269.355 70.1001C270.886 70.9244 272.004 71.5619 272.711 72.015C273.417 72.4656 273.927 72.888 274.242 73.2796C274.557 73.6739 274.713 74.1449 274.713 74.6928C274.713 75.4787 274.447 76.0368 273.919 76.3696C273.389 76.7024 272.555 76.8714 271.416 76.8714C270.12 76.8714 268.628 76.6947 266.941 76.3414C265.254 75.9882 263.428 75.4787 261.465 74.8105L260.287 83.5249C262.251 84.3876 264.222 85.0353 266.206 85.4679C268.187 85.9006 270.415 86.1156 272.888 86.1156C277.56 86.1156 281.259 85.0839 283.988 83.0231C286.717 80.9623 288.079 77.9696 288.079 74.0425C288.079 71.5312 287.421 69.4985 286.105 67.9497C284.789 66.3983 282.897 65.0748 280.424 63.974L280.429 63.9765Z" fill="#3DB54A"/>
<path d="M321.555 52.4666C318.591 49.1898 314.323 47.5488 308.75 47.5488C305.059 47.5488 301.812 48.304 299.004 49.817C296.198 51.3274 294.03 53.5265 292.497 56.4116C290.966 59.2968 290.2 62.74 290.2 66.7465C290.2 72.9084 291.693 77.6778 294.675 81.0544C297.658 84.4311 302.173 86.1182 308.218 86.1182C311.907 86.1182 315.086 85.3041 317.756 83.6759C320.426 82.0477 322.467 79.7411 323.88 76.7562C325.293 73.7737 326 70.2998 326 66.3343C326 60.3669 324.517 55.746 321.553 52.4666H321.555ZM311.753 73.4563C311.438 75.0256 311.016 76.0675 310.488 76.577C309.958 77.0864 309.262 77.3424 308.397 77.3424C307.455 77.3424 306.689 77.0966 306.101 76.6051C305.512 76.1136 305.051 75.0947 304.718 73.5433C304.385 71.992 304.216 69.7059 304.216 66.685C304.216 62.9551 304.58 60.4539 305.304 59.1765C306.029 57.9016 307.022 57.2641 308.279 57.2641C309.692 57.2641 310.703 57.9323 311.31 59.2661C311.919 60.5998 312.222 63.0139 312.222 66.5084C312.222 69.5702 312.065 71.887 311.751 73.4563H311.753Z" fill="#3DB54A"/>
<path d="M86.5954 107.498C84.7112 106.635 83.3083 105.947 82.3842 105.437C81.4626 104.928 80.8328 104.475 80.5 104.083C80.1672 103.691 79.9982 103.259 79.9982 102.788C79.9982 102.002 80.3131 101.433 80.9403 101.08C81.5675 100.727 82.4328 100.55 83.5311 100.55C84.7471 100.55 86.0629 100.678 87.4761 100.934C88.8892 101.19 90.2435 101.554 91.5388 102.022L92.8931 93.0134C91.4799 92.4246 89.8799 91.9535 88.093 91.6002C86.3061 91.247 84.4731 91.0703 82.589 91.0703C79.2123 91.0703 76.3681 91.6002 74.0513 92.6601C71.7345 93.7199 70.009 95.1433 68.8698 96.9277C67.7306 98.7146 67.1623 100.686 67.1623 102.846C67.1623 104.533 67.4848 106.006 68.1325 107.262C68.7802 108.519 69.7018 109.638 70.8999 110.619C72.0954 111.599 73.6366 112.6 75.5207 113.622C77.0516 114.446 78.1704 115.083 78.8769 115.536C79.5835 115.987 80.0929 116.409 80.4078 116.801C80.7227 117.195 80.8789 117.666 80.8789 118.214C80.8789 119 80.6126 119.558 80.0853 119.891C79.5553 120.224 78.7208 120.393 77.5816 120.393C76.2862 120.393 74.7937 120.216 73.1066 119.863C71.4196 119.51 69.5943 119 67.6307 118.332L66.4531 127.046C68.4167 127.909 70.3879 128.557 72.3719 128.989C74.3534 129.422 76.5806 129.637 79.0536 129.637C83.7256 129.637 87.4249 128.605 90.1539 126.545C92.8828 124.484 94.2448 121.491 94.2448 117.564C94.2448 115.053 93.5868 113.02 92.271 111.471C90.9551 109.92 89.0633 108.596 86.5903 107.495L86.5954 107.498Z" fill="#3DB54A"/>
<path d="M126.87 97.4601C125.966 95.6348 124.279 94.1832 121.806 93.1029C119.333 92.0226 115.839 91.4824 111.325 91.4824C108.42 91.4824 105.084 91.5618 101.316 91.7179C100.647 91.7179 99.5696 91.7563 98.0771 91.8357V128.872H110.795V117.843C111.612 117.856 112.377 117.861 113.092 117.861C118.194 117.861 121.993 116.576 124.484 114.003C126.977 111.433 128.224 108.125 128.224 104.083C128.224 101.492 127.773 99.2828 126.87 97.4575V97.4601ZM114.356 108.53C114.18 109.295 113.875 109.815 113.442 110.089C113.01 110.363 112.383 110.501 111.558 110.501C111.302 110.501 111.049 110.496 110.793 110.493V99.2623C111.074 99.2572 111.351 99.2547 111.617 99.2547C112.403 99.2547 113.002 99.4134 113.412 99.7257C113.824 100.041 114.129 100.609 114.326 101.433C114.523 102.258 114.62 103.456 114.62 105.025C114.62 106.594 114.533 107.764 114.356 108.53Z" fill="#3DB54A"/>
</svg>
