<svg width="326" height="239" viewBox="0 0 326 239" fill="none" xmlns="http://www.w3.org/2000/svg">
<path d="M0 0H326V238.113H30C13.4315 238.113 0 224.681 0 208.113V0Z" fill="#282561"/>
<mask id="mask0_2025_15" style="mask-type:alpha" maskUnits="userSpaceOnUse" x="42" y="-327" width="518" height="527">
<path d="M346.168 -306.783L336.194 -248.471C335.622 -248.419 335.049 -248.366 334.477 -248.306L343.192 -307.256C343.531 -309.219 346.454 -308.783 346.168 -306.783Z" fill="white"/>
<path d="M383.463 -297.644L367.004 -248.735C366.236 -248.795 365.467 -248.84 364.699 -248.893L379.968 -298.765C380.736 -301.074 384.187 -299.999 383.463 -297.644Z" fill="white"/>
<path d="M418.348 -283.189L397.987 -243.831C397.03 -244.071 396.073 -244.297 395.109 -244.515L414.461 -285.107C415.772 -287.679 419.614 -285.814 418.348 -283.189Z" fill="white"/>
<path d="M450.296 -263.912L428.262 -233.534C427.147 -234.031 426.025 -234.505 424.902 -234.971L446.19 -266.763C448.119 -269.485 452.194 -266.688 450.296 -263.912Z" fill="white"/>
<path d="M478.861 -240.288L456.834 -217.853C455.621 -218.665 454.401 -219.462 453.166 -220.245L474.732 -244.162C477.346 -246.907 481.459 -243.094 478.861 -240.288Z" fill="white"/>
<path d="M503.614 -212.776L482.71 -197.004C481.482 -198.185 480.239 -199.351 478.981 -200.494L499.689 -217.717C503.049 -220.335 506.951 -215.476 503.614 -212.776Z" fill="white"/>
<path d="M524.141 -181.797L504.887 -171.35C503.75 -172.937 502.589 -174.501 501.407 -176.05L520.646 -187.829C524.751 -190.16 528.232 -184.203 524.141 -181.797Z" fill="white"/>
<path d="M539.968 -147.794L522.371 -141.446C521.444 -143.439 520.488 -145.409 519.486 -147.357L537.166 -154.894C542.017 -156.751 544.804 -149.749 539.968 -147.794Z" fill="white"/>
<path d="M550.627 -111.256L534.168 -108.052C533.587 -110.406 532.955 -112.738 532.277 -115.054L548.789 -119.341C554.303 -120.56 556.156 -112.557 550.627 -111.256Z" fill="white"/>
<path d="M555.644 -72.7779L539.426 -72.1913C539.298 -74.8162 539.117 -77.4335 538.883 -80.0358L555.019 -81.7055C561.128 -82.1041 561.776 -73.2443 555.644 -72.7779Z" fill="white"/>
<path d="M554.635 -33.4274L537.603 -35.4881C538.017 -38.2484 538.371 -41.0237 538.657 -43.8215L555.448 -43.0093C562.017 -42.4226 561.241 -32.9084 554.635 -33.4274Z" fill="white"/>
<path d="M547.697 4.51661L528.947 -0.785769C529.927 -3.55354 530.846 -6.34388 531.697 -9.17182L550.123 -5.46388C556.985 -3.77915 554.605 6.1487 547.697 4.51661Z" fill="white"/>
<path d="M535.275 40.272L514.288 30.6826C515.832 28.0502 517.309 25.3802 518.718 22.6726L539.418 30.1486C546.401 33.0292 542.303 43.1 535.275 40.272Z" fill="white"/>
<path d="M526.168 71.1763C524.578 74.1697 520.684 75.155 517.866 73.2897L494.687 58.1347C496.729 55.7731 498.702 53.3588 500.608 50.8919L523.795 63.3243C526.627 64.836 527.682 68.3559 526.168 71.1763Z" fill="white"/>
<path d="M504.985 102.178C502.861 105.074 498.62 105.503 495.953 103.111L471.177 81.0516C473.625 79.0661 476.013 77.0052 478.348 74.8918L503.689 93.5968C506.424 95.6124 506.996 99.4483 504.985 102.178Z" fill="white"/>
<path d="M479.584 129.713C476.932 132.421 472.42 132.233 470.002 129.307L444.782 99.0873C447.516 97.5455 450.213 95.936 452.857 94.2587L479.531 120.568C482.07 123.08 482.1 127.171 479.584 129.713Z" fill="white"/>
<path d="M450.379 153.36C447.2 155.789 442.514 154.894 440.45 151.472L416.435 112.076C419.335 111.031 422.213 109.918 425.045 108.729L451.697 143.838C453.964 146.831 453.377 151.088 450.379 153.36Z" fill="white"/>
<path d="M417.761 172.659C414.085 174.712 409.339 173.058 407.735 169.177L387.072 119.989C390.017 119.455 392.932 118.845 395.825 118.168L420.571 162.979C422.469 166.424 421.219 170.764 417.761 172.659Z" fill="white"/>
<path d="M382.167 187.137C378.032 188.709 373.361 186.242 372.307 181.955L357.542 123.004C360.397 122.944 363.237 122.816 366.062 122.621L386.559 177.54C387.998 181.406 386.032 185.701 382.167 187.137Z" fill="white"/>
<path d="M344.096 196.275C339.569 197.253 335.109 193.959 334.718 189.348L328.548 121.44C331.185 121.794 333.836 122.087 336.51 122.32L350.13 187.047C351.011 191.259 348.315 195.388 344.096 196.275Z" fill="white"/>
<path d="M304.164 199.577C299.328 199.878 295.245 195.749 295.592 190.935L300.563 115.528C302.929 116.228 305.317 116.875 307.727 117.476L311.833 191.01C312.081 195.493 308.646 199.329 304.164 199.577Z" fill="white"/>
<path d="M281.166 108.647L273.429 189.153C272.985 193.801 268.849 197.208 264.194 196.757C259.154 196.313 255.599 191.394 256.744 186.483L274.959 105.916C277.007 106.864 279.079 107.782 281.166 108.647Z" fill="white"/>
<path d="M257.814 96.8836L236.571 181.692C235.388 186.4 230.612 189.265 225.896 188.085C220.774 186.851 217.881 181.21 219.847 176.329L252.578 93.642C254.303 94.7551 256.051 95.8306 257.814 96.8836Z" fill="white"/>
<path d="M237.505 82.8792L201.829 169.056C199.9 173.712 194.559 175.923 189.897 173.998C184.804 171.944 182.703 165.687 185.497 160.979L233.196 79.3668C234.612 80.5627 236.051 81.7359 237.505 82.8792Z" fill="white"/>
<path d="M220.028 67.1826L169.693 151.683C167.019 156.165 161.211 157.639 156.714 154.969C152.224 152.299 150.748 146.5 153.422 142.018C153.61 141.687 153.851 141.348 154.085 141.048C154.085 141.048 154.085 141.048 154.092 141.048L154.107 141.025C154.107 141.025 154.16 140.957 154.183 140.927L216.556 63.5575C217.701 64.7835 218.853 65.9943 220.028 67.1902V67.1826Z" fill="white"/>
<path d="M205.218 50.1473L140.601 129.992C137.203 134.196 131.034 134.843 126.823 131.451C122.183 127.773 121.957 120.62 126.333 116.649L202.484 46.5071C203.38 47.733 204.292 48.9439 205.218 50.1473Z" fill="white"/>
<path d="M192.94 32.0816L114.959 104.382C110.861 108.188 104.45 107.947 100.639 103.856C96.4202 99.3956 97.2714 92.0099 102.364 88.6028L190.853 28.494C191.531 29.6974 192.232 30.8932 192.94 32.0816Z" fill="white"/>
<path d="M183.094 13.2111L93.1807 75.2453C88.4274 78.5245 81.9038 77.3362 78.6195 72.5829C75.3351 67.837 76.5253 61.3312 81.2786 58.0445C81.6553 57.7888 82.0846 57.5406 82.4839 57.33C82.4839 57.33 82.4914 57.33 82.5216 57.3074C82.5216 57.3074 82.5291 57.3074 82.5366 57.2999L82.5893 57.2698L82.6873 57.2247L181.557 9.69871C182.054 10.8795 182.567 12.0453 183.094 13.2111Z" fill="white"/>
<path d="M175.591 -6.32879L75.7042 42.9421C70.3558 45.582 63.8775 43.3934 61.2334 38.0534C58.2654 32.1869 61.4444 24.8462 67.7494 22.9659L174.522 -9.7735C174.868 -8.62277 175.222 -7.47201 175.591 -6.32879Z" fill="white"/>
<path d="M170.371 -26.4854L63.0114 7.91618C57.1508 9.78894 50.8833 6.56992 49.0076 0.726003C46.8608 -5.73464 51.2675 -12.7519 58.002 -13.677L169.716 -29.9301C169.919 -28.7794 170.138 -27.6286 170.371 -26.4854Z" fill="white"/>
<path d="M167.418 -47.3641L55.5914 -29.3585C49.339 -28.3507 43.4482 -32.6001 42.4388 -38.8426C41.2486 -45.7621 46.8682 -52.2528 53.8889 -52.1174L167.154 -50.8915C167.23 -49.7107 167.32 -48.5374 167.418 -47.3641Z" fill="white"/>
<path d="M167.004 -72.635C166.944 -71.4015 166.891 -70.1606 166.853 -68.9271L53.9041 -67.9945C47.3805 -67.9343 42.0547 -73.169 42.002 -79.6823C41.8664 -86.9327 48.631 -92.6638 55.7722 -91.4002L167.004 -72.635Z" fill="white"/>
<path d="M169.309 -93.9198C169.083 -92.5885 168.88 -91.2573 168.684 -89.9185L58.002 -105.75C51.3655 -106.698 46.7553 -112.835 47.7045 -119.462C48.6913 -126.877 56.503 -131.668 63.5764 -129.239L169.309 -93.9198Z" fill="white"/>
<path d="M174.032 -114.716C173.603 -113.257 173.203 -111.798 172.819 -110.323L67.5386 -141.754C60.9322 -143.725 57.1808 -150.667 59.1544 -157.255C61.2938 -164.664 70.0094 -168.341 76.8268 -164.754L174.032 -114.716Z" fill="white"/>
<path d="M181.218 -135.083C180.541 -133.473 179.885 -131.856 179.26 -130.224L82.0848 -175.471C75.6667 -178.45 72.8946 -186.061 75.8852 -192.462C79.1695 -199.697 88.6234 -202.126 95.0038 -197.418L181.218 -135.083Z" fill="white"/>
<path d="M191.012 -154.954C190.002 -153.186 189.023 -151.396 188.074 -149.591L101.211 -206.421C95.1397 -210.392 93.4372 -218.53 97.4221 -224.592C101.829 -231.474 111.833 -232.534 117.61 -226.773L191.012 -154.954Z" fill="white"/>
<path d="M203.531 -174.103C202.108 -172.192 200.714 -170.252 199.366 -168.281L124.511 -234.189C118.929 -239.108 118.394 -247.614 123.313 -253.187C128.812 -259.558 139.17 -259.144 144.172 -252.405L203.531 -174.103Z" fill="white"/>
<path d="M218.928 -192.236C216.985 -190.22 215.079 -188.16 213.226 -186.054L151.599 -258.377C146.657 -264.176 147.358 -272.885 153.166 -277.819C159.689 -283.497 170.183 -281.527 174.243 -273.923L218.928 -192.236Z" fill="white"/>
<path d="M237.369 -208.955C234.793 -206.917 232.269 -204.811 229.806 -202.63L182.107 -278.541C177.949 -285.152 179.953 -293.869 186.575 -298.021C194.047 -302.827 204.428 -299.246 207.388 -290.898L237.369 -208.955Z" fill="white"/>
<path d="M259.042 -223.787C255.72 -221.839 252.458 -219.793 249.271 -217.657L215.644 -294.222C212.428 -301.54 215.765 -310.069 223.094 -313.281C231.403 -317.041 241.415 -311.814 243.117 -302.887L259.042 -223.787Z" fill="white"/>
<path d="M284.111 -236.031C279.946 -234.377 275.855 -232.572 271.848 -230.624L251.765 -304.925C249.625 -312.822 254.303 -320.945 262.213 -323.073C270.115 -325.202 278.251 -320.531 280.39 -312.642C280.661 -311.634 280.819 -310.558 280.88 -309.558V-309.438L284.111 -236.031Z" fill="white"/>
<path d="M320.059 -310.145L312.676 -244.824C307.622 -243.711 302.642 -242.387 297.754 -240.868L289.927 -310.145C288.985 -318.455 294.974 -325.946 303.29 -326.887C312.827 -328.082 321.234 -319.636 320.059 -310.145Z" fill="white"/>
</mask>
<g mask="url(#mask0_2025_15)">
<path d="M26.999 234H285.999C308.09 234 325.999 216.091 325.999 194V53C325.999 23.7289 302.27 0 272.999 0H26.999V234Z" fill="#1281AA" fill-opacity="0.59"/>
</g>
</svg>
