<svg width="239" height="170" viewBox="0 0 239 170" fill="none" xmlns="http://www.w3.org/2000/svg">
<rect width="239" height="170" fill="#F5F5F5"/>
<rect x="-8979" y="-7776" width="23695" height="11008" fill="black"/>
<path d="M-56 0H251V195.092H-26C-42.5685 195.092 -56 181.661 -56 165.092V0Z" fill="#282561"/>
<mask id="mask0_0_1" style="mask-type:alpha" maskUnits="userSpaceOnUse" x="-17" y="-327" width="489" height="496">
<path d="M269.992 -307.961L260.6 -253.048C260.061 -252.999 259.522 -252.949 258.983 -252.892L267.19 -308.407C267.509 -310.256 270.262 -309.845 269.992 -307.961Z" fill="white"/>
<path d="M305.114 -299.355L289.614 -253.296C288.891 -253.353 288.167 -253.395 287.443 -253.445L301.823 -300.411C302.546 -302.585 305.795 -301.572 305.114 -299.355Z" fill="white"/>
<path d="M337.966 -285.742L318.791 -248.678C317.89 -248.905 316.99 -249.117 316.082 -249.323L334.306 -287.548C335.54 -289.971 339.158 -288.214 337.966 -285.742Z" fill="white"/>
<path d="M368.052 -267.589L347.302 -238.982C346.252 -239.449 345.195 -239.896 344.138 -240.335L364.185 -270.274C366.001 -272.837 369.839 -270.203 368.052 -267.589Z" fill="white"/>
<path d="M394.952 -245.342L374.209 -224.214C373.067 -224.979 371.918 -225.73 370.754 -226.467L391.064 -248.99C393.526 -251.575 397.399 -247.984 394.952 -245.342Z" fill="white"/>
<path d="M418.262 -219.433L398.577 -204.581C397.42 -205.693 396.25 -206.791 395.065 -207.867L414.567 -224.087C417.73 -226.552 421.405 -221.976 418.262 -219.433Z" fill="white"/>
<path d="M437.593 -190.259L419.461 -180.421C418.39 -181.916 417.298 -183.389 416.184 -184.848L434.302 -195.94C438.168 -198.135 441.445 -192.526 437.593 -190.259Z" fill="white"/>
<path d="M452.498 -158.238L435.926 -152.26C435.054 -154.137 434.153 -155.993 433.209 -157.827L449.859 -164.924C454.427 -166.674 457.052 -160.08 452.498 -158.238Z" fill="white"/>
<path d="M462.535 -123.83L447.035 -120.813C446.489 -123.03 445.893 -125.225 445.255 -127.407L460.805 -131.444C465.997 -132.591 467.742 -125.055 462.535 -123.83Z" fill="white"/>
<path d="M467.26 -87.5946L451.987 -87.0421C451.866 -89.514 451.696 -91.9789 451.476 -94.4295L466.671 -96.0018C472.424 -96.3772 473.035 -88.0337 467.26 -87.5946Z" fill="white"/>
<path d="M466.309 -50.5375L450.27 -52.4781C450.66 -55.0775 450.994 -57.6911 451.263 -60.3259L467.076 -59.5609C473.261 -59.0085 472.531 -50.0488 466.309 -50.5375Z" fill="white"/>
<path d="M459.776 -14.805L442.119 -19.7983C443.042 -22.4048 443.907 -25.0325 444.709 -27.6956L462.06 -24.2038C468.523 -22.6172 466.281 -13.268 459.776 -14.805Z" fill="white"/>
<path d="M448.078 18.8665L428.314 9.83599C429.769 7.35702 431.159 4.84264 432.486 2.29284L451.98 9.33312C458.556 12.0458 454.697 21.5297 448.078 18.8665Z" fill="white"/>
<path d="M439.502 47.9697C438.005 50.7886 434.337 51.7164 431.684 49.9599L409.856 35.6882C411.778 33.4642 413.637 31.1906 415.432 28.8674L437.267 40.5752C439.934 41.9989 440.927 45.3136 439.502 47.9697Z" fill="white"/>
<path d="M419.553 77.1649C417.553 79.8918 413.559 80.2955 411.048 78.0432L387.716 57.2694C390.021 55.3996 392.27 53.4588 394.469 51.4686L418.333 69.0834C420.908 70.9816 421.447 74.5939 419.553 77.1649Z" fill="white"/>
<path d="M395.633 103.095C393.136 105.645 388.886 105.468 386.609 102.713L362.859 74.2539C365.434 72.802 367.973 71.2862 370.463 69.7068L395.583 94.4823C397.974 96.848 398.002 100.701 395.633 103.095Z" fill="white"/>
<path d="M368.13 125.363C365.136 127.651 360.724 126.808 358.78 123.585L336.165 86.4859C338.896 85.5014 341.606 84.4531 344.273 83.334L369.371 116.396C371.506 119.215 370.953 123.224 368.13 125.363Z" fill="white"/>
<path d="M337.413 143.538C333.951 145.471 329.482 143.913 327.971 140.258L308.512 93.937C311.286 93.4341 314.031 92.8604 316.756 92.2229L340.059 134.422C341.847 137.666 340.669 141.753 337.413 143.538Z" fill="white"/>
<path d="M303.894 157.172C299.999 158.652 295.601 156.329 294.608 152.292L280.704 96.7771C283.393 96.7204 286.067 96.6 288.727 96.4159L308.03 148.134C309.385 151.775 307.533 155.819 303.894 157.172Z" fill="white"/>
<path d="M268.042 165.777C263.778 166.698 259.578 163.596 259.21 159.254L253.4 95.3039C255.883 95.6368 258.38 95.913 260.898 96.1326L273.724 157.087C274.554 161.053 272.014 164.942 268.042 165.777Z" fill="white"/>
<path d="M230.437 168.887C225.882 169.17 222.038 165.282 222.364 160.749L227.046 89.7368C229.273 90.3955 231.522 91.0046 233.792 91.5712L237.658 160.819C237.892 165.041 234.658 168.653 230.437 168.887Z" fill="white"/>
<path d="M208.779 83.2561L201.493 159.07C201.075 163.447 197.18 166.656 192.796 166.231C188.05 165.813 184.702 161.181 185.78 156.556L202.933 80.685C204.863 81.5774 206.814 82.4415 208.779 83.2561Z" fill="white"/>
<path d="M186.788 72.1786L166.783 152.044C165.669 156.478 161.172 159.176 156.731 158.064C151.907 156.903 149.183 151.591 151.034 146.994L181.857 69.1259C183.482 70.1742 185.128 71.187 186.788 72.1786Z" fill="white"/>
<path d="M167.663 58.9904L134.066 140.145C132.25 144.529 127.22 146.611 122.829 144.798C118.034 142.865 116.054 136.972 118.686 132.538L163.605 55.6828C164.939 56.8089 166.294 57.9138 167.663 58.9904Z" fill="white"/>
<path d="M151.205 44.2087L103.803 123.784C101.285 128.005 95.8154 129.393 91.5803 126.879C87.3523 124.365 85.9619 118.904 88.4803 114.682C88.6576 114.371 88.8846 114.052 89.1045 113.769C89.1045 113.769 89.1045 113.769 89.1116 113.769L89.1258 113.747C89.1258 113.747 89.1755 113.684 89.1968 113.655L147.934 40.7949C149.013 41.9494 150.098 43.0897 151.205 44.2158V44.2087Z" fill="white"/>
<path d="M137.258 28.1663L76.4064 103.357C73.207 107.316 67.3971 107.925 63.4316 104.731C59.0617 101.268 58.8489 94.5319 62.9705 90.7922L134.683 24.7382C135.527 25.8927 136.385 27.033 137.258 28.1663Z" fill="white"/>
<path d="M125.695 11.1534L52.2588 79.2402C48.3997 82.824 42.3628 82.5974 38.7733 78.7443C34.8007 74.5443 35.6023 67.589 40.3978 64.3805L123.73 7.77498C124.368 8.90823 125.028 10.0344 125.695 11.1534Z" fill="white"/>
<path d="M116.423 -6.61724L31.75 51.8015C27.2737 54.8896 21.1304 53.7705 18.0375 49.2942C14.9445 44.825 16.0654 38.6984 20.5416 35.6032C20.8963 35.3624 21.3007 35.1286 21.6766 34.9303C21.6766 34.9303 21.6837 34.9303 21.7121 34.9091C21.7121 34.9091 21.7192 34.909 21.7263 34.902L21.776 34.8736L21.8682 34.8312L114.976 -9.92489C115.444 -8.8129 115.926 -7.71507 116.423 -6.61724Z" fill="white"/>
<path d="M109.357 -25.0183L15.2921 21.381C10.2554 23.867 4.15467 21.8059 1.66471 16.7772C-1.13029 11.2526 1.86334 4.33979 7.80095 2.56909L108.35 -28.2622C108.676 -27.1786 109.01 -26.0949 109.357 -25.0183Z" fill="white"/>
<path d="M104.442 -44.0001L3.33906 -11.6035C-2.18001 -9.83993 -8.08215 -12.8713 -9.84853 -18.3747C-11.8703 -24.4588 -7.72036 -31.067 -1.37839 -31.9382L103.824 -47.2441C104.016 -46.1604 104.222 -45.0767 104.442 -44.0001Z" fill="white"/>
<path d="M101.661 -63.6619L-3.64852 -46.7057C-9.53647 -45.7567 -15.0839 -49.7584 -16.0345 -55.6371C-17.1553 -62.1533 -11.8633 -68.2657 -5.25175 -68.1382L101.412 -66.9838C101.483 -65.8718 101.568 -64.7668 101.661 -63.6619Z" fill="white"/>
<path d="M101.271 -87.46C101.214 -86.2984 101.164 -85.1298 101.129 -83.9682L-5.23748 -83.09C-11.3808 -83.0333 -16.3962 -87.9629 -16.4459 -94.0966C-16.5736 -100.924 -10.2032 -106.321 -3.47818 -105.132L101.271 -87.46Z" fill="white"/>
<path d="M103.441 -107.504C103.229 -106.251 103.037 -104.997 102.853 -103.736L-1.37836 -118.645C-7.6281 -119.538 -11.9696 -125.317 -11.0757 -131.557C-10.1464 -138.541 -2.79005 -143.053 3.87114 -140.765L103.441 -107.504Z" fill="white"/>
<path d="M107.889 -127.088C107.485 -125.714 107.109 -124.34 106.747 -122.952L7.60243 -152.551C1.38106 -154.406 -2.15171 -160.944 -0.293106 -167.148C1.72157 -174.125 9.92923 -177.588 16.3492 -174.21L107.889 -127.088Z" fill="white"/>
<path d="M114.657 -146.268C114.018 -144.753 113.401 -143.23 112.812 -141.693L21.3008 -184.303C15.2568 -187.108 12.6462 -194.275 15.4625 -200.303C18.5555 -207.116 27.4583 -209.404 33.4669 -204.97L114.657 -146.268Z" fill="white"/>
<path d="M123.879 -164.981C122.929 -163.317 122.006 -161.631 121.112 -159.931L39.3125 -213.448C33.5948 -217.188 31.9916 -224.852 35.7443 -230.56C39.8942 -237.041 49.3149 -238.04 54.756 -232.614L123.879 -164.981Z" fill="white"/>
<path d="M135.669 -183.014C134.328 -181.215 133.016 -179.387 131.746 -177.532L61.2539 -239.598C55.9973 -244.23 55.4937 -252.241 60.126 -257.489C65.3045 -263.488 75.0587 -263.099 79.769 -256.753L135.669 -183.014Z" fill="white"/>
<path d="M150.169 -200.09C148.339 -198.192 146.544 -196.251 144.799 -194.268L86.7635 -262.376C82.1099 -267.837 82.7696 -276.039 88.239 -280.685C94.3823 -286.033 104.264 -284.177 108.088 -277.016L150.169 -200.09Z" fill="white"/>
<path d="M167.535 -215.835C165.109 -213.916 162.732 -211.933 160.413 -209.879L115.494 -281.365C111.578 -287.591 113.465 -295.8 119.701 -299.71C126.738 -304.235 136.513 -300.864 139.301 -293.002L167.535 -215.835Z" fill="white"/>
<path d="M187.944 -229.803C184.816 -227.968 181.744 -226.042 178.743 -224.03L147.076 -296.133C144.047 -303.024 147.19 -311.056 154.092 -314.08C161.917 -317.622 171.344 -312.699 172.948 -304.292L187.944 -229.803Z" fill="white"/>
<path d="M211.553 -241.333C207.63 -239.775 203.778 -238.075 200.004 -236.241L181.091 -306.211C179.077 -313.648 183.482 -321.298 190.931 -323.302C198.372 -325.307 206.034 -320.908 208.048 -313.478C208.304 -312.529 208.453 -311.516 208.509 -310.574V-310.461L211.553 -241.333Z" fill="white"/>
<path d="M245.405 -311.127L238.453 -249.613C233.693 -248.565 229.004 -247.318 224.4 -245.888L217.029 -311.127C216.143 -318.953 221.782 -326.008 229.614 -326.893C238.595 -328.019 246.512 -320.065 245.405 -311.127Z" fill="white"/>
</mask>
<g mask="url(#mask0_0_1)">
<path d="M-30.5747 191.723H210.999C233.09 191.723 250.999 173.814 250.999 151.723V53C250.999 23.7289 227.27 -3.05176e-05 197.999 -3.05176e-05H-30.5747V191.723Z" fill="#1281AA" fill-opacity="0.59"/>
</g>
</svg>
