<svg width="317" height="172" viewBox="0 0 317 172" fill="none" xmlns="http://www.w3.org/2000/svg">
<path d="M98.8301 6.57786L95.5893 25.5548C95.4033 25.5719 95.2173 25.5891 95.0312 25.6086L97.8632 6.42366C97.9734 5.78726 98.9231 5.92678 98.8301 6.57786Z" fill="#F16622"/>
<path d="M110.951 9.55314L105.603 25.468C105.353 25.4484 105.104 25.4313 104.852 25.4166L109.813 9.18844C110.065 8.437 111.186 8.78457 110.951 9.55314Z" fill="#F16622"/>
<path d="M122.283 14.2585L115.669 27.0648C115.359 26.9865 115.048 26.913 114.734 26.8421L121.022 13.6319C121.446 12.7948 122.694 13.4042 122.283 14.2585Z" fill="#F16622"/>
<path d="M132.665 20.5309L125.508 30.4147C125.145 30.2531 124.781 30.0989 124.416 29.9472L131.333 19.6032C131.96 18.7172 133.282 19.6253 132.665 20.5309Z" fill="#F16622"/>
<path d="M141.946 28.2171L134.791 35.5185C134.397 35.2542 134.001 34.9947 133.602 34.7402L140.607 26.959C141.464 26.0656 142.788 27.2992 141.946 28.2171Z" fill="#F16622"/>
<path d="M150.434 139.673C149.746 140.615 148.368 140.757 147.502 139.976L139.451 132.797C140.244 132.151 141.02 131.483 141.779 130.795L150.015 136.882C150.901 137.536 151.09 138.787 150.434 139.673Z" fill="#F16622"/>
<path d="M142.184 148.634C141.322 149.517 139.856 149.454 139.07 148.501L130.873 138.669C131.762 138.167 132.638 137.643 133.497 137.098L142.164 145.66C142.992 146.475 142.999 147.806 142.184 148.634Z" fill="#F16622"/>
<path d="M132.693 156.329C131.66 157.122 130.138 156.831 129.467 155.717L121.664 142.894C122.606 142.554 123.541 142.191 124.462 141.805L133.119 153.23C133.858 154.205 133.668 155.593 132.693 156.329Z" fill="#F16622"/>
<path d="M122.095 162.613C120.9 163.281 119.358 162.743 118.837 161.477L112.123 145.469C113.08 145.296 114.027 145.097 114.967 144.877L123.005 159.46C123.625 160.584 123.216 161.994 122.095 162.613Z" fill="#F16622"/>
<path d="M110.531 167.322C109.187 167.834 107.667 167.031 107.327 165.638L102.529 146.451C103.457 146.431 104.38 146.39 105.298 146.326L111.958 164.202C112.425 165.457 111.786 166.855 110.531 167.322Z" fill="#F16622"/>
<path d="M98.1594 170.296C96.6884 170.617 95.2394 169.542 95.1121 168.044L93.1074 145.941C93.9641 146.056 94.8257 146.152 95.6946 146.228L100.118 167.293C100.406 168.663 99.5302 170.007 98.1594 170.296Z" fill="#F16622"/>
<path d="M85.1828 171.371C83.6114 171.471 82.2847 170.127 82.3973 168.558L84.0152 144.018C84.7838 144.245 85.5597 144.456 86.343 144.652L87.677 168.585C87.7577 170.041 86.6416 171.29 85.1828 171.371Z" fill="#F16622"/>
<path d="M77.7077 141.778L75.1964 167.978C75.052 169.491 73.7082 170.6 72.1955 170.455C70.558 170.311 69.4027 168.71 69.7723 167.109L75.6908 140.89C76.3566 141.198 77.0297 141.494 77.7077 141.778Z" fill="#F16622"/>
<path d="M70.1222 137.949L63.2197 165.552C62.8354 167.084 61.2836 168.014 59.7514 167.633C58.0845 167.229 57.147 165.393 57.7859 163.807L68.4211 136.895C68.9816 137.257 69.5495 137.607 70.1222 137.949Z" fill="#F16622"/>
<path d="M63.5249 133.393L51.9302 161.439C51.3036 162.954 49.5682 163.676 48.0531 163.049C46.4009 162.381 45.718 160.342 46.6236 158.81L62.1248 132.25C62.585 132.639 63.0525 133.021 63.5249 133.393Z" fill="#F16622"/>
<path d="M57.8455 128.284L41.4901 155.784C40.6211 157.245 38.734 157.725 37.2727 156.856C35.8114 155.987 35.3317 154.1 36.2006 152.638C36.2643 152.535 36.3377 152.428 36.4111 152.33C36.4111 152.33 36.4136 152.325 36.4185 152.32C36.4234 152.313 36.4478 152.281 36.4478 152.281L56.7196 127.102C57.0892 127.501 57.4637 127.895 57.8455 128.284Z" fill="#F16622"/>
<path d="M53.0351 122.739L32.0388 148.724C30.9325 150.092 28.9278 150.305 27.5595 149.199C26.0518 148.002 25.9808 145.674 27.4029 144.382L52.1466 121.555C52.4379 121.954 52.734 122.348 53.0351 122.739Z" fill="#F16622"/>
<path d="M49.0459 116.86L23.7074 140.392C22.3759 141.629 20.2905 141.553 19.0544 140.219C17.6837 138.77 17.9578 136.366 19.6149 135.257L48.3704 115.695C48.5907 116.087 48.8158 116.474 49.0459 116.86Z" fill="#F16622"/>
<path d="M45.846 110.717L16.6304 130.908C15.0835 131.975 12.9662 131.588 11.899 130.044C10.8294 128.497 11.2186 126.38 12.7631 125.312C12.8952 125.219 13.047 125.131 13.1889 125.06C13.1987 125.055 13.211 125.05 13.2208 125.046L45.3467 109.576C45.5082 109.958 45.6747 110.34 45.846 110.717Z" fill="#F16622"/>
<path d="M43.4111 104.363L10.9523 120.398C9.21441 121.257 7.10939 120.542 6.25025 118.804C5.28342 116.895 6.31879 114.506 8.36751 113.897L43.0635 103.239C43.1736 103.616 43.2887 103.991 43.4111 104.363Z" fill="#F16622"/>
<path d="M41.7119 97.7997L6.82499 108.995C4.92313 109.605 2.88666 108.557 2.27473 106.655C1.57959 104.555 3.00904 102.272 5.19972 101.971L41.499 96.6787C41.565 97.0532 41.636 97.4277 41.7119 97.7997Z" fill="#F16622"/>
<path d="M40.7539 91.0076L4.41305 96.8673C2.38147 97.1929 0.469822 95.8124 0.141832 93.7808C-0.244903 91.5265 1.57863 89.4166 3.86232 89.4606L40.6658 89.8596C40.6927 90.2439 40.7196 90.6257 40.7539 91.0076Z" fill="#F16622"/>
<path d="M40.6176 82.7813C40.598 83.1828 40.5809 83.5866 40.5687 83.9881L3.86555 84.294C1.7483 84.3112 0.0177852 82.6076 0.000651357 80.4903C-0.0434071 78.1307 2.15462 76.2631 4.47503 76.6768L40.6176 82.7813Z" fill="#F16622"/>
<path d="M41.3658 75.8549C41.2924 76.2882 41.2263 76.7239 41.1626 77.1596L5.19873 72.0072C3.04231 71.6988 1.54433 69.699 1.85274 67.5426C2.17338 65.1292 4.71164 63.57 7.00757 64.3606L41.3658 75.8549Z" fill="#F16622"/>
<path d="M42.9005 69.088C42.761 69.5629 42.6313 70.0377 42.5065 70.5175L8.29511 60.2861C6.15094 59.6448 4.93199 57.3881 5.57328 55.2414C6.26598 52.8305 9.1004 51.6335 11.3131 52.8011L42.9005 69.088Z" fill="#F16622"/>
<path d="M45.2364 62.4586C45.0161 62.9824 44.8032 63.5086 44.6 64.0398L13.0224 49.3169C10.9394 48.3452 10.0386 45.8681 11.0104 43.7852C12.0751 41.4329 15.1494 40.6423 17.2226 42.1746L45.2364 62.4586Z" fill="#F16622"/>
<path d="M48.4182 55.9933C48.0902 56.5686 47.772 57.1487 47.4636 57.7361L19.2368 39.2414C17.264 37.949 16.7132 35.303 18.0056 33.3302C19.4375 31.0881 22.6905 30.7454 24.5679 32.6204L48.4182 55.9933Z" fill="#F16622"/>
<path d="M52.4851 49.7598C52.0201 50.3815 51.5697 51.013 51.1291 51.6543L26.8089 30.2027C24.9927 28.602 24.8189 25.8336 26.4197 24.0199C28.2065 21.9491 31.5721 22.0813 33.1973 24.2744L52.4851 49.7598Z" fill="#F16622"/>
<path d="M57.4873 43.8583C56.8534 44.5143 56.2341 45.185 55.6344 45.8703L35.6099 22.3333C34.0017 20.4437 34.2318 17.6117 36.119 16.0036C38.2387 14.1581 41.6483 14.7969 42.9676 17.2715L57.4873 43.8583Z" fill="#F16622"/>
<path d="M63.4798 38.4147C62.6403 39.078 61.8203 39.7658 61.0199 40.4757L45.5211 15.7687C44.1724 13.6172 44.8235 10.7803 46.9726 9.4316C49.4032 7.86508 52.7761 9.03263 53.7356 11.7471L63.4798 38.4147Z" fill="#F16622"/>
<path d="M70.5192 33.5877C69.4398 34.2217 68.3799 34.8875 67.3446 35.5851L56.4181 10.6651C55.3754 8.28352 56.4597 5.50784 58.8388 4.46268C61.5411 3.23884 64.7941 4.94243 65.3448 7.84784L70.5192 33.5877Z" fill="#F16622"/>
<path d="M78.6685 29.6029C77.3149 30.1414 75.9858 30.7289 74.6837 31.3628L68.1557 7.18208C67.463 4.61445 68.983 1.97095 71.5506 1.27581C74.1207 0.58311 76.7642 2.10312 77.4569 4.67075C77.5475 4.99874 77.5964 5.35121 77.616 5.67675V5.71591L78.6685 29.6029Z" fill="#F16622"/>
<path d="M90.3498 5.48345L87.9511 26.7416C86.3087 27.1039 84.6907 27.5347 83.1022 28.0291L80.559 5.48345C80.2531 2.7812 82.1965 0.340852 84.9012 0.0373383C88 -0.354292 90.7316 2.39446 90.3498 5.48345Z" fill="#F16622"/>
<path d="M76.7657 69.0651L72.9008 45.6211H60.1777L69.7482 81.0318H82.978L93.1114 45.6211H81.4017L76.7657 69.0651Z" fill="#F16622"/>
<path d="M94.6328 52.4893H97.6165V74.2762H94.6891L94.6328 81.0318H112.817V74.2762H109.946V52.4893H112.817V45.6211H94.6891L94.6328 52.4893Z" fill="#F16622"/>
<path d="M130.921 69.0651L127.059 45.6211H114.336L123.906 81.0318H137.136L147.27 45.6211H135.56L130.921 69.0651Z" fill="#F16622"/>
<path d="M161.288 72.4184V67.408H171.14V58.9634H161.288V54.2345H172.548L172.998 45.6211H149.354V81.0318H173.054L172.886 72.4184H161.288Z" fill="#F16622"/>
<path d="M194.33 81.0311H207.897L203.45 71.6295C203.036 70.7655 202.314 69.5 201.283 67.8307C201.009 67.3877 200.738 66.9618 200.468 66.5456C201.653 65.9411 202.693 65.1505 203.592 64.1714C205.224 62.3895 206.039 59.7337 206.039 56.2042C206.039 53.5386 205.44 51.4091 204.238 49.8132C203.036 48.2173 201.244 47.0743 198.863 46.3791C196.479 45.6864 193.429 45.3389 189.713 45.3389C185.623 45.3389 182.187 45.3952 179.411 45.5078C178.51 45.5445 177.59 45.5836 176.652 45.6204V81.0311H188.812V68.4671C189.199 68.4622 189.579 68.4524 189.953 68.4402L194.33 81.0311ZM188.812 52.7872C189.246 52.7774 189.659 52.7701 190.051 52.7701C190.952 52.7701 191.627 52.9194 192.078 53.2204C192.528 53.5215 192.827 53.9817 192.978 54.5985C193.128 55.2177 193.204 56.1087 193.204 57.2738C193.204 58.549 193.052 59.489 192.753 60.0886C192.452 60.6883 192.021 61.0726 191.458 61.2415C190.895 61.4104 190.107 61.4961 189.094 61.4961C189.001 61.4961 188.905 61.4961 188.812 61.4961V52.7896V52.7872Z" fill="#F16622"/>
<path d="M80.7267 102.209C78.9252 101.384 77.5838 100.725 76.7027 100.238C75.8191 99.7513 75.2194 99.3181 74.9012 98.9436C74.583 98.5691 74.4214 98.1554 74.4214 97.705C74.4214 96.9536 74.7225 96.4102 75.3222 96.0724C75.9219 95.7346 76.7467 95.5657 77.7992 95.5657C78.9619 95.5657 80.22 95.6881 81.5711 95.9329C82.9223 96.1777 84.2171 96.5252 85.4556 96.9732L86.7504 88.3597C85.3993 87.7968 83.8695 87.3464 82.161 87.0086C80.4525 86.6708 78.6975 86.502 76.8985 86.502C73.67 86.502 70.9506 87.0086 68.7354 88.022C66.5203 89.0353 64.8705 90.3962 63.7813 92.1023C62.6921 93.8108 62.1487 95.6955 62.1487 97.7613C62.1487 99.3744 62.4571 100.782 63.0764 101.984C63.6957 103.185 64.5768 104.255 65.7223 105.193C66.8679 106.13 68.3414 107.087 70.1429 108.064C71.6066 108.852 72.6762 109.461 73.3518 109.895C74.0273 110.325 74.5144 110.729 74.8155 111.104C75.1141 111.481 75.2659 111.931 75.2659 112.455C75.2659 113.206 75.0113 113.74 74.5047 114.058C73.998 114.376 73.2 114.538 72.1108 114.538C70.8723 114.538 69.4453 114.369 67.8322 114.031C66.2192 113.693 64.474 113.206 62.5966 112.567L61.4707 120.899C63.3481 121.724 65.2328 122.343 67.1273 122.757C69.0218 123.171 71.1538 123.376 73.5158 123.376C77.9828 123.376 81.5197 122.39 84.129 120.42C86.7382 118.449 88.0428 115.588 88.0428 111.833C88.0428 109.432 87.4138 107.488 86.1556 106.008C84.8975 104.524 83.0862 103.259 80.7218 102.206L80.7267 102.209Z" fill="#F16622"/>
<path d="M97.5793 92.7754L88.748 122.645H99.8116L100.578 118.038H106.606L107.456 122.645H118.235L109.642 92.7754H97.5793ZM101.787 110.773L103.437 100.853L105.268 110.773H101.787Z" fill="#F16622"/>
<path d="M99.9294 89.7358C100.326 89.3882 100.744 89.2144 101.187 89.2144C101.503 89.2144 101.861 89.2781 102.255 89.4054C102.651 89.5326 103.038 89.6746 103.417 89.8337C104.144 90.1176 104.803 90.3404 105.388 90.4995C105.973 90.6586 106.599 90.7369 107.263 90.7369C108.687 90.7369 109.899 90.2082 110.895 89.1459C111.891 88.0861 112.692 86.5269 113.294 84.4684L107.833 82.7109V82.7574C107.422 83.4869 107.089 84.0009 106.837 84.2995C106.582 84.6006 106.266 84.7499 105.887 84.7499C105.632 84.7499 105.324 84.6862 104.962 84.5589C104.597 84.4317 104.242 84.275 103.892 84.0841C103.133 83.7683 102.46 83.5138 101.875 83.3253C101.29 83.1344 100.664 83.0414 100 83.0414C98.5758 83.0414 97.3324 83.5407 96.2725 84.5369C95.2127 85.5331 94.3168 86.872 93.5898 88.5487L98.7178 91.3513C99.129 90.6243 99.5328 90.0858 99.9294 89.7358Z" fill="#F16622"/>
<path d="M135.109 86.4995C131.579 86.4995 128.475 87.2216 125.79 88.6682C123.107 90.1123 121.034 92.2149 119.571 94.9734C118.107 97.732 117.375 101.024 117.375 104.855C117.375 110.746 118.802 115.306 121.654 118.535C124.505 121.763 128.823 123.376 134.602 123.376C138.129 123.376 141.169 122.598 143.722 121.039C146.275 119.482 148.226 117.277 149.577 114.423C150.928 111.571 151.603 108.25 151.603 104.458C151.603 98.7527 150.186 94.3346 147.354 91.1991C144.52 88.066 140.44 86.4971 135.109 86.4971V86.4995ZM137.98 111.273C137.679 112.773 137.275 113.769 136.77 114.256C136.264 114.743 135.598 114.988 134.771 114.988C133.87 114.988 133.138 114.753 132.575 114.283C132.012 113.813 131.572 112.839 131.251 111.356C130.933 109.873 130.771 107.687 130.771 104.796C130.771 101.23 131.119 98.8383 131.814 97.6169C132.507 96.398 133.456 95.7885 134.656 95.7885C136.007 95.7885 136.974 96.4273 137.554 97.7026C138.136 98.9778 138.428 101.286 138.428 104.627C138.428 107.555 138.278 109.77 137.977 111.27L137.98 111.273Z" fill="#F16622"/>
<path d="M190.109 92.6099C189.245 90.8647 187.632 89.4768 185.268 88.4439C182.903 87.411 179.562 86.8945 175.247 86.8945C172.469 86.8945 169.279 86.9704 165.676 87.1197C165.038 87.1197 164.007 87.1564 162.58 87.2323V122.643H174.74V112.098C175.521 112.111 176.253 112.116 176.936 112.116C181.814 112.116 185.446 110.887 187.83 108.427C190.212 105.969 191.404 102.807 191.404 98.9396C191.404 96.4625 190.973 94.3502 190.109 92.605V92.6099ZM178.147 103.194C177.979 103.926 177.687 104.422 177.276 104.684C176.862 104.946 176.263 105.078 175.475 105.078C175.23 105.078 174.987 105.074 174.743 105.071V94.3331C175.012 94.3282 175.276 94.3257 175.531 94.3257C176.282 94.3257 176.855 94.4775 177.249 94.7761C177.643 95.0772 177.934 95.6205 178.12 96.4087C178.309 97.1969 178.402 98.3424 178.402 99.8428C178.402 101.343 178.316 102.462 178.147 103.194Z" fill="#F16622"/>
<path d="M199.342 87.2305L188.871 122.641H201.988L202.896 117.18H210.044L211.05 122.641H223.829L213.639 87.2305H199.34H199.342ZM204.331 108.569L206.289 96.8058L208.458 108.569H204.331Z" fill="#F16622"/>
<path d="M242.298 110.428C242.298 111.892 242.082 112.952 241.652 113.61C241.218 114.266 240.479 114.597 239.427 114.597C238.301 114.597 237.532 114.259 237.119 113.583C236.705 112.908 236.499 111.706 236.499 109.98V87.2363H224.227V108.404C224.227 113.209 225.465 116.905 227.942 119.494C230.419 122.084 234.247 123.379 239.427 123.379C244.606 123.379 248.133 122.104 250.686 119.551C253.239 117 254.514 113.265 254.514 108.348V87.2363H242.298V110.431V110.428Z" fill="#F16622"/>
<path d="M271.177 113.974V87.2305H258.848V122.644H281.929L281.704 113.974H271.177Z" fill="#F16622"/>
<path d="M312.472 91.201C309.638 88.068 305.557 86.499 300.226 86.499C296.697 86.499 293.593 87.2211 290.908 88.6677C288.225 90.1118 286.152 92.2144 284.686 94.9729C283.222 97.7315 282.49 101.024 282.49 104.854C282.49 110.746 283.917 115.306 286.769 118.534C289.62 121.763 293.938 123.376 299.717 123.376C303.244 123.376 306.284 122.598 308.837 121.038C311.39 119.482 313.341 117.276 314.692 114.422C316.043 111.571 316.719 108.249 316.719 104.458C316.719 98.7522 315.302 94.3341 312.47 91.1986L312.472 91.201ZM303.097 111.272C302.796 112.773 302.392 113.769 301.888 114.256C301.382 114.743 300.716 114.988 299.888 114.988C298.988 114.988 298.256 114.753 297.693 114.283C297.13 113.813 296.689 112.839 296.369 111.355C296.05 109.872 295.889 107.686 295.889 104.796C295.889 101.229 296.236 98.8378 296.932 97.6164C297.627 96.3975 298.574 95.788 299.776 95.788C301.127 95.788 302.091 96.4268 302.674 97.7021C303.256 98.9773 303.548 101.286 303.548 104.627C303.548 107.554 303.396 109.769 303.097 111.27V111.272Z" fill="#F16622"/>
</svg>
