<svg width="42" height="42" viewBox="0 0 42 42" fill="none" xmlns="http://www.w3.org/2000/svg">
<path d="M41.0903 21.0005C41.0903 32.599 31.8919 42.0011 20.5446 42.0011C9.1984 42 0 32.598 0 21.0005C0 9.40204 9.1984 0 20.5457 0C31.893 0 41.0914 9.40204 41.0914 21.0005H41.0903Z" fill="#F16622"/>
<path d="M26.6326 19.3707L26.2903 22.1802C26.2324 22.6495 25.8435 23.0025 25.3823 23.0025H20.9305V34.749C20.461 34.7923 19.9853 34.8145 19.5044 34.8145C18.429 34.8145 17.3793 34.7046 16.3649 34.4953V23.0025H12.9409C12.6266 23.0025 12.3701 22.7393 12.3701 22.417V18.9014C12.3701 18.579 12.6266 18.3158 12.9409 18.3158H16.3649V13.0435C16.3649 9.80797 18.9202 7.18555 22.0732 7.18555H26.0679C26.3823 7.18555 26.6388 7.44874 26.6388 7.77113V11.2867C26.6388 11.6091 26.3823 11.8723 26.0679 11.8723H23.2138C21.9532 11.8723 20.9315 12.9208 20.9315 14.2157V18.3168H25.7256C26.2758 18.3168 26.7008 18.8115 26.6336 19.3717L26.6326 19.3707Z" fill="#EBF0F4"/>
</svg>
