<svg width="42" height="42" viewBox="0 0 42 42" fill="none" xmlns="http://www.w3.org/2000/svg">
<path d="M41.3638 21.0005C41.3638 32.599 32.1654 42.0011 20.8182 42.0011C9.47087 42.0011 0.272461 32.599 0.272461 21.0005C0.272461 9.40204 9.47087 0 20.8182 0C32.1654 0 41.3638 9.40204 41.3638 21.0005Z" fill="#F16622"/>
<path d="M26.3931 9.98438H15.2444C12.3716 9.98438 10.0417 12.3658 10.0417 15.3022V26.6977C10.0417 29.6341 12.3716 32.0155 15.2444 32.0155H26.3931C29.2658 32.0155 31.5957 29.6341 31.5957 26.6977V15.3022C31.5957 12.3658 29.2658 9.98438 26.3931 9.98438ZM29.7374 26.3182C29.7374 28.4153 28.0725 30.1171 26.0208 30.1171H15.6156C13.5639 30.1171 11.899 28.4153 11.899 26.3182V15.6827C11.899 13.5856 13.5639 11.8838 15.6156 11.8838H26.0208C28.0725 11.8838 29.7374 13.5856 29.7374 15.6827V26.3182Z" fill="#EBF0F4"/>
<path d="M20.8285 15.3018C17.752 15.3018 15.2546 17.8544 15.2546 20.999C15.2546 24.1436 17.752 26.6962 20.8285 26.6962C23.905 26.6962 26.4023 24.1436 26.4023 20.999C26.4023 17.8544 23.905 15.3018 20.8285 15.3018ZM20.8285 24.7979C18.781 24.7979 17.1119 23.0919 17.1119 20.999C17.1119 18.9061 18.781 17.2001 20.8285 17.2001C22.876 17.2001 24.5451 18.9061 24.5451 20.999C24.5451 23.0919 22.876 24.7979 20.8285 24.7979Z" fill="#EBF0F4"/>
<path d="M26.7747 16.0621C26.1604 16.0621 25.6599 15.5505 25.6599 14.9227C25.6599 14.2948 26.1604 13.7832 26.7747 13.7832C27.3889 13.7832 27.8895 14.2948 27.8895 14.9227C27.8895 15.5505 27.3889 16.0621 26.7747 16.0621Z" fill="#EBF0F4"/>
</svg>
