<svg width="42" height="42" viewBox="0 0 42 42" fill="none" xmlns="http://www.w3.org/2000/svg">
<path d="M42.0001 21.0005C42.0001 32.599 32.8017 42.0011 21.4544 42.0011C10.1071 42.0011 0.908691 32.599 0.908691 21.0005C0.908691 9.40204 10.1071 0 21.4544 0C32.8017 0 42.0001 9.40204 42.0001 21.0005Z" fill="#F16622"/>
<path d="M30.3095 12.1016H12.6014C10.8517 12.1016 9.43286 13.5518 9.43286 15.3392V26.6597C9.43286 28.4481 10.8517 29.8973 12.6014 29.8973H30.3095C32.0581 29.8973 33.4769 28.4481 33.4769 26.6597V15.3392C33.4769 13.5518 32.0581 12.1016 30.3095 12.1016ZM24.2992 21.7816L19.3748 24.2973C18.806 24.5879 18.138 24.1662 18.138 23.5172V18.4859C18.138 17.8369 18.8071 17.4151 19.3748 17.7047L24.2992 20.2204C24.928 20.5417 24.928 21.4603 24.2992 21.7816Z" fill="#EBF0F4"/>
</svg>
